M48
; DRILL file {KiCad (5.1.12)-1} date 03/20/22 11:52:18
; FORMAT={-:-/ absolute / metric / decimal}
; #@! TF.CreationDate,2022-03-20T11:52:18+09:00
; #@! TF.GenerationSoftware,Kicad,Pcbnew,(5.1.12)-1
; #@! TF.FileFunction,Plated,1,2,PTH
FMAT,2
METRIC
T1C0.300
T2C0.600
T3C0.700
T4C1.000
%
G90
G05
T1
X51.5Y-55.0
X53.0Y-63.5
X57.5Y-55.0
X58.5Y-55.5
X60.5Y-55.0
X72.5Y-55.0
X75.0Y-55.0
X86.0Y-55.0
X87.0Y-52.0
X88.5Y-55.0
X100.0Y-55.0
X102.5Y-51.5
X107.0Y-59.5
T3
X99.87Y-61.69
X104.95Y-61.69
T4
X91.0Y-61.69
X93.54Y-61.69
T2
G00X45.36Y-61.18
M15
G01X46.16Y-61.18
M16
G05
G00X45.36Y-69.82
M15
G01X46.16Y-69.82
M16
G05
G00X49.38Y-61.18
M15
G01X50.48Y-61.18
M16
G05
G00X49.38Y-69.82
M15
G01X50.48Y-69.82
M16
G05
G00X54.91Y-48.35
M15
G01X54.91Y-49.15
M16
G05
G00X54.91Y-52.37
M15
G01X54.91Y-53.47
M16
G05
G00X63.55Y-48.35
M15
G01X63.55Y-49.15
M16
G05
G00X63.55Y-52.37
M15
G01X63.55Y-53.47
M16
G05
G00X69.2Y-48.35
M15
G01X69.2Y-49.15
M16
G05
G00X69.2Y-52.37
M15
G01X69.2Y-53.47
M16
G05
G00X77.84Y-48.35
M15
G01X77.84Y-49.15
M16
G05
G00X77.84Y-52.37
M15
G01X77.84Y-53.47
M16
G05
G00X82.85Y-48.35
M15
G01X82.85Y-49.15
M16
G05
G00X82.85Y-52.37
M15
G01X82.85Y-53.47
M16
G05
G00X91.49Y-48.35
M15
G01X91.49Y-49.15
M16
G05
G00X91.49Y-52.37
M15
G01X91.49Y-53.47
M16
G05
G00X96.82Y-48.35
M15
G01X96.82Y-49.15
M16
G05
G00X96.82Y-52.37
M15
G01X96.82Y-53.47
M16
G05
G00X105.46Y-48.35
M15
G01X105.46Y-49.15
M16
G05
G00X105.46Y-52.37
M15
G01X105.46Y-53.47
M16
G05
G00X110.62Y-61.18
M15
G01X109.52Y-61.18
M16
G05
G00X110.62Y-69.82
M15
G01X109.52Y-69.82
M16
G05
G00X114.64Y-61.18
M15
G01X113.84Y-61.18
M16
G05
G00X114.64Y-69.82
M15
G01X113.84Y-69.82
M16
G05
T0
M30
