M48
METRIC,TZ
T1C0.300
T2C0.600
T3C0.700
T4C1.000
%
G90
G05
T1
X8500Y27000
X10000Y18500
X14500Y27000
X15500Y26500
X17500Y27000
X29500Y27000
X32000Y27000
X43000Y27000
X44000Y30000
X45500Y27000
X57000Y27000
X59500Y30500
X64000Y22500
T3
X56870Y20310
X61950Y20310
T4
X48000Y20310
X50540Y20310
T2
G00X2360Y20820
M15
G01X3160Y20820
M16
G05
G00X2360Y12180
M15
G01X3160Y12180
M16
G05
G00X6380Y20820
M15
G01X7480Y20820
M16
G05
G00X6380Y12180
M15
G01X7480Y12180
M16
G05
G00X11910Y33650
M15
G01X11910Y32850
M16
G05
G00X11910Y29630
M15
G01X11910Y28530
M16
G05
G00X20550Y33650
M15
G01X20550Y32850
M16
G05
G00X20550Y29630
M15
G01X20550Y28530
M16
G05
G00X26200Y33650
M15
G01X26200Y32850
M16
G05
G00X26200Y29630
M15
G01X26200Y28530
M16
G05
G00X34840Y33650
M15
G01X34840Y32850
M16
G05
G00X34840Y29630
M15
G01X34840Y28530
M16
G05
G00X39850Y33650
M15
G01X39850Y32850
M16
G05
G00X39850Y29630
M15
G01X39850Y28530
M16
G05
G00X48490Y33650
M15
G01X48490Y32850
M16
G05
G00X48490Y29630
M15
G01X48490Y28530
M16
G05
G00X53820Y33650
M15
G01X53820Y32850
M16
G05
G00X53820Y29630
M15
G01X53820Y28530
M16
G05
G00X62460Y33650
M15
G01X62460Y32850
M16
G05
G00X62460Y29630
M15
G01X62460Y28530
M16
G05
G00X67620Y20820
M15
G01X66520Y20820
M16
G05
G00X67620Y12180
M15
G01X66520Y12180
M16
G05
G00X71640Y20820
M15
G01X70840Y20820
M16
G05
G00X71640Y12180
M15
G01X70840Y12180
M16
G05
T0
M30
