%TF.GenerationSoftware,KiCad,Pcbnew,(5.1.12)-1*%
%TF.CreationDate,2022-03-20T11:52:14+09:00*%
%TF.ProjectId,NHK2022_usbc,4e484b32-3032-4325-9f75-7362632e6b69,rev?*%
%TF.SameCoordinates,PX29020c0PY4e33880*%
%TF.FileFunction,Soldermask,Top*%
%TF.FilePolarity,Negative*%
%FSLAX46Y46*%
G04 Gerber Fmt 4.6, Leading zero omitted, Abs format (unit mm)*
G04 Created by KiCad (PCBNEW (5.1.12)-1) date 2022-03-20 11:52:14*
%MOMM*%
%LPD*%
G01*
G04 APERTURE LIST*
%TA.AperFunction,Profile*%
%ADD10C,0.050000*%
%TD*%
%ADD11C,3.302000*%
%ADD12O,1.502000X1.502000*%
%ADD13C,1.502000*%
%ADD14O,1.802000X1.802000*%
%ADD15C,0.702000*%
%ADD16O,1.002000X1.802000*%
%ADD17O,1.002000X2.102000*%
%ADD18O,1.802000X1.002000*%
%ADD19O,2.102000X1.002000*%
%ADD20C,0.100000*%
G04 APERTURE END LIST*
D10*
X43000000Y-50000000D02*
X43000000Y-78000000D01*
X47000000Y-82000000D02*
G75*
G02*
X43000000Y-78000000I0J4000000D01*
G01*
X43000000Y-50000000D02*
G75*
G02*
X47000000Y-46000000I4000000J0D01*
G01*
X117000000Y-50000000D02*
X117000000Y-78000000D01*
X117000000Y-78000000D02*
G75*
G02*
X113000000Y-82000000I-4000000J0D01*
G01*
X113000000Y-46000000D02*
G75*
G02*
X117000000Y-50000000I0J-4000000D01*
G01*
X113000000Y-46000000D02*
X47000000Y-46000000D01*
X47000000Y-82000000D02*
X113000000Y-82000000D01*
X43000000Y-50000000D02*
X43000000Y-78000000D01*
X47000000Y-82000000D02*
G75*
G02*
X43000000Y-78000000I0J4000000D01*
G01*
X43000000Y-50000000D02*
G75*
G02*
X47000000Y-46000000I4000000J0D01*
G01*
X117000000Y-50000000D02*
X117000000Y-78000000D01*
X117000000Y-78000000D02*
G75*
G02*
X113000000Y-82000000I-4000000J0D01*
G01*
X113000000Y-46000000D02*
G75*
G02*
X117000000Y-50000000I0J-4000000D01*
G01*
X113000000Y-46000000D02*
X47000000Y-46000000D01*
X47000000Y-82000000D02*
X113000000Y-82000000D01*
D11*
%TO.C,REF\u002A\u002A*%
X113000000Y-78000000D03*
%TD*%
%TO.C,REF\u002A\u002A*%
X47000000Y-78000000D03*
%TD*%
%TO.C,REF\u002A\u002A*%
X113000000Y-50000000D03*
%TD*%
%TO.C,REF\u002A\u002A*%
X47000000Y-50000000D03*
%TD*%
D12*
%TO.C,R1*%
X99870000Y-61690000D03*
D13*
X104950000Y-61690000D03*
%TD*%
D14*
%TO.C,JP1*%
X93540000Y-61690000D03*
G36*
G01*
X91850000Y-62591000D02*
X90150000Y-62591000D01*
G75*
G02*
X90099000Y-62540000I0J51000D01*
G01*
X90099000Y-60840000D01*
G75*
G02*
X90150000Y-60789000I51000J0D01*
G01*
X91850000Y-60789000D01*
G75*
G02*
X91901000Y-60840000I0J-51000D01*
G01*
X91901000Y-62540000D01*
G75*
G02*
X91850000Y-62591000I-51000J0D01*
G01*
G37*
%TD*%
%TO.C,J4*%
G36*
G01*
X84321000Y-52920000D02*
X84321000Y-54080000D01*
G75*
G02*
X84270000Y-54131000I-51000J0D01*
G01*
X83670000Y-54131000D01*
G75*
G02*
X83619000Y-54080000I0J51000D01*
G01*
X83619000Y-52920000D01*
G75*
G02*
X83670000Y-52869000I51000J0D01*
G01*
X84270000Y-52869000D01*
G75*
G02*
X84321000Y-52920000I0J-51000D01*
G01*
G37*
G36*
G01*
X85121000Y-52920000D02*
X85121000Y-54080000D01*
G75*
G02*
X85070000Y-54131000I-51000J0D01*
G01*
X84470000Y-54131000D01*
G75*
G02*
X84419000Y-54080000I0J51000D01*
G01*
X84419000Y-52920000D01*
G75*
G02*
X84470000Y-52869000I51000J0D01*
G01*
X85070000Y-52869000D01*
G75*
G02*
X85121000Y-52920000I0J-51000D01*
G01*
G37*
G36*
G01*
X84321000Y-52920000D02*
X84321000Y-54080000D01*
G75*
G02*
X84270000Y-54131000I-51000J0D01*
G01*
X83670000Y-54131000D01*
G75*
G02*
X83619000Y-54080000I0J51000D01*
G01*
X83619000Y-52920000D01*
G75*
G02*
X83670000Y-52869000I51000J0D01*
G01*
X84270000Y-52869000D01*
G75*
G02*
X84321000Y-52920000I0J-51000D01*
G01*
G37*
G36*
G01*
X85121000Y-52920000D02*
X85121000Y-54080000D01*
G75*
G02*
X85070000Y-54131000I-51000J0D01*
G01*
X84470000Y-54131000D01*
G75*
G02*
X84419000Y-54080000I0J51000D01*
G01*
X84419000Y-52920000D01*
G75*
G02*
X84470000Y-52869000I51000J0D01*
G01*
X85070000Y-52869000D01*
G75*
G02*
X85121000Y-52920000I0J-51000D01*
G01*
G37*
G36*
G01*
X90721000Y-52920000D02*
X90721000Y-54080000D01*
G75*
G02*
X90670000Y-54131000I-51000J0D01*
G01*
X90070000Y-54131000D01*
G75*
G02*
X90019000Y-54080000I0J51000D01*
G01*
X90019000Y-52920000D01*
G75*
G02*
X90070000Y-52869000I51000J0D01*
G01*
X90670000Y-52869000D01*
G75*
G02*
X90721000Y-52920000I0J-51000D01*
G01*
G37*
G36*
G01*
X90721000Y-52920000D02*
X90721000Y-54080000D01*
G75*
G02*
X90670000Y-54131000I-51000J0D01*
G01*
X90070000Y-54131000D01*
G75*
G02*
X90019000Y-54080000I0J51000D01*
G01*
X90019000Y-52920000D01*
G75*
G02*
X90070000Y-52869000I51000J0D01*
G01*
X90670000Y-52869000D01*
G75*
G02*
X90721000Y-52920000I0J-51000D01*
G01*
G37*
G36*
G01*
X89921000Y-52920000D02*
X89921000Y-54080000D01*
G75*
G02*
X89870000Y-54131000I-51000J0D01*
G01*
X89270000Y-54131000D01*
G75*
G02*
X89219000Y-54080000I0J51000D01*
G01*
X89219000Y-52920000D01*
G75*
G02*
X89270000Y-52869000I51000J0D01*
G01*
X89870000Y-52869000D01*
G75*
G02*
X89921000Y-52920000I0J-51000D01*
G01*
G37*
G36*
G01*
X89921000Y-52920000D02*
X89921000Y-54080000D01*
G75*
G02*
X89870000Y-54131000I-51000J0D01*
G01*
X89270000Y-54131000D01*
G75*
G02*
X89219000Y-54080000I0J51000D01*
G01*
X89219000Y-52920000D01*
G75*
G02*
X89270000Y-52869000I51000J0D01*
G01*
X89870000Y-52869000D01*
G75*
G02*
X89921000Y-52920000I0J-51000D01*
G01*
G37*
D15*
X90060000Y-52440000D03*
X84280000Y-52440000D03*
G36*
G01*
X85219000Y-54080000D02*
X85219000Y-52920000D01*
G75*
G02*
X85270000Y-52869000I51000J0D01*
G01*
X85570000Y-52869000D01*
G75*
G02*
X85621000Y-52920000I0J-51000D01*
G01*
X85621000Y-54080000D01*
G75*
G02*
X85570000Y-54131000I-51000J0D01*
G01*
X85270000Y-54131000D01*
G75*
G02*
X85219000Y-54080000I0J51000D01*
G01*
G37*
G36*
G01*
X86219000Y-54080000D02*
X86219000Y-52920000D01*
G75*
G02*
X86270000Y-52869000I51000J0D01*
G01*
X86570000Y-52869000D01*
G75*
G02*
X86621000Y-52920000I0J-51000D01*
G01*
X86621000Y-54080000D01*
G75*
G02*
X86570000Y-54131000I-51000J0D01*
G01*
X86270000Y-54131000D01*
G75*
G02*
X86219000Y-54080000I0J51000D01*
G01*
G37*
G36*
G01*
X85719000Y-54080000D02*
X85719000Y-52920000D01*
G75*
G02*
X85770000Y-52869000I51000J0D01*
G01*
X86070000Y-52869000D01*
G75*
G02*
X86121000Y-52920000I0J-51000D01*
G01*
X86121000Y-54080000D01*
G75*
G02*
X86070000Y-54131000I-51000J0D01*
G01*
X85770000Y-54131000D01*
G75*
G02*
X85719000Y-54080000I0J51000D01*
G01*
G37*
G36*
G01*
X88219000Y-54080000D02*
X88219000Y-52920000D01*
G75*
G02*
X88270000Y-52869000I51000J0D01*
G01*
X88570000Y-52869000D01*
G75*
G02*
X88621000Y-52920000I0J-51000D01*
G01*
X88621000Y-54080000D01*
G75*
G02*
X88570000Y-54131000I-51000J0D01*
G01*
X88270000Y-54131000D01*
G75*
G02*
X88219000Y-54080000I0J51000D01*
G01*
G37*
G36*
G01*
X88719000Y-54080000D02*
X88719000Y-52920000D01*
G75*
G02*
X88770000Y-52869000I51000J0D01*
G01*
X89070000Y-52869000D01*
G75*
G02*
X89121000Y-52920000I0J-51000D01*
G01*
X89121000Y-54080000D01*
G75*
G02*
X89070000Y-54131000I-51000J0D01*
G01*
X88770000Y-54131000D01*
G75*
G02*
X88719000Y-54080000I0J51000D01*
G01*
G37*
G36*
G01*
X86719000Y-54080000D02*
X86719000Y-52920000D01*
G75*
G02*
X86770000Y-52869000I51000J0D01*
G01*
X87070000Y-52869000D01*
G75*
G02*
X87121000Y-52920000I0J-51000D01*
G01*
X87121000Y-54080000D01*
G75*
G02*
X87070000Y-54131000I-51000J0D01*
G01*
X86770000Y-54131000D01*
G75*
G02*
X86719000Y-54080000I0J51000D01*
G01*
G37*
G36*
G01*
X87219000Y-54080000D02*
X87219000Y-52920000D01*
G75*
G02*
X87270000Y-52869000I51000J0D01*
G01*
X87570000Y-52869000D01*
G75*
G02*
X87621000Y-52920000I0J-51000D01*
G01*
X87621000Y-54080000D01*
G75*
G02*
X87570000Y-54131000I-51000J0D01*
G01*
X87270000Y-54131000D01*
G75*
G02*
X87219000Y-54080000I0J51000D01*
G01*
G37*
G36*
G01*
X87719000Y-54080000D02*
X87719000Y-52920000D01*
G75*
G02*
X87770000Y-52869000I51000J0D01*
G01*
X88070000Y-52869000D01*
G75*
G02*
X88121000Y-52920000I0J-51000D01*
G01*
X88121000Y-54080000D01*
G75*
G02*
X88070000Y-54131000I-51000J0D01*
G01*
X87770000Y-54131000D01*
G75*
G02*
X87719000Y-54080000I0J51000D01*
G01*
G37*
D16*
X82850000Y-48750000D03*
X91490000Y-48750000D03*
D17*
X82850000Y-52920000D03*
X91490000Y-52920000D03*
%TD*%
%TO.C,J5*%
G36*
G01*
X98291000Y-52920000D02*
X98291000Y-54080000D01*
G75*
G02*
X98240000Y-54131000I-51000J0D01*
G01*
X97640000Y-54131000D01*
G75*
G02*
X97589000Y-54080000I0J51000D01*
G01*
X97589000Y-52920000D01*
G75*
G02*
X97640000Y-52869000I51000J0D01*
G01*
X98240000Y-52869000D01*
G75*
G02*
X98291000Y-52920000I0J-51000D01*
G01*
G37*
G36*
G01*
X99091000Y-52920000D02*
X99091000Y-54080000D01*
G75*
G02*
X99040000Y-54131000I-51000J0D01*
G01*
X98440000Y-54131000D01*
G75*
G02*
X98389000Y-54080000I0J51000D01*
G01*
X98389000Y-52920000D01*
G75*
G02*
X98440000Y-52869000I51000J0D01*
G01*
X99040000Y-52869000D01*
G75*
G02*
X99091000Y-52920000I0J-51000D01*
G01*
G37*
G36*
G01*
X98291000Y-52920000D02*
X98291000Y-54080000D01*
G75*
G02*
X98240000Y-54131000I-51000J0D01*
G01*
X97640000Y-54131000D01*
G75*
G02*
X97589000Y-54080000I0J51000D01*
G01*
X97589000Y-52920000D01*
G75*
G02*
X97640000Y-52869000I51000J0D01*
G01*
X98240000Y-52869000D01*
G75*
G02*
X98291000Y-52920000I0J-51000D01*
G01*
G37*
G36*
G01*
X99091000Y-52920000D02*
X99091000Y-54080000D01*
G75*
G02*
X99040000Y-54131000I-51000J0D01*
G01*
X98440000Y-54131000D01*
G75*
G02*
X98389000Y-54080000I0J51000D01*
G01*
X98389000Y-52920000D01*
G75*
G02*
X98440000Y-52869000I51000J0D01*
G01*
X99040000Y-52869000D01*
G75*
G02*
X99091000Y-52920000I0J-51000D01*
G01*
G37*
G36*
G01*
X104691000Y-52920000D02*
X104691000Y-54080000D01*
G75*
G02*
X104640000Y-54131000I-51000J0D01*
G01*
X104040000Y-54131000D01*
G75*
G02*
X103989000Y-54080000I0J51000D01*
G01*
X103989000Y-52920000D01*
G75*
G02*
X104040000Y-52869000I51000J0D01*
G01*
X104640000Y-52869000D01*
G75*
G02*
X104691000Y-52920000I0J-51000D01*
G01*
G37*
G36*
G01*
X104691000Y-52920000D02*
X104691000Y-54080000D01*
G75*
G02*
X104640000Y-54131000I-51000J0D01*
G01*
X104040000Y-54131000D01*
G75*
G02*
X103989000Y-54080000I0J51000D01*
G01*
X103989000Y-52920000D01*
G75*
G02*
X104040000Y-52869000I51000J0D01*
G01*
X104640000Y-52869000D01*
G75*
G02*
X104691000Y-52920000I0J-51000D01*
G01*
G37*
G36*
G01*
X103891000Y-52920000D02*
X103891000Y-54080000D01*
G75*
G02*
X103840000Y-54131000I-51000J0D01*
G01*
X103240000Y-54131000D01*
G75*
G02*
X103189000Y-54080000I0J51000D01*
G01*
X103189000Y-52920000D01*
G75*
G02*
X103240000Y-52869000I51000J0D01*
G01*
X103840000Y-52869000D01*
G75*
G02*
X103891000Y-52920000I0J-51000D01*
G01*
G37*
G36*
G01*
X103891000Y-52920000D02*
X103891000Y-54080000D01*
G75*
G02*
X103840000Y-54131000I-51000J0D01*
G01*
X103240000Y-54131000D01*
G75*
G02*
X103189000Y-54080000I0J51000D01*
G01*
X103189000Y-52920000D01*
G75*
G02*
X103240000Y-52869000I51000J0D01*
G01*
X103840000Y-52869000D01*
G75*
G02*
X103891000Y-52920000I0J-51000D01*
G01*
G37*
D15*
X104030000Y-52440000D03*
X98250000Y-52440000D03*
G36*
G01*
X99189000Y-54080000D02*
X99189000Y-52920000D01*
G75*
G02*
X99240000Y-52869000I51000J0D01*
G01*
X99540000Y-52869000D01*
G75*
G02*
X99591000Y-52920000I0J-51000D01*
G01*
X99591000Y-54080000D01*
G75*
G02*
X99540000Y-54131000I-51000J0D01*
G01*
X99240000Y-54131000D01*
G75*
G02*
X99189000Y-54080000I0J51000D01*
G01*
G37*
G36*
G01*
X100189000Y-54080000D02*
X100189000Y-52920000D01*
G75*
G02*
X100240000Y-52869000I51000J0D01*
G01*
X100540000Y-52869000D01*
G75*
G02*
X100591000Y-52920000I0J-51000D01*
G01*
X100591000Y-54080000D01*
G75*
G02*
X100540000Y-54131000I-51000J0D01*
G01*
X100240000Y-54131000D01*
G75*
G02*
X100189000Y-54080000I0J51000D01*
G01*
G37*
G36*
G01*
X99689000Y-54080000D02*
X99689000Y-52920000D01*
G75*
G02*
X99740000Y-52869000I51000J0D01*
G01*
X100040000Y-52869000D01*
G75*
G02*
X100091000Y-52920000I0J-51000D01*
G01*
X100091000Y-54080000D01*
G75*
G02*
X100040000Y-54131000I-51000J0D01*
G01*
X99740000Y-54131000D01*
G75*
G02*
X99689000Y-54080000I0J51000D01*
G01*
G37*
G36*
G01*
X102189000Y-54080000D02*
X102189000Y-52920000D01*
G75*
G02*
X102240000Y-52869000I51000J0D01*
G01*
X102540000Y-52869000D01*
G75*
G02*
X102591000Y-52920000I0J-51000D01*
G01*
X102591000Y-54080000D01*
G75*
G02*
X102540000Y-54131000I-51000J0D01*
G01*
X102240000Y-54131000D01*
G75*
G02*
X102189000Y-54080000I0J51000D01*
G01*
G37*
G36*
G01*
X102689000Y-54080000D02*
X102689000Y-52920000D01*
G75*
G02*
X102740000Y-52869000I51000J0D01*
G01*
X103040000Y-52869000D01*
G75*
G02*
X103091000Y-52920000I0J-51000D01*
G01*
X103091000Y-54080000D01*
G75*
G02*
X103040000Y-54131000I-51000J0D01*
G01*
X102740000Y-54131000D01*
G75*
G02*
X102689000Y-54080000I0J51000D01*
G01*
G37*
G36*
G01*
X100689000Y-54080000D02*
X100689000Y-52920000D01*
G75*
G02*
X100740000Y-52869000I51000J0D01*
G01*
X101040000Y-52869000D01*
G75*
G02*
X101091000Y-52920000I0J-51000D01*
G01*
X101091000Y-54080000D01*
G75*
G02*
X101040000Y-54131000I-51000J0D01*
G01*
X100740000Y-54131000D01*
G75*
G02*
X100689000Y-54080000I0J51000D01*
G01*
G37*
G36*
G01*
X101189000Y-54080000D02*
X101189000Y-52920000D01*
G75*
G02*
X101240000Y-52869000I51000J0D01*
G01*
X101540000Y-52869000D01*
G75*
G02*
X101591000Y-52920000I0J-51000D01*
G01*
X101591000Y-54080000D01*
G75*
G02*
X101540000Y-54131000I-51000J0D01*
G01*
X101240000Y-54131000D01*
G75*
G02*
X101189000Y-54080000I0J51000D01*
G01*
G37*
G36*
G01*
X101689000Y-54080000D02*
X101689000Y-52920000D01*
G75*
G02*
X101740000Y-52869000I51000J0D01*
G01*
X102040000Y-52869000D01*
G75*
G02*
X102091000Y-52920000I0J-51000D01*
G01*
X102091000Y-54080000D01*
G75*
G02*
X102040000Y-54131000I-51000J0D01*
G01*
X101740000Y-54131000D01*
G75*
G02*
X101689000Y-54080000I0J51000D01*
G01*
G37*
D16*
X96820000Y-48750000D03*
X105460000Y-48750000D03*
D17*
X96820000Y-52920000D03*
X105460000Y-52920000D03*
%TD*%
%TO.C,J3*%
G36*
G01*
X70671000Y-52920000D02*
X70671000Y-54080000D01*
G75*
G02*
X70620000Y-54131000I-51000J0D01*
G01*
X70020000Y-54131000D01*
G75*
G02*
X69969000Y-54080000I0J51000D01*
G01*
X69969000Y-52920000D01*
G75*
G02*
X70020000Y-52869000I51000J0D01*
G01*
X70620000Y-52869000D01*
G75*
G02*
X70671000Y-52920000I0J-51000D01*
G01*
G37*
G36*
G01*
X71471000Y-52920000D02*
X71471000Y-54080000D01*
G75*
G02*
X71420000Y-54131000I-51000J0D01*
G01*
X70820000Y-54131000D01*
G75*
G02*
X70769000Y-54080000I0J51000D01*
G01*
X70769000Y-52920000D01*
G75*
G02*
X70820000Y-52869000I51000J0D01*
G01*
X71420000Y-52869000D01*
G75*
G02*
X71471000Y-52920000I0J-51000D01*
G01*
G37*
G36*
G01*
X70671000Y-52920000D02*
X70671000Y-54080000D01*
G75*
G02*
X70620000Y-54131000I-51000J0D01*
G01*
X70020000Y-54131000D01*
G75*
G02*
X69969000Y-54080000I0J51000D01*
G01*
X69969000Y-52920000D01*
G75*
G02*
X70020000Y-52869000I51000J0D01*
G01*
X70620000Y-52869000D01*
G75*
G02*
X70671000Y-52920000I0J-51000D01*
G01*
G37*
G36*
G01*
X71471000Y-52920000D02*
X71471000Y-54080000D01*
G75*
G02*
X71420000Y-54131000I-51000J0D01*
G01*
X70820000Y-54131000D01*
G75*
G02*
X70769000Y-54080000I0J51000D01*
G01*
X70769000Y-52920000D01*
G75*
G02*
X70820000Y-52869000I51000J0D01*
G01*
X71420000Y-52869000D01*
G75*
G02*
X71471000Y-52920000I0J-51000D01*
G01*
G37*
G36*
G01*
X77071000Y-52920000D02*
X77071000Y-54080000D01*
G75*
G02*
X77020000Y-54131000I-51000J0D01*
G01*
X76420000Y-54131000D01*
G75*
G02*
X76369000Y-54080000I0J51000D01*
G01*
X76369000Y-52920000D01*
G75*
G02*
X76420000Y-52869000I51000J0D01*
G01*
X77020000Y-52869000D01*
G75*
G02*
X77071000Y-52920000I0J-51000D01*
G01*
G37*
G36*
G01*
X77071000Y-52920000D02*
X77071000Y-54080000D01*
G75*
G02*
X77020000Y-54131000I-51000J0D01*
G01*
X76420000Y-54131000D01*
G75*
G02*
X76369000Y-54080000I0J51000D01*
G01*
X76369000Y-52920000D01*
G75*
G02*
X76420000Y-52869000I51000J0D01*
G01*
X77020000Y-52869000D01*
G75*
G02*
X77071000Y-52920000I0J-51000D01*
G01*
G37*
G36*
G01*
X76271000Y-52920000D02*
X76271000Y-54080000D01*
G75*
G02*
X76220000Y-54131000I-51000J0D01*
G01*
X75620000Y-54131000D01*
G75*
G02*
X75569000Y-54080000I0J51000D01*
G01*
X75569000Y-52920000D01*
G75*
G02*
X75620000Y-52869000I51000J0D01*
G01*
X76220000Y-52869000D01*
G75*
G02*
X76271000Y-52920000I0J-51000D01*
G01*
G37*
G36*
G01*
X76271000Y-52920000D02*
X76271000Y-54080000D01*
G75*
G02*
X76220000Y-54131000I-51000J0D01*
G01*
X75620000Y-54131000D01*
G75*
G02*
X75569000Y-54080000I0J51000D01*
G01*
X75569000Y-52920000D01*
G75*
G02*
X75620000Y-52869000I51000J0D01*
G01*
X76220000Y-52869000D01*
G75*
G02*
X76271000Y-52920000I0J-51000D01*
G01*
G37*
D15*
X76410000Y-52440000D03*
X70630000Y-52440000D03*
G36*
G01*
X71569000Y-54080000D02*
X71569000Y-52920000D01*
G75*
G02*
X71620000Y-52869000I51000J0D01*
G01*
X71920000Y-52869000D01*
G75*
G02*
X71971000Y-52920000I0J-51000D01*
G01*
X71971000Y-54080000D01*
G75*
G02*
X71920000Y-54131000I-51000J0D01*
G01*
X71620000Y-54131000D01*
G75*
G02*
X71569000Y-54080000I0J51000D01*
G01*
G37*
G36*
G01*
X72569000Y-54080000D02*
X72569000Y-52920000D01*
G75*
G02*
X72620000Y-52869000I51000J0D01*
G01*
X72920000Y-52869000D01*
G75*
G02*
X72971000Y-52920000I0J-51000D01*
G01*
X72971000Y-54080000D01*
G75*
G02*
X72920000Y-54131000I-51000J0D01*
G01*
X72620000Y-54131000D01*
G75*
G02*
X72569000Y-54080000I0J51000D01*
G01*
G37*
G36*
G01*
X72069000Y-54080000D02*
X72069000Y-52920000D01*
G75*
G02*
X72120000Y-52869000I51000J0D01*
G01*
X72420000Y-52869000D01*
G75*
G02*
X72471000Y-52920000I0J-51000D01*
G01*
X72471000Y-54080000D01*
G75*
G02*
X72420000Y-54131000I-51000J0D01*
G01*
X72120000Y-54131000D01*
G75*
G02*
X72069000Y-54080000I0J51000D01*
G01*
G37*
G36*
G01*
X74569000Y-54080000D02*
X74569000Y-52920000D01*
G75*
G02*
X74620000Y-52869000I51000J0D01*
G01*
X74920000Y-52869000D01*
G75*
G02*
X74971000Y-52920000I0J-51000D01*
G01*
X74971000Y-54080000D01*
G75*
G02*
X74920000Y-54131000I-51000J0D01*
G01*
X74620000Y-54131000D01*
G75*
G02*
X74569000Y-54080000I0J51000D01*
G01*
G37*
G36*
G01*
X75069000Y-54080000D02*
X75069000Y-52920000D01*
G75*
G02*
X75120000Y-52869000I51000J0D01*
G01*
X75420000Y-52869000D01*
G75*
G02*
X75471000Y-52920000I0J-51000D01*
G01*
X75471000Y-54080000D01*
G75*
G02*
X75420000Y-54131000I-51000J0D01*
G01*
X75120000Y-54131000D01*
G75*
G02*
X75069000Y-54080000I0J51000D01*
G01*
G37*
G36*
G01*
X73069000Y-54080000D02*
X73069000Y-52920000D01*
G75*
G02*
X73120000Y-52869000I51000J0D01*
G01*
X73420000Y-52869000D01*
G75*
G02*
X73471000Y-52920000I0J-51000D01*
G01*
X73471000Y-54080000D01*
G75*
G02*
X73420000Y-54131000I-51000J0D01*
G01*
X73120000Y-54131000D01*
G75*
G02*
X73069000Y-54080000I0J51000D01*
G01*
G37*
G36*
G01*
X73569000Y-54080000D02*
X73569000Y-52920000D01*
G75*
G02*
X73620000Y-52869000I51000J0D01*
G01*
X73920000Y-52869000D01*
G75*
G02*
X73971000Y-52920000I0J-51000D01*
G01*
X73971000Y-54080000D01*
G75*
G02*
X73920000Y-54131000I-51000J0D01*
G01*
X73620000Y-54131000D01*
G75*
G02*
X73569000Y-54080000I0J51000D01*
G01*
G37*
G36*
G01*
X74069000Y-54080000D02*
X74069000Y-52920000D01*
G75*
G02*
X74120000Y-52869000I51000J0D01*
G01*
X74420000Y-52869000D01*
G75*
G02*
X74471000Y-52920000I0J-51000D01*
G01*
X74471000Y-54080000D01*
G75*
G02*
X74420000Y-54131000I-51000J0D01*
G01*
X74120000Y-54131000D01*
G75*
G02*
X74069000Y-54080000I0J51000D01*
G01*
G37*
D16*
X69200000Y-48750000D03*
X77840000Y-48750000D03*
D17*
X69200000Y-52920000D03*
X77840000Y-52920000D03*
%TD*%
%TO.C,J2*%
G36*
G01*
X56381000Y-52920000D02*
X56381000Y-54080000D01*
G75*
G02*
X56330000Y-54131000I-51000J0D01*
G01*
X55730000Y-54131000D01*
G75*
G02*
X55679000Y-54080000I0J51000D01*
G01*
X55679000Y-52920000D01*
G75*
G02*
X55730000Y-52869000I51000J0D01*
G01*
X56330000Y-52869000D01*
G75*
G02*
X56381000Y-52920000I0J-51000D01*
G01*
G37*
G36*
G01*
X57181000Y-52920000D02*
X57181000Y-54080000D01*
G75*
G02*
X57130000Y-54131000I-51000J0D01*
G01*
X56530000Y-54131000D01*
G75*
G02*
X56479000Y-54080000I0J51000D01*
G01*
X56479000Y-52920000D01*
G75*
G02*
X56530000Y-52869000I51000J0D01*
G01*
X57130000Y-52869000D01*
G75*
G02*
X57181000Y-52920000I0J-51000D01*
G01*
G37*
G36*
G01*
X56381000Y-52920000D02*
X56381000Y-54080000D01*
G75*
G02*
X56330000Y-54131000I-51000J0D01*
G01*
X55730000Y-54131000D01*
G75*
G02*
X55679000Y-54080000I0J51000D01*
G01*
X55679000Y-52920000D01*
G75*
G02*
X55730000Y-52869000I51000J0D01*
G01*
X56330000Y-52869000D01*
G75*
G02*
X56381000Y-52920000I0J-51000D01*
G01*
G37*
G36*
G01*
X57181000Y-52920000D02*
X57181000Y-54080000D01*
G75*
G02*
X57130000Y-54131000I-51000J0D01*
G01*
X56530000Y-54131000D01*
G75*
G02*
X56479000Y-54080000I0J51000D01*
G01*
X56479000Y-52920000D01*
G75*
G02*
X56530000Y-52869000I51000J0D01*
G01*
X57130000Y-52869000D01*
G75*
G02*
X57181000Y-52920000I0J-51000D01*
G01*
G37*
G36*
G01*
X62781000Y-52920000D02*
X62781000Y-54080000D01*
G75*
G02*
X62730000Y-54131000I-51000J0D01*
G01*
X62130000Y-54131000D01*
G75*
G02*
X62079000Y-54080000I0J51000D01*
G01*
X62079000Y-52920000D01*
G75*
G02*
X62130000Y-52869000I51000J0D01*
G01*
X62730000Y-52869000D01*
G75*
G02*
X62781000Y-52920000I0J-51000D01*
G01*
G37*
G36*
G01*
X62781000Y-52920000D02*
X62781000Y-54080000D01*
G75*
G02*
X62730000Y-54131000I-51000J0D01*
G01*
X62130000Y-54131000D01*
G75*
G02*
X62079000Y-54080000I0J51000D01*
G01*
X62079000Y-52920000D01*
G75*
G02*
X62130000Y-52869000I51000J0D01*
G01*
X62730000Y-52869000D01*
G75*
G02*
X62781000Y-52920000I0J-51000D01*
G01*
G37*
G36*
G01*
X61981000Y-52920000D02*
X61981000Y-54080000D01*
G75*
G02*
X61930000Y-54131000I-51000J0D01*
G01*
X61330000Y-54131000D01*
G75*
G02*
X61279000Y-54080000I0J51000D01*
G01*
X61279000Y-52920000D01*
G75*
G02*
X61330000Y-52869000I51000J0D01*
G01*
X61930000Y-52869000D01*
G75*
G02*
X61981000Y-52920000I0J-51000D01*
G01*
G37*
G36*
G01*
X61981000Y-52920000D02*
X61981000Y-54080000D01*
G75*
G02*
X61930000Y-54131000I-51000J0D01*
G01*
X61330000Y-54131000D01*
G75*
G02*
X61279000Y-54080000I0J51000D01*
G01*
X61279000Y-52920000D01*
G75*
G02*
X61330000Y-52869000I51000J0D01*
G01*
X61930000Y-52869000D01*
G75*
G02*
X61981000Y-52920000I0J-51000D01*
G01*
G37*
D15*
X62120000Y-52440000D03*
X56340000Y-52440000D03*
G36*
G01*
X57279000Y-54080000D02*
X57279000Y-52920000D01*
G75*
G02*
X57330000Y-52869000I51000J0D01*
G01*
X57630000Y-52869000D01*
G75*
G02*
X57681000Y-52920000I0J-51000D01*
G01*
X57681000Y-54080000D01*
G75*
G02*
X57630000Y-54131000I-51000J0D01*
G01*
X57330000Y-54131000D01*
G75*
G02*
X57279000Y-54080000I0J51000D01*
G01*
G37*
G36*
G01*
X58279000Y-54080000D02*
X58279000Y-52920000D01*
G75*
G02*
X58330000Y-52869000I51000J0D01*
G01*
X58630000Y-52869000D01*
G75*
G02*
X58681000Y-52920000I0J-51000D01*
G01*
X58681000Y-54080000D01*
G75*
G02*
X58630000Y-54131000I-51000J0D01*
G01*
X58330000Y-54131000D01*
G75*
G02*
X58279000Y-54080000I0J51000D01*
G01*
G37*
G36*
G01*
X57779000Y-54080000D02*
X57779000Y-52920000D01*
G75*
G02*
X57830000Y-52869000I51000J0D01*
G01*
X58130000Y-52869000D01*
G75*
G02*
X58181000Y-52920000I0J-51000D01*
G01*
X58181000Y-54080000D01*
G75*
G02*
X58130000Y-54131000I-51000J0D01*
G01*
X57830000Y-54131000D01*
G75*
G02*
X57779000Y-54080000I0J51000D01*
G01*
G37*
G36*
G01*
X60279000Y-54080000D02*
X60279000Y-52920000D01*
G75*
G02*
X60330000Y-52869000I51000J0D01*
G01*
X60630000Y-52869000D01*
G75*
G02*
X60681000Y-52920000I0J-51000D01*
G01*
X60681000Y-54080000D01*
G75*
G02*
X60630000Y-54131000I-51000J0D01*
G01*
X60330000Y-54131000D01*
G75*
G02*
X60279000Y-54080000I0J51000D01*
G01*
G37*
G36*
G01*
X60779000Y-54080000D02*
X60779000Y-52920000D01*
G75*
G02*
X60830000Y-52869000I51000J0D01*
G01*
X61130000Y-52869000D01*
G75*
G02*
X61181000Y-52920000I0J-51000D01*
G01*
X61181000Y-54080000D01*
G75*
G02*
X61130000Y-54131000I-51000J0D01*
G01*
X60830000Y-54131000D01*
G75*
G02*
X60779000Y-54080000I0J51000D01*
G01*
G37*
G36*
G01*
X58779000Y-54080000D02*
X58779000Y-52920000D01*
G75*
G02*
X58830000Y-52869000I51000J0D01*
G01*
X59130000Y-52869000D01*
G75*
G02*
X59181000Y-52920000I0J-51000D01*
G01*
X59181000Y-54080000D01*
G75*
G02*
X59130000Y-54131000I-51000J0D01*
G01*
X58830000Y-54131000D01*
G75*
G02*
X58779000Y-54080000I0J51000D01*
G01*
G37*
G36*
G01*
X59279000Y-54080000D02*
X59279000Y-52920000D01*
G75*
G02*
X59330000Y-52869000I51000J0D01*
G01*
X59630000Y-52869000D01*
G75*
G02*
X59681000Y-52920000I0J-51000D01*
G01*
X59681000Y-54080000D01*
G75*
G02*
X59630000Y-54131000I-51000J0D01*
G01*
X59330000Y-54131000D01*
G75*
G02*
X59279000Y-54080000I0J51000D01*
G01*
G37*
G36*
G01*
X59779000Y-54080000D02*
X59779000Y-52920000D01*
G75*
G02*
X59830000Y-52869000I51000J0D01*
G01*
X60130000Y-52869000D01*
G75*
G02*
X60181000Y-52920000I0J-51000D01*
G01*
X60181000Y-54080000D01*
G75*
G02*
X60130000Y-54131000I-51000J0D01*
G01*
X59830000Y-54131000D01*
G75*
G02*
X59779000Y-54080000I0J51000D01*
G01*
G37*
D16*
X54910000Y-48750000D03*
X63550000Y-48750000D03*
D17*
X54910000Y-52920000D03*
X63550000Y-52920000D03*
%TD*%
%TO.C,J6*%
G36*
G01*
X110070000Y-62651000D02*
X108910000Y-62651000D01*
G75*
G02*
X108859000Y-62600000I0J51000D01*
G01*
X108859000Y-62000000D01*
G75*
G02*
X108910000Y-61949000I51000J0D01*
G01*
X110070000Y-61949000D01*
G75*
G02*
X110121000Y-62000000I0J-51000D01*
G01*
X110121000Y-62600000D01*
G75*
G02*
X110070000Y-62651000I-51000J0D01*
G01*
G37*
G36*
G01*
X110070000Y-63451000D02*
X108910000Y-63451000D01*
G75*
G02*
X108859000Y-63400000I0J51000D01*
G01*
X108859000Y-62800000D01*
G75*
G02*
X108910000Y-62749000I51000J0D01*
G01*
X110070000Y-62749000D01*
G75*
G02*
X110121000Y-62800000I0J-51000D01*
G01*
X110121000Y-63400000D01*
G75*
G02*
X110070000Y-63451000I-51000J0D01*
G01*
G37*
G36*
G01*
X110070000Y-62651000D02*
X108910000Y-62651000D01*
G75*
G02*
X108859000Y-62600000I0J51000D01*
G01*
X108859000Y-62000000D01*
G75*
G02*
X108910000Y-61949000I51000J0D01*
G01*
X110070000Y-61949000D01*
G75*
G02*
X110121000Y-62000000I0J-51000D01*
G01*
X110121000Y-62600000D01*
G75*
G02*
X110070000Y-62651000I-51000J0D01*
G01*
G37*
G36*
G01*
X110070000Y-63451000D02*
X108910000Y-63451000D01*
G75*
G02*
X108859000Y-63400000I0J51000D01*
G01*
X108859000Y-62800000D01*
G75*
G02*
X108910000Y-62749000I51000J0D01*
G01*
X110070000Y-62749000D01*
G75*
G02*
X110121000Y-62800000I0J-51000D01*
G01*
X110121000Y-63400000D01*
G75*
G02*
X110070000Y-63451000I-51000J0D01*
G01*
G37*
G36*
G01*
X110070000Y-69051000D02*
X108910000Y-69051000D01*
G75*
G02*
X108859000Y-69000000I0J51000D01*
G01*
X108859000Y-68400000D01*
G75*
G02*
X108910000Y-68349000I51000J0D01*
G01*
X110070000Y-68349000D01*
G75*
G02*
X110121000Y-68400000I0J-51000D01*
G01*
X110121000Y-69000000D01*
G75*
G02*
X110070000Y-69051000I-51000J0D01*
G01*
G37*
G36*
G01*
X110070000Y-69051000D02*
X108910000Y-69051000D01*
G75*
G02*
X108859000Y-69000000I0J51000D01*
G01*
X108859000Y-68400000D01*
G75*
G02*
X108910000Y-68349000I51000J0D01*
G01*
X110070000Y-68349000D01*
G75*
G02*
X110121000Y-68400000I0J-51000D01*
G01*
X110121000Y-69000000D01*
G75*
G02*
X110070000Y-69051000I-51000J0D01*
G01*
G37*
G36*
G01*
X110070000Y-68251000D02*
X108910000Y-68251000D01*
G75*
G02*
X108859000Y-68200000I0J51000D01*
G01*
X108859000Y-67600000D01*
G75*
G02*
X108910000Y-67549000I51000J0D01*
G01*
X110070000Y-67549000D01*
G75*
G02*
X110121000Y-67600000I0J-51000D01*
G01*
X110121000Y-68200000D01*
G75*
G02*
X110070000Y-68251000I-51000J0D01*
G01*
G37*
G36*
G01*
X110070000Y-68251000D02*
X108910000Y-68251000D01*
G75*
G02*
X108859000Y-68200000I0J51000D01*
G01*
X108859000Y-67600000D01*
G75*
G02*
X108910000Y-67549000I51000J0D01*
G01*
X110070000Y-67549000D01*
G75*
G02*
X110121000Y-67600000I0J-51000D01*
G01*
X110121000Y-68200000D01*
G75*
G02*
X110070000Y-68251000I-51000J0D01*
G01*
G37*
D15*
X110550000Y-68390000D03*
X110550000Y-62610000D03*
G36*
G01*
X108910000Y-63549000D02*
X110070000Y-63549000D01*
G75*
G02*
X110121000Y-63600000I0J-51000D01*
G01*
X110121000Y-63900000D01*
G75*
G02*
X110070000Y-63951000I-51000J0D01*
G01*
X108910000Y-63951000D01*
G75*
G02*
X108859000Y-63900000I0J51000D01*
G01*
X108859000Y-63600000D01*
G75*
G02*
X108910000Y-63549000I51000J0D01*
G01*
G37*
G36*
G01*
X108910000Y-64549000D02*
X110070000Y-64549000D01*
G75*
G02*
X110121000Y-64600000I0J-51000D01*
G01*
X110121000Y-64900000D01*
G75*
G02*
X110070000Y-64951000I-51000J0D01*
G01*
X108910000Y-64951000D01*
G75*
G02*
X108859000Y-64900000I0J51000D01*
G01*
X108859000Y-64600000D01*
G75*
G02*
X108910000Y-64549000I51000J0D01*
G01*
G37*
G36*
G01*
X108910000Y-64049000D02*
X110070000Y-64049000D01*
G75*
G02*
X110121000Y-64100000I0J-51000D01*
G01*
X110121000Y-64400000D01*
G75*
G02*
X110070000Y-64451000I-51000J0D01*
G01*
X108910000Y-64451000D01*
G75*
G02*
X108859000Y-64400000I0J51000D01*
G01*
X108859000Y-64100000D01*
G75*
G02*
X108910000Y-64049000I51000J0D01*
G01*
G37*
G36*
G01*
X108910000Y-66549000D02*
X110070000Y-66549000D01*
G75*
G02*
X110121000Y-66600000I0J-51000D01*
G01*
X110121000Y-66900000D01*
G75*
G02*
X110070000Y-66951000I-51000J0D01*
G01*
X108910000Y-66951000D01*
G75*
G02*
X108859000Y-66900000I0J51000D01*
G01*
X108859000Y-66600000D01*
G75*
G02*
X108910000Y-66549000I51000J0D01*
G01*
G37*
G36*
G01*
X108910000Y-67049000D02*
X110070000Y-67049000D01*
G75*
G02*
X110121000Y-67100000I0J-51000D01*
G01*
X110121000Y-67400000D01*
G75*
G02*
X110070000Y-67451000I-51000J0D01*
G01*
X108910000Y-67451000D01*
G75*
G02*
X108859000Y-67400000I0J51000D01*
G01*
X108859000Y-67100000D01*
G75*
G02*
X108910000Y-67049000I51000J0D01*
G01*
G37*
G36*
G01*
X108910000Y-65049000D02*
X110070000Y-65049000D01*
G75*
G02*
X110121000Y-65100000I0J-51000D01*
G01*
X110121000Y-65400000D01*
G75*
G02*
X110070000Y-65451000I-51000J0D01*
G01*
X108910000Y-65451000D01*
G75*
G02*
X108859000Y-65400000I0J51000D01*
G01*
X108859000Y-65100000D01*
G75*
G02*
X108910000Y-65049000I51000J0D01*
G01*
G37*
G36*
G01*
X108910000Y-65549000D02*
X110070000Y-65549000D01*
G75*
G02*
X110121000Y-65600000I0J-51000D01*
G01*
X110121000Y-65900000D01*
G75*
G02*
X110070000Y-65951000I-51000J0D01*
G01*
X108910000Y-65951000D01*
G75*
G02*
X108859000Y-65900000I0J51000D01*
G01*
X108859000Y-65600000D01*
G75*
G02*
X108910000Y-65549000I51000J0D01*
G01*
G37*
G36*
G01*
X108910000Y-66049000D02*
X110070000Y-66049000D01*
G75*
G02*
X110121000Y-66100000I0J-51000D01*
G01*
X110121000Y-66400000D01*
G75*
G02*
X110070000Y-66451000I-51000J0D01*
G01*
X108910000Y-66451000D01*
G75*
G02*
X108859000Y-66400000I0J51000D01*
G01*
X108859000Y-66100000D01*
G75*
G02*
X108910000Y-66049000I51000J0D01*
G01*
G37*
D18*
X114240000Y-61180000D03*
X114240000Y-69820000D03*
D19*
X110070000Y-61180000D03*
X110070000Y-69820000D03*
%TD*%
%TO.C,J1*%
G36*
G01*
X49930000Y-68349000D02*
X51090000Y-68349000D01*
G75*
G02*
X51141000Y-68400000I0J-51000D01*
G01*
X51141000Y-69000000D01*
G75*
G02*
X51090000Y-69051000I-51000J0D01*
G01*
X49930000Y-69051000D01*
G75*
G02*
X49879000Y-69000000I0J51000D01*
G01*
X49879000Y-68400000D01*
G75*
G02*
X49930000Y-68349000I51000J0D01*
G01*
G37*
G36*
G01*
X49930000Y-67549000D02*
X51090000Y-67549000D01*
G75*
G02*
X51141000Y-67600000I0J-51000D01*
G01*
X51141000Y-68200000D01*
G75*
G02*
X51090000Y-68251000I-51000J0D01*
G01*
X49930000Y-68251000D01*
G75*
G02*
X49879000Y-68200000I0J51000D01*
G01*
X49879000Y-67600000D01*
G75*
G02*
X49930000Y-67549000I51000J0D01*
G01*
G37*
G36*
G01*
X49930000Y-68349000D02*
X51090000Y-68349000D01*
G75*
G02*
X51141000Y-68400000I0J-51000D01*
G01*
X51141000Y-69000000D01*
G75*
G02*
X51090000Y-69051000I-51000J0D01*
G01*
X49930000Y-69051000D01*
G75*
G02*
X49879000Y-69000000I0J51000D01*
G01*
X49879000Y-68400000D01*
G75*
G02*
X49930000Y-68349000I51000J0D01*
G01*
G37*
G36*
G01*
X49930000Y-67549000D02*
X51090000Y-67549000D01*
G75*
G02*
X51141000Y-67600000I0J-51000D01*
G01*
X51141000Y-68200000D01*
G75*
G02*
X51090000Y-68251000I-51000J0D01*
G01*
X49930000Y-68251000D01*
G75*
G02*
X49879000Y-68200000I0J51000D01*
G01*
X49879000Y-67600000D01*
G75*
G02*
X49930000Y-67549000I51000J0D01*
G01*
G37*
G36*
G01*
X49930000Y-61949000D02*
X51090000Y-61949000D01*
G75*
G02*
X51141000Y-62000000I0J-51000D01*
G01*
X51141000Y-62600000D01*
G75*
G02*
X51090000Y-62651000I-51000J0D01*
G01*
X49930000Y-62651000D01*
G75*
G02*
X49879000Y-62600000I0J51000D01*
G01*
X49879000Y-62000000D01*
G75*
G02*
X49930000Y-61949000I51000J0D01*
G01*
G37*
G36*
G01*
X49930000Y-61949000D02*
X51090000Y-61949000D01*
G75*
G02*
X51141000Y-62000000I0J-51000D01*
G01*
X51141000Y-62600000D01*
G75*
G02*
X51090000Y-62651000I-51000J0D01*
G01*
X49930000Y-62651000D01*
G75*
G02*
X49879000Y-62600000I0J51000D01*
G01*
X49879000Y-62000000D01*
G75*
G02*
X49930000Y-61949000I51000J0D01*
G01*
G37*
G36*
G01*
X49930000Y-62749000D02*
X51090000Y-62749000D01*
G75*
G02*
X51141000Y-62800000I0J-51000D01*
G01*
X51141000Y-63400000D01*
G75*
G02*
X51090000Y-63451000I-51000J0D01*
G01*
X49930000Y-63451000D01*
G75*
G02*
X49879000Y-63400000I0J51000D01*
G01*
X49879000Y-62800000D01*
G75*
G02*
X49930000Y-62749000I51000J0D01*
G01*
G37*
G36*
G01*
X49930000Y-62749000D02*
X51090000Y-62749000D01*
G75*
G02*
X51141000Y-62800000I0J-51000D01*
G01*
X51141000Y-63400000D01*
G75*
G02*
X51090000Y-63451000I-51000J0D01*
G01*
X49930000Y-63451000D01*
G75*
G02*
X49879000Y-63400000I0J51000D01*
G01*
X49879000Y-62800000D01*
G75*
G02*
X49930000Y-62749000I51000J0D01*
G01*
G37*
D15*
X49450000Y-62610000D03*
X49450000Y-68390000D03*
G36*
G01*
X51090000Y-67451000D02*
X49930000Y-67451000D01*
G75*
G02*
X49879000Y-67400000I0J51000D01*
G01*
X49879000Y-67100000D01*
G75*
G02*
X49930000Y-67049000I51000J0D01*
G01*
X51090000Y-67049000D01*
G75*
G02*
X51141000Y-67100000I0J-51000D01*
G01*
X51141000Y-67400000D01*
G75*
G02*
X51090000Y-67451000I-51000J0D01*
G01*
G37*
G36*
G01*
X51090000Y-66451000D02*
X49930000Y-66451000D01*
G75*
G02*
X49879000Y-66400000I0J51000D01*
G01*
X49879000Y-66100000D01*
G75*
G02*
X49930000Y-66049000I51000J0D01*
G01*
X51090000Y-66049000D01*
G75*
G02*
X51141000Y-66100000I0J-51000D01*
G01*
X51141000Y-66400000D01*
G75*
G02*
X51090000Y-66451000I-51000J0D01*
G01*
G37*
G36*
G01*
X51090000Y-66951000D02*
X49930000Y-66951000D01*
G75*
G02*
X49879000Y-66900000I0J51000D01*
G01*
X49879000Y-66600000D01*
G75*
G02*
X49930000Y-66549000I51000J0D01*
G01*
X51090000Y-66549000D01*
G75*
G02*
X51141000Y-66600000I0J-51000D01*
G01*
X51141000Y-66900000D01*
G75*
G02*
X51090000Y-66951000I-51000J0D01*
G01*
G37*
G36*
G01*
X51090000Y-64451000D02*
X49930000Y-64451000D01*
G75*
G02*
X49879000Y-64400000I0J51000D01*
G01*
X49879000Y-64100000D01*
G75*
G02*
X49930000Y-64049000I51000J0D01*
G01*
X51090000Y-64049000D01*
G75*
G02*
X51141000Y-64100000I0J-51000D01*
G01*
X51141000Y-64400000D01*
G75*
G02*
X51090000Y-64451000I-51000J0D01*
G01*
G37*
G36*
G01*
X51090000Y-63951000D02*
X49930000Y-63951000D01*
G75*
G02*
X49879000Y-63900000I0J51000D01*
G01*
X49879000Y-63600000D01*
G75*
G02*
X49930000Y-63549000I51000J0D01*
G01*
X51090000Y-63549000D01*
G75*
G02*
X51141000Y-63600000I0J-51000D01*
G01*
X51141000Y-63900000D01*
G75*
G02*
X51090000Y-63951000I-51000J0D01*
G01*
G37*
G36*
G01*
X51090000Y-65951000D02*
X49930000Y-65951000D01*
G75*
G02*
X49879000Y-65900000I0J51000D01*
G01*
X49879000Y-65600000D01*
G75*
G02*
X49930000Y-65549000I51000J0D01*
G01*
X51090000Y-65549000D01*
G75*
G02*
X51141000Y-65600000I0J-51000D01*
G01*
X51141000Y-65900000D01*
G75*
G02*
X51090000Y-65951000I-51000J0D01*
G01*
G37*
G36*
G01*
X51090000Y-65451000D02*
X49930000Y-65451000D01*
G75*
G02*
X49879000Y-65400000I0J51000D01*
G01*
X49879000Y-65100000D01*
G75*
G02*
X49930000Y-65049000I51000J0D01*
G01*
X51090000Y-65049000D01*
G75*
G02*
X51141000Y-65100000I0J-51000D01*
G01*
X51141000Y-65400000D01*
G75*
G02*
X51090000Y-65451000I-51000J0D01*
G01*
G37*
G36*
G01*
X51090000Y-64951000D02*
X49930000Y-64951000D01*
G75*
G02*
X49879000Y-64900000I0J51000D01*
G01*
X49879000Y-64600000D01*
G75*
G02*
X49930000Y-64549000I51000J0D01*
G01*
X51090000Y-64549000D01*
G75*
G02*
X51141000Y-64600000I0J-51000D01*
G01*
X51141000Y-64900000D01*
G75*
G02*
X51090000Y-64951000I-51000J0D01*
G01*
G37*
D18*
X45760000Y-69820000D03*
X45760000Y-61180000D03*
D19*
X49930000Y-69820000D03*
X49930000Y-61180000D03*
%TD*%
D20*
G36*
X110122990Y-68023882D02*
G01*
X110125372Y-68048069D01*
X110132372Y-68071144D01*
X110143737Y-68092408D01*
X110159032Y-68111045D01*
X110177669Y-68126340D01*
X110198933Y-68137705D01*
X110222008Y-68144705D01*
X110245999Y-68147068D01*
X110269990Y-68144705D01*
X110293065Y-68137705D01*
X110314329Y-68126340D01*
X110318593Y-68122840D01*
X110318751Y-68122723D01*
X110324034Y-68119193D01*
X110326030Y-68119062D01*
X110327141Y-68120725D01*
X110326559Y-68122270D01*
X110280227Y-68168602D01*
X110242219Y-68225487D01*
X110216038Y-68288692D01*
X110202690Y-68355795D01*
X110202690Y-68424205D01*
X110216038Y-68491308D01*
X110242219Y-68554513D01*
X110280227Y-68611398D01*
X110326559Y-68657730D01*
X110327077Y-68659662D01*
X110325663Y-68661076D01*
X110324034Y-68660807D01*
X110318751Y-68657277D01*
X110318593Y-68657160D01*
X110314329Y-68653660D01*
X110293065Y-68642295D01*
X110269990Y-68635295D01*
X110245999Y-68632932D01*
X110222008Y-68635295D01*
X110198933Y-68642295D01*
X110177669Y-68653660D01*
X110159032Y-68668955D01*
X110143737Y-68687592D01*
X110132372Y-68708856D01*
X110125372Y-68731931D01*
X110122990Y-68756118D01*
X110121825Y-68757744D01*
X110119835Y-68757548D01*
X110119000Y-68755922D01*
X110119000Y-68351000D01*
X108859000Y-68351000D01*
X108857268Y-68350000D01*
X108857000Y-68349000D01*
X108857000Y-68251000D01*
X108858000Y-68249268D01*
X108859000Y-68249000D01*
X110119000Y-68249000D01*
X110119000Y-68024078D01*
X110120000Y-68022346D01*
X110122000Y-68022346D01*
X110122990Y-68023882D01*
G37*
G36*
X49880165Y-68022452D02*
G01*
X49881000Y-68024078D01*
X49881000Y-68249000D01*
X51141000Y-68249000D01*
X51142732Y-68250000D01*
X51143000Y-68251000D01*
X51143000Y-68349000D01*
X51142000Y-68350732D01*
X51141000Y-68351000D01*
X49881000Y-68351000D01*
X49881000Y-68755922D01*
X49880000Y-68757654D01*
X49878000Y-68757654D01*
X49877010Y-68756118D01*
X49874628Y-68731931D01*
X49867628Y-68708856D01*
X49856263Y-68687592D01*
X49840968Y-68668955D01*
X49822331Y-68653660D01*
X49801067Y-68642295D01*
X49777992Y-68635295D01*
X49754001Y-68632932D01*
X49730010Y-68635295D01*
X49706935Y-68642295D01*
X49685671Y-68653660D01*
X49681407Y-68657160D01*
X49681249Y-68657277D01*
X49675966Y-68660807D01*
X49673970Y-68660938D01*
X49672859Y-68659275D01*
X49673441Y-68657730D01*
X49719773Y-68611398D01*
X49757781Y-68554513D01*
X49783962Y-68491308D01*
X49797310Y-68424205D01*
X49797310Y-68355795D01*
X49783962Y-68288692D01*
X49757781Y-68225487D01*
X49719773Y-68168602D01*
X49673441Y-68122270D01*
X49672923Y-68120338D01*
X49674337Y-68118924D01*
X49675966Y-68119193D01*
X49681249Y-68122723D01*
X49681407Y-68122840D01*
X49685671Y-68126340D01*
X49706935Y-68137705D01*
X49730010Y-68144705D01*
X49754001Y-68147068D01*
X49777992Y-68144705D01*
X49801067Y-68137705D01*
X49822331Y-68126340D01*
X49840968Y-68111045D01*
X49856263Y-68092408D01*
X49867628Y-68071144D01*
X49874628Y-68048069D01*
X49877010Y-68023882D01*
X49878175Y-68022256D01*
X49880165Y-68022452D01*
G37*
G36*
X110122732Y-67450000D02*
G01*
X110123000Y-67451000D01*
X110123000Y-67549000D01*
X110122000Y-67550732D01*
X110121000Y-67551000D01*
X108859000Y-67551000D01*
X108857268Y-67550000D01*
X108857000Y-67549000D01*
X108857000Y-67451000D01*
X108858000Y-67449268D01*
X108859000Y-67449000D01*
X110121000Y-67449000D01*
X110122732Y-67450000D01*
G37*
G36*
X51142732Y-67450000D02*
G01*
X51143000Y-67451000D01*
X51143000Y-67549000D01*
X51142000Y-67550732D01*
X51141000Y-67551000D01*
X49879000Y-67551000D01*
X49877268Y-67550000D01*
X49877000Y-67549000D01*
X49877000Y-67451000D01*
X49878000Y-67449268D01*
X49879000Y-67449000D01*
X51141000Y-67449000D01*
X51142732Y-67450000D01*
G37*
G36*
X51142732Y-66950000D02*
G01*
X51143000Y-66951000D01*
X51143000Y-67049000D01*
X51142000Y-67050732D01*
X51141000Y-67051000D01*
X49879000Y-67051000D01*
X49877268Y-67050000D01*
X49877000Y-67049000D01*
X49877000Y-66951000D01*
X49878000Y-66949268D01*
X49879000Y-66949000D01*
X51141000Y-66949000D01*
X51142732Y-66950000D01*
G37*
G36*
X110122732Y-66950000D02*
G01*
X110123000Y-66951000D01*
X110123000Y-67049000D01*
X110122000Y-67050732D01*
X110121000Y-67051000D01*
X108859000Y-67051000D01*
X108857268Y-67050000D01*
X108857000Y-67049000D01*
X108857000Y-66951000D01*
X108858000Y-66949268D01*
X108859000Y-66949000D01*
X110121000Y-66949000D01*
X110122732Y-66950000D01*
G37*
G36*
X110122732Y-66450000D02*
G01*
X110123000Y-66451000D01*
X110123000Y-66549000D01*
X110122000Y-66550732D01*
X110121000Y-66551000D01*
X108859000Y-66551000D01*
X108857268Y-66550000D01*
X108857000Y-66549000D01*
X108857000Y-66451000D01*
X108858000Y-66449268D01*
X108859000Y-66449000D01*
X110121000Y-66449000D01*
X110122732Y-66450000D01*
G37*
G36*
X51142732Y-66450000D02*
G01*
X51143000Y-66451000D01*
X51143000Y-66549000D01*
X51142000Y-66550732D01*
X51141000Y-66551000D01*
X49879000Y-66551000D01*
X49877268Y-66550000D01*
X49877000Y-66549000D01*
X49877000Y-66451000D01*
X49878000Y-66449268D01*
X49879000Y-66449000D01*
X51141000Y-66449000D01*
X51142732Y-66450000D01*
G37*
G36*
X110122732Y-65950000D02*
G01*
X110123000Y-65951000D01*
X110123000Y-66049000D01*
X110122000Y-66050732D01*
X110121000Y-66051000D01*
X108859000Y-66051000D01*
X108857268Y-66050000D01*
X108857000Y-66049000D01*
X108857000Y-65951000D01*
X108858000Y-65949268D01*
X108859000Y-65949000D01*
X110121000Y-65949000D01*
X110122732Y-65950000D01*
G37*
G36*
X51142732Y-65950000D02*
G01*
X51143000Y-65951000D01*
X51143000Y-66049000D01*
X51142000Y-66050732D01*
X51141000Y-66051000D01*
X49879000Y-66051000D01*
X49877268Y-66050000D01*
X49877000Y-66049000D01*
X49877000Y-65951000D01*
X49878000Y-65949268D01*
X49879000Y-65949000D01*
X51141000Y-65949000D01*
X51142732Y-65950000D01*
G37*
G36*
X110122732Y-65450000D02*
G01*
X110123000Y-65451000D01*
X110123000Y-65549000D01*
X110122000Y-65550732D01*
X110121000Y-65551000D01*
X108859000Y-65551000D01*
X108857268Y-65550000D01*
X108857000Y-65549000D01*
X108857000Y-65451000D01*
X108858000Y-65449268D01*
X108859000Y-65449000D01*
X110121000Y-65449000D01*
X110122732Y-65450000D01*
G37*
G36*
X51142732Y-65450000D02*
G01*
X51143000Y-65451000D01*
X51143000Y-65549000D01*
X51142000Y-65550732D01*
X51141000Y-65551000D01*
X49879000Y-65551000D01*
X49877268Y-65550000D01*
X49877000Y-65549000D01*
X49877000Y-65451000D01*
X49878000Y-65449268D01*
X49879000Y-65449000D01*
X51141000Y-65449000D01*
X51142732Y-65450000D01*
G37*
G36*
X110122732Y-64950000D02*
G01*
X110123000Y-64951000D01*
X110123000Y-65049000D01*
X110122000Y-65050732D01*
X110121000Y-65051000D01*
X108859000Y-65051000D01*
X108857268Y-65050000D01*
X108857000Y-65049000D01*
X108857000Y-64951000D01*
X108858000Y-64949268D01*
X108859000Y-64949000D01*
X110121000Y-64949000D01*
X110122732Y-64950000D01*
G37*
G36*
X51142732Y-64950000D02*
G01*
X51143000Y-64951000D01*
X51143000Y-65049000D01*
X51142000Y-65050732D01*
X51141000Y-65051000D01*
X49879000Y-65051000D01*
X49877268Y-65050000D01*
X49877000Y-65049000D01*
X49877000Y-64951000D01*
X49878000Y-64949268D01*
X49879000Y-64949000D01*
X51141000Y-64949000D01*
X51142732Y-64950000D01*
G37*
G36*
X110122732Y-64450000D02*
G01*
X110123000Y-64451000D01*
X110123000Y-64549000D01*
X110122000Y-64550732D01*
X110121000Y-64551000D01*
X108859000Y-64551000D01*
X108857268Y-64550000D01*
X108857000Y-64549000D01*
X108857000Y-64451000D01*
X108858000Y-64449268D01*
X108859000Y-64449000D01*
X110121000Y-64449000D01*
X110122732Y-64450000D01*
G37*
G36*
X51142732Y-64450000D02*
G01*
X51143000Y-64451000D01*
X51143000Y-64549000D01*
X51142000Y-64550732D01*
X51141000Y-64551000D01*
X49879000Y-64551000D01*
X49877268Y-64550000D01*
X49877000Y-64549000D01*
X49877000Y-64451000D01*
X49878000Y-64449268D01*
X49879000Y-64449000D01*
X51141000Y-64449000D01*
X51142732Y-64450000D01*
G37*
G36*
X51142732Y-63950000D02*
G01*
X51143000Y-63951000D01*
X51143000Y-64049000D01*
X51142000Y-64050732D01*
X51141000Y-64051000D01*
X49879000Y-64051000D01*
X49877268Y-64050000D01*
X49877000Y-64049000D01*
X49877000Y-63951000D01*
X49878000Y-63949268D01*
X49879000Y-63949000D01*
X51141000Y-63949000D01*
X51142732Y-63950000D01*
G37*
G36*
X110122732Y-63950000D02*
G01*
X110123000Y-63951000D01*
X110123000Y-64049000D01*
X110122000Y-64050732D01*
X110121000Y-64051000D01*
X108859000Y-64051000D01*
X108857268Y-64050000D01*
X108857000Y-64049000D01*
X108857000Y-63951000D01*
X108858000Y-63949268D01*
X108859000Y-63949000D01*
X110121000Y-63949000D01*
X110122732Y-63950000D01*
G37*
G36*
X51142732Y-63450000D02*
G01*
X51143000Y-63451000D01*
X51143000Y-63549000D01*
X51142000Y-63550732D01*
X51141000Y-63551000D01*
X49879000Y-63551000D01*
X49877268Y-63550000D01*
X49877000Y-63549000D01*
X49877000Y-63451000D01*
X49878000Y-63449268D01*
X49879000Y-63449000D01*
X51141000Y-63449000D01*
X51142732Y-63450000D01*
G37*
G36*
X110122732Y-63450000D02*
G01*
X110123000Y-63451000D01*
X110123000Y-63549000D01*
X110122000Y-63550732D01*
X110121000Y-63551000D01*
X108859000Y-63551000D01*
X108857268Y-63550000D01*
X108857000Y-63549000D01*
X108857000Y-63451000D01*
X108858000Y-63449268D01*
X108859000Y-63449000D01*
X110121000Y-63449000D01*
X110122732Y-63450000D01*
G37*
G36*
X110122990Y-62243882D02*
G01*
X110125372Y-62268069D01*
X110132372Y-62291144D01*
X110143737Y-62312408D01*
X110159032Y-62331045D01*
X110177669Y-62346340D01*
X110198933Y-62357705D01*
X110222008Y-62364705D01*
X110245999Y-62367068D01*
X110269990Y-62364705D01*
X110293065Y-62357705D01*
X110314329Y-62346340D01*
X110318593Y-62342840D01*
X110318751Y-62342723D01*
X110324034Y-62339193D01*
X110326030Y-62339062D01*
X110327141Y-62340725D01*
X110326559Y-62342270D01*
X110280227Y-62388602D01*
X110242219Y-62445487D01*
X110216038Y-62508692D01*
X110202690Y-62575795D01*
X110202690Y-62644205D01*
X110216038Y-62711308D01*
X110242219Y-62774513D01*
X110280227Y-62831398D01*
X110326559Y-62877730D01*
X110327077Y-62879662D01*
X110325663Y-62881076D01*
X110324034Y-62880807D01*
X110318751Y-62877277D01*
X110318593Y-62877160D01*
X110314329Y-62873660D01*
X110293065Y-62862295D01*
X110269990Y-62855295D01*
X110245999Y-62852932D01*
X110222008Y-62855295D01*
X110198933Y-62862295D01*
X110177669Y-62873660D01*
X110159032Y-62888955D01*
X110143737Y-62907592D01*
X110132372Y-62928856D01*
X110125372Y-62951931D01*
X110122990Y-62976118D01*
X110121825Y-62977744D01*
X110119835Y-62977548D01*
X110119000Y-62975922D01*
X110119000Y-62751000D01*
X108859000Y-62751000D01*
X108857268Y-62750000D01*
X108857000Y-62749000D01*
X108857000Y-62651000D01*
X108858000Y-62649268D01*
X108859000Y-62649000D01*
X110119000Y-62649000D01*
X110119000Y-62244078D01*
X110120000Y-62242346D01*
X110122000Y-62242346D01*
X110122990Y-62243882D01*
G37*
G36*
X49880165Y-62242452D02*
G01*
X49881000Y-62244078D01*
X49881000Y-62649000D01*
X51141000Y-62649000D01*
X51142732Y-62650000D01*
X51143000Y-62651000D01*
X51143000Y-62749000D01*
X51142000Y-62750732D01*
X51141000Y-62751000D01*
X49881000Y-62751000D01*
X49881000Y-62975922D01*
X49880000Y-62977654D01*
X49878000Y-62977654D01*
X49877010Y-62976118D01*
X49874628Y-62951931D01*
X49867628Y-62928856D01*
X49856263Y-62907592D01*
X49840968Y-62888955D01*
X49822331Y-62873660D01*
X49801067Y-62862295D01*
X49777992Y-62855295D01*
X49754001Y-62852932D01*
X49730010Y-62855295D01*
X49706935Y-62862295D01*
X49685671Y-62873660D01*
X49681407Y-62877160D01*
X49681249Y-62877277D01*
X49675966Y-62880807D01*
X49673970Y-62880938D01*
X49672859Y-62879275D01*
X49673441Y-62877730D01*
X49719773Y-62831398D01*
X49757781Y-62774513D01*
X49783962Y-62711308D01*
X49797310Y-62644205D01*
X49797310Y-62575795D01*
X49783962Y-62508692D01*
X49757781Y-62445487D01*
X49719773Y-62388602D01*
X49673441Y-62342270D01*
X49672923Y-62340338D01*
X49674337Y-62338924D01*
X49675966Y-62339193D01*
X49681249Y-62342723D01*
X49681407Y-62342840D01*
X49685671Y-62346340D01*
X49706935Y-62357705D01*
X49730010Y-62364705D01*
X49754001Y-62367068D01*
X49777992Y-62364705D01*
X49801067Y-62357705D01*
X49822331Y-62346340D01*
X49840968Y-62331045D01*
X49856263Y-62312408D01*
X49867628Y-62291144D01*
X49874628Y-62268069D01*
X49877010Y-62243882D01*
X49878175Y-62242256D01*
X49880165Y-62242452D01*
G37*
G36*
X61280732Y-52868000D02*
G01*
X61281000Y-52869000D01*
X61281000Y-54131000D01*
X61280000Y-54132732D01*
X61279000Y-54133000D01*
X61181000Y-54133000D01*
X61179268Y-54132000D01*
X61179000Y-54131000D01*
X61179000Y-52869000D01*
X61180000Y-52867268D01*
X61181000Y-52867000D01*
X61279000Y-52867000D01*
X61280732Y-52868000D01*
G37*
G36*
X86720732Y-52868000D02*
G01*
X86721000Y-52869000D01*
X86721000Y-54131000D01*
X86720000Y-54132732D01*
X86719000Y-54133000D01*
X86621000Y-54133000D01*
X86619268Y-54132000D01*
X86619000Y-54131000D01*
X86619000Y-52869000D01*
X86620000Y-52867268D01*
X86621000Y-52867000D01*
X86719000Y-52867000D01*
X86720732Y-52868000D01*
G37*
G36*
X87220732Y-52868000D02*
G01*
X87221000Y-52869000D01*
X87221000Y-54131000D01*
X87220000Y-54132732D01*
X87219000Y-54133000D01*
X87121000Y-54133000D01*
X87119268Y-54132000D01*
X87119000Y-54131000D01*
X87119000Y-52869000D01*
X87120000Y-52867268D01*
X87121000Y-52867000D01*
X87219000Y-52867000D01*
X87220732Y-52868000D01*
G37*
G36*
X89792270Y-52663441D02*
G01*
X89838602Y-52709773D01*
X89895487Y-52747781D01*
X89958692Y-52773962D01*
X90025795Y-52787310D01*
X90094205Y-52787310D01*
X90161308Y-52773962D01*
X90224513Y-52747781D01*
X90281398Y-52709773D01*
X90327730Y-52663441D01*
X90329662Y-52662923D01*
X90331076Y-52664337D01*
X90330807Y-52665966D01*
X90327277Y-52671249D01*
X90327160Y-52671407D01*
X90323660Y-52675671D01*
X90312295Y-52696935D01*
X90305295Y-52720010D01*
X90302932Y-52744001D01*
X90305295Y-52767992D01*
X90312295Y-52791067D01*
X90323660Y-52812331D01*
X90338955Y-52830968D01*
X90357592Y-52846263D01*
X90378856Y-52857628D01*
X90401931Y-52864628D01*
X90426118Y-52867010D01*
X90427744Y-52868175D01*
X90427548Y-52870165D01*
X90425922Y-52871000D01*
X90021000Y-52871000D01*
X90021000Y-54131000D01*
X90020000Y-54132732D01*
X90019000Y-54133000D01*
X89921000Y-54133000D01*
X89919268Y-54132000D01*
X89919000Y-54131000D01*
X89919000Y-52871000D01*
X89694078Y-52871000D01*
X89692346Y-52870000D01*
X89692346Y-52868000D01*
X89693882Y-52867010D01*
X89718069Y-52864628D01*
X89741144Y-52857628D01*
X89762408Y-52846263D01*
X89781045Y-52830968D01*
X89796340Y-52812331D01*
X89807705Y-52791067D01*
X89814705Y-52767992D01*
X89817068Y-52744001D01*
X89814705Y-52720010D01*
X89807705Y-52696935D01*
X89796340Y-52675671D01*
X89792840Y-52671407D01*
X89792723Y-52671249D01*
X89789193Y-52665966D01*
X89789062Y-52663970D01*
X89790725Y-52662859D01*
X89792270Y-52663441D01*
G37*
G36*
X87720732Y-52868000D02*
G01*
X87721000Y-52869000D01*
X87721000Y-54131000D01*
X87720000Y-54132732D01*
X87719000Y-54133000D01*
X87621000Y-54133000D01*
X87619268Y-54132000D01*
X87619000Y-54131000D01*
X87619000Y-52869000D01*
X87620000Y-52867268D01*
X87621000Y-52867000D01*
X87719000Y-52867000D01*
X87720732Y-52868000D01*
G37*
G36*
X88220732Y-52868000D02*
G01*
X88221000Y-52869000D01*
X88221000Y-54131000D01*
X88220000Y-54132732D01*
X88219000Y-54133000D01*
X88121000Y-54133000D01*
X88119268Y-54132000D01*
X88119000Y-54131000D01*
X88119000Y-52869000D01*
X88120000Y-52867268D01*
X88121000Y-52867000D01*
X88219000Y-52867000D01*
X88220732Y-52868000D01*
G37*
G36*
X88720732Y-52868000D02*
G01*
X88721000Y-52869000D01*
X88721000Y-54131000D01*
X88720000Y-54132732D01*
X88719000Y-54133000D01*
X88621000Y-54133000D01*
X88619268Y-54132000D01*
X88619000Y-54131000D01*
X88619000Y-52869000D01*
X88620000Y-52867268D01*
X88621000Y-52867000D01*
X88719000Y-52867000D01*
X88720732Y-52868000D01*
G37*
G36*
X89220732Y-52868000D02*
G01*
X89221000Y-52869000D01*
X89221000Y-54131000D01*
X89220000Y-54132732D01*
X89219000Y-54133000D01*
X89121000Y-54133000D01*
X89119268Y-54132000D01*
X89119000Y-54131000D01*
X89119000Y-52869000D01*
X89120000Y-52867268D01*
X89121000Y-52867000D01*
X89219000Y-52867000D01*
X89220732Y-52868000D01*
G37*
G36*
X61852270Y-52663441D02*
G01*
X61898602Y-52709773D01*
X61955487Y-52747781D01*
X62018692Y-52773962D01*
X62085795Y-52787310D01*
X62154205Y-52787310D01*
X62221308Y-52773962D01*
X62284513Y-52747781D01*
X62341398Y-52709773D01*
X62387730Y-52663441D01*
X62389662Y-52662923D01*
X62391076Y-52664337D01*
X62390807Y-52665966D01*
X62387277Y-52671249D01*
X62387160Y-52671407D01*
X62383660Y-52675671D01*
X62372295Y-52696935D01*
X62365295Y-52720010D01*
X62362932Y-52744001D01*
X62365295Y-52767992D01*
X62372295Y-52791067D01*
X62383660Y-52812331D01*
X62398955Y-52830968D01*
X62417592Y-52846263D01*
X62438856Y-52857628D01*
X62461931Y-52864628D01*
X62486118Y-52867010D01*
X62487744Y-52868175D01*
X62487548Y-52870165D01*
X62485922Y-52871000D01*
X62081000Y-52871000D01*
X62081000Y-54131000D01*
X62080000Y-54132732D01*
X62079000Y-54133000D01*
X61981000Y-54133000D01*
X61979268Y-54132000D01*
X61979000Y-54131000D01*
X61979000Y-52871000D01*
X61754078Y-52871000D01*
X61752346Y-52870000D01*
X61752346Y-52868000D01*
X61753882Y-52867010D01*
X61778069Y-52864628D01*
X61801144Y-52857628D01*
X61822408Y-52846263D01*
X61841045Y-52830968D01*
X61856340Y-52812331D01*
X61867705Y-52791067D01*
X61874705Y-52767992D01*
X61877068Y-52744001D01*
X61874705Y-52720010D01*
X61867705Y-52696935D01*
X61856340Y-52675671D01*
X61852840Y-52671407D01*
X61852723Y-52671249D01*
X61849193Y-52665966D01*
X61849062Y-52663970D01*
X61850725Y-52662859D01*
X61852270Y-52663441D01*
G37*
G36*
X70362270Y-52663441D02*
G01*
X70408602Y-52709773D01*
X70465487Y-52747781D01*
X70528692Y-52773962D01*
X70595795Y-52787310D01*
X70664205Y-52787310D01*
X70731308Y-52773962D01*
X70794513Y-52747781D01*
X70851398Y-52709773D01*
X70897730Y-52663441D01*
X70899662Y-52662923D01*
X70901076Y-52664337D01*
X70900807Y-52665966D01*
X70897277Y-52671249D01*
X70897160Y-52671407D01*
X70893660Y-52675671D01*
X70882295Y-52696935D01*
X70875295Y-52720010D01*
X70872932Y-52744001D01*
X70875295Y-52767992D01*
X70882295Y-52791067D01*
X70893660Y-52812331D01*
X70908955Y-52830968D01*
X70927592Y-52846263D01*
X70948856Y-52857628D01*
X70971931Y-52864628D01*
X70996118Y-52867010D01*
X70997744Y-52868175D01*
X70997548Y-52870165D01*
X70995922Y-52871000D01*
X70771000Y-52871000D01*
X70771000Y-54131000D01*
X70770000Y-54132732D01*
X70769000Y-54133000D01*
X70671000Y-54133000D01*
X70669268Y-54132000D01*
X70669000Y-54131000D01*
X70669000Y-52871000D01*
X70264078Y-52871000D01*
X70262346Y-52870000D01*
X70262346Y-52868000D01*
X70263882Y-52867010D01*
X70288069Y-52864628D01*
X70311144Y-52857628D01*
X70332408Y-52846263D01*
X70351045Y-52830968D01*
X70366340Y-52812331D01*
X70377705Y-52791067D01*
X70384705Y-52767992D01*
X70387068Y-52744001D01*
X70384705Y-52720010D01*
X70377705Y-52696935D01*
X70366340Y-52675671D01*
X70362840Y-52671407D01*
X70362723Y-52671249D01*
X70359193Y-52665966D01*
X70359062Y-52663970D01*
X70360725Y-52662859D01*
X70362270Y-52663441D01*
G37*
G36*
X103762270Y-52663441D02*
G01*
X103808602Y-52709773D01*
X103865487Y-52747781D01*
X103928692Y-52773962D01*
X103995795Y-52787310D01*
X104064205Y-52787310D01*
X104131308Y-52773962D01*
X104194513Y-52747781D01*
X104251398Y-52709773D01*
X104297730Y-52663441D01*
X104299662Y-52662923D01*
X104301076Y-52664337D01*
X104300807Y-52665966D01*
X104297277Y-52671249D01*
X104297160Y-52671407D01*
X104293660Y-52675671D01*
X104282295Y-52696935D01*
X104275295Y-52720010D01*
X104272932Y-52744001D01*
X104275295Y-52767992D01*
X104282295Y-52791067D01*
X104293660Y-52812331D01*
X104308955Y-52830968D01*
X104327592Y-52846263D01*
X104348856Y-52857628D01*
X104371931Y-52864628D01*
X104396118Y-52867010D01*
X104397744Y-52868175D01*
X104397548Y-52870165D01*
X104395922Y-52871000D01*
X103991000Y-52871000D01*
X103991000Y-54131000D01*
X103990000Y-54132732D01*
X103989000Y-54133000D01*
X103891000Y-54133000D01*
X103889268Y-54132000D01*
X103889000Y-54131000D01*
X103889000Y-52871000D01*
X103664078Y-52871000D01*
X103662346Y-52870000D01*
X103662346Y-52868000D01*
X103663882Y-52867010D01*
X103688069Y-52864628D01*
X103711144Y-52857628D01*
X103732408Y-52846263D01*
X103751045Y-52830968D01*
X103766340Y-52812331D01*
X103777705Y-52791067D01*
X103784705Y-52767992D01*
X103787068Y-52744001D01*
X103784705Y-52720010D01*
X103777705Y-52696935D01*
X103766340Y-52675671D01*
X103762840Y-52671407D01*
X103762723Y-52671249D01*
X103759193Y-52665966D01*
X103759062Y-52663970D01*
X103760725Y-52662859D01*
X103762270Y-52663441D01*
G37*
G36*
X58780732Y-52868000D02*
G01*
X58781000Y-52869000D01*
X58781000Y-54131000D01*
X58780000Y-54132732D01*
X58779000Y-54133000D01*
X58681000Y-54133000D01*
X58679268Y-54132000D01*
X58679000Y-54131000D01*
X58679000Y-52869000D01*
X58680000Y-52867268D01*
X58681000Y-52867000D01*
X58779000Y-52867000D01*
X58780732Y-52868000D01*
G37*
G36*
X103190732Y-52868000D02*
G01*
X103191000Y-52869000D01*
X103191000Y-54131000D01*
X103190000Y-54132732D01*
X103189000Y-54133000D01*
X103091000Y-54133000D01*
X103089268Y-54132000D01*
X103089000Y-54131000D01*
X103089000Y-52869000D01*
X103090000Y-52867268D01*
X103091000Y-52867000D01*
X103189000Y-52867000D01*
X103190732Y-52868000D01*
G37*
G36*
X76142270Y-52663441D02*
G01*
X76188602Y-52709773D01*
X76245487Y-52747781D01*
X76308692Y-52773962D01*
X76375795Y-52787310D01*
X76444205Y-52787310D01*
X76511308Y-52773962D01*
X76574513Y-52747781D01*
X76631398Y-52709773D01*
X76677730Y-52663441D01*
X76679662Y-52662923D01*
X76681076Y-52664337D01*
X76680807Y-52665966D01*
X76677277Y-52671249D01*
X76677160Y-52671407D01*
X76673660Y-52675671D01*
X76662295Y-52696935D01*
X76655295Y-52720010D01*
X76652932Y-52744001D01*
X76655295Y-52767992D01*
X76662295Y-52791067D01*
X76673660Y-52812331D01*
X76688955Y-52830968D01*
X76707592Y-52846263D01*
X76728856Y-52857628D01*
X76751931Y-52864628D01*
X76776118Y-52867010D01*
X76777744Y-52868175D01*
X76777548Y-52870165D01*
X76775922Y-52871000D01*
X76371000Y-52871000D01*
X76371000Y-54131000D01*
X76370000Y-54132732D01*
X76369000Y-54133000D01*
X76271000Y-54133000D01*
X76269268Y-54132000D01*
X76269000Y-54131000D01*
X76269000Y-52871000D01*
X76044078Y-52871000D01*
X76042346Y-52870000D01*
X76042346Y-52868000D01*
X76043882Y-52867010D01*
X76068069Y-52864628D01*
X76091144Y-52857628D01*
X76112408Y-52846263D01*
X76131045Y-52830968D01*
X76146340Y-52812331D01*
X76157705Y-52791067D01*
X76164705Y-52767992D01*
X76167068Y-52744001D01*
X76164705Y-52720010D01*
X76157705Y-52696935D01*
X76146340Y-52675671D01*
X76142840Y-52671407D01*
X76142723Y-52671249D01*
X76139193Y-52665966D01*
X76139062Y-52663970D01*
X76140725Y-52662859D01*
X76142270Y-52663441D01*
G37*
G36*
X60780732Y-52868000D02*
G01*
X60781000Y-52869000D01*
X60781000Y-54131000D01*
X60780000Y-54132732D01*
X60779000Y-54133000D01*
X60681000Y-54133000D01*
X60679268Y-54132000D01*
X60679000Y-54131000D01*
X60679000Y-52869000D01*
X60680000Y-52867268D01*
X60681000Y-52867000D01*
X60779000Y-52867000D01*
X60780732Y-52868000D01*
G37*
G36*
X59780732Y-52868000D02*
G01*
X59781000Y-52869000D01*
X59781000Y-54131000D01*
X59780000Y-54132732D01*
X59779000Y-54133000D01*
X59681000Y-54133000D01*
X59679268Y-54132000D01*
X59679000Y-54131000D01*
X59679000Y-52869000D01*
X59680000Y-52867268D01*
X59681000Y-52867000D01*
X59779000Y-52867000D01*
X59780732Y-52868000D01*
G37*
G36*
X59280732Y-52868000D02*
G01*
X59281000Y-52869000D01*
X59281000Y-54131000D01*
X59280000Y-54132732D01*
X59279000Y-54133000D01*
X59181000Y-54133000D01*
X59179268Y-54132000D01*
X59179000Y-54131000D01*
X59179000Y-52869000D01*
X59180000Y-52867268D01*
X59181000Y-52867000D01*
X59279000Y-52867000D01*
X59280732Y-52868000D01*
G37*
G36*
X102690732Y-52868000D02*
G01*
X102691000Y-52869000D01*
X102691000Y-54131000D01*
X102690000Y-54132732D01*
X102689000Y-54133000D01*
X102591000Y-54133000D01*
X102589268Y-54132000D01*
X102589000Y-54131000D01*
X102589000Y-52869000D01*
X102590000Y-52867268D01*
X102591000Y-52867000D01*
X102689000Y-52867000D01*
X102690732Y-52868000D01*
G37*
G36*
X85720732Y-52868000D02*
G01*
X85721000Y-52869000D01*
X85721000Y-54131000D01*
X85720000Y-54132732D01*
X85719000Y-54133000D01*
X85621000Y-54133000D01*
X85619268Y-54132000D01*
X85619000Y-54131000D01*
X85619000Y-52869000D01*
X85620000Y-52867268D01*
X85621000Y-52867000D01*
X85719000Y-52867000D01*
X85720732Y-52868000D01*
G37*
G36*
X57280732Y-52868000D02*
G01*
X57281000Y-52869000D01*
X57281000Y-54131000D01*
X57280000Y-54132732D01*
X57279000Y-54133000D01*
X57181000Y-54133000D01*
X57179268Y-54132000D01*
X57179000Y-54131000D01*
X57179000Y-52869000D01*
X57180000Y-52867268D01*
X57181000Y-52867000D01*
X57279000Y-52867000D01*
X57280732Y-52868000D01*
G37*
G36*
X57780732Y-52868000D02*
G01*
X57781000Y-52869000D01*
X57781000Y-54131000D01*
X57780000Y-54132732D01*
X57779000Y-54133000D01*
X57681000Y-54133000D01*
X57679268Y-54132000D01*
X57679000Y-54131000D01*
X57679000Y-52869000D01*
X57680000Y-52867268D01*
X57681000Y-52867000D01*
X57779000Y-52867000D01*
X57780732Y-52868000D01*
G37*
G36*
X58280732Y-52868000D02*
G01*
X58281000Y-52869000D01*
X58281000Y-54131000D01*
X58280000Y-54132732D01*
X58279000Y-54133000D01*
X58181000Y-54133000D01*
X58179268Y-54132000D01*
X58179000Y-54131000D01*
X58179000Y-52869000D01*
X58180000Y-52867268D01*
X58181000Y-52867000D01*
X58279000Y-52867000D01*
X58280732Y-52868000D01*
G37*
G36*
X74070732Y-52868000D02*
G01*
X74071000Y-52869000D01*
X74071000Y-54131000D01*
X74070000Y-54132732D01*
X74069000Y-54133000D01*
X73971000Y-54133000D01*
X73969268Y-54132000D01*
X73969000Y-54131000D01*
X73969000Y-52869000D01*
X73970000Y-52867268D01*
X73971000Y-52867000D01*
X74069000Y-52867000D01*
X74070732Y-52868000D01*
G37*
G36*
X97982270Y-52663441D02*
G01*
X98028602Y-52709773D01*
X98085487Y-52747781D01*
X98148692Y-52773962D01*
X98215795Y-52787310D01*
X98284205Y-52787310D01*
X98351308Y-52773962D01*
X98414513Y-52747781D01*
X98471398Y-52709773D01*
X98517730Y-52663441D01*
X98519662Y-52662923D01*
X98521076Y-52664337D01*
X98520807Y-52665966D01*
X98517277Y-52671249D01*
X98517160Y-52671407D01*
X98513660Y-52675671D01*
X98502295Y-52696935D01*
X98495295Y-52720010D01*
X98492932Y-52744001D01*
X98495295Y-52767992D01*
X98502295Y-52791067D01*
X98513660Y-52812331D01*
X98528955Y-52830968D01*
X98547592Y-52846263D01*
X98568856Y-52857628D01*
X98591931Y-52864628D01*
X98616118Y-52867010D01*
X98617744Y-52868175D01*
X98617548Y-52870165D01*
X98615922Y-52871000D01*
X98391000Y-52871000D01*
X98391000Y-54131000D01*
X98390000Y-54132732D01*
X98389000Y-54133000D01*
X98291000Y-54133000D01*
X98289268Y-54132000D01*
X98289000Y-54131000D01*
X98289000Y-52871000D01*
X97884078Y-52871000D01*
X97882346Y-52870000D01*
X97882346Y-52868000D01*
X97883882Y-52867010D01*
X97908069Y-52864628D01*
X97931144Y-52857628D01*
X97952408Y-52846263D01*
X97971045Y-52830968D01*
X97986340Y-52812331D01*
X97997705Y-52791067D01*
X98004705Y-52767992D01*
X98007068Y-52744001D01*
X98004705Y-52720010D01*
X97997705Y-52696935D01*
X97986340Y-52675671D01*
X97982840Y-52671407D01*
X97982723Y-52671249D01*
X97979193Y-52665966D01*
X97979062Y-52663970D01*
X97980725Y-52662859D01*
X97982270Y-52663441D01*
G37*
G36*
X72570732Y-52868000D02*
G01*
X72571000Y-52869000D01*
X72571000Y-54131000D01*
X72570000Y-54132732D01*
X72569000Y-54133000D01*
X72471000Y-54133000D01*
X72469268Y-54132000D01*
X72469000Y-54131000D01*
X72469000Y-52869000D01*
X72470000Y-52867268D01*
X72471000Y-52867000D01*
X72569000Y-52867000D01*
X72570732Y-52868000D01*
G37*
G36*
X60280732Y-52868000D02*
G01*
X60281000Y-52869000D01*
X60281000Y-54131000D01*
X60280000Y-54132732D01*
X60279000Y-54133000D01*
X60181000Y-54133000D01*
X60179268Y-54132000D01*
X60179000Y-54131000D01*
X60179000Y-52869000D01*
X60180000Y-52867268D01*
X60181000Y-52867000D01*
X60279000Y-52867000D01*
X60280732Y-52868000D01*
G37*
G36*
X74570732Y-52868000D02*
G01*
X74571000Y-52869000D01*
X74571000Y-54131000D01*
X74570000Y-54132732D01*
X74569000Y-54133000D01*
X74471000Y-54133000D01*
X74469268Y-54132000D01*
X74469000Y-54131000D01*
X74469000Y-52869000D01*
X74470000Y-52867268D01*
X74471000Y-52867000D01*
X74569000Y-52867000D01*
X74570732Y-52868000D01*
G37*
G36*
X75070732Y-52868000D02*
G01*
X75071000Y-52869000D01*
X75071000Y-54131000D01*
X75070000Y-54132732D01*
X75069000Y-54133000D01*
X74971000Y-54133000D01*
X74969268Y-54132000D01*
X74969000Y-54131000D01*
X74969000Y-52869000D01*
X74970000Y-52867268D01*
X74971000Y-52867000D01*
X75069000Y-52867000D01*
X75070732Y-52868000D01*
G37*
G36*
X75570732Y-52868000D02*
G01*
X75571000Y-52869000D01*
X75571000Y-54131000D01*
X75570000Y-54132732D01*
X75569000Y-54133000D01*
X75471000Y-54133000D01*
X75469268Y-54132000D01*
X75469000Y-54131000D01*
X75469000Y-52869000D01*
X75470000Y-52867268D01*
X75471000Y-52867000D01*
X75569000Y-52867000D01*
X75570732Y-52868000D01*
G37*
G36*
X73570732Y-52868000D02*
G01*
X73571000Y-52869000D01*
X73571000Y-54131000D01*
X73570000Y-54132732D01*
X73569000Y-54133000D01*
X73471000Y-54133000D01*
X73469268Y-54132000D01*
X73469000Y-54131000D01*
X73469000Y-52869000D01*
X73470000Y-52867268D01*
X73471000Y-52867000D01*
X73569000Y-52867000D01*
X73570732Y-52868000D01*
G37*
G36*
X100690732Y-52868000D02*
G01*
X100691000Y-52869000D01*
X100691000Y-54131000D01*
X100690000Y-54132732D01*
X100689000Y-54133000D01*
X100591000Y-54133000D01*
X100589268Y-54132000D01*
X100589000Y-54131000D01*
X100589000Y-52869000D01*
X100590000Y-52867268D01*
X100591000Y-52867000D01*
X100689000Y-52867000D01*
X100690732Y-52868000D01*
G37*
G36*
X101190732Y-52868000D02*
G01*
X101191000Y-52869000D01*
X101191000Y-54131000D01*
X101190000Y-54132732D01*
X101189000Y-54133000D01*
X101091000Y-54133000D01*
X101089268Y-54132000D01*
X101089000Y-54131000D01*
X101089000Y-52869000D01*
X101090000Y-52867268D01*
X101091000Y-52867000D01*
X101189000Y-52867000D01*
X101190732Y-52868000D01*
G37*
G36*
X101690732Y-52868000D02*
G01*
X101691000Y-52869000D01*
X101691000Y-54131000D01*
X101690000Y-54132732D01*
X101689000Y-54133000D01*
X101591000Y-54133000D01*
X101589268Y-54132000D01*
X101589000Y-54131000D01*
X101589000Y-52869000D01*
X101590000Y-52867268D01*
X101591000Y-52867000D01*
X101689000Y-52867000D01*
X101690732Y-52868000D01*
G37*
G36*
X102190732Y-52868000D02*
G01*
X102191000Y-52869000D01*
X102191000Y-54131000D01*
X102190000Y-54132732D01*
X102189000Y-54133000D01*
X102091000Y-54133000D01*
X102089268Y-54132000D01*
X102089000Y-54131000D01*
X102089000Y-52869000D01*
X102090000Y-52867268D01*
X102091000Y-52867000D01*
X102189000Y-52867000D01*
X102190732Y-52868000D01*
G37*
G36*
X73070732Y-52868000D02*
G01*
X73071000Y-52869000D01*
X73071000Y-54131000D01*
X73070000Y-54132732D01*
X73069000Y-54133000D01*
X72971000Y-54133000D01*
X72969268Y-54132000D01*
X72969000Y-54131000D01*
X72969000Y-52869000D01*
X72970000Y-52867268D01*
X72971000Y-52867000D01*
X73069000Y-52867000D01*
X73070732Y-52868000D01*
G37*
G36*
X56072270Y-52663441D02*
G01*
X56118602Y-52709773D01*
X56175487Y-52747781D01*
X56238692Y-52773962D01*
X56305795Y-52787310D01*
X56374205Y-52787310D01*
X56441308Y-52773962D01*
X56504513Y-52747781D01*
X56561398Y-52709773D01*
X56607730Y-52663441D01*
X56609662Y-52662923D01*
X56611076Y-52664337D01*
X56610807Y-52665966D01*
X56607277Y-52671249D01*
X56607160Y-52671407D01*
X56603660Y-52675671D01*
X56592295Y-52696935D01*
X56585295Y-52720010D01*
X56582932Y-52744001D01*
X56585295Y-52767992D01*
X56592295Y-52791067D01*
X56603660Y-52812331D01*
X56618955Y-52830968D01*
X56637592Y-52846263D01*
X56658856Y-52857628D01*
X56681931Y-52864628D01*
X56706118Y-52867010D01*
X56707744Y-52868175D01*
X56707548Y-52870165D01*
X56705922Y-52871000D01*
X56481000Y-52871000D01*
X56481000Y-54131000D01*
X56480000Y-54132732D01*
X56479000Y-54133000D01*
X56381000Y-54133000D01*
X56379268Y-54132000D01*
X56379000Y-54131000D01*
X56379000Y-52871000D01*
X55974078Y-52871000D01*
X55972346Y-52870000D01*
X55972346Y-52868000D01*
X55973882Y-52867010D01*
X55998069Y-52864628D01*
X56021144Y-52857628D01*
X56042408Y-52846263D01*
X56061045Y-52830968D01*
X56076340Y-52812331D01*
X56087705Y-52791067D01*
X56094705Y-52767992D01*
X56097068Y-52744001D01*
X56094705Y-52720010D01*
X56087705Y-52696935D01*
X56076340Y-52675671D01*
X56072840Y-52671407D01*
X56072723Y-52671249D01*
X56069193Y-52665966D01*
X56069062Y-52663970D01*
X56070725Y-52662859D01*
X56072270Y-52663441D01*
G37*
G36*
X71570732Y-52868000D02*
G01*
X71571000Y-52869000D01*
X71571000Y-54131000D01*
X71570000Y-54132732D01*
X71569000Y-54133000D01*
X71471000Y-54133000D01*
X71469268Y-54132000D01*
X71469000Y-54131000D01*
X71469000Y-52869000D01*
X71470000Y-52867268D01*
X71471000Y-52867000D01*
X71569000Y-52867000D01*
X71570732Y-52868000D01*
G37*
G36*
X86220732Y-52868000D02*
G01*
X86221000Y-52869000D01*
X86221000Y-54131000D01*
X86220000Y-54132732D01*
X86219000Y-54133000D01*
X86121000Y-54133000D01*
X86119268Y-54132000D01*
X86119000Y-54131000D01*
X86119000Y-52869000D01*
X86120000Y-52867268D01*
X86121000Y-52867000D01*
X86219000Y-52867000D01*
X86220732Y-52868000D01*
G37*
G36*
X100190732Y-52868000D02*
G01*
X100191000Y-52869000D01*
X100191000Y-54131000D01*
X100190000Y-54132732D01*
X100189000Y-54133000D01*
X100091000Y-54133000D01*
X100089268Y-54132000D01*
X100089000Y-54131000D01*
X100089000Y-52869000D01*
X100090000Y-52867268D01*
X100091000Y-52867000D01*
X100189000Y-52867000D01*
X100190732Y-52868000D01*
G37*
G36*
X99690732Y-52868000D02*
G01*
X99691000Y-52869000D01*
X99691000Y-54131000D01*
X99690000Y-54132732D01*
X99689000Y-54133000D01*
X99591000Y-54133000D01*
X99589268Y-54132000D01*
X99589000Y-54131000D01*
X99589000Y-52869000D01*
X99590000Y-52867268D01*
X99591000Y-52867000D01*
X99689000Y-52867000D01*
X99690732Y-52868000D01*
G37*
G36*
X99190732Y-52868000D02*
G01*
X99191000Y-52869000D01*
X99191000Y-54131000D01*
X99190000Y-54132732D01*
X99189000Y-54133000D01*
X99091000Y-54133000D01*
X99089268Y-54132000D01*
X99089000Y-54131000D01*
X99089000Y-52869000D01*
X99090000Y-52867268D01*
X99091000Y-52867000D01*
X99189000Y-52867000D01*
X99190732Y-52868000D01*
G37*
G36*
X85220732Y-52868000D02*
G01*
X85221000Y-52869000D01*
X85221000Y-54131000D01*
X85220000Y-54132732D01*
X85219000Y-54133000D01*
X85121000Y-54133000D01*
X85119268Y-54132000D01*
X85119000Y-54131000D01*
X85119000Y-52869000D01*
X85120000Y-52867268D01*
X85121000Y-52867000D01*
X85219000Y-52867000D01*
X85220732Y-52868000D01*
G37*
G36*
X72070732Y-52868000D02*
G01*
X72071000Y-52869000D01*
X72071000Y-54131000D01*
X72070000Y-54132732D01*
X72069000Y-54133000D01*
X71971000Y-54133000D01*
X71969268Y-54132000D01*
X71969000Y-54131000D01*
X71969000Y-52869000D01*
X71970000Y-52867268D01*
X71971000Y-52867000D01*
X72069000Y-52867000D01*
X72070732Y-52868000D01*
G37*
G36*
X84012270Y-52663441D02*
G01*
X84058602Y-52709773D01*
X84115487Y-52747781D01*
X84178692Y-52773962D01*
X84245795Y-52787310D01*
X84314205Y-52787310D01*
X84381308Y-52773962D01*
X84444513Y-52747781D01*
X84501398Y-52709773D01*
X84547730Y-52663441D01*
X84549662Y-52662923D01*
X84551076Y-52664337D01*
X84550807Y-52665966D01*
X84547277Y-52671249D01*
X84547160Y-52671407D01*
X84543660Y-52675671D01*
X84532295Y-52696935D01*
X84525295Y-52720010D01*
X84522932Y-52744001D01*
X84525295Y-52767992D01*
X84532295Y-52791067D01*
X84543660Y-52812331D01*
X84558955Y-52830968D01*
X84577592Y-52846263D01*
X84598856Y-52857628D01*
X84621931Y-52864628D01*
X84646118Y-52867010D01*
X84647744Y-52868175D01*
X84647548Y-52870165D01*
X84645922Y-52871000D01*
X84421000Y-52871000D01*
X84421000Y-54131000D01*
X84420000Y-54132732D01*
X84419000Y-54133000D01*
X84321000Y-54133000D01*
X84319268Y-54132000D01*
X84319000Y-54131000D01*
X84319000Y-52871000D01*
X83914078Y-52871000D01*
X83912346Y-52870000D01*
X83912346Y-52868000D01*
X83913882Y-52867010D01*
X83938069Y-52864628D01*
X83961144Y-52857628D01*
X83982408Y-52846263D01*
X84001045Y-52830968D01*
X84016340Y-52812331D01*
X84027705Y-52791067D01*
X84034705Y-52767992D01*
X84037068Y-52744001D01*
X84034705Y-52720010D01*
X84027705Y-52696935D01*
X84016340Y-52675671D01*
X84012840Y-52671407D01*
X84012723Y-52671249D01*
X84009193Y-52665966D01*
X84009062Y-52663970D01*
X84010725Y-52662859D01*
X84012270Y-52663441D01*
G37*
M02*
