%TF.GenerationSoftware,KiCad,Pcbnew,(5.1.12)-1*%
%TF.CreationDate,2022-03-20T11:52:14+09:00*%
%TF.ProjectId,NHK2022_usbc,4e484b32-3032-4325-9f75-7362632e6b69,rev?*%
%TF.SameCoordinates,PX29020c0PY4e33880*%
%TF.FileFunction,Copper,L2,Bot*%
%TF.FilePolarity,Positive*%
%FSLAX46Y46*%
G04 Gerber Fmt 4.6, Leading zero omitted, Abs format (unit mm)*
G04 Created by KiCad (PCBNEW (5.1.12)-1) date 2022-03-20 11:52:14*
%MOMM*%
%LPD*%
G01*
G04 APERTURE LIST*
%TA.AperFunction,Profile*%
%ADD10C,0.050000*%
%TD*%
%TA.AperFunction,ComponentPad*%
%ADD11O,1.400000X1.400000*%
%TD*%
%TA.AperFunction,ComponentPad*%
%ADD12C,1.400000*%
%TD*%
%TA.AperFunction,ComponentPad*%
%ADD13O,1.700000X1.700000*%
%TD*%
%TA.AperFunction,ComponentPad*%
%ADD14R,1.700000X1.700000*%
%TD*%
%TA.AperFunction,ComponentPad*%
%ADD15O,0.900000X1.700000*%
%TD*%
%TA.AperFunction,ComponentPad*%
%ADD16O,0.900000X2.000000*%
%TD*%
%TA.AperFunction,ComponentPad*%
%ADD17O,1.700000X0.900000*%
%TD*%
%TA.AperFunction,ComponentPad*%
%ADD18O,2.000000X0.900000*%
%TD*%
%TA.AperFunction,ViaPad*%
%ADD19C,0.600000*%
%TD*%
%TA.AperFunction,Conductor*%
%ADD20C,0.250000*%
%TD*%
%TA.AperFunction,Conductor*%
%ADD21C,0.254000*%
%TD*%
%TA.AperFunction,Conductor*%
%ADD22C,0.100000*%
%TD*%
%ADD23C,0.300000*%
%ADD24C,0.350000*%
%ADD25O,0.600000X1.400000*%
%ADD26O,0.600000X1.700000*%
%ADD27O,1.400000X0.600000*%
%ADD28O,1.700000X0.600000*%
G04 APERTURE END LIST*
D10*
X43000000Y-50000000D02*
X43000000Y-78000000D01*
X47000000Y-82000000D02*
G75*
G02*
X43000000Y-78000000I0J4000000D01*
G01*
X43000000Y-50000000D02*
G75*
G02*
X47000000Y-46000000I4000000J0D01*
G01*
X117000000Y-50000000D02*
X117000000Y-78000000D01*
X117000000Y-78000000D02*
G75*
G02*
X113000000Y-82000000I-4000000J0D01*
G01*
X113000000Y-46000000D02*
G75*
G02*
X117000000Y-50000000I0J-4000000D01*
G01*
X113000000Y-46000000D02*
X47000000Y-46000000D01*
X47000000Y-82000000D02*
X113000000Y-82000000D01*
D11*
%TO.P,R1,2*%
%TO.N,Net-(JP1-Pad2)*%
X99870000Y-61690000D03*
D12*
%TO.P,R1,1*%
%TO.N,D-*%
X104950000Y-61690000D03*
%TD*%
D13*
%TO.P,JP1,2*%
%TO.N,Net-(JP1-Pad2)*%
X93540000Y-61690000D03*
D14*
%TO.P,JP1,1*%
%TO.N,D+*%
X91000000Y-61690000D03*
%TD*%
D15*
%TO.P,J4,S1*%
%TO.N,GND*%
X82850000Y-48750000D03*
X91490000Y-48750000D03*
D16*
X82850000Y-52920000D03*
X91490000Y-52920000D03*
%TD*%
D15*
%TO.P,J5,S1*%
%TO.N,GND*%
X96820000Y-48750000D03*
X105460000Y-48750000D03*
D16*
X96820000Y-52920000D03*
X105460000Y-52920000D03*
%TD*%
D15*
%TO.P,J3,S1*%
%TO.N,GND*%
X69200000Y-48750000D03*
X77840000Y-48750000D03*
D16*
X69200000Y-52920000D03*
X77840000Y-52920000D03*
%TD*%
D15*
%TO.P,J2,S1*%
%TO.N,GND*%
X54910000Y-48750000D03*
X63550000Y-48750000D03*
D16*
X54910000Y-52920000D03*
X63550000Y-52920000D03*
%TD*%
D17*
%TO.P,J6,S1*%
%TO.N,GND*%
X114240000Y-61180000D03*
X114240000Y-69820000D03*
D18*
X110070000Y-61180000D03*
X110070000Y-69820000D03*
%TD*%
D17*
%TO.P,J1,S1*%
%TO.N,GND*%
X45760000Y-69820000D03*
X45760000Y-61180000D03*
D18*
X49930000Y-69820000D03*
X49930000Y-61180000D03*
%TD*%
D19*
%TO.N,D+*%
X102500000Y-51500000D03*
X51500000Y-55000000D03*
X57500000Y-55000000D03*
X87000000Y-52000000D03*
X107000000Y-59500000D03*
%TO.N,D-*%
X58500000Y-55500000D03*
X60500000Y-55000000D03*
X72500000Y-55000000D03*
X75000000Y-55000000D03*
X86000000Y-55000000D03*
X100000000Y-55000000D03*
X88500000Y-55000000D03*
X53000000Y-63500000D03*
%TD*%
D20*
%TO.N,D+*%
X102500000Y-51500000D02*
X102500000Y-56500000D01*
X88330010Y-59020010D02*
X91000000Y-61690000D01*
X51500000Y-55000000D02*
X57500000Y-55000000D01*
X87000000Y-57690000D02*
X88330010Y-59020010D01*
X87000000Y-52000000D02*
X87000000Y-57690000D01*
X105500000Y-59500000D02*
X102500000Y-56500000D01*
X107000000Y-59500000D02*
X105500000Y-59500000D01*
%TO.N,D-*%
X58000000Y-55500000D02*
X58500000Y-55500000D01*
X60500000Y-55000000D02*
X72500000Y-55000000D01*
X75000000Y-55000000D02*
X86000000Y-55000000D01*
X89000000Y-55000000D02*
X100000000Y-55000000D01*
X88500000Y-55000000D02*
X89000000Y-55000000D01*
X58000000Y-58500000D02*
X53000000Y-63500000D01*
X58000000Y-55500000D02*
X58000000Y-58500000D01*
%TD*%
D21*
%TO.N,GND*%
X113697696Y-46476356D02*
X114368824Y-46678982D01*
X114987810Y-47008102D01*
X115531084Y-47451184D01*
X115977946Y-47991347D01*
X116311381Y-48608022D01*
X116518686Y-49277716D01*
X116593976Y-49994053D01*
X116594000Y-50000834D01*
X116594001Y-77980136D01*
X116523644Y-78697696D01*
X116321017Y-79368828D01*
X115991896Y-79987814D01*
X115548815Y-80531084D01*
X115008652Y-80977946D01*
X114391977Y-81311381D01*
X113722284Y-81518686D01*
X113005947Y-81593976D01*
X112999166Y-81594000D01*
X47019854Y-81594000D01*
X46302304Y-81523644D01*
X45631172Y-81321017D01*
X45012186Y-80991896D01*
X44468916Y-80548815D01*
X44022054Y-80008652D01*
X43688619Y-79391977D01*
X43481314Y-78722284D01*
X43406024Y-78005947D01*
X43406000Y-77999166D01*
X43406000Y-77804889D01*
X45019000Y-77804889D01*
X45019000Y-78195111D01*
X45095129Y-78577836D01*
X45244461Y-78938355D01*
X45461257Y-79262814D01*
X45737186Y-79538743D01*
X46061645Y-79755539D01*
X46422164Y-79904871D01*
X46804889Y-79981000D01*
X47195111Y-79981000D01*
X47577836Y-79904871D01*
X47938355Y-79755539D01*
X48262814Y-79538743D01*
X48538743Y-79262814D01*
X48755539Y-78938355D01*
X48904871Y-78577836D01*
X48981000Y-78195111D01*
X48981000Y-77804889D01*
X111019000Y-77804889D01*
X111019000Y-78195111D01*
X111095129Y-78577836D01*
X111244461Y-78938355D01*
X111461257Y-79262814D01*
X111737186Y-79538743D01*
X112061645Y-79755539D01*
X112422164Y-79904871D01*
X112804889Y-79981000D01*
X113195111Y-79981000D01*
X113577836Y-79904871D01*
X113938355Y-79755539D01*
X114262814Y-79538743D01*
X114538743Y-79262814D01*
X114755539Y-78938355D01*
X114904871Y-78577836D01*
X114981000Y-78195111D01*
X114981000Y-77804889D01*
X114904871Y-77422164D01*
X114755539Y-77061645D01*
X114538743Y-76737186D01*
X114262814Y-76461257D01*
X113938355Y-76244461D01*
X113577836Y-76095129D01*
X113195111Y-76019000D01*
X112804889Y-76019000D01*
X112422164Y-76095129D01*
X112061645Y-76244461D01*
X111737186Y-76461257D01*
X111461257Y-76737186D01*
X111244461Y-77061645D01*
X111095129Y-77422164D01*
X111019000Y-77804889D01*
X48981000Y-77804889D01*
X48904871Y-77422164D01*
X48755539Y-77061645D01*
X48538743Y-76737186D01*
X48262814Y-76461257D01*
X47938355Y-76244461D01*
X47577836Y-76095129D01*
X47195111Y-76019000D01*
X46804889Y-76019000D01*
X46422164Y-76095129D01*
X46061645Y-76244461D01*
X45737186Y-76461257D01*
X45461257Y-76737186D01*
X45244461Y-77061645D01*
X45095129Y-77422164D01*
X45019000Y-77804889D01*
X43406000Y-77804889D01*
X43406000Y-70114001D01*
X44315592Y-70114001D01*
X44387298Y-70317197D01*
X44502986Y-70497408D01*
X44651609Y-70651587D01*
X44827455Y-70773809D01*
X45023767Y-70859376D01*
X45233000Y-70905000D01*
X45633000Y-70905000D01*
X45633000Y-69947000D01*
X45887000Y-69947000D01*
X45887000Y-70905000D01*
X46287000Y-70905000D01*
X46496233Y-70859376D01*
X46692545Y-70773809D01*
X46868391Y-70651587D01*
X47017014Y-70497408D01*
X47132702Y-70317197D01*
X47204408Y-70114001D01*
X48335592Y-70114001D01*
X48407298Y-70317197D01*
X48522986Y-70497408D01*
X48671609Y-70651587D01*
X48847455Y-70773809D01*
X49043767Y-70859376D01*
X49253000Y-70905000D01*
X49803000Y-70905000D01*
X49803000Y-69947000D01*
X50057000Y-69947000D01*
X50057000Y-70905000D01*
X50607000Y-70905000D01*
X50816233Y-70859376D01*
X51012545Y-70773809D01*
X51188391Y-70651587D01*
X51337014Y-70497408D01*
X51452702Y-70317197D01*
X51524408Y-70114001D01*
X108475592Y-70114001D01*
X108547298Y-70317197D01*
X108662986Y-70497408D01*
X108811609Y-70651587D01*
X108987455Y-70773809D01*
X109183767Y-70859376D01*
X109393000Y-70905000D01*
X109943000Y-70905000D01*
X109943000Y-69947000D01*
X110197000Y-69947000D01*
X110197000Y-70905000D01*
X110747000Y-70905000D01*
X110956233Y-70859376D01*
X111152545Y-70773809D01*
X111328391Y-70651587D01*
X111477014Y-70497408D01*
X111592702Y-70317197D01*
X111664408Y-70114001D01*
X112795592Y-70114001D01*
X112867298Y-70317197D01*
X112982986Y-70497408D01*
X113131609Y-70651587D01*
X113307455Y-70773809D01*
X113503767Y-70859376D01*
X113713000Y-70905000D01*
X114113000Y-70905000D01*
X114113000Y-69947000D01*
X114367000Y-69947000D01*
X114367000Y-70905000D01*
X114767000Y-70905000D01*
X114976233Y-70859376D01*
X115172545Y-70773809D01*
X115348391Y-70651587D01*
X115497014Y-70497408D01*
X115612702Y-70317197D01*
X115684408Y-70114001D01*
X115557502Y-69947000D01*
X114367000Y-69947000D01*
X114113000Y-69947000D01*
X112922498Y-69947000D01*
X112795592Y-70114001D01*
X111664408Y-70114001D01*
X111537502Y-69947000D01*
X110197000Y-69947000D01*
X109943000Y-69947000D01*
X108602498Y-69947000D01*
X108475592Y-70114001D01*
X51524408Y-70114001D01*
X51397502Y-69947000D01*
X50057000Y-69947000D01*
X49803000Y-69947000D01*
X48462498Y-69947000D01*
X48335592Y-70114001D01*
X47204408Y-70114001D01*
X47077502Y-69947000D01*
X45887000Y-69947000D01*
X45633000Y-69947000D01*
X44442498Y-69947000D01*
X44315592Y-70114001D01*
X43406000Y-70114001D01*
X43406000Y-69525999D01*
X44315592Y-69525999D01*
X44442498Y-69693000D01*
X45633000Y-69693000D01*
X45633000Y-68735000D01*
X45887000Y-68735000D01*
X45887000Y-69693000D01*
X47077502Y-69693000D01*
X47204408Y-69525999D01*
X48335592Y-69525999D01*
X48462498Y-69693000D01*
X49803000Y-69693000D01*
X49803000Y-69673000D01*
X50057000Y-69673000D01*
X50057000Y-69693000D01*
X51397502Y-69693000D01*
X51524408Y-69525999D01*
X108475592Y-69525999D01*
X108602498Y-69693000D01*
X109943000Y-69693000D01*
X109943000Y-69673000D01*
X110197000Y-69673000D01*
X110197000Y-69693000D01*
X111537502Y-69693000D01*
X111664408Y-69525999D01*
X112795592Y-69525999D01*
X112922498Y-69693000D01*
X114113000Y-69693000D01*
X114113000Y-68735000D01*
X114367000Y-68735000D01*
X114367000Y-69693000D01*
X115557502Y-69693000D01*
X115684408Y-69525999D01*
X115612702Y-69322803D01*
X115497014Y-69142592D01*
X115348391Y-68988413D01*
X115172545Y-68866191D01*
X114976233Y-68780624D01*
X114767000Y-68735000D01*
X114367000Y-68735000D01*
X114113000Y-68735000D01*
X113713000Y-68735000D01*
X113503767Y-68780624D01*
X113307455Y-68866191D01*
X113131609Y-68988413D01*
X112982986Y-69142592D01*
X112867298Y-69322803D01*
X112795592Y-69525999D01*
X111664408Y-69525999D01*
X111592702Y-69322803D01*
X111477014Y-69142592D01*
X111328391Y-68988413D01*
X111152545Y-68866191D01*
X111071997Y-68831082D01*
X111078967Y-68824112D01*
X111153494Y-68712574D01*
X111204829Y-68588640D01*
X111231000Y-68457073D01*
X111231000Y-68322927D01*
X111204829Y-68191360D01*
X111153494Y-68067426D01*
X111078967Y-67955888D01*
X110984112Y-67861033D01*
X110872574Y-67786506D01*
X110748640Y-67735171D01*
X110617073Y-67709000D01*
X110482927Y-67709000D01*
X110351360Y-67735171D01*
X110227426Y-67786506D01*
X110115888Y-67861033D01*
X110021033Y-67955888D01*
X109946506Y-68067426D01*
X109895171Y-68191360D01*
X109869000Y-68322927D01*
X109869000Y-68457073D01*
X109895171Y-68588640D01*
X109946506Y-68712574D01*
X109961491Y-68735000D01*
X109393000Y-68735000D01*
X109183767Y-68780624D01*
X108987455Y-68866191D01*
X108811609Y-68988413D01*
X108662986Y-69142592D01*
X108547298Y-69322803D01*
X108475592Y-69525999D01*
X51524408Y-69525999D01*
X51452702Y-69322803D01*
X51337014Y-69142592D01*
X51188391Y-68988413D01*
X51012545Y-68866191D01*
X50816233Y-68780624D01*
X50607000Y-68735000D01*
X50038509Y-68735000D01*
X50053494Y-68712574D01*
X50104829Y-68588640D01*
X50131000Y-68457073D01*
X50131000Y-68322927D01*
X50104829Y-68191360D01*
X50053494Y-68067426D01*
X49978967Y-67955888D01*
X49884112Y-67861033D01*
X49772574Y-67786506D01*
X49648640Y-67735171D01*
X49517073Y-67709000D01*
X49382927Y-67709000D01*
X49251360Y-67735171D01*
X49127426Y-67786506D01*
X49015888Y-67861033D01*
X48921033Y-67955888D01*
X48846506Y-68067426D01*
X48795171Y-68191360D01*
X48769000Y-68322927D01*
X48769000Y-68457073D01*
X48795171Y-68588640D01*
X48846506Y-68712574D01*
X48921033Y-68824112D01*
X48928003Y-68831082D01*
X48847455Y-68866191D01*
X48671609Y-68988413D01*
X48522986Y-69142592D01*
X48407298Y-69322803D01*
X48335592Y-69525999D01*
X47204408Y-69525999D01*
X47132702Y-69322803D01*
X47017014Y-69142592D01*
X46868391Y-68988413D01*
X46692545Y-68866191D01*
X46496233Y-68780624D01*
X46287000Y-68735000D01*
X45887000Y-68735000D01*
X45633000Y-68735000D01*
X45233000Y-68735000D01*
X45023767Y-68780624D01*
X44827455Y-68866191D01*
X44651609Y-68988413D01*
X44502986Y-69142592D01*
X44387298Y-69322803D01*
X44315592Y-69525999D01*
X43406000Y-69525999D01*
X43406000Y-61474001D01*
X44315592Y-61474001D01*
X44387298Y-61677197D01*
X44502986Y-61857408D01*
X44651609Y-62011587D01*
X44827455Y-62133809D01*
X45023767Y-62219376D01*
X45233000Y-62265000D01*
X45633000Y-62265000D01*
X45633000Y-61307000D01*
X45887000Y-61307000D01*
X45887000Y-62265000D01*
X46287000Y-62265000D01*
X46496233Y-62219376D01*
X46692545Y-62133809D01*
X46868391Y-62011587D01*
X47017014Y-61857408D01*
X47132702Y-61677197D01*
X47204408Y-61474001D01*
X48335592Y-61474001D01*
X48407298Y-61677197D01*
X48522986Y-61857408D01*
X48671609Y-62011587D01*
X48847455Y-62133809D01*
X48928003Y-62168918D01*
X48921033Y-62175888D01*
X48846506Y-62287426D01*
X48795171Y-62411360D01*
X48769000Y-62542927D01*
X48769000Y-62677073D01*
X48795171Y-62808640D01*
X48846506Y-62932574D01*
X48921033Y-63044112D01*
X49015888Y-63138967D01*
X49127426Y-63213494D01*
X49251360Y-63264829D01*
X49382927Y-63291000D01*
X49517073Y-63291000D01*
X49648640Y-63264829D01*
X49772574Y-63213494D01*
X49884112Y-63138967D01*
X49978967Y-63044112D01*
X50053494Y-62932574D01*
X50104829Y-62808640D01*
X50131000Y-62677073D01*
X50131000Y-62542927D01*
X50104829Y-62411360D01*
X50053494Y-62287426D01*
X50038509Y-62265000D01*
X50607000Y-62265000D01*
X50816233Y-62219376D01*
X51012545Y-62133809D01*
X51188391Y-62011587D01*
X51337014Y-61857408D01*
X51452702Y-61677197D01*
X51524408Y-61474001D01*
X51397502Y-61307000D01*
X50057000Y-61307000D01*
X50057000Y-61327000D01*
X49803000Y-61327000D01*
X49803000Y-61307000D01*
X48462498Y-61307000D01*
X48335592Y-61474001D01*
X47204408Y-61474001D01*
X47077502Y-61307000D01*
X45887000Y-61307000D01*
X45633000Y-61307000D01*
X44442498Y-61307000D01*
X44315592Y-61474001D01*
X43406000Y-61474001D01*
X43406000Y-60885999D01*
X44315592Y-60885999D01*
X44442498Y-61053000D01*
X45633000Y-61053000D01*
X45633000Y-60095000D01*
X45887000Y-60095000D01*
X45887000Y-61053000D01*
X47077502Y-61053000D01*
X47204408Y-60885999D01*
X48335592Y-60885999D01*
X48462498Y-61053000D01*
X49803000Y-61053000D01*
X49803000Y-60095000D01*
X50057000Y-60095000D01*
X50057000Y-61053000D01*
X51397502Y-61053000D01*
X51524408Y-60885999D01*
X51452702Y-60682803D01*
X51337014Y-60502592D01*
X51188391Y-60348413D01*
X51012545Y-60226191D01*
X50816233Y-60140624D01*
X50607000Y-60095000D01*
X50057000Y-60095000D01*
X49803000Y-60095000D01*
X49253000Y-60095000D01*
X49043767Y-60140624D01*
X48847455Y-60226191D01*
X48671609Y-60348413D01*
X48522986Y-60502592D01*
X48407298Y-60682803D01*
X48335592Y-60885999D01*
X47204408Y-60885999D01*
X47132702Y-60682803D01*
X47017014Y-60502592D01*
X46868391Y-60348413D01*
X46692545Y-60226191D01*
X46496233Y-60140624D01*
X46287000Y-60095000D01*
X45887000Y-60095000D01*
X45633000Y-60095000D01*
X45233000Y-60095000D01*
X45023767Y-60140624D01*
X44827455Y-60226191D01*
X44651609Y-60348413D01*
X44502986Y-60502592D01*
X44387298Y-60682803D01*
X44315592Y-60885999D01*
X43406000Y-60885999D01*
X43406000Y-54932927D01*
X50819000Y-54932927D01*
X50819000Y-55067073D01*
X50845171Y-55198640D01*
X50896506Y-55322574D01*
X50971033Y-55434112D01*
X51065888Y-55528967D01*
X51177426Y-55603494D01*
X51301360Y-55654829D01*
X51432927Y-55681000D01*
X51567073Y-55681000D01*
X51698640Y-55654829D01*
X51822574Y-55603494D01*
X51934112Y-55528967D01*
X51957079Y-55506000D01*
X57042921Y-55506000D01*
X57065888Y-55528967D01*
X57177426Y-55603494D01*
X57301360Y-55654829D01*
X57432927Y-55681000D01*
X57494000Y-55681000D01*
X57494001Y-58290407D01*
X52965409Y-62819000D01*
X52932927Y-62819000D01*
X52801360Y-62845171D01*
X52677426Y-62896506D01*
X52565888Y-62971033D01*
X52471033Y-63065888D01*
X52396506Y-63177426D01*
X52345171Y-63301360D01*
X52319000Y-63432927D01*
X52319000Y-63567073D01*
X52345171Y-63698640D01*
X52396506Y-63822574D01*
X52471033Y-63934112D01*
X52565888Y-64028967D01*
X52677426Y-64103494D01*
X52801360Y-64154829D01*
X52932927Y-64181000D01*
X53067073Y-64181000D01*
X53198640Y-64154829D01*
X53322574Y-64103494D01*
X53434112Y-64028967D01*
X53528967Y-63934112D01*
X53603494Y-63822574D01*
X53654829Y-63698640D01*
X53681000Y-63567073D01*
X53681000Y-63534591D01*
X58340220Y-58875372D01*
X58359527Y-58859527D01*
X58422759Y-58782479D01*
X58469745Y-58694575D01*
X58498678Y-58599193D01*
X58506000Y-58524854D01*
X58508448Y-58500000D01*
X58506000Y-58475146D01*
X58506000Y-56181000D01*
X58567073Y-56181000D01*
X58698640Y-56154829D01*
X58822574Y-56103494D01*
X58934112Y-56028967D01*
X59028967Y-55934112D01*
X59103494Y-55822574D01*
X59154829Y-55698640D01*
X59181000Y-55567073D01*
X59181000Y-55432927D01*
X59154829Y-55301360D01*
X59103494Y-55177426D01*
X59028967Y-55065888D01*
X58934112Y-54971033D01*
X58877083Y-54932927D01*
X59819000Y-54932927D01*
X59819000Y-55067073D01*
X59845171Y-55198640D01*
X59896506Y-55322574D01*
X59971033Y-55434112D01*
X60065888Y-55528967D01*
X60177426Y-55603494D01*
X60301360Y-55654829D01*
X60432927Y-55681000D01*
X60567073Y-55681000D01*
X60698640Y-55654829D01*
X60822574Y-55603494D01*
X60934112Y-55528967D01*
X60957079Y-55506000D01*
X72042921Y-55506000D01*
X72065888Y-55528967D01*
X72177426Y-55603494D01*
X72301360Y-55654829D01*
X72432927Y-55681000D01*
X72567073Y-55681000D01*
X72698640Y-55654829D01*
X72822574Y-55603494D01*
X72934112Y-55528967D01*
X73028967Y-55434112D01*
X73103494Y-55322574D01*
X73154829Y-55198640D01*
X73181000Y-55067073D01*
X73181000Y-54932927D01*
X74319000Y-54932927D01*
X74319000Y-55067073D01*
X74345171Y-55198640D01*
X74396506Y-55322574D01*
X74471033Y-55434112D01*
X74565888Y-55528967D01*
X74677426Y-55603494D01*
X74801360Y-55654829D01*
X74932927Y-55681000D01*
X75067073Y-55681000D01*
X75198640Y-55654829D01*
X75322574Y-55603494D01*
X75434112Y-55528967D01*
X75457079Y-55506000D01*
X85542921Y-55506000D01*
X85565888Y-55528967D01*
X85677426Y-55603494D01*
X85801360Y-55654829D01*
X85932927Y-55681000D01*
X86067073Y-55681000D01*
X86198640Y-55654829D01*
X86322574Y-55603494D01*
X86434112Y-55528967D01*
X86494001Y-55469078D01*
X86494001Y-57665144D01*
X86491553Y-57690000D01*
X86501322Y-57789192D01*
X86530255Y-57884574D01*
X86530256Y-57884575D01*
X86577242Y-57972479D01*
X86640474Y-58049527D01*
X86659780Y-58065371D01*
X87989788Y-59395380D01*
X87989794Y-59395385D01*
X89767157Y-61172749D01*
X89767157Y-62540000D01*
X89774513Y-62614689D01*
X89796299Y-62686508D01*
X89831678Y-62752696D01*
X89879289Y-62810711D01*
X89937304Y-62858322D01*
X90003492Y-62893701D01*
X90075311Y-62915487D01*
X90150000Y-62922843D01*
X91850000Y-62922843D01*
X91924689Y-62915487D01*
X91996508Y-62893701D01*
X92062696Y-62858322D01*
X92120711Y-62810711D01*
X92168322Y-62752696D01*
X92203701Y-62686508D01*
X92225487Y-62614689D01*
X92232843Y-62540000D01*
X92232843Y-61568757D01*
X92309000Y-61568757D01*
X92309000Y-61811243D01*
X92356307Y-62049069D01*
X92449102Y-62273097D01*
X92583820Y-62474717D01*
X92755283Y-62646180D01*
X92956903Y-62780898D01*
X93180931Y-62873693D01*
X93418757Y-62921000D01*
X93661243Y-62921000D01*
X93899069Y-62873693D01*
X94123097Y-62780898D01*
X94324717Y-62646180D01*
X94496180Y-62474717D01*
X94630898Y-62273097D01*
X94723693Y-62049069D01*
X94771000Y-61811243D01*
X94771000Y-61583531D01*
X98789000Y-61583531D01*
X98789000Y-61796469D01*
X98830543Y-62005316D01*
X98912031Y-62202045D01*
X99030333Y-62379097D01*
X99180903Y-62529667D01*
X99357955Y-62647969D01*
X99554684Y-62729457D01*
X99763531Y-62771000D01*
X99976469Y-62771000D01*
X100185316Y-62729457D01*
X100382045Y-62647969D01*
X100559097Y-62529667D01*
X100709667Y-62379097D01*
X100827969Y-62202045D01*
X100909457Y-62005316D01*
X100951000Y-61796469D01*
X100951000Y-61583531D01*
X103869000Y-61583531D01*
X103869000Y-61796469D01*
X103910543Y-62005316D01*
X103992031Y-62202045D01*
X104110333Y-62379097D01*
X104260903Y-62529667D01*
X104437955Y-62647969D01*
X104634684Y-62729457D01*
X104843531Y-62771000D01*
X105056469Y-62771000D01*
X105265316Y-62729457D01*
X105462045Y-62647969D01*
X105639097Y-62529667D01*
X105789667Y-62379097D01*
X105907969Y-62202045D01*
X105989457Y-62005316D01*
X106031000Y-61796469D01*
X106031000Y-61583531D01*
X106009213Y-61474001D01*
X108475592Y-61474001D01*
X108547298Y-61677197D01*
X108662986Y-61857408D01*
X108811609Y-62011587D01*
X108987455Y-62133809D01*
X109183767Y-62219376D01*
X109393000Y-62265000D01*
X109961491Y-62265000D01*
X109946506Y-62287426D01*
X109895171Y-62411360D01*
X109869000Y-62542927D01*
X109869000Y-62677073D01*
X109895171Y-62808640D01*
X109946506Y-62932574D01*
X110021033Y-63044112D01*
X110115888Y-63138967D01*
X110227426Y-63213494D01*
X110351360Y-63264829D01*
X110482927Y-63291000D01*
X110617073Y-63291000D01*
X110748640Y-63264829D01*
X110872574Y-63213494D01*
X110984112Y-63138967D01*
X111078967Y-63044112D01*
X111153494Y-62932574D01*
X111204829Y-62808640D01*
X111231000Y-62677073D01*
X111231000Y-62542927D01*
X111204829Y-62411360D01*
X111153494Y-62287426D01*
X111078967Y-62175888D01*
X111071997Y-62168918D01*
X111152545Y-62133809D01*
X111328391Y-62011587D01*
X111477014Y-61857408D01*
X111592702Y-61677197D01*
X111664408Y-61474001D01*
X112795592Y-61474001D01*
X112867298Y-61677197D01*
X112982986Y-61857408D01*
X113131609Y-62011587D01*
X113307455Y-62133809D01*
X113503767Y-62219376D01*
X113713000Y-62265000D01*
X114113000Y-62265000D01*
X114113000Y-61307000D01*
X114367000Y-61307000D01*
X114367000Y-62265000D01*
X114767000Y-62265000D01*
X114976233Y-62219376D01*
X115172545Y-62133809D01*
X115348391Y-62011587D01*
X115497014Y-61857408D01*
X115612702Y-61677197D01*
X115684408Y-61474001D01*
X115557502Y-61307000D01*
X114367000Y-61307000D01*
X114113000Y-61307000D01*
X112922498Y-61307000D01*
X112795592Y-61474001D01*
X111664408Y-61474001D01*
X111537502Y-61307000D01*
X110197000Y-61307000D01*
X110197000Y-61327000D01*
X109943000Y-61327000D01*
X109943000Y-61307000D01*
X108602498Y-61307000D01*
X108475592Y-61474001D01*
X106009213Y-61474001D01*
X105989457Y-61374684D01*
X105907969Y-61177955D01*
X105789667Y-61000903D01*
X105674763Y-60885999D01*
X108475592Y-60885999D01*
X108602498Y-61053000D01*
X109943000Y-61053000D01*
X109943000Y-60095000D01*
X110197000Y-60095000D01*
X110197000Y-61053000D01*
X111537502Y-61053000D01*
X111664408Y-60885999D01*
X112795592Y-60885999D01*
X112922498Y-61053000D01*
X114113000Y-61053000D01*
X114113000Y-60095000D01*
X114367000Y-60095000D01*
X114367000Y-61053000D01*
X115557502Y-61053000D01*
X115684408Y-60885999D01*
X115612702Y-60682803D01*
X115497014Y-60502592D01*
X115348391Y-60348413D01*
X115172545Y-60226191D01*
X114976233Y-60140624D01*
X114767000Y-60095000D01*
X114367000Y-60095000D01*
X114113000Y-60095000D01*
X113713000Y-60095000D01*
X113503767Y-60140624D01*
X113307455Y-60226191D01*
X113131609Y-60348413D01*
X112982986Y-60502592D01*
X112867298Y-60682803D01*
X112795592Y-60885999D01*
X111664408Y-60885999D01*
X111592702Y-60682803D01*
X111477014Y-60502592D01*
X111328391Y-60348413D01*
X111152545Y-60226191D01*
X110956233Y-60140624D01*
X110747000Y-60095000D01*
X110197000Y-60095000D01*
X109943000Y-60095000D01*
X109393000Y-60095000D01*
X109183767Y-60140624D01*
X108987455Y-60226191D01*
X108811609Y-60348413D01*
X108662986Y-60502592D01*
X108547298Y-60682803D01*
X108475592Y-60885999D01*
X105674763Y-60885999D01*
X105639097Y-60850333D01*
X105462045Y-60732031D01*
X105265316Y-60650543D01*
X105056469Y-60609000D01*
X104843531Y-60609000D01*
X104634684Y-60650543D01*
X104437955Y-60732031D01*
X104260903Y-60850333D01*
X104110333Y-61000903D01*
X103992031Y-61177955D01*
X103910543Y-61374684D01*
X103869000Y-61583531D01*
X100951000Y-61583531D01*
X100909457Y-61374684D01*
X100827969Y-61177955D01*
X100709667Y-61000903D01*
X100559097Y-60850333D01*
X100382045Y-60732031D01*
X100185316Y-60650543D01*
X99976469Y-60609000D01*
X99763531Y-60609000D01*
X99554684Y-60650543D01*
X99357955Y-60732031D01*
X99180903Y-60850333D01*
X99030333Y-61000903D01*
X98912031Y-61177955D01*
X98830543Y-61374684D01*
X98789000Y-61583531D01*
X94771000Y-61583531D01*
X94771000Y-61568757D01*
X94723693Y-61330931D01*
X94630898Y-61106903D01*
X94496180Y-60905283D01*
X94324717Y-60733820D01*
X94123097Y-60599102D01*
X93899069Y-60506307D01*
X93661243Y-60459000D01*
X93418757Y-60459000D01*
X93180931Y-60506307D01*
X92956903Y-60599102D01*
X92755283Y-60733820D01*
X92583820Y-60905283D01*
X92449102Y-61106903D01*
X92356307Y-61330931D01*
X92309000Y-61568757D01*
X92232843Y-61568757D01*
X92232843Y-60840000D01*
X92225487Y-60765311D01*
X92203701Y-60693492D01*
X92168322Y-60627304D01*
X92120711Y-60569289D01*
X92062696Y-60521678D01*
X91996508Y-60486299D01*
X91924689Y-60464513D01*
X91850000Y-60457157D01*
X90482749Y-60457157D01*
X88705385Y-58679794D01*
X88705380Y-58679788D01*
X87506000Y-57480409D01*
X87506000Y-54932927D01*
X87819000Y-54932927D01*
X87819000Y-55067073D01*
X87845171Y-55198640D01*
X87896506Y-55322574D01*
X87971033Y-55434112D01*
X88065888Y-55528967D01*
X88177426Y-55603494D01*
X88301360Y-55654829D01*
X88432927Y-55681000D01*
X88567073Y-55681000D01*
X88698640Y-55654829D01*
X88822574Y-55603494D01*
X88934112Y-55528967D01*
X88957079Y-55506000D01*
X99542921Y-55506000D01*
X99565888Y-55528967D01*
X99677426Y-55603494D01*
X99801360Y-55654829D01*
X99932927Y-55681000D01*
X100067073Y-55681000D01*
X100198640Y-55654829D01*
X100322574Y-55603494D01*
X100434112Y-55528967D01*
X100528967Y-55434112D01*
X100603494Y-55322574D01*
X100654829Y-55198640D01*
X100681000Y-55067073D01*
X100681000Y-54932927D01*
X100654829Y-54801360D01*
X100603494Y-54677426D01*
X100528967Y-54565888D01*
X100434112Y-54471033D01*
X100322574Y-54396506D01*
X100198640Y-54345171D01*
X100067073Y-54319000D01*
X99932927Y-54319000D01*
X99801360Y-54345171D01*
X99677426Y-54396506D01*
X99565888Y-54471033D01*
X99542921Y-54494000D01*
X97171832Y-54494000D01*
X97317197Y-54442702D01*
X97497408Y-54327014D01*
X97651587Y-54178391D01*
X97773809Y-54002545D01*
X97859376Y-53806233D01*
X97905000Y-53597000D01*
X97905000Y-53028509D01*
X97927426Y-53043494D01*
X98051360Y-53094829D01*
X98182927Y-53121000D01*
X98317073Y-53121000D01*
X98448640Y-53094829D01*
X98572574Y-53043494D01*
X98684112Y-52968967D01*
X98778967Y-52874112D01*
X98853494Y-52762574D01*
X98904829Y-52638640D01*
X98931000Y-52507073D01*
X98931000Y-52372927D01*
X98904829Y-52241360D01*
X98853494Y-52117426D01*
X98778967Y-52005888D01*
X98684112Y-51911033D01*
X98572574Y-51836506D01*
X98448640Y-51785171D01*
X98317073Y-51759000D01*
X98182927Y-51759000D01*
X98051360Y-51785171D01*
X97927426Y-51836506D01*
X97815888Y-51911033D01*
X97808918Y-51918003D01*
X97773809Y-51837455D01*
X97651587Y-51661609D01*
X97497408Y-51512986D01*
X97372698Y-51432927D01*
X101819000Y-51432927D01*
X101819000Y-51567073D01*
X101845171Y-51698640D01*
X101896506Y-51822574D01*
X101971033Y-51934112D01*
X101994000Y-51957079D01*
X101994001Y-56475144D01*
X101991553Y-56500000D01*
X102001322Y-56599192D01*
X102030255Y-56694574D01*
X102030256Y-56694575D01*
X102077242Y-56782479D01*
X102140474Y-56859527D01*
X102159781Y-56875372D01*
X105124628Y-59840220D01*
X105140473Y-59859527D01*
X105217521Y-59922759D01*
X105305425Y-59969745D01*
X105400807Y-59998678D01*
X105500000Y-60008448D01*
X105524854Y-60006000D01*
X106542921Y-60006000D01*
X106565888Y-60028967D01*
X106677426Y-60103494D01*
X106801360Y-60154829D01*
X106932927Y-60181000D01*
X107067073Y-60181000D01*
X107198640Y-60154829D01*
X107322574Y-60103494D01*
X107434112Y-60028967D01*
X107528967Y-59934112D01*
X107603494Y-59822574D01*
X107654829Y-59698640D01*
X107681000Y-59567073D01*
X107681000Y-59432927D01*
X107654829Y-59301360D01*
X107603494Y-59177426D01*
X107528967Y-59065888D01*
X107434112Y-58971033D01*
X107322574Y-58896506D01*
X107198640Y-58845171D01*
X107067073Y-58819000D01*
X106932927Y-58819000D01*
X106801360Y-58845171D01*
X106677426Y-58896506D01*
X106565888Y-58971033D01*
X106542921Y-58994000D01*
X105709592Y-58994000D01*
X103006000Y-56290409D01*
X103006000Y-52372927D01*
X103349000Y-52372927D01*
X103349000Y-52507073D01*
X103375171Y-52638640D01*
X103426506Y-52762574D01*
X103501033Y-52874112D01*
X103595888Y-52968967D01*
X103707426Y-53043494D01*
X103831360Y-53094829D01*
X103962927Y-53121000D01*
X104097073Y-53121000D01*
X104228640Y-53094829D01*
X104352574Y-53043494D01*
X104375000Y-53028509D01*
X104375000Y-53597000D01*
X104420624Y-53806233D01*
X104506191Y-54002545D01*
X104628413Y-54178391D01*
X104782592Y-54327014D01*
X104962803Y-54442702D01*
X105165999Y-54514408D01*
X105333000Y-54387502D01*
X105333000Y-53047000D01*
X105587000Y-53047000D01*
X105587000Y-54387502D01*
X105754001Y-54514408D01*
X105957197Y-54442702D01*
X106137408Y-54327014D01*
X106291587Y-54178391D01*
X106413809Y-54002545D01*
X106499376Y-53806233D01*
X106545000Y-53597000D01*
X106545000Y-53047000D01*
X105587000Y-53047000D01*
X105333000Y-53047000D01*
X105313000Y-53047000D01*
X105313000Y-52793000D01*
X105333000Y-52793000D01*
X105333000Y-51452498D01*
X105587000Y-51452498D01*
X105587000Y-52793000D01*
X106545000Y-52793000D01*
X106545000Y-52243000D01*
X106499376Y-52033767D01*
X106413809Y-51837455D01*
X106291587Y-51661609D01*
X106137408Y-51512986D01*
X105957197Y-51397298D01*
X105754001Y-51325592D01*
X105587000Y-51452498D01*
X105333000Y-51452498D01*
X105165999Y-51325592D01*
X104962803Y-51397298D01*
X104782592Y-51512986D01*
X104628413Y-51661609D01*
X104506191Y-51837455D01*
X104471082Y-51918003D01*
X104464112Y-51911033D01*
X104352574Y-51836506D01*
X104228640Y-51785171D01*
X104097073Y-51759000D01*
X103962927Y-51759000D01*
X103831360Y-51785171D01*
X103707426Y-51836506D01*
X103595888Y-51911033D01*
X103501033Y-52005888D01*
X103426506Y-52117426D01*
X103375171Y-52241360D01*
X103349000Y-52372927D01*
X103006000Y-52372927D01*
X103006000Y-51957079D01*
X103028967Y-51934112D01*
X103103494Y-51822574D01*
X103154829Y-51698640D01*
X103181000Y-51567073D01*
X103181000Y-51432927D01*
X103154829Y-51301360D01*
X103103494Y-51177426D01*
X103028967Y-51065888D01*
X102934112Y-50971033D01*
X102822574Y-50896506D01*
X102698640Y-50845171D01*
X102567073Y-50819000D01*
X102432927Y-50819000D01*
X102301360Y-50845171D01*
X102177426Y-50896506D01*
X102065888Y-50971033D01*
X101971033Y-51065888D01*
X101896506Y-51177426D01*
X101845171Y-51301360D01*
X101819000Y-51432927D01*
X97372698Y-51432927D01*
X97317197Y-51397298D01*
X97114001Y-51325592D01*
X96947000Y-51452498D01*
X96947000Y-52793000D01*
X96967000Y-52793000D01*
X96967000Y-53047000D01*
X96947000Y-53047000D01*
X96947000Y-53067000D01*
X96693000Y-53067000D01*
X96693000Y-53047000D01*
X95735000Y-53047000D01*
X95735000Y-53597000D01*
X95780624Y-53806233D01*
X95866191Y-54002545D01*
X95988413Y-54178391D01*
X96142592Y-54327014D01*
X96322803Y-54442702D01*
X96468168Y-54494000D01*
X91841832Y-54494000D01*
X91987197Y-54442702D01*
X92167408Y-54327014D01*
X92321587Y-54178391D01*
X92443809Y-54002545D01*
X92529376Y-53806233D01*
X92575000Y-53597000D01*
X92575000Y-53047000D01*
X91617000Y-53047000D01*
X91617000Y-53067000D01*
X91363000Y-53067000D01*
X91363000Y-53047000D01*
X91343000Y-53047000D01*
X91343000Y-52793000D01*
X91363000Y-52793000D01*
X91363000Y-51452498D01*
X91617000Y-51452498D01*
X91617000Y-52793000D01*
X92575000Y-52793000D01*
X92575000Y-52243000D01*
X95735000Y-52243000D01*
X95735000Y-52793000D01*
X96693000Y-52793000D01*
X96693000Y-51452498D01*
X96525999Y-51325592D01*
X96322803Y-51397298D01*
X96142592Y-51512986D01*
X95988413Y-51661609D01*
X95866191Y-51837455D01*
X95780624Y-52033767D01*
X95735000Y-52243000D01*
X92575000Y-52243000D01*
X92529376Y-52033767D01*
X92443809Y-51837455D01*
X92321587Y-51661609D01*
X92167408Y-51512986D01*
X91987197Y-51397298D01*
X91784001Y-51325592D01*
X91617000Y-51452498D01*
X91363000Y-51452498D01*
X91195999Y-51325592D01*
X90992803Y-51397298D01*
X90812592Y-51512986D01*
X90658413Y-51661609D01*
X90536191Y-51837455D01*
X90501082Y-51918003D01*
X90494112Y-51911033D01*
X90382574Y-51836506D01*
X90258640Y-51785171D01*
X90127073Y-51759000D01*
X89992927Y-51759000D01*
X89861360Y-51785171D01*
X89737426Y-51836506D01*
X89625888Y-51911033D01*
X89531033Y-52005888D01*
X89456506Y-52117426D01*
X89405171Y-52241360D01*
X89379000Y-52372927D01*
X89379000Y-52507073D01*
X89405171Y-52638640D01*
X89456506Y-52762574D01*
X89531033Y-52874112D01*
X89625888Y-52968967D01*
X89737426Y-53043494D01*
X89861360Y-53094829D01*
X89992927Y-53121000D01*
X90127073Y-53121000D01*
X90258640Y-53094829D01*
X90382574Y-53043494D01*
X90405000Y-53028509D01*
X90405000Y-53597000D01*
X90450624Y-53806233D01*
X90536191Y-54002545D01*
X90658413Y-54178391D01*
X90812592Y-54327014D01*
X90992803Y-54442702D01*
X91138168Y-54494000D01*
X88957079Y-54494000D01*
X88934112Y-54471033D01*
X88822574Y-54396506D01*
X88698640Y-54345171D01*
X88567073Y-54319000D01*
X88432927Y-54319000D01*
X88301360Y-54345171D01*
X88177426Y-54396506D01*
X88065888Y-54471033D01*
X87971033Y-54565888D01*
X87896506Y-54677426D01*
X87845171Y-54801360D01*
X87819000Y-54932927D01*
X87506000Y-54932927D01*
X87506000Y-52457079D01*
X87528967Y-52434112D01*
X87603494Y-52322574D01*
X87654829Y-52198640D01*
X87681000Y-52067073D01*
X87681000Y-51932927D01*
X87654829Y-51801360D01*
X87603494Y-51677426D01*
X87528967Y-51565888D01*
X87434112Y-51471033D01*
X87322574Y-51396506D01*
X87198640Y-51345171D01*
X87067073Y-51319000D01*
X86932927Y-51319000D01*
X86801360Y-51345171D01*
X86677426Y-51396506D01*
X86565888Y-51471033D01*
X86471033Y-51565888D01*
X86396506Y-51677426D01*
X86345171Y-51801360D01*
X86319000Y-51932927D01*
X86319000Y-52067073D01*
X86345171Y-52198640D01*
X86396506Y-52322574D01*
X86471033Y-52434112D01*
X86494000Y-52457079D01*
X86494000Y-54530921D01*
X86434112Y-54471033D01*
X86322574Y-54396506D01*
X86198640Y-54345171D01*
X86067073Y-54319000D01*
X85932927Y-54319000D01*
X85801360Y-54345171D01*
X85677426Y-54396506D01*
X85565888Y-54471033D01*
X85542921Y-54494000D01*
X83201832Y-54494000D01*
X83347197Y-54442702D01*
X83527408Y-54327014D01*
X83681587Y-54178391D01*
X83803809Y-54002545D01*
X83889376Y-53806233D01*
X83935000Y-53597000D01*
X83935000Y-53028509D01*
X83957426Y-53043494D01*
X84081360Y-53094829D01*
X84212927Y-53121000D01*
X84347073Y-53121000D01*
X84478640Y-53094829D01*
X84602574Y-53043494D01*
X84714112Y-52968967D01*
X84808967Y-52874112D01*
X84883494Y-52762574D01*
X84934829Y-52638640D01*
X84961000Y-52507073D01*
X84961000Y-52372927D01*
X84934829Y-52241360D01*
X84883494Y-52117426D01*
X84808967Y-52005888D01*
X84714112Y-51911033D01*
X84602574Y-51836506D01*
X84478640Y-51785171D01*
X84347073Y-51759000D01*
X84212927Y-51759000D01*
X84081360Y-51785171D01*
X83957426Y-51836506D01*
X83845888Y-51911033D01*
X83838918Y-51918003D01*
X83803809Y-51837455D01*
X83681587Y-51661609D01*
X83527408Y-51512986D01*
X83347197Y-51397298D01*
X83144001Y-51325592D01*
X82977000Y-51452498D01*
X82977000Y-52793000D01*
X82997000Y-52793000D01*
X82997000Y-53047000D01*
X82977000Y-53047000D01*
X82977000Y-53067000D01*
X82723000Y-53067000D01*
X82723000Y-53047000D01*
X81765000Y-53047000D01*
X81765000Y-53597000D01*
X81810624Y-53806233D01*
X81896191Y-54002545D01*
X82018413Y-54178391D01*
X82172592Y-54327014D01*
X82352803Y-54442702D01*
X82498168Y-54494000D01*
X78191832Y-54494000D01*
X78337197Y-54442702D01*
X78517408Y-54327014D01*
X78671587Y-54178391D01*
X78793809Y-54002545D01*
X78879376Y-53806233D01*
X78925000Y-53597000D01*
X78925000Y-53047000D01*
X77967000Y-53047000D01*
X77967000Y-53067000D01*
X77713000Y-53067000D01*
X77713000Y-53047000D01*
X77693000Y-53047000D01*
X77693000Y-52793000D01*
X77713000Y-52793000D01*
X77713000Y-51452498D01*
X77967000Y-51452498D01*
X77967000Y-52793000D01*
X78925000Y-52793000D01*
X78925000Y-52243000D01*
X81765000Y-52243000D01*
X81765000Y-52793000D01*
X82723000Y-52793000D01*
X82723000Y-51452498D01*
X82555999Y-51325592D01*
X82352803Y-51397298D01*
X82172592Y-51512986D01*
X82018413Y-51661609D01*
X81896191Y-51837455D01*
X81810624Y-52033767D01*
X81765000Y-52243000D01*
X78925000Y-52243000D01*
X78879376Y-52033767D01*
X78793809Y-51837455D01*
X78671587Y-51661609D01*
X78517408Y-51512986D01*
X78337197Y-51397298D01*
X78134001Y-51325592D01*
X77967000Y-51452498D01*
X77713000Y-51452498D01*
X77545999Y-51325592D01*
X77342803Y-51397298D01*
X77162592Y-51512986D01*
X77008413Y-51661609D01*
X76886191Y-51837455D01*
X76851082Y-51918003D01*
X76844112Y-51911033D01*
X76732574Y-51836506D01*
X76608640Y-51785171D01*
X76477073Y-51759000D01*
X76342927Y-51759000D01*
X76211360Y-51785171D01*
X76087426Y-51836506D01*
X75975888Y-51911033D01*
X75881033Y-52005888D01*
X75806506Y-52117426D01*
X75755171Y-52241360D01*
X75729000Y-52372927D01*
X75729000Y-52507073D01*
X75755171Y-52638640D01*
X75806506Y-52762574D01*
X75881033Y-52874112D01*
X75975888Y-52968967D01*
X76087426Y-53043494D01*
X76211360Y-53094829D01*
X76342927Y-53121000D01*
X76477073Y-53121000D01*
X76608640Y-53094829D01*
X76732574Y-53043494D01*
X76755000Y-53028509D01*
X76755000Y-53597000D01*
X76800624Y-53806233D01*
X76886191Y-54002545D01*
X77008413Y-54178391D01*
X77162592Y-54327014D01*
X77342803Y-54442702D01*
X77488168Y-54494000D01*
X75457079Y-54494000D01*
X75434112Y-54471033D01*
X75322574Y-54396506D01*
X75198640Y-54345171D01*
X75067073Y-54319000D01*
X74932927Y-54319000D01*
X74801360Y-54345171D01*
X74677426Y-54396506D01*
X74565888Y-54471033D01*
X74471033Y-54565888D01*
X74396506Y-54677426D01*
X74345171Y-54801360D01*
X74319000Y-54932927D01*
X73181000Y-54932927D01*
X73154829Y-54801360D01*
X73103494Y-54677426D01*
X73028967Y-54565888D01*
X72934112Y-54471033D01*
X72822574Y-54396506D01*
X72698640Y-54345171D01*
X72567073Y-54319000D01*
X72432927Y-54319000D01*
X72301360Y-54345171D01*
X72177426Y-54396506D01*
X72065888Y-54471033D01*
X72042921Y-54494000D01*
X69551832Y-54494000D01*
X69697197Y-54442702D01*
X69877408Y-54327014D01*
X70031587Y-54178391D01*
X70153809Y-54002545D01*
X70239376Y-53806233D01*
X70285000Y-53597000D01*
X70285000Y-53028509D01*
X70307426Y-53043494D01*
X70431360Y-53094829D01*
X70562927Y-53121000D01*
X70697073Y-53121000D01*
X70828640Y-53094829D01*
X70952574Y-53043494D01*
X71064112Y-52968967D01*
X71158967Y-52874112D01*
X71233494Y-52762574D01*
X71284829Y-52638640D01*
X71311000Y-52507073D01*
X71311000Y-52372927D01*
X71284829Y-52241360D01*
X71233494Y-52117426D01*
X71158967Y-52005888D01*
X71064112Y-51911033D01*
X70952574Y-51836506D01*
X70828640Y-51785171D01*
X70697073Y-51759000D01*
X70562927Y-51759000D01*
X70431360Y-51785171D01*
X70307426Y-51836506D01*
X70195888Y-51911033D01*
X70188918Y-51918003D01*
X70153809Y-51837455D01*
X70031587Y-51661609D01*
X69877408Y-51512986D01*
X69697197Y-51397298D01*
X69494001Y-51325592D01*
X69327000Y-51452498D01*
X69327000Y-52793000D01*
X69347000Y-52793000D01*
X69347000Y-53047000D01*
X69327000Y-53047000D01*
X69327000Y-53067000D01*
X69073000Y-53067000D01*
X69073000Y-53047000D01*
X68115000Y-53047000D01*
X68115000Y-53597000D01*
X68160624Y-53806233D01*
X68246191Y-54002545D01*
X68368413Y-54178391D01*
X68522592Y-54327014D01*
X68702803Y-54442702D01*
X68848168Y-54494000D01*
X63901832Y-54494000D01*
X64047197Y-54442702D01*
X64227408Y-54327014D01*
X64381587Y-54178391D01*
X64503809Y-54002545D01*
X64589376Y-53806233D01*
X64635000Y-53597000D01*
X64635000Y-53047000D01*
X63677000Y-53047000D01*
X63677000Y-53067000D01*
X63423000Y-53067000D01*
X63423000Y-53047000D01*
X63403000Y-53047000D01*
X63403000Y-52793000D01*
X63423000Y-52793000D01*
X63423000Y-51452498D01*
X63677000Y-51452498D01*
X63677000Y-52793000D01*
X64635000Y-52793000D01*
X64635000Y-52243000D01*
X68115000Y-52243000D01*
X68115000Y-52793000D01*
X69073000Y-52793000D01*
X69073000Y-51452498D01*
X68905999Y-51325592D01*
X68702803Y-51397298D01*
X68522592Y-51512986D01*
X68368413Y-51661609D01*
X68246191Y-51837455D01*
X68160624Y-52033767D01*
X68115000Y-52243000D01*
X64635000Y-52243000D01*
X64589376Y-52033767D01*
X64503809Y-51837455D01*
X64381587Y-51661609D01*
X64227408Y-51512986D01*
X64047197Y-51397298D01*
X63844001Y-51325592D01*
X63677000Y-51452498D01*
X63423000Y-51452498D01*
X63255999Y-51325592D01*
X63052803Y-51397298D01*
X62872592Y-51512986D01*
X62718413Y-51661609D01*
X62596191Y-51837455D01*
X62561082Y-51918003D01*
X62554112Y-51911033D01*
X62442574Y-51836506D01*
X62318640Y-51785171D01*
X62187073Y-51759000D01*
X62052927Y-51759000D01*
X61921360Y-51785171D01*
X61797426Y-51836506D01*
X61685888Y-51911033D01*
X61591033Y-52005888D01*
X61516506Y-52117426D01*
X61465171Y-52241360D01*
X61439000Y-52372927D01*
X61439000Y-52507073D01*
X61465171Y-52638640D01*
X61516506Y-52762574D01*
X61591033Y-52874112D01*
X61685888Y-52968967D01*
X61797426Y-53043494D01*
X61921360Y-53094829D01*
X62052927Y-53121000D01*
X62187073Y-53121000D01*
X62318640Y-53094829D01*
X62442574Y-53043494D01*
X62465000Y-53028509D01*
X62465000Y-53597000D01*
X62510624Y-53806233D01*
X62596191Y-54002545D01*
X62718413Y-54178391D01*
X62872592Y-54327014D01*
X63052803Y-54442702D01*
X63198168Y-54494000D01*
X60957079Y-54494000D01*
X60934112Y-54471033D01*
X60822574Y-54396506D01*
X60698640Y-54345171D01*
X60567073Y-54319000D01*
X60432927Y-54319000D01*
X60301360Y-54345171D01*
X60177426Y-54396506D01*
X60065888Y-54471033D01*
X59971033Y-54565888D01*
X59896506Y-54677426D01*
X59845171Y-54801360D01*
X59819000Y-54932927D01*
X58877083Y-54932927D01*
X58822574Y-54896506D01*
X58698640Y-54845171D01*
X58567073Y-54819000D01*
X58432927Y-54819000D01*
X58301360Y-54845171D01*
X58177426Y-54896506D01*
X58174186Y-54898671D01*
X58154829Y-54801360D01*
X58103494Y-54677426D01*
X58028967Y-54565888D01*
X57934112Y-54471033D01*
X57822574Y-54396506D01*
X57698640Y-54345171D01*
X57567073Y-54319000D01*
X57432927Y-54319000D01*
X57301360Y-54345171D01*
X57177426Y-54396506D01*
X57065888Y-54471033D01*
X57042921Y-54494000D01*
X55261832Y-54494000D01*
X55407197Y-54442702D01*
X55587408Y-54327014D01*
X55741587Y-54178391D01*
X55863809Y-54002545D01*
X55949376Y-53806233D01*
X55995000Y-53597000D01*
X55995000Y-53028509D01*
X56017426Y-53043494D01*
X56141360Y-53094829D01*
X56272927Y-53121000D01*
X56407073Y-53121000D01*
X56538640Y-53094829D01*
X56662574Y-53043494D01*
X56774112Y-52968967D01*
X56868967Y-52874112D01*
X56943494Y-52762574D01*
X56994829Y-52638640D01*
X57021000Y-52507073D01*
X57021000Y-52372927D01*
X56994829Y-52241360D01*
X56943494Y-52117426D01*
X56868967Y-52005888D01*
X56774112Y-51911033D01*
X56662574Y-51836506D01*
X56538640Y-51785171D01*
X56407073Y-51759000D01*
X56272927Y-51759000D01*
X56141360Y-51785171D01*
X56017426Y-51836506D01*
X55905888Y-51911033D01*
X55898918Y-51918003D01*
X55863809Y-51837455D01*
X55741587Y-51661609D01*
X55587408Y-51512986D01*
X55407197Y-51397298D01*
X55204001Y-51325592D01*
X55037000Y-51452498D01*
X55037000Y-52793000D01*
X55057000Y-52793000D01*
X55057000Y-53047000D01*
X55037000Y-53047000D01*
X55037000Y-53067000D01*
X54783000Y-53067000D01*
X54783000Y-53047000D01*
X53825000Y-53047000D01*
X53825000Y-53597000D01*
X53870624Y-53806233D01*
X53956191Y-54002545D01*
X54078413Y-54178391D01*
X54232592Y-54327014D01*
X54412803Y-54442702D01*
X54558168Y-54494000D01*
X51957079Y-54494000D01*
X51934112Y-54471033D01*
X51822574Y-54396506D01*
X51698640Y-54345171D01*
X51567073Y-54319000D01*
X51432927Y-54319000D01*
X51301360Y-54345171D01*
X51177426Y-54396506D01*
X51065888Y-54471033D01*
X50971033Y-54565888D01*
X50896506Y-54677426D01*
X50845171Y-54801360D01*
X50819000Y-54932927D01*
X43406000Y-54932927D01*
X43406000Y-52243000D01*
X53825000Y-52243000D01*
X53825000Y-52793000D01*
X54783000Y-52793000D01*
X54783000Y-51452498D01*
X54615999Y-51325592D01*
X54412803Y-51397298D01*
X54232592Y-51512986D01*
X54078413Y-51661609D01*
X53956191Y-51837455D01*
X53870624Y-52033767D01*
X53825000Y-52243000D01*
X43406000Y-52243000D01*
X43406000Y-50019853D01*
X43427077Y-49804889D01*
X45019000Y-49804889D01*
X45019000Y-50195111D01*
X45095129Y-50577836D01*
X45244461Y-50938355D01*
X45461257Y-51262814D01*
X45737186Y-51538743D01*
X46061645Y-51755539D01*
X46422164Y-51904871D01*
X46804889Y-51981000D01*
X47195111Y-51981000D01*
X47577836Y-51904871D01*
X47938355Y-51755539D01*
X48262814Y-51538743D01*
X48538743Y-51262814D01*
X48755539Y-50938355D01*
X48904871Y-50577836D01*
X48981000Y-50195111D01*
X48981000Y-49804889D01*
X48904871Y-49422164D01*
X48755539Y-49061645D01*
X48632164Y-48877000D01*
X53825000Y-48877000D01*
X53825000Y-49277000D01*
X53870624Y-49486233D01*
X53956191Y-49682545D01*
X54078413Y-49858391D01*
X54232592Y-50007014D01*
X54412803Y-50122702D01*
X54615999Y-50194408D01*
X54783000Y-50067502D01*
X54783000Y-48877000D01*
X55037000Y-48877000D01*
X55037000Y-50067502D01*
X55204001Y-50194408D01*
X55407197Y-50122702D01*
X55587408Y-50007014D01*
X55741587Y-49858391D01*
X55863809Y-49682545D01*
X55949376Y-49486233D01*
X55995000Y-49277000D01*
X55995000Y-48877000D01*
X62465000Y-48877000D01*
X62465000Y-49277000D01*
X62510624Y-49486233D01*
X62596191Y-49682545D01*
X62718413Y-49858391D01*
X62872592Y-50007014D01*
X63052803Y-50122702D01*
X63255999Y-50194408D01*
X63423000Y-50067502D01*
X63423000Y-48877000D01*
X63677000Y-48877000D01*
X63677000Y-50067502D01*
X63844001Y-50194408D01*
X64047197Y-50122702D01*
X64227408Y-50007014D01*
X64381587Y-49858391D01*
X64503809Y-49682545D01*
X64589376Y-49486233D01*
X64635000Y-49277000D01*
X64635000Y-48877000D01*
X68115000Y-48877000D01*
X68115000Y-49277000D01*
X68160624Y-49486233D01*
X68246191Y-49682545D01*
X68368413Y-49858391D01*
X68522592Y-50007014D01*
X68702803Y-50122702D01*
X68905999Y-50194408D01*
X69073000Y-50067502D01*
X69073000Y-48877000D01*
X69327000Y-48877000D01*
X69327000Y-50067502D01*
X69494001Y-50194408D01*
X69697197Y-50122702D01*
X69877408Y-50007014D01*
X70031587Y-49858391D01*
X70153809Y-49682545D01*
X70239376Y-49486233D01*
X70285000Y-49277000D01*
X70285000Y-48877000D01*
X76755000Y-48877000D01*
X76755000Y-49277000D01*
X76800624Y-49486233D01*
X76886191Y-49682545D01*
X77008413Y-49858391D01*
X77162592Y-50007014D01*
X77342803Y-50122702D01*
X77545999Y-50194408D01*
X77713000Y-50067502D01*
X77713000Y-48877000D01*
X77967000Y-48877000D01*
X77967000Y-50067502D01*
X78134001Y-50194408D01*
X78337197Y-50122702D01*
X78517408Y-50007014D01*
X78671587Y-49858391D01*
X78793809Y-49682545D01*
X78879376Y-49486233D01*
X78925000Y-49277000D01*
X78925000Y-48877000D01*
X81765000Y-48877000D01*
X81765000Y-49277000D01*
X81810624Y-49486233D01*
X81896191Y-49682545D01*
X82018413Y-49858391D01*
X82172592Y-50007014D01*
X82352803Y-50122702D01*
X82555999Y-50194408D01*
X82723000Y-50067502D01*
X82723000Y-48877000D01*
X82977000Y-48877000D01*
X82977000Y-50067502D01*
X83144001Y-50194408D01*
X83347197Y-50122702D01*
X83527408Y-50007014D01*
X83681587Y-49858391D01*
X83803809Y-49682545D01*
X83889376Y-49486233D01*
X83935000Y-49277000D01*
X83935000Y-48877000D01*
X90405000Y-48877000D01*
X90405000Y-49277000D01*
X90450624Y-49486233D01*
X90536191Y-49682545D01*
X90658413Y-49858391D01*
X90812592Y-50007014D01*
X90992803Y-50122702D01*
X91195999Y-50194408D01*
X91363000Y-50067502D01*
X91363000Y-48877000D01*
X91617000Y-48877000D01*
X91617000Y-50067502D01*
X91784001Y-50194408D01*
X91987197Y-50122702D01*
X92167408Y-50007014D01*
X92321587Y-49858391D01*
X92443809Y-49682545D01*
X92529376Y-49486233D01*
X92575000Y-49277000D01*
X92575000Y-48877000D01*
X95735000Y-48877000D01*
X95735000Y-49277000D01*
X95780624Y-49486233D01*
X95866191Y-49682545D01*
X95988413Y-49858391D01*
X96142592Y-50007014D01*
X96322803Y-50122702D01*
X96525999Y-50194408D01*
X96693000Y-50067502D01*
X96693000Y-48877000D01*
X96947000Y-48877000D01*
X96947000Y-50067502D01*
X97114001Y-50194408D01*
X97317197Y-50122702D01*
X97497408Y-50007014D01*
X97651587Y-49858391D01*
X97773809Y-49682545D01*
X97859376Y-49486233D01*
X97905000Y-49277000D01*
X97905000Y-48877000D01*
X104375000Y-48877000D01*
X104375000Y-49277000D01*
X104420624Y-49486233D01*
X104506191Y-49682545D01*
X104628413Y-49858391D01*
X104782592Y-50007014D01*
X104962803Y-50122702D01*
X105165999Y-50194408D01*
X105333000Y-50067502D01*
X105333000Y-48877000D01*
X105587000Y-48877000D01*
X105587000Y-50067502D01*
X105754001Y-50194408D01*
X105957197Y-50122702D01*
X106137408Y-50007014D01*
X106291587Y-49858391D01*
X106328773Y-49804889D01*
X111019000Y-49804889D01*
X111019000Y-50195111D01*
X111095129Y-50577836D01*
X111244461Y-50938355D01*
X111461257Y-51262814D01*
X111737186Y-51538743D01*
X112061645Y-51755539D01*
X112422164Y-51904871D01*
X112804889Y-51981000D01*
X113195111Y-51981000D01*
X113577836Y-51904871D01*
X113938355Y-51755539D01*
X114262814Y-51538743D01*
X114538743Y-51262814D01*
X114755539Y-50938355D01*
X114904871Y-50577836D01*
X114981000Y-50195111D01*
X114981000Y-49804889D01*
X114904871Y-49422164D01*
X114755539Y-49061645D01*
X114538743Y-48737186D01*
X114262814Y-48461257D01*
X113938355Y-48244461D01*
X113577836Y-48095129D01*
X113195111Y-48019000D01*
X112804889Y-48019000D01*
X112422164Y-48095129D01*
X112061645Y-48244461D01*
X111737186Y-48461257D01*
X111461257Y-48737186D01*
X111244461Y-49061645D01*
X111095129Y-49422164D01*
X111019000Y-49804889D01*
X106328773Y-49804889D01*
X106413809Y-49682545D01*
X106499376Y-49486233D01*
X106545000Y-49277000D01*
X106545000Y-48877000D01*
X105587000Y-48877000D01*
X105333000Y-48877000D01*
X104375000Y-48877000D01*
X97905000Y-48877000D01*
X96947000Y-48877000D01*
X96693000Y-48877000D01*
X95735000Y-48877000D01*
X92575000Y-48877000D01*
X91617000Y-48877000D01*
X91363000Y-48877000D01*
X90405000Y-48877000D01*
X83935000Y-48877000D01*
X82977000Y-48877000D01*
X82723000Y-48877000D01*
X81765000Y-48877000D01*
X78925000Y-48877000D01*
X77967000Y-48877000D01*
X77713000Y-48877000D01*
X76755000Y-48877000D01*
X70285000Y-48877000D01*
X69327000Y-48877000D01*
X69073000Y-48877000D01*
X68115000Y-48877000D01*
X64635000Y-48877000D01*
X63677000Y-48877000D01*
X63423000Y-48877000D01*
X62465000Y-48877000D01*
X55995000Y-48877000D01*
X55037000Y-48877000D01*
X54783000Y-48877000D01*
X53825000Y-48877000D01*
X48632164Y-48877000D01*
X48538743Y-48737186D01*
X48262814Y-48461257D01*
X47938355Y-48244461D01*
X47886544Y-48223000D01*
X53825000Y-48223000D01*
X53825000Y-48623000D01*
X54783000Y-48623000D01*
X54783000Y-47432498D01*
X55037000Y-47432498D01*
X55037000Y-48623000D01*
X55995000Y-48623000D01*
X55995000Y-48223000D01*
X62465000Y-48223000D01*
X62465000Y-48623000D01*
X63423000Y-48623000D01*
X63423000Y-47432498D01*
X63677000Y-47432498D01*
X63677000Y-48623000D01*
X64635000Y-48623000D01*
X64635000Y-48223000D01*
X68115000Y-48223000D01*
X68115000Y-48623000D01*
X69073000Y-48623000D01*
X69073000Y-47432498D01*
X69327000Y-47432498D01*
X69327000Y-48623000D01*
X70285000Y-48623000D01*
X70285000Y-48223000D01*
X76755000Y-48223000D01*
X76755000Y-48623000D01*
X77713000Y-48623000D01*
X77713000Y-47432498D01*
X77967000Y-47432498D01*
X77967000Y-48623000D01*
X78925000Y-48623000D01*
X78925000Y-48223000D01*
X81765000Y-48223000D01*
X81765000Y-48623000D01*
X82723000Y-48623000D01*
X82723000Y-47432498D01*
X82977000Y-47432498D01*
X82977000Y-48623000D01*
X83935000Y-48623000D01*
X83935000Y-48223000D01*
X90405000Y-48223000D01*
X90405000Y-48623000D01*
X91363000Y-48623000D01*
X91363000Y-47432498D01*
X91617000Y-47432498D01*
X91617000Y-48623000D01*
X92575000Y-48623000D01*
X92575000Y-48223000D01*
X95735000Y-48223000D01*
X95735000Y-48623000D01*
X96693000Y-48623000D01*
X96693000Y-47432498D01*
X96947000Y-47432498D01*
X96947000Y-48623000D01*
X97905000Y-48623000D01*
X97905000Y-48223000D01*
X104375000Y-48223000D01*
X104375000Y-48623000D01*
X105333000Y-48623000D01*
X105333000Y-47432498D01*
X105587000Y-47432498D01*
X105587000Y-48623000D01*
X106545000Y-48623000D01*
X106545000Y-48223000D01*
X106499376Y-48013767D01*
X106413809Y-47817455D01*
X106291587Y-47641609D01*
X106137408Y-47492986D01*
X105957197Y-47377298D01*
X105754001Y-47305592D01*
X105587000Y-47432498D01*
X105333000Y-47432498D01*
X105165999Y-47305592D01*
X104962803Y-47377298D01*
X104782592Y-47492986D01*
X104628413Y-47641609D01*
X104506191Y-47817455D01*
X104420624Y-48013767D01*
X104375000Y-48223000D01*
X97905000Y-48223000D01*
X97859376Y-48013767D01*
X97773809Y-47817455D01*
X97651587Y-47641609D01*
X97497408Y-47492986D01*
X97317197Y-47377298D01*
X97114001Y-47305592D01*
X96947000Y-47432498D01*
X96693000Y-47432498D01*
X96525999Y-47305592D01*
X96322803Y-47377298D01*
X96142592Y-47492986D01*
X95988413Y-47641609D01*
X95866191Y-47817455D01*
X95780624Y-48013767D01*
X95735000Y-48223000D01*
X92575000Y-48223000D01*
X92529376Y-48013767D01*
X92443809Y-47817455D01*
X92321587Y-47641609D01*
X92167408Y-47492986D01*
X91987197Y-47377298D01*
X91784001Y-47305592D01*
X91617000Y-47432498D01*
X91363000Y-47432498D01*
X91195999Y-47305592D01*
X90992803Y-47377298D01*
X90812592Y-47492986D01*
X90658413Y-47641609D01*
X90536191Y-47817455D01*
X90450624Y-48013767D01*
X90405000Y-48223000D01*
X83935000Y-48223000D01*
X83889376Y-48013767D01*
X83803809Y-47817455D01*
X83681587Y-47641609D01*
X83527408Y-47492986D01*
X83347197Y-47377298D01*
X83144001Y-47305592D01*
X82977000Y-47432498D01*
X82723000Y-47432498D01*
X82555999Y-47305592D01*
X82352803Y-47377298D01*
X82172592Y-47492986D01*
X82018413Y-47641609D01*
X81896191Y-47817455D01*
X81810624Y-48013767D01*
X81765000Y-48223000D01*
X78925000Y-48223000D01*
X78879376Y-48013767D01*
X78793809Y-47817455D01*
X78671587Y-47641609D01*
X78517408Y-47492986D01*
X78337197Y-47377298D01*
X78134001Y-47305592D01*
X77967000Y-47432498D01*
X77713000Y-47432498D01*
X77545999Y-47305592D01*
X77342803Y-47377298D01*
X77162592Y-47492986D01*
X77008413Y-47641609D01*
X76886191Y-47817455D01*
X76800624Y-48013767D01*
X76755000Y-48223000D01*
X70285000Y-48223000D01*
X70239376Y-48013767D01*
X70153809Y-47817455D01*
X70031587Y-47641609D01*
X69877408Y-47492986D01*
X69697197Y-47377298D01*
X69494001Y-47305592D01*
X69327000Y-47432498D01*
X69073000Y-47432498D01*
X68905999Y-47305592D01*
X68702803Y-47377298D01*
X68522592Y-47492986D01*
X68368413Y-47641609D01*
X68246191Y-47817455D01*
X68160624Y-48013767D01*
X68115000Y-48223000D01*
X64635000Y-48223000D01*
X64589376Y-48013767D01*
X64503809Y-47817455D01*
X64381587Y-47641609D01*
X64227408Y-47492986D01*
X64047197Y-47377298D01*
X63844001Y-47305592D01*
X63677000Y-47432498D01*
X63423000Y-47432498D01*
X63255999Y-47305592D01*
X63052803Y-47377298D01*
X62872592Y-47492986D01*
X62718413Y-47641609D01*
X62596191Y-47817455D01*
X62510624Y-48013767D01*
X62465000Y-48223000D01*
X55995000Y-48223000D01*
X55949376Y-48013767D01*
X55863809Y-47817455D01*
X55741587Y-47641609D01*
X55587408Y-47492986D01*
X55407197Y-47377298D01*
X55204001Y-47305592D01*
X55037000Y-47432498D01*
X54783000Y-47432498D01*
X54615999Y-47305592D01*
X54412803Y-47377298D01*
X54232592Y-47492986D01*
X54078413Y-47641609D01*
X53956191Y-47817455D01*
X53870624Y-48013767D01*
X53825000Y-48223000D01*
X47886544Y-48223000D01*
X47577836Y-48095129D01*
X47195111Y-48019000D01*
X46804889Y-48019000D01*
X46422164Y-48095129D01*
X46061645Y-48244461D01*
X45737186Y-48461257D01*
X45461257Y-48737186D01*
X45244461Y-49061645D01*
X45095129Y-49422164D01*
X45019000Y-49804889D01*
X43427077Y-49804889D01*
X43476356Y-49302304D01*
X43678982Y-48631176D01*
X44008102Y-48012190D01*
X44451184Y-47468916D01*
X44991347Y-47022054D01*
X45608022Y-46688619D01*
X46277716Y-46481314D01*
X46994053Y-46406024D01*
X47000834Y-46406000D01*
X112980147Y-46406000D01*
X113697696Y-46476356D01*
%TA.AperFunction,Conductor*%
D22*
G36*
X113697696Y-46476356D02*
G01*
X114368824Y-46678982D01*
X114987810Y-47008102D01*
X115531084Y-47451184D01*
X115977946Y-47991347D01*
X116311381Y-48608022D01*
X116518686Y-49277716D01*
X116593976Y-49994053D01*
X116594000Y-50000834D01*
X116594001Y-77980136D01*
X116523644Y-78697696D01*
X116321017Y-79368828D01*
X115991896Y-79987814D01*
X115548815Y-80531084D01*
X115008652Y-80977946D01*
X114391977Y-81311381D01*
X113722284Y-81518686D01*
X113005947Y-81593976D01*
X112999166Y-81594000D01*
X47019854Y-81594000D01*
X46302304Y-81523644D01*
X45631172Y-81321017D01*
X45012186Y-80991896D01*
X44468916Y-80548815D01*
X44022054Y-80008652D01*
X43688619Y-79391977D01*
X43481314Y-78722284D01*
X43406024Y-78005947D01*
X43406000Y-77999166D01*
X43406000Y-77804889D01*
X45019000Y-77804889D01*
X45019000Y-78195111D01*
X45095129Y-78577836D01*
X45244461Y-78938355D01*
X45461257Y-79262814D01*
X45737186Y-79538743D01*
X46061645Y-79755539D01*
X46422164Y-79904871D01*
X46804889Y-79981000D01*
X47195111Y-79981000D01*
X47577836Y-79904871D01*
X47938355Y-79755539D01*
X48262814Y-79538743D01*
X48538743Y-79262814D01*
X48755539Y-78938355D01*
X48904871Y-78577836D01*
X48981000Y-78195111D01*
X48981000Y-77804889D01*
X111019000Y-77804889D01*
X111019000Y-78195111D01*
X111095129Y-78577836D01*
X111244461Y-78938355D01*
X111461257Y-79262814D01*
X111737186Y-79538743D01*
X112061645Y-79755539D01*
X112422164Y-79904871D01*
X112804889Y-79981000D01*
X113195111Y-79981000D01*
X113577836Y-79904871D01*
X113938355Y-79755539D01*
X114262814Y-79538743D01*
X114538743Y-79262814D01*
X114755539Y-78938355D01*
X114904871Y-78577836D01*
X114981000Y-78195111D01*
X114981000Y-77804889D01*
X114904871Y-77422164D01*
X114755539Y-77061645D01*
X114538743Y-76737186D01*
X114262814Y-76461257D01*
X113938355Y-76244461D01*
X113577836Y-76095129D01*
X113195111Y-76019000D01*
X112804889Y-76019000D01*
X112422164Y-76095129D01*
X112061645Y-76244461D01*
X111737186Y-76461257D01*
X111461257Y-76737186D01*
X111244461Y-77061645D01*
X111095129Y-77422164D01*
X111019000Y-77804889D01*
X48981000Y-77804889D01*
X48904871Y-77422164D01*
X48755539Y-77061645D01*
X48538743Y-76737186D01*
X48262814Y-76461257D01*
X47938355Y-76244461D01*
X47577836Y-76095129D01*
X47195111Y-76019000D01*
X46804889Y-76019000D01*
X46422164Y-76095129D01*
X46061645Y-76244461D01*
X45737186Y-76461257D01*
X45461257Y-76737186D01*
X45244461Y-77061645D01*
X45095129Y-77422164D01*
X45019000Y-77804889D01*
X43406000Y-77804889D01*
X43406000Y-70114001D01*
X44315592Y-70114001D01*
X44387298Y-70317197D01*
X44502986Y-70497408D01*
X44651609Y-70651587D01*
X44827455Y-70773809D01*
X45023767Y-70859376D01*
X45233000Y-70905000D01*
X45633000Y-70905000D01*
X45633000Y-69947000D01*
X45887000Y-69947000D01*
X45887000Y-70905000D01*
X46287000Y-70905000D01*
X46496233Y-70859376D01*
X46692545Y-70773809D01*
X46868391Y-70651587D01*
X47017014Y-70497408D01*
X47132702Y-70317197D01*
X47204408Y-70114001D01*
X48335592Y-70114001D01*
X48407298Y-70317197D01*
X48522986Y-70497408D01*
X48671609Y-70651587D01*
X48847455Y-70773809D01*
X49043767Y-70859376D01*
X49253000Y-70905000D01*
X49803000Y-70905000D01*
X49803000Y-69947000D01*
X50057000Y-69947000D01*
X50057000Y-70905000D01*
X50607000Y-70905000D01*
X50816233Y-70859376D01*
X51012545Y-70773809D01*
X51188391Y-70651587D01*
X51337014Y-70497408D01*
X51452702Y-70317197D01*
X51524408Y-70114001D01*
X108475592Y-70114001D01*
X108547298Y-70317197D01*
X108662986Y-70497408D01*
X108811609Y-70651587D01*
X108987455Y-70773809D01*
X109183767Y-70859376D01*
X109393000Y-70905000D01*
X109943000Y-70905000D01*
X109943000Y-69947000D01*
X110197000Y-69947000D01*
X110197000Y-70905000D01*
X110747000Y-70905000D01*
X110956233Y-70859376D01*
X111152545Y-70773809D01*
X111328391Y-70651587D01*
X111477014Y-70497408D01*
X111592702Y-70317197D01*
X111664408Y-70114001D01*
X112795592Y-70114001D01*
X112867298Y-70317197D01*
X112982986Y-70497408D01*
X113131609Y-70651587D01*
X113307455Y-70773809D01*
X113503767Y-70859376D01*
X113713000Y-70905000D01*
X114113000Y-70905000D01*
X114113000Y-69947000D01*
X114367000Y-69947000D01*
X114367000Y-70905000D01*
X114767000Y-70905000D01*
X114976233Y-70859376D01*
X115172545Y-70773809D01*
X115348391Y-70651587D01*
X115497014Y-70497408D01*
X115612702Y-70317197D01*
X115684408Y-70114001D01*
X115557502Y-69947000D01*
X114367000Y-69947000D01*
X114113000Y-69947000D01*
X112922498Y-69947000D01*
X112795592Y-70114001D01*
X111664408Y-70114001D01*
X111537502Y-69947000D01*
X110197000Y-69947000D01*
X109943000Y-69947000D01*
X108602498Y-69947000D01*
X108475592Y-70114001D01*
X51524408Y-70114001D01*
X51397502Y-69947000D01*
X50057000Y-69947000D01*
X49803000Y-69947000D01*
X48462498Y-69947000D01*
X48335592Y-70114001D01*
X47204408Y-70114001D01*
X47077502Y-69947000D01*
X45887000Y-69947000D01*
X45633000Y-69947000D01*
X44442498Y-69947000D01*
X44315592Y-70114001D01*
X43406000Y-70114001D01*
X43406000Y-69525999D01*
X44315592Y-69525999D01*
X44442498Y-69693000D01*
X45633000Y-69693000D01*
X45633000Y-68735000D01*
X45887000Y-68735000D01*
X45887000Y-69693000D01*
X47077502Y-69693000D01*
X47204408Y-69525999D01*
X48335592Y-69525999D01*
X48462498Y-69693000D01*
X49803000Y-69693000D01*
X49803000Y-69673000D01*
X50057000Y-69673000D01*
X50057000Y-69693000D01*
X51397502Y-69693000D01*
X51524408Y-69525999D01*
X108475592Y-69525999D01*
X108602498Y-69693000D01*
X109943000Y-69693000D01*
X109943000Y-69673000D01*
X110197000Y-69673000D01*
X110197000Y-69693000D01*
X111537502Y-69693000D01*
X111664408Y-69525999D01*
X112795592Y-69525999D01*
X112922498Y-69693000D01*
X114113000Y-69693000D01*
X114113000Y-68735000D01*
X114367000Y-68735000D01*
X114367000Y-69693000D01*
X115557502Y-69693000D01*
X115684408Y-69525999D01*
X115612702Y-69322803D01*
X115497014Y-69142592D01*
X115348391Y-68988413D01*
X115172545Y-68866191D01*
X114976233Y-68780624D01*
X114767000Y-68735000D01*
X114367000Y-68735000D01*
X114113000Y-68735000D01*
X113713000Y-68735000D01*
X113503767Y-68780624D01*
X113307455Y-68866191D01*
X113131609Y-68988413D01*
X112982986Y-69142592D01*
X112867298Y-69322803D01*
X112795592Y-69525999D01*
X111664408Y-69525999D01*
X111592702Y-69322803D01*
X111477014Y-69142592D01*
X111328391Y-68988413D01*
X111152545Y-68866191D01*
X111071997Y-68831082D01*
X111078967Y-68824112D01*
X111153494Y-68712574D01*
X111204829Y-68588640D01*
X111231000Y-68457073D01*
X111231000Y-68322927D01*
X111204829Y-68191360D01*
X111153494Y-68067426D01*
X111078967Y-67955888D01*
X110984112Y-67861033D01*
X110872574Y-67786506D01*
X110748640Y-67735171D01*
X110617073Y-67709000D01*
X110482927Y-67709000D01*
X110351360Y-67735171D01*
X110227426Y-67786506D01*
X110115888Y-67861033D01*
X110021033Y-67955888D01*
X109946506Y-68067426D01*
X109895171Y-68191360D01*
X109869000Y-68322927D01*
X109869000Y-68457073D01*
X109895171Y-68588640D01*
X109946506Y-68712574D01*
X109961491Y-68735000D01*
X109393000Y-68735000D01*
X109183767Y-68780624D01*
X108987455Y-68866191D01*
X108811609Y-68988413D01*
X108662986Y-69142592D01*
X108547298Y-69322803D01*
X108475592Y-69525999D01*
X51524408Y-69525999D01*
X51452702Y-69322803D01*
X51337014Y-69142592D01*
X51188391Y-68988413D01*
X51012545Y-68866191D01*
X50816233Y-68780624D01*
X50607000Y-68735000D01*
X50038509Y-68735000D01*
X50053494Y-68712574D01*
X50104829Y-68588640D01*
X50131000Y-68457073D01*
X50131000Y-68322927D01*
X50104829Y-68191360D01*
X50053494Y-68067426D01*
X49978967Y-67955888D01*
X49884112Y-67861033D01*
X49772574Y-67786506D01*
X49648640Y-67735171D01*
X49517073Y-67709000D01*
X49382927Y-67709000D01*
X49251360Y-67735171D01*
X49127426Y-67786506D01*
X49015888Y-67861033D01*
X48921033Y-67955888D01*
X48846506Y-68067426D01*
X48795171Y-68191360D01*
X48769000Y-68322927D01*
X48769000Y-68457073D01*
X48795171Y-68588640D01*
X48846506Y-68712574D01*
X48921033Y-68824112D01*
X48928003Y-68831082D01*
X48847455Y-68866191D01*
X48671609Y-68988413D01*
X48522986Y-69142592D01*
X48407298Y-69322803D01*
X48335592Y-69525999D01*
X47204408Y-69525999D01*
X47132702Y-69322803D01*
X47017014Y-69142592D01*
X46868391Y-68988413D01*
X46692545Y-68866191D01*
X46496233Y-68780624D01*
X46287000Y-68735000D01*
X45887000Y-68735000D01*
X45633000Y-68735000D01*
X45233000Y-68735000D01*
X45023767Y-68780624D01*
X44827455Y-68866191D01*
X44651609Y-68988413D01*
X44502986Y-69142592D01*
X44387298Y-69322803D01*
X44315592Y-69525999D01*
X43406000Y-69525999D01*
X43406000Y-61474001D01*
X44315592Y-61474001D01*
X44387298Y-61677197D01*
X44502986Y-61857408D01*
X44651609Y-62011587D01*
X44827455Y-62133809D01*
X45023767Y-62219376D01*
X45233000Y-62265000D01*
X45633000Y-62265000D01*
X45633000Y-61307000D01*
X45887000Y-61307000D01*
X45887000Y-62265000D01*
X46287000Y-62265000D01*
X46496233Y-62219376D01*
X46692545Y-62133809D01*
X46868391Y-62011587D01*
X47017014Y-61857408D01*
X47132702Y-61677197D01*
X47204408Y-61474001D01*
X48335592Y-61474001D01*
X48407298Y-61677197D01*
X48522986Y-61857408D01*
X48671609Y-62011587D01*
X48847455Y-62133809D01*
X48928003Y-62168918D01*
X48921033Y-62175888D01*
X48846506Y-62287426D01*
X48795171Y-62411360D01*
X48769000Y-62542927D01*
X48769000Y-62677073D01*
X48795171Y-62808640D01*
X48846506Y-62932574D01*
X48921033Y-63044112D01*
X49015888Y-63138967D01*
X49127426Y-63213494D01*
X49251360Y-63264829D01*
X49382927Y-63291000D01*
X49517073Y-63291000D01*
X49648640Y-63264829D01*
X49772574Y-63213494D01*
X49884112Y-63138967D01*
X49978967Y-63044112D01*
X50053494Y-62932574D01*
X50104829Y-62808640D01*
X50131000Y-62677073D01*
X50131000Y-62542927D01*
X50104829Y-62411360D01*
X50053494Y-62287426D01*
X50038509Y-62265000D01*
X50607000Y-62265000D01*
X50816233Y-62219376D01*
X51012545Y-62133809D01*
X51188391Y-62011587D01*
X51337014Y-61857408D01*
X51452702Y-61677197D01*
X51524408Y-61474001D01*
X51397502Y-61307000D01*
X50057000Y-61307000D01*
X50057000Y-61327000D01*
X49803000Y-61327000D01*
X49803000Y-61307000D01*
X48462498Y-61307000D01*
X48335592Y-61474001D01*
X47204408Y-61474001D01*
X47077502Y-61307000D01*
X45887000Y-61307000D01*
X45633000Y-61307000D01*
X44442498Y-61307000D01*
X44315592Y-61474001D01*
X43406000Y-61474001D01*
X43406000Y-60885999D01*
X44315592Y-60885999D01*
X44442498Y-61053000D01*
X45633000Y-61053000D01*
X45633000Y-60095000D01*
X45887000Y-60095000D01*
X45887000Y-61053000D01*
X47077502Y-61053000D01*
X47204408Y-60885999D01*
X48335592Y-60885999D01*
X48462498Y-61053000D01*
X49803000Y-61053000D01*
X49803000Y-60095000D01*
X50057000Y-60095000D01*
X50057000Y-61053000D01*
X51397502Y-61053000D01*
X51524408Y-60885999D01*
X51452702Y-60682803D01*
X51337014Y-60502592D01*
X51188391Y-60348413D01*
X51012545Y-60226191D01*
X50816233Y-60140624D01*
X50607000Y-60095000D01*
X50057000Y-60095000D01*
X49803000Y-60095000D01*
X49253000Y-60095000D01*
X49043767Y-60140624D01*
X48847455Y-60226191D01*
X48671609Y-60348413D01*
X48522986Y-60502592D01*
X48407298Y-60682803D01*
X48335592Y-60885999D01*
X47204408Y-60885999D01*
X47132702Y-60682803D01*
X47017014Y-60502592D01*
X46868391Y-60348413D01*
X46692545Y-60226191D01*
X46496233Y-60140624D01*
X46287000Y-60095000D01*
X45887000Y-60095000D01*
X45633000Y-60095000D01*
X45233000Y-60095000D01*
X45023767Y-60140624D01*
X44827455Y-60226191D01*
X44651609Y-60348413D01*
X44502986Y-60502592D01*
X44387298Y-60682803D01*
X44315592Y-60885999D01*
X43406000Y-60885999D01*
X43406000Y-54932927D01*
X50819000Y-54932927D01*
X50819000Y-55067073D01*
X50845171Y-55198640D01*
X50896506Y-55322574D01*
X50971033Y-55434112D01*
X51065888Y-55528967D01*
X51177426Y-55603494D01*
X51301360Y-55654829D01*
X51432927Y-55681000D01*
X51567073Y-55681000D01*
X51698640Y-55654829D01*
X51822574Y-55603494D01*
X51934112Y-55528967D01*
X51957079Y-55506000D01*
X57042921Y-55506000D01*
X57065888Y-55528967D01*
X57177426Y-55603494D01*
X57301360Y-55654829D01*
X57432927Y-55681000D01*
X57494000Y-55681000D01*
X57494001Y-58290407D01*
X52965409Y-62819000D01*
X52932927Y-62819000D01*
X52801360Y-62845171D01*
X52677426Y-62896506D01*
X52565888Y-62971033D01*
X52471033Y-63065888D01*
X52396506Y-63177426D01*
X52345171Y-63301360D01*
X52319000Y-63432927D01*
X52319000Y-63567073D01*
X52345171Y-63698640D01*
X52396506Y-63822574D01*
X52471033Y-63934112D01*
X52565888Y-64028967D01*
X52677426Y-64103494D01*
X52801360Y-64154829D01*
X52932927Y-64181000D01*
X53067073Y-64181000D01*
X53198640Y-64154829D01*
X53322574Y-64103494D01*
X53434112Y-64028967D01*
X53528967Y-63934112D01*
X53603494Y-63822574D01*
X53654829Y-63698640D01*
X53681000Y-63567073D01*
X53681000Y-63534591D01*
X58340220Y-58875372D01*
X58359527Y-58859527D01*
X58422759Y-58782479D01*
X58469745Y-58694575D01*
X58498678Y-58599193D01*
X58506000Y-58524854D01*
X58508448Y-58500000D01*
X58506000Y-58475146D01*
X58506000Y-56181000D01*
X58567073Y-56181000D01*
X58698640Y-56154829D01*
X58822574Y-56103494D01*
X58934112Y-56028967D01*
X59028967Y-55934112D01*
X59103494Y-55822574D01*
X59154829Y-55698640D01*
X59181000Y-55567073D01*
X59181000Y-55432927D01*
X59154829Y-55301360D01*
X59103494Y-55177426D01*
X59028967Y-55065888D01*
X58934112Y-54971033D01*
X58877083Y-54932927D01*
X59819000Y-54932927D01*
X59819000Y-55067073D01*
X59845171Y-55198640D01*
X59896506Y-55322574D01*
X59971033Y-55434112D01*
X60065888Y-55528967D01*
X60177426Y-55603494D01*
X60301360Y-55654829D01*
X60432927Y-55681000D01*
X60567073Y-55681000D01*
X60698640Y-55654829D01*
X60822574Y-55603494D01*
X60934112Y-55528967D01*
X60957079Y-55506000D01*
X72042921Y-55506000D01*
X72065888Y-55528967D01*
X72177426Y-55603494D01*
X72301360Y-55654829D01*
X72432927Y-55681000D01*
X72567073Y-55681000D01*
X72698640Y-55654829D01*
X72822574Y-55603494D01*
X72934112Y-55528967D01*
X73028967Y-55434112D01*
X73103494Y-55322574D01*
X73154829Y-55198640D01*
X73181000Y-55067073D01*
X73181000Y-54932927D01*
X74319000Y-54932927D01*
X74319000Y-55067073D01*
X74345171Y-55198640D01*
X74396506Y-55322574D01*
X74471033Y-55434112D01*
X74565888Y-55528967D01*
X74677426Y-55603494D01*
X74801360Y-55654829D01*
X74932927Y-55681000D01*
X75067073Y-55681000D01*
X75198640Y-55654829D01*
X75322574Y-55603494D01*
X75434112Y-55528967D01*
X75457079Y-55506000D01*
X85542921Y-55506000D01*
X85565888Y-55528967D01*
X85677426Y-55603494D01*
X85801360Y-55654829D01*
X85932927Y-55681000D01*
X86067073Y-55681000D01*
X86198640Y-55654829D01*
X86322574Y-55603494D01*
X86434112Y-55528967D01*
X86494001Y-55469078D01*
X86494001Y-57665144D01*
X86491553Y-57690000D01*
X86501322Y-57789192D01*
X86530255Y-57884574D01*
X86530256Y-57884575D01*
X86577242Y-57972479D01*
X86640474Y-58049527D01*
X86659780Y-58065371D01*
X87989788Y-59395380D01*
X87989794Y-59395385D01*
X89767157Y-61172749D01*
X89767157Y-62540000D01*
X89774513Y-62614689D01*
X89796299Y-62686508D01*
X89831678Y-62752696D01*
X89879289Y-62810711D01*
X89937304Y-62858322D01*
X90003492Y-62893701D01*
X90075311Y-62915487D01*
X90150000Y-62922843D01*
X91850000Y-62922843D01*
X91924689Y-62915487D01*
X91996508Y-62893701D01*
X92062696Y-62858322D01*
X92120711Y-62810711D01*
X92168322Y-62752696D01*
X92203701Y-62686508D01*
X92225487Y-62614689D01*
X92232843Y-62540000D01*
X92232843Y-61568757D01*
X92309000Y-61568757D01*
X92309000Y-61811243D01*
X92356307Y-62049069D01*
X92449102Y-62273097D01*
X92583820Y-62474717D01*
X92755283Y-62646180D01*
X92956903Y-62780898D01*
X93180931Y-62873693D01*
X93418757Y-62921000D01*
X93661243Y-62921000D01*
X93899069Y-62873693D01*
X94123097Y-62780898D01*
X94324717Y-62646180D01*
X94496180Y-62474717D01*
X94630898Y-62273097D01*
X94723693Y-62049069D01*
X94771000Y-61811243D01*
X94771000Y-61583531D01*
X98789000Y-61583531D01*
X98789000Y-61796469D01*
X98830543Y-62005316D01*
X98912031Y-62202045D01*
X99030333Y-62379097D01*
X99180903Y-62529667D01*
X99357955Y-62647969D01*
X99554684Y-62729457D01*
X99763531Y-62771000D01*
X99976469Y-62771000D01*
X100185316Y-62729457D01*
X100382045Y-62647969D01*
X100559097Y-62529667D01*
X100709667Y-62379097D01*
X100827969Y-62202045D01*
X100909457Y-62005316D01*
X100951000Y-61796469D01*
X100951000Y-61583531D01*
X103869000Y-61583531D01*
X103869000Y-61796469D01*
X103910543Y-62005316D01*
X103992031Y-62202045D01*
X104110333Y-62379097D01*
X104260903Y-62529667D01*
X104437955Y-62647969D01*
X104634684Y-62729457D01*
X104843531Y-62771000D01*
X105056469Y-62771000D01*
X105265316Y-62729457D01*
X105462045Y-62647969D01*
X105639097Y-62529667D01*
X105789667Y-62379097D01*
X105907969Y-62202045D01*
X105989457Y-62005316D01*
X106031000Y-61796469D01*
X106031000Y-61583531D01*
X106009213Y-61474001D01*
X108475592Y-61474001D01*
X108547298Y-61677197D01*
X108662986Y-61857408D01*
X108811609Y-62011587D01*
X108987455Y-62133809D01*
X109183767Y-62219376D01*
X109393000Y-62265000D01*
X109961491Y-62265000D01*
X109946506Y-62287426D01*
X109895171Y-62411360D01*
X109869000Y-62542927D01*
X109869000Y-62677073D01*
X109895171Y-62808640D01*
X109946506Y-62932574D01*
X110021033Y-63044112D01*
X110115888Y-63138967D01*
X110227426Y-63213494D01*
X110351360Y-63264829D01*
X110482927Y-63291000D01*
X110617073Y-63291000D01*
X110748640Y-63264829D01*
X110872574Y-63213494D01*
X110984112Y-63138967D01*
X111078967Y-63044112D01*
X111153494Y-62932574D01*
X111204829Y-62808640D01*
X111231000Y-62677073D01*
X111231000Y-62542927D01*
X111204829Y-62411360D01*
X111153494Y-62287426D01*
X111078967Y-62175888D01*
X111071997Y-62168918D01*
X111152545Y-62133809D01*
X111328391Y-62011587D01*
X111477014Y-61857408D01*
X111592702Y-61677197D01*
X111664408Y-61474001D01*
X112795592Y-61474001D01*
X112867298Y-61677197D01*
X112982986Y-61857408D01*
X113131609Y-62011587D01*
X113307455Y-62133809D01*
X113503767Y-62219376D01*
X113713000Y-62265000D01*
X114113000Y-62265000D01*
X114113000Y-61307000D01*
X114367000Y-61307000D01*
X114367000Y-62265000D01*
X114767000Y-62265000D01*
X114976233Y-62219376D01*
X115172545Y-62133809D01*
X115348391Y-62011587D01*
X115497014Y-61857408D01*
X115612702Y-61677197D01*
X115684408Y-61474001D01*
X115557502Y-61307000D01*
X114367000Y-61307000D01*
X114113000Y-61307000D01*
X112922498Y-61307000D01*
X112795592Y-61474001D01*
X111664408Y-61474001D01*
X111537502Y-61307000D01*
X110197000Y-61307000D01*
X110197000Y-61327000D01*
X109943000Y-61327000D01*
X109943000Y-61307000D01*
X108602498Y-61307000D01*
X108475592Y-61474001D01*
X106009213Y-61474001D01*
X105989457Y-61374684D01*
X105907969Y-61177955D01*
X105789667Y-61000903D01*
X105674763Y-60885999D01*
X108475592Y-60885999D01*
X108602498Y-61053000D01*
X109943000Y-61053000D01*
X109943000Y-60095000D01*
X110197000Y-60095000D01*
X110197000Y-61053000D01*
X111537502Y-61053000D01*
X111664408Y-60885999D01*
X112795592Y-60885999D01*
X112922498Y-61053000D01*
X114113000Y-61053000D01*
X114113000Y-60095000D01*
X114367000Y-60095000D01*
X114367000Y-61053000D01*
X115557502Y-61053000D01*
X115684408Y-60885999D01*
X115612702Y-60682803D01*
X115497014Y-60502592D01*
X115348391Y-60348413D01*
X115172545Y-60226191D01*
X114976233Y-60140624D01*
X114767000Y-60095000D01*
X114367000Y-60095000D01*
X114113000Y-60095000D01*
X113713000Y-60095000D01*
X113503767Y-60140624D01*
X113307455Y-60226191D01*
X113131609Y-60348413D01*
X112982986Y-60502592D01*
X112867298Y-60682803D01*
X112795592Y-60885999D01*
X111664408Y-60885999D01*
X111592702Y-60682803D01*
X111477014Y-60502592D01*
X111328391Y-60348413D01*
X111152545Y-60226191D01*
X110956233Y-60140624D01*
X110747000Y-60095000D01*
X110197000Y-60095000D01*
X109943000Y-60095000D01*
X109393000Y-60095000D01*
X109183767Y-60140624D01*
X108987455Y-60226191D01*
X108811609Y-60348413D01*
X108662986Y-60502592D01*
X108547298Y-60682803D01*
X108475592Y-60885999D01*
X105674763Y-60885999D01*
X105639097Y-60850333D01*
X105462045Y-60732031D01*
X105265316Y-60650543D01*
X105056469Y-60609000D01*
X104843531Y-60609000D01*
X104634684Y-60650543D01*
X104437955Y-60732031D01*
X104260903Y-60850333D01*
X104110333Y-61000903D01*
X103992031Y-61177955D01*
X103910543Y-61374684D01*
X103869000Y-61583531D01*
X100951000Y-61583531D01*
X100909457Y-61374684D01*
X100827969Y-61177955D01*
X100709667Y-61000903D01*
X100559097Y-60850333D01*
X100382045Y-60732031D01*
X100185316Y-60650543D01*
X99976469Y-60609000D01*
X99763531Y-60609000D01*
X99554684Y-60650543D01*
X99357955Y-60732031D01*
X99180903Y-60850333D01*
X99030333Y-61000903D01*
X98912031Y-61177955D01*
X98830543Y-61374684D01*
X98789000Y-61583531D01*
X94771000Y-61583531D01*
X94771000Y-61568757D01*
X94723693Y-61330931D01*
X94630898Y-61106903D01*
X94496180Y-60905283D01*
X94324717Y-60733820D01*
X94123097Y-60599102D01*
X93899069Y-60506307D01*
X93661243Y-60459000D01*
X93418757Y-60459000D01*
X93180931Y-60506307D01*
X92956903Y-60599102D01*
X92755283Y-60733820D01*
X92583820Y-60905283D01*
X92449102Y-61106903D01*
X92356307Y-61330931D01*
X92309000Y-61568757D01*
X92232843Y-61568757D01*
X92232843Y-60840000D01*
X92225487Y-60765311D01*
X92203701Y-60693492D01*
X92168322Y-60627304D01*
X92120711Y-60569289D01*
X92062696Y-60521678D01*
X91996508Y-60486299D01*
X91924689Y-60464513D01*
X91850000Y-60457157D01*
X90482749Y-60457157D01*
X88705385Y-58679794D01*
X88705380Y-58679788D01*
X87506000Y-57480409D01*
X87506000Y-54932927D01*
X87819000Y-54932927D01*
X87819000Y-55067073D01*
X87845171Y-55198640D01*
X87896506Y-55322574D01*
X87971033Y-55434112D01*
X88065888Y-55528967D01*
X88177426Y-55603494D01*
X88301360Y-55654829D01*
X88432927Y-55681000D01*
X88567073Y-55681000D01*
X88698640Y-55654829D01*
X88822574Y-55603494D01*
X88934112Y-55528967D01*
X88957079Y-55506000D01*
X99542921Y-55506000D01*
X99565888Y-55528967D01*
X99677426Y-55603494D01*
X99801360Y-55654829D01*
X99932927Y-55681000D01*
X100067073Y-55681000D01*
X100198640Y-55654829D01*
X100322574Y-55603494D01*
X100434112Y-55528967D01*
X100528967Y-55434112D01*
X100603494Y-55322574D01*
X100654829Y-55198640D01*
X100681000Y-55067073D01*
X100681000Y-54932927D01*
X100654829Y-54801360D01*
X100603494Y-54677426D01*
X100528967Y-54565888D01*
X100434112Y-54471033D01*
X100322574Y-54396506D01*
X100198640Y-54345171D01*
X100067073Y-54319000D01*
X99932927Y-54319000D01*
X99801360Y-54345171D01*
X99677426Y-54396506D01*
X99565888Y-54471033D01*
X99542921Y-54494000D01*
X97171832Y-54494000D01*
X97317197Y-54442702D01*
X97497408Y-54327014D01*
X97651587Y-54178391D01*
X97773809Y-54002545D01*
X97859376Y-53806233D01*
X97905000Y-53597000D01*
X97905000Y-53028509D01*
X97927426Y-53043494D01*
X98051360Y-53094829D01*
X98182927Y-53121000D01*
X98317073Y-53121000D01*
X98448640Y-53094829D01*
X98572574Y-53043494D01*
X98684112Y-52968967D01*
X98778967Y-52874112D01*
X98853494Y-52762574D01*
X98904829Y-52638640D01*
X98931000Y-52507073D01*
X98931000Y-52372927D01*
X98904829Y-52241360D01*
X98853494Y-52117426D01*
X98778967Y-52005888D01*
X98684112Y-51911033D01*
X98572574Y-51836506D01*
X98448640Y-51785171D01*
X98317073Y-51759000D01*
X98182927Y-51759000D01*
X98051360Y-51785171D01*
X97927426Y-51836506D01*
X97815888Y-51911033D01*
X97808918Y-51918003D01*
X97773809Y-51837455D01*
X97651587Y-51661609D01*
X97497408Y-51512986D01*
X97372698Y-51432927D01*
X101819000Y-51432927D01*
X101819000Y-51567073D01*
X101845171Y-51698640D01*
X101896506Y-51822574D01*
X101971033Y-51934112D01*
X101994000Y-51957079D01*
X101994001Y-56475144D01*
X101991553Y-56500000D01*
X102001322Y-56599192D01*
X102030255Y-56694574D01*
X102030256Y-56694575D01*
X102077242Y-56782479D01*
X102140474Y-56859527D01*
X102159781Y-56875372D01*
X105124628Y-59840220D01*
X105140473Y-59859527D01*
X105217521Y-59922759D01*
X105305425Y-59969745D01*
X105400807Y-59998678D01*
X105500000Y-60008448D01*
X105524854Y-60006000D01*
X106542921Y-60006000D01*
X106565888Y-60028967D01*
X106677426Y-60103494D01*
X106801360Y-60154829D01*
X106932927Y-60181000D01*
X107067073Y-60181000D01*
X107198640Y-60154829D01*
X107322574Y-60103494D01*
X107434112Y-60028967D01*
X107528967Y-59934112D01*
X107603494Y-59822574D01*
X107654829Y-59698640D01*
X107681000Y-59567073D01*
X107681000Y-59432927D01*
X107654829Y-59301360D01*
X107603494Y-59177426D01*
X107528967Y-59065888D01*
X107434112Y-58971033D01*
X107322574Y-58896506D01*
X107198640Y-58845171D01*
X107067073Y-58819000D01*
X106932927Y-58819000D01*
X106801360Y-58845171D01*
X106677426Y-58896506D01*
X106565888Y-58971033D01*
X106542921Y-58994000D01*
X105709592Y-58994000D01*
X103006000Y-56290409D01*
X103006000Y-52372927D01*
X103349000Y-52372927D01*
X103349000Y-52507073D01*
X103375171Y-52638640D01*
X103426506Y-52762574D01*
X103501033Y-52874112D01*
X103595888Y-52968967D01*
X103707426Y-53043494D01*
X103831360Y-53094829D01*
X103962927Y-53121000D01*
X104097073Y-53121000D01*
X104228640Y-53094829D01*
X104352574Y-53043494D01*
X104375000Y-53028509D01*
X104375000Y-53597000D01*
X104420624Y-53806233D01*
X104506191Y-54002545D01*
X104628413Y-54178391D01*
X104782592Y-54327014D01*
X104962803Y-54442702D01*
X105165999Y-54514408D01*
X105333000Y-54387502D01*
X105333000Y-53047000D01*
X105587000Y-53047000D01*
X105587000Y-54387502D01*
X105754001Y-54514408D01*
X105957197Y-54442702D01*
X106137408Y-54327014D01*
X106291587Y-54178391D01*
X106413809Y-54002545D01*
X106499376Y-53806233D01*
X106545000Y-53597000D01*
X106545000Y-53047000D01*
X105587000Y-53047000D01*
X105333000Y-53047000D01*
X105313000Y-53047000D01*
X105313000Y-52793000D01*
X105333000Y-52793000D01*
X105333000Y-51452498D01*
X105587000Y-51452498D01*
X105587000Y-52793000D01*
X106545000Y-52793000D01*
X106545000Y-52243000D01*
X106499376Y-52033767D01*
X106413809Y-51837455D01*
X106291587Y-51661609D01*
X106137408Y-51512986D01*
X105957197Y-51397298D01*
X105754001Y-51325592D01*
X105587000Y-51452498D01*
X105333000Y-51452498D01*
X105165999Y-51325592D01*
X104962803Y-51397298D01*
X104782592Y-51512986D01*
X104628413Y-51661609D01*
X104506191Y-51837455D01*
X104471082Y-51918003D01*
X104464112Y-51911033D01*
X104352574Y-51836506D01*
X104228640Y-51785171D01*
X104097073Y-51759000D01*
X103962927Y-51759000D01*
X103831360Y-51785171D01*
X103707426Y-51836506D01*
X103595888Y-51911033D01*
X103501033Y-52005888D01*
X103426506Y-52117426D01*
X103375171Y-52241360D01*
X103349000Y-52372927D01*
X103006000Y-52372927D01*
X103006000Y-51957079D01*
X103028967Y-51934112D01*
X103103494Y-51822574D01*
X103154829Y-51698640D01*
X103181000Y-51567073D01*
X103181000Y-51432927D01*
X103154829Y-51301360D01*
X103103494Y-51177426D01*
X103028967Y-51065888D01*
X102934112Y-50971033D01*
X102822574Y-50896506D01*
X102698640Y-50845171D01*
X102567073Y-50819000D01*
X102432927Y-50819000D01*
X102301360Y-50845171D01*
X102177426Y-50896506D01*
X102065888Y-50971033D01*
X101971033Y-51065888D01*
X101896506Y-51177426D01*
X101845171Y-51301360D01*
X101819000Y-51432927D01*
X97372698Y-51432927D01*
X97317197Y-51397298D01*
X97114001Y-51325592D01*
X96947000Y-51452498D01*
X96947000Y-52793000D01*
X96967000Y-52793000D01*
X96967000Y-53047000D01*
X96947000Y-53047000D01*
X96947000Y-53067000D01*
X96693000Y-53067000D01*
X96693000Y-53047000D01*
X95735000Y-53047000D01*
X95735000Y-53597000D01*
X95780624Y-53806233D01*
X95866191Y-54002545D01*
X95988413Y-54178391D01*
X96142592Y-54327014D01*
X96322803Y-54442702D01*
X96468168Y-54494000D01*
X91841832Y-54494000D01*
X91987197Y-54442702D01*
X92167408Y-54327014D01*
X92321587Y-54178391D01*
X92443809Y-54002545D01*
X92529376Y-53806233D01*
X92575000Y-53597000D01*
X92575000Y-53047000D01*
X91617000Y-53047000D01*
X91617000Y-53067000D01*
X91363000Y-53067000D01*
X91363000Y-53047000D01*
X91343000Y-53047000D01*
X91343000Y-52793000D01*
X91363000Y-52793000D01*
X91363000Y-51452498D01*
X91617000Y-51452498D01*
X91617000Y-52793000D01*
X92575000Y-52793000D01*
X92575000Y-52243000D01*
X95735000Y-52243000D01*
X95735000Y-52793000D01*
X96693000Y-52793000D01*
X96693000Y-51452498D01*
X96525999Y-51325592D01*
X96322803Y-51397298D01*
X96142592Y-51512986D01*
X95988413Y-51661609D01*
X95866191Y-51837455D01*
X95780624Y-52033767D01*
X95735000Y-52243000D01*
X92575000Y-52243000D01*
X92529376Y-52033767D01*
X92443809Y-51837455D01*
X92321587Y-51661609D01*
X92167408Y-51512986D01*
X91987197Y-51397298D01*
X91784001Y-51325592D01*
X91617000Y-51452498D01*
X91363000Y-51452498D01*
X91195999Y-51325592D01*
X90992803Y-51397298D01*
X90812592Y-51512986D01*
X90658413Y-51661609D01*
X90536191Y-51837455D01*
X90501082Y-51918003D01*
X90494112Y-51911033D01*
X90382574Y-51836506D01*
X90258640Y-51785171D01*
X90127073Y-51759000D01*
X89992927Y-51759000D01*
X89861360Y-51785171D01*
X89737426Y-51836506D01*
X89625888Y-51911033D01*
X89531033Y-52005888D01*
X89456506Y-52117426D01*
X89405171Y-52241360D01*
X89379000Y-52372927D01*
X89379000Y-52507073D01*
X89405171Y-52638640D01*
X89456506Y-52762574D01*
X89531033Y-52874112D01*
X89625888Y-52968967D01*
X89737426Y-53043494D01*
X89861360Y-53094829D01*
X89992927Y-53121000D01*
X90127073Y-53121000D01*
X90258640Y-53094829D01*
X90382574Y-53043494D01*
X90405000Y-53028509D01*
X90405000Y-53597000D01*
X90450624Y-53806233D01*
X90536191Y-54002545D01*
X90658413Y-54178391D01*
X90812592Y-54327014D01*
X90992803Y-54442702D01*
X91138168Y-54494000D01*
X88957079Y-54494000D01*
X88934112Y-54471033D01*
X88822574Y-54396506D01*
X88698640Y-54345171D01*
X88567073Y-54319000D01*
X88432927Y-54319000D01*
X88301360Y-54345171D01*
X88177426Y-54396506D01*
X88065888Y-54471033D01*
X87971033Y-54565888D01*
X87896506Y-54677426D01*
X87845171Y-54801360D01*
X87819000Y-54932927D01*
X87506000Y-54932927D01*
X87506000Y-52457079D01*
X87528967Y-52434112D01*
X87603494Y-52322574D01*
X87654829Y-52198640D01*
X87681000Y-52067073D01*
X87681000Y-51932927D01*
X87654829Y-51801360D01*
X87603494Y-51677426D01*
X87528967Y-51565888D01*
X87434112Y-51471033D01*
X87322574Y-51396506D01*
X87198640Y-51345171D01*
X87067073Y-51319000D01*
X86932927Y-51319000D01*
X86801360Y-51345171D01*
X86677426Y-51396506D01*
X86565888Y-51471033D01*
X86471033Y-51565888D01*
X86396506Y-51677426D01*
X86345171Y-51801360D01*
X86319000Y-51932927D01*
X86319000Y-52067073D01*
X86345171Y-52198640D01*
X86396506Y-52322574D01*
X86471033Y-52434112D01*
X86494000Y-52457079D01*
X86494000Y-54530921D01*
X86434112Y-54471033D01*
X86322574Y-54396506D01*
X86198640Y-54345171D01*
X86067073Y-54319000D01*
X85932927Y-54319000D01*
X85801360Y-54345171D01*
X85677426Y-54396506D01*
X85565888Y-54471033D01*
X85542921Y-54494000D01*
X83201832Y-54494000D01*
X83347197Y-54442702D01*
X83527408Y-54327014D01*
X83681587Y-54178391D01*
X83803809Y-54002545D01*
X83889376Y-53806233D01*
X83935000Y-53597000D01*
X83935000Y-53028509D01*
X83957426Y-53043494D01*
X84081360Y-53094829D01*
X84212927Y-53121000D01*
X84347073Y-53121000D01*
X84478640Y-53094829D01*
X84602574Y-53043494D01*
X84714112Y-52968967D01*
X84808967Y-52874112D01*
X84883494Y-52762574D01*
X84934829Y-52638640D01*
X84961000Y-52507073D01*
X84961000Y-52372927D01*
X84934829Y-52241360D01*
X84883494Y-52117426D01*
X84808967Y-52005888D01*
X84714112Y-51911033D01*
X84602574Y-51836506D01*
X84478640Y-51785171D01*
X84347073Y-51759000D01*
X84212927Y-51759000D01*
X84081360Y-51785171D01*
X83957426Y-51836506D01*
X83845888Y-51911033D01*
X83838918Y-51918003D01*
X83803809Y-51837455D01*
X83681587Y-51661609D01*
X83527408Y-51512986D01*
X83347197Y-51397298D01*
X83144001Y-51325592D01*
X82977000Y-51452498D01*
X82977000Y-52793000D01*
X82997000Y-52793000D01*
X82997000Y-53047000D01*
X82977000Y-53047000D01*
X82977000Y-53067000D01*
X82723000Y-53067000D01*
X82723000Y-53047000D01*
X81765000Y-53047000D01*
X81765000Y-53597000D01*
X81810624Y-53806233D01*
X81896191Y-54002545D01*
X82018413Y-54178391D01*
X82172592Y-54327014D01*
X82352803Y-54442702D01*
X82498168Y-54494000D01*
X78191832Y-54494000D01*
X78337197Y-54442702D01*
X78517408Y-54327014D01*
X78671587Y-54178391D01*
X78793809Y-54002545D01*
X78879376Y-53806233D01*
X78925000Y-53597000D01*
X78925000Y-53047000D01*
X77967000Y-53047000D01*
X77967000Y-53067000D01*
X77713000Y-53067000D01*
X77713000Y-53047000D01*
X77693000Y-53047000D01*
X77693000Y-52793000D01*
X77713000Y-52793000D01*
X77713000Y-51452498D01*
X77967000Y-51452498D01*
X77967000Y-52793000D01*
X78925000Y-52793000D01*
X78925000Y-52243000D01*
X81765000Y-52243000D01*
X81765000Y-52793000D01*
X82723000Y-52793000D01*
X82723000Y-51452498D01*
X82555999Y-51325592D01*
X82352803Y-51397298D01*
X82172592Y-51512986D01*
X82018413Y-51661609D01*
X81896191Y-51837455D01*
X81810624Y-52033767D01*
X81765000Y-52243000D01*
X78925000Y-52243000D01*
X78879376Y-52033767D01*
X78793809Y-51837455D01*
X78671587Y-51661609D01*
X78517408Y-51512986D01*
X78337197Y-51397298D01*
X78134001Y-51325592D01*
X77967000Y-51452498D01*
X77713000Y-51452498D01*
X77545999Y-51325592D01*
X77342803Y-51397298D01*
X77162592Y-51512986D01*
X77008413Y-51661609D01*
X76886191Y-51837455D01*
X76851082Y-51918003D01*
X76844112Y-51911033D01*
X76732574Y-51836506D01*
X76608640Y-51785171D01*
X76477073Y-51759000D01*
X76342927Y-51759000D01*
X76211360Y-51785171D01*
X76087426Y-51836506D01*
X75975888Y-51911033D01*
X75881033Y-52005888D01*
X75806506Y-52117426D01*
X75755171Y-52241360D01*
X75729000Y-52372927D01*
X75729000Y-52507073D01*
X75755171Y-52638640D01*
X75806506Y-52762574D01*
X75881033Y-52874112D01*
X75975888Y-52968967D01*
X76087426Y-53043494D01*
X76211360Y-53094829D01*
X76342927Y-53121000D01*
X76477073Y-53121000D01*
X76608640Y-53094829D01*
X76732574Y-53043494D01*
X76755000Y-53028509D01*
X76755000Y-53597000D01*
X76800624Y-53806233D01*
X76886191Y-54002545D01*
X77008413Y-54178391D01*
X77162592Y-54327014D01*
X77342803Y-54442702D01*
X77488168Y-54494000D01*
X75457079Y-54494000D01*
X75434112Y-54471033D01*
X75322574Y-54396506D01*
X75198640Y-54345171D01*
X75067073Y-54319000D01*
X74932927Y-54319000D01*
X74801360Y-54345171D01*
X74677426Y-54396506D01*
X74565888Y-54471033D01*
X74471033Y-54565888D01*
X74396506Y-54677426D01*
X74345171Y-54801360D01*
X74319000Y-54932927D01*
X73181000Y-54932927D01*
X73154829Y-54801360D01*
X73103494Y-54677426D01*
X73028967Y-54565888D01*
X72934112Y-54471033D01*
X72822574Y-54396506D01*
X72698640Y-54345171D01*
X72567073Y-54319000D01*
X72432927Y-54319000D01*
X72301360Y-54345171D01*
X72177426Y-54396506D01*
X72065888Y-54471033D01*
X72042921Y-54494000D01*
X69551832Y-54494000D01*
X69697197Y-54442702D01*
X69877408Y-54327014D01*
X70031587Y-54178391D01*
X70153809Y-54002545D01*
X70239376Y-53806233D01*
X70285000Y-53597000D01*
X70285000Y-53028509D01*
X70307426Y-53043494D01*
X70431360Y-53094829D01*
X70562927Y-53121000D01*
X70697073Y-53121000D01*
X70828640Y-53094829D01*
X70952574Y-53043494D01*
X71064112Y-52968967D01*
X71158967Y-52874112D01*
X71233494Y-52762574D01*
X71284829Y-52638640D01*
X71311000Y-52507073D01*
X71311000Y-52372927D01*
X71284829Y-52241360D01*
X71233494Y-52117426D01*
X71158967Y-52005888D01*
X71064112Y-51911033D01*
X70952574Y-51836506D01*
X70828640Y-51785171D01*
X70697073Y-51759000D01*
X70562927Y-51759000D01*
X70431360Y-51785171D01*
X70307426Y-51836506D01*
X70195888Y-51911033D01*
X70188918Y-51918003D01*
X70153809Y-51837455D01*
X70031587Y-51661609D01*
X69877408Y-51512986D01*
X69697197Y-51397298D01*
X69494001Y-51325592D01*
X69327000Y-51452498D01*
X69327000Y-52793000D01*
X69347000Y-52793000D01*
X69347000Y-53047000D01*
X69327000Y-53047000D01*
X69327000Y-53067000D01*
X69073000Y-53067000D01*
X69073000Y-53047000D01*
X68115000Y-53047000D01*
X68115000Y-53597000D01*
X68160624Y-53806233D01*
X68246191Y-54002545D01*
X68368413Y-54178391D01*
X68522592Y-54327014D01*
X68702803Y-54442702D01*
X68848168Y-54494000D01*
X63901832Y-54494000D01*
X64047197Y-54442702D01*
X64227408Y-54327014D01*
X64381587Y-54178391D01*
X64503809Y-54002545D01*
X64589376Y-53806233D01*
X64635000Y-53597000D01*
X64635000Y-53047000D01*
X63677000Y-53047000D01*
X63677000Y-53067000D01*
X63423000Y-53067000D01*
X63423000Y-53047000D01*
X63403000Y-53047000D01*
X63403000Y-52793000D01*
X63423000Y-52793000D01*
X63423000Y-51452498D01*
X63677000Y-51452498D01*
X63677000Y-52793000D01*
X64635000Y-52793000D01*
X64635000Y-52243000D01*
X68115000Y-52243000D01*
X68115000Y-52793000D01*
X69073000Y-52793000D01*
X69073000Y-51452498D01*
X68905999Y-51325592D01*
X68702803Y-51397298D01*
X68522592Y-51512986D01*
X68368413Y-51661609D01*
X68246191Y-51837455D01*
X68160624Y-52033767D01*
X68115000Y-52243000D01*
X64635000Y-52243000D01*
X64589376Y-52033767D01*
X64503809Y-51837455D01*
X64381587Y-51661609D01*
X64227408Y-51512986D01*
X64047197Y-51397298D01*
X63844001Y-51325592D01*
X63677000Y-51452498D01*
X63423000Y-51452498D01*
X63255999Y-51325592D01*
X63052803Y-51397298D01*
X62872592Y-51512986D01*
X62718413Y-51661609D01*
X62596191Y-51837455D01*
X62561082Y-51918003D01*
X62554112Y-51911033D01*
X62442574Y-51836506D01*
X62318640Y-51785171D01*
X62187073Y-51759000D01*
X62052927Y-51759000D01*
X61921360Y-51785171D01*
X61797426Y-51836506D01*
X61685888Y-51911033D01*
X61591033Y-52005888D01*
X61516506Y-52117426D01*
X61465171Y-52241360D01*
X61439000Y-52372927D01*
X61439000Y-52507073D01*
X61465171Y-52638640D01*
X61516506Y-52762574D01*
X61591033Y-52874112D01*
X61685888Y-52968967D01*
X61797426Y-53043494D01*
X61921360Y-53094829D01*
X62052927Y-53121000D01*
X62187073Y-53121000D01*
X62318640Y-53094829D01*
X62442574Y-53043494D01*
X62465000Y-53028509D01*
X62465000Y-53597000D01*
X62510624Y-53806233D01*
X62596191Y-54002545D01*
X62718413Y-54178391D01*
X62872592Y-54327014D01*
X63052803Y-54442702D01*
X63198168Y-54494000D01*
X60957079Y-54494000D01*
X60934112Y-54471033D01*
X60822574Y-54396506D01*
X60698640Y-54345171D01*
X60567073Y-54319000D01*
X60432927Y-54319000D01*
X60301360Y-54345171D01*
X60177426Y-54396506D01*
X60065888Y-54471033D01*
X59971033Y-54565888D01*
X59896506Y-54677426D01*
X59845171Y-54801360D01*
X59819000Y-54932927D01*
X58877083Y-54932927D01*
X58822574Y-54896506D01*
X58698640Y-54845171D01*
X58567073Y-54819000D01*
X58432927Y-54819000D01*
X58301360Y-54845171D01*
X58177426Y-54896506D01*
X58174186Y-54898671D01*
X58154829Y-54801360D01*
X58103494Y-54677426D01*
X58028967Y-54565888D01*
X57934112Y-54471033D01*
X57822574Y-54396506D01*
X57698640Y-54345171D01*
X57567073Y-54319000D01*
X57432927Y-54319000D01*
X57301360Y-54345171D01*
X57177426Y-54396506D01*
X57065888Y-54471033D01*
X57042921Y-54494000D01*
X55261832Y-54494000D01*
X55407197Y-54442702D01*
X55587408Y-54327014D01*
X55741587Y-54178391D01*
X55863809Y-54002545D01*
X55949376Y-53806233D01*
X55995000Y-53597000D01*
X55995000Y-53028509D01*
X56017426Y-53043494D01*
X56141360Y-53094829D01*
X56272927Y-53121000D01*
X56407073Y-53121000D01*
X56538640Y-53094829D01*
X56662574Y-53043494D01*
X56774112Y-52968967D01*
X56868967Y-52874112D01*
X56943494Y-52762574D01*
X56994829Y-52638640D01*
X57021000Y-52507073D01*
X57021000Y-52372927D01*
X56994829Y-52241360D01*
X56943494Y-52117426D01*
X56868967Y-52005888D01*
X56774112Y-51911033D01*
X56662574Y-51836506D01*
X56538640Y-51785171D01*
X56407073Y-51759000D01*
X56272927Y-51759000D01*
X56141360Y-51785171D01*
X56017426Y-51836506D01*
X55905888Y-51911033D01*
X55898918Y-51918003D01*
X55863809Y-51837455D01*
X55741587Y-51661609D01*
X55587408Y-51512986D01*
X55407197Y-51397298D01*
X55204001Y-51325592D01*
X55037000Y-51452498D01*
X55037000Y-52793000D01*
X55057000Y-52793000D01*
X55057000Y-53047000D01*
X55037000Y-53047000D01*
X55037000Y-53067000D01*
X54783000Y-53067000D01*
X54783000Y-53047000D01*
X53825000Y-53047000D01*
X53825000Y-53597000D01*
X53870624Y-53806233D01*
X53956191Y-54002545D01*
X54078413Y-54178391D01*
X54232592Y-54327014D01*
X54412803Y-54442702D01*
X54558168Y-54494000D01*
X51957079Y-54494000D01*
X51934112Y-54471033D01*
X51822574Y-54396506D01*
X51698640Y-54345171D01*
X51567073Y-54319000D01*
X51432927Y-54319000D01*
X51301360Y-54345171D01*
X51177426Y-54396506D01*
X51065888Y-54471033D01*
X50971033Y-54565888D01*
X50896506Y-54677426D01*
X50845171Y-54801360D01*
X50819000Y-54932927D01*
X43406000Y-54932927D01*
X43406000Y-52243000D01*
X53825000Y-52243000D01*
X53825000Y-52793000D01*
X54783000Y-52793000D01*
X54783000Y-51452498D01*
X54615999Y-51325592D01*
X54412803Y-51397298D01*
X54232592Y-51512986D01*
X54078413Y-51661609D01*
X53956191Y-51837455D01*
X53870624Y-52033767D01*
X53825000Y-52243000D01*
X43406000Y-52243000D01*
X43406000Y-50019853D01*
X43427077Y-49804889D01*
X45019000Y-49804889D01*
X45019000Y-50195111D01*
X45095129Y-50577836D01*
X45244461Y-50938355D01*
X45461257Y-51262814D01*
X45737186Y-51538743D01*
X46061645Y-51755539D01*
X46422164Y-51904871D01*
X46804889Y-51981000D01*
X47195111Y-51981000D01*
X47577836Y-51904871D01*
X47938355Y-51755539D01*
X48262814Y-51538743D01*
X48538743Y-51262814D01*
X48755539Y-50938355D01*
X48904871Y-50577836D01*
X48981000Y-50195111D01*
X48981000Y-49804889D01*
X48904871Y-49422164D01*
X48755539Y-49061645D01*
X48632164Y-48877000D01*
X53825000Y-48877000D01*
X53825000Y-49277000D01*
X53870624Y-49486233D01*
X53956191Y-49682545D01*
X54078413Y-49858391D01*
X54232592Y-50007014D01*
X54412803Y-50122702D01*
X54615999Y-50194408D01*
X54783000Y-50067502D01*
X54783000Y-48877000D01*
X55037000Y-48877000D01*
X55037000Y-50067502D01*
X55204001Y-50194408D01*
X55407197Y-50122702D01*
X55587408Y-50007014D01*
X55741587Y-49858391D01*
X55863809Y-49682545D01*
X55949376Y-49486233D01*
X55995000Y-49277000D01*
X55995000Y-48877000D01*
X62465000Y-48877000D01*
X62465000Y-49277000D01*
X62510624Y-49486233D01*
X62596191Y-49682545D01*
X62718413Y-49858391D01*
X62872592Y-50007014D01*
X63052803Y-50122702D01*
X63255999Y-50194408D01*
X63423000Y-50067502D01*
X63423000Y-48877000D01*
X63677000Y-48877000D01*
X63677000Y-50067502D01*
X63844001Y-50194408D01*
X64047197Y-50122702D01*
X64227408Y-50007014D01*
X64381587Y-49858391D01*
X64503809Y-49682545D01*
X64589376Y-49486233D01*
X64635000Y-49277000D01*
X64635000Y-48877000D01*
X68115000Y-48877000D01*
X68115000Y-49277000D01*
X68160624Y-49486233D01*
X68246191Y-49682545D01*
X68368413Y-49858391D01*
X68522592Y-50007014D01*
X68702803Y-50122702D01*
X68905999Y-50194408D01*
X69073000Y-50067502D01*
X69073000Y-48877000D01*
X69327000Y-48877000D01*
X69327000Y-50067502D01*
X69494001Y-50194408D01*
X69697197Y-50122702D01*
X69877408Y-50007014D01*
X70031587Y-49858391D01*
X70153809Y-49682545D01*
X70239376Y-49486233D01*
X70285000Y-49277000D01*
X70285000Y-48877000D01*
X76755000Y-48877000D01*
X76755000Y-49277000D01*
X76800624Y-49486233D01*
X76886191Y-49682545D01*
X77008413Y-49858391D01*
X77162592Y-50007014D01*
X77342803Y-50122702D01*
X77545999Y-50194408D01*
X77713000Y-50067502D01*
X77713000Y-48877000D01*
X77967000Y-48877000D01*
X77967000Y-50067502D01*
X78134001Y-50194408D01*
X78337197Y-50122702D01*
X78517408Y-50007014D01*
X78671587Y-49858391D01*
X78793809Y-49682545D01*
X78879376Y-49486233D01*
X78925000Y-49277000D01*
X78925000Y-48877000D01*
X81765000Y-48877000D01*
X81765000Y-49277000D01*
X81810624Y-49486233D01*
X81896191Y-49682545D01*
X82018413Y-49858391D01*
X82172592Y-50007014D01*
X82352803Y-50122702D01*
X82555999Y-50194408D01*
X82723000Y-50067502D01*
X82723000Y-48877000D01*
X82977000Y-48877000D01*
X82977000Y-50067502D01*
X83144001Y-50194408D01*
X83347197Y-50122702D01*
X83527408Y-50007014D01*
X83681587Y-49858391D01*
X83803809Y-49682545D01*
X83889376Y-49486233D01*
X83935000Y-49277000D01*
X83935000Y-48877000D01*
X90405000Y-48877000D01*
X90405000Y-49277000D01*
X90450624Y-49486233D01*
X90536191Y-49682545D01*
X90658413Y-49858391D01*
X90812592Y-50007014D01*
X90992803Y-50122702D01*
X91195999Y-50194408D01*
X91363000Y-50067502D01*
X91363000Y-48877000D01*
X91617000Y-48877000D01*
X91617000Y-50067502D01*
X91784001Y-50194408D01*
X91987197Y-50122702D01*
X92167408Y-50007014D01*
X92321587Y-49858391D01*
X92443809Y-49682545D01*
X92529376Y-49486233D01*
X92575000Y-49277000D01*
X92575000Y-48877000D01*
X95735000Y-48877000D01*
X95735000Y-49277000D01*
X95780624Y-49486233D01*
X95866191Y-49682545D01*
X95988413Y-49858391D01*
X96142592Y-50007014D01*
X96322803Y-50122702D01*
X96525999Y-50194408D01*
X96693000Y-50067502D01*
X96693000Y-48877000D01*
X96947000Y-48877000D01*
X96947000Y-50067502D01*
X97114001Y-50194408D01*
X97317197Y-50122702D01*
X97497408Y-50007014D01*
X97651587Y-49858391D01*
X97773809Y-49682545D01*
X97859376Y-49486233D01*
X97905000Y-49277000D01*
X97905000Y-48877000D01*
X104375000Y-48877000D01*
X104375000Y-49277000D01*
X104420624Y-49486233D01*
X104506191Y-49682545D01*
X104628413Y-49858391D01*
X104782592Y-50007014D01*
X104962803Y-50122702D01*
X105165999Y-50194408D01*
X105333000Y-50067502D01*
X105333000Y-48877000D01*
X105587000Y-48877000D01*
X105587000Y-50067502D01*
X105754001Y-50194408D01*
X105957197Y-50122702D01*
X106137408Y-50007014D01*
X106291587Y-49858391D01*
X106328773Y-49804889D01*
X111019000Y-49804889D01*
X111019000Y-50195111D01*
X111095129Y-50577836D01*
X111244461Y-50938355D01*
X111461257Y-51262814D01*
X111737186Y-51538743D01*
X112061645Y-51755539D01*
X112422164Y-51904871D01*
X112804889Y-51981000D01*
X113195111Y-51981000D01*
X113577836Y-51904871D01*
X113938355Y-51755539D01*
X114262814Y-51538743D01*
X114538743Y-51262814D01*
X114755539Y-50938355D01*
X114904871Y-50577836D01*
X114981000Y-50195111D01*
X114981000Y-49804889D01*
X114904871Y-49422164D01*
X114755539Y-49061645D01*
X114538743Y-48737186D01*
X114262814Y-48461257D01*
X113938355Y-48244461D01*
X113577836Y-48095129D01*
X113195111Y-48019000D01*
X112804889Y-48019000D01*
X112422164Y-48095129D01*
X112061645Y-48244461D01*
X111737186Y-48461257D01*
X111461257Y-48737186D01*
X111244461Y-49061645D01*
X111095129Y-49422164D01*
X111019000Y-49804889D01*
X106328773Y-49804889D01*
X106413809Y-49682545D01*
X106499376Y-49486233D01*
X106545000Y-49277000D01*
X106545000Y-48877000D01*
X105587000Y-48877000D01*
X105333000Y-48877000D01*
X104375000Y-48877000D01*
X97905000Y-48877000D01*
X96947000Y-48877000D01*
X96693000Y-48877000D01*
X95735000Y-48877000D01*
X92575000Y-48877000D01*
X91617000Y-48877000D01*
X91363000Y-48877000D01*
X90405000Y-48877000D01*
X83935000Y-48877000D01*
X82977000Y-48877000D01*
X82723000Y-48877000D01*
X81765000Y-48877000D01*
X78925000Y-48877000D01*
X77967000Y-48877000D01*
X77713000Y-48877000D01*
X76755000Y-48877000D01*
X70285000Y-48877000D01*
X69327000Y-48877000D01*
X69073000Y-48877000D01*
X68115000Y-48877000D01*
X64635000Y-48877000D01*
X63677000Y-48877000D01*
X63423000Y-48877000D01*
X62465000Y-48877000D01*
X55995000Y-48877000D01*
X55037000Y-48877000D01*
X54783000Y-48877000D01*
X53825000Y-48877000D01*
X48632164Y-48877000D01*
X48538743Y-48737186D01*
X48262814Y-48461257D01*
X47938355Y-48244461D01*
X47886544Y-48223000D01*
X53825000Y-48223000D01*
X53825000Y-48623000D01*
X54783000Y-48623000D01*
X54783000Y-47432498D01*
X55037000Y-47432498D01*
X55037000Y-48623000D01*
X55995000Y-48623000D01*
X55995000Y-48223000D01*
X62465000Y-48223000D01*
X62465000Y-48623000D01*
X63423000Y-48623000D01*
X63423000Y-47432498D01*
X63677000Y-47432498D01*
X63677000Y-48623000D01*
X64635000Y-48623000D01*
X64635000Y-48223000D01*
X68115000Y-48223000D01*
X68115000Y-48623000D01*
X69073000Y-48623000D01*
X69073000Y-47432498D01*
X69327000Y-47432498D01*
X69327000Y-48623000D01*
X70285000Y-48623000D01*
X70285000Y-48223000D01*
X76755000Y-48223000D01*
X76755000Y-48623000D01*
X77713000Y-48623000D01*
X77713000Y-47432498D01*
X77967000Y-47432498D01*
X77967000Y-48623000D01*
X78925000Y-48623000D01*
X78925000Y-48223000D01*
X81765000Y-48223000D01*
X81765000Y-48623000D01*
X82723000Y-48623000D01*
X82723000Y-47432498D01*
X82977000Y-47432498D01*
X82977000Y-48623000D01*
X83935000Y-48623000D01*
X83935000Y-48223000D01*
X90405000Y-48223000D01*
X90405000Y-48623000D01*
X91363000Y-48623000D01*
X91363000Y-47432498D01*
X91617000Y-47432498D01*
X91617000Y-48623000D01*
X92575000Y-48623000D01*
X92575000Y-48223000D01*
X95735000Y-48223000D01*
X95735000Y-48623000D01*
X96693000Y-48623000D01*
X96693000Y-47432498D01*
X96947000Y-47432498D01*
X96947000Y-48623000D01*
X97905000Y-48623000D01*
X97905000Y-48223000D01*
X104375000Y-48223000D01*
X104375000Y-48623000D01*
X105333000Y-48623000D01*
X105333000Y-47432498D01*
X105587000Y-47432498D01*
X105587000Y-48623000D01*
X106545000Y-48623000D01*
X106545000Y-48223000D01*
X106499376Y-48013767D01*
X106413809Y-47817455D01*
X106291587Y-47641609D01*
X106137408Y-47492986D01*
X105957197Y-47377298D01*
X105754001Y-47305592D01*
X105587000Y-47432498D01*
X105333000Y-47432498D01*
X105165999Y-47305592D01*
X104962803Y-47377298D01*
X104782592Y-47492986D01*
X104628413Y-47641609D01*
X104506191Y-47817455D01*
X104420624Y-48013767D01*
X104375000Y-48223000D01*
X97905000Y-48223000D01*
X97859376Y-48013767D01*
X97773809Y-47817455D01*
X97651587Y-47641609D01*
X97497408Y-47492986D01*
X97317197Y-47377298D01*
X97114001Y-47305592D01*
X96947000Y-47432498D01*
X96693000Y-47432498D01*
X96525999Y-47305592D01*
X96322803Y-47377298D01*
X96142592Y-47492986D01*
X95988413Y-47641609D01*
X95866191Y-47817455D01*
X95780624Y-48013767D01*
X95735000Y-48223000D01*
X92575000Y-48223000D01*
X92529376Y-48013767D01*
X92443809Y-47817455D01*
X92321587Y-47641609D01*
X92167408Y-47492986D01*
X91987197Y-47377298D01*
X91784001Y-47305592D01*
X91617000Y-47432498D01*
X91363000Y-47432498D01*
X91195999Y-47305592D01*
X90992803Y-47377298D01*
X90812592Y-47492986D01*
X90658413Y-47641609D01*
X90536191Y-47817455D01*
X90450624Y-48013767D01*
X90405000Y-48223000D01*
X83935000Y-48223000D01*
X83889376Y-48013767D01*
X83803809Y-47817455D01*
X83681587Y-47641609D01*
X83527408Y-47492986D01*
X83347197Y-47377298D01*
X83144001Y-47305592D01*
X82977000Y-47432498D01*
X82723000Y-47432498D01*
X82555999Y-47305592D01*
X82352803Y-47377298D01*
X82172592Y-47492986D01*
X82018413Y-47641609D01*
X81896191Y-47817455D01*
X81810624Y-48013767D01*
X81765000Y-48223000D01*
X78925000Y-48223000D01*
X78879376Y-48013767D01*
X78793809Y-47817455D01*
X78671587Y-47641609D01*
X78517408Y-47492986D01*
X78337197Y-47377298D01*
X78134001Y-47305592D01*
X77967000Y-47432498D01*
X77713000Y-47432498D01*
X77545999Y-47305592D01*
X77342803Y-47377298D01*
X77162592Y-47492986D01*
X77008413Y-47641609D01*
X76886191Y-47817455D01*
X76800624Y-48013767D01*
X76755000Y-48223000D01*
X70285000Y-48223000D01*
X70239376Y-48013767D01*
X70153809Y-47817455D01*
X70031587Y-47641609D01*
X69877408Y-47492986D01*
X69697197Y-47377298D01*
X69494001Y-47305592D01*
X69327000Y-47432498D01*
X69073000Y-47432498D01*
X68905999Y-47305592D01*
X68702803Y-47377298D01*
X68522592Y-47492986D01*
X68368413Y-47641609D01*
X68246191Y-47817455D01*
X68160624Y-48013767D01*
X68115000Y-48223000D01*
X64635000Y-48223000D01*
X64589376Y-48013767D01*
X64503809Y-47817455D01*
X64381587Y-47641609D01*
X64227408Y-47492986D01*
X64047197Y-47377298D01*
X63844001Y-47305592D01*
X63677000Y-47432498D01*
X63423000Y-47432498D01*
X63255999Y-47305592D01*
X63052803Y-47377298D01*
X62872592Y-47492986D01*
X62718413Y-47641609D01*
X62596191Y-47817455D01*
X62510624Y-48013767D01*
X62465000Y-48223000D01*
X55995000Y-48223000D01*
X55949376Y-48013767D01*
X55863809Y-47817455D01*
X55741587Y-47641609D01*
X55587408Y-47492986D01*
X55407197Y-47377298D01*
X55204001Y-47305592D01*
X55037000Y-47432498D01*
X54783000Y-47432498D01*
X54615999Y-47305592D01*
X54412803Y-47377298D01*
X54232592Y-47492986D01*
X54078413Y-47641609D01*
X53956191Y-47817455D01*
X53870624Y-48013767D01*
X53825000Y-48223000D01*
X47886544Y-48223000D01*
X47577836Y-48095129D01*
X47195111Y-48019000D01*
X46804889Y-48019000D01*
X46422164Y-48095129D01*
X46061645Y-48244461D01*
X45737186Y-48461257D01*
X45461257Y-48737186D01*
X45244461Y-49061645D01*
X45095129Y-49422164D01*
X45019000Y-49804889D01*
X43427077Y-49804889D01*
X43476356Y-49302304D01*
X43678982Y-48631176D01*
X44008102Y-48012190D01*
X44451184Y-47468916D01*
X44991347Y-47022054D01*
X45608022Y-46688619D01*
X46277716Y-46481314D01*
X46994053Y-46406024D01*
X47000834Y-46406000D01*
X112980147Y-46406000D01*
X113697696Y-46476356D01*
G37*
%TD.AperFunction*%
%TD*%
D23*
X102500000Y-51500000D03*
X51500000Y-55000000D03*
X57500000Y-55000000D03*
X87000000Y-52000000D03*
X107000000Y-59500000D03*
X58500000Y-55500000D03*
X60500000Y-55000000D03*
X72500000Y-55000000D03*
X75000000Y-55000000D03*
X86000000Y-55000000D03*
X100000000Y-55000000D03*
X88500000Y-55000000D03*
X53000000Y-63500000D03*
D24*
X113000000Y-78000000D03*
X47000000Y-78000000D03*
X113000000Y-50000000D03*
X47000000Y-50000000D03*
X99870000Y-61690000D03*
X104950000Y-61690000D03*
X93540000Y-61690000D03*
X91000000Y-61690000D03*
X90060000Y-52440000D03*
X84280000Y-52440000D03*
D25*
X82850000Y-48750000D03*
X91490000Y-48750000D03*
D26*
X82850000Y-52920000D03*
X91490000Y-52920000D03*
D24*
X104030000Y-52440000D03*
X98250000Y-52440000D03*
D25*
X96820000Y-48750000D03*
X105460000Y-48750000D03*
D26*
X96820000Y-52920000D03*
X105460000Y-52920000D03*
D24*
X76410000Y-52440000D03*
X70630000Y-52440000D03*
D25*
X69200000Y-48750000D03*
X77840000Y-48750000D03*
D26*
X69200000Y-52920000D03*
X77840000Y-52920000D03*
D24*
X62120000Y-52440000D03*
X56340000Y-52440000D03*
D25*
X54910000Y-48750000D03*
X63550000Y-48750000D03*
D26*
X54910000Y-52920000D03*
X63550000Y-52920000D03*
D24*
X110550000Y-68390000D03*
X110550000Y-62610000D03*
D27*
X114240000Y-61180000D03*
X114240000Y-69820000D03*
D28*
X110070000Y-61180000D03*
X110070000Y-69820000D03*
D24*
X49450000Y-62610000D03*
X49450000Y-68390000D03*
D27*
X45760000Y-69820000D03*
X45760000Y-61180000D03*
D28*
X49930000Y-69820000D03*
X49930000Y-61180000D03*
M02*
