%TF.GenerationSoftware,KiCad,Pcbnew,(5.1.12)-1*%
%TF.CreationDate,2022-03-20T11:52:16+09:00*%
%TF.ProjectId,NHK2022_usbc,4e484b32-3032-4325-9f75-7362632e6b69,rev?*%
%TF.SameCoordinates,PX29020c0PY4e33880*%
%TF.FileFunction,Copper,L1,Top*%
%TF.FilePolarity,Positive*%
%FSLAX46Y46*%
G04 Gerber Fmt 4.6, Leading zero omitted, Abs format (unit mm)*
G04 Created by KiCad (PCBNEW (5.1.12)-1) date 2022-03-20 11:52:16*
%MOMM*%
%LPD*%
G01*
G04 APERTURE LIST*
%TA.AperFunction,Profile*%
%ADD10C,0.050000*%
%TD*%
%TA.AperFunction,ComponentPad*%
%ADD11O,1.400000X1.400000*%
%TD*%
%TA.AperFunction,ComponentPad*%
%ADD12C,1.400000*%
%TD*%
%TA.AperFunction,ComponentPad*%
%ADD13O,1.700000X1.700000*%
%TD*%
%TA.AperFunction,ComponentPad*%
%ADD14R,1.700000X1.700000*%
%TD*%
%TA.AperFunction,SMDPad,CuDef*%
%ADD15R,0.600000X1.160000*%
%TD*%
%TA.AperFunction,SMDPad,CuDef*%
%ADD16R,0.300000X1.160000*%
%TD*%
%TA.AperFunction,ComponentPad*%
%ADD17O,0.900000X1.700000*%
%TD*%
%TA.AperFunction,ComponentPad*%
%ADD18O,0.900000X2.000000*%
%TD*%
%TA.AperFunction,SMDPad,CuDef*%
%ADD19R,1.160000X0.600000*%
%TD*%
%TA.AperFunction,SMDPad,CuDef*%
%ADD20R,1.160000X0.300000*%
%TD*%
%TA.AperFunction,ComponentPad*%
%ADD21O,1.700000X0.900000*%
%TD*%
%TA.AperFunction,ComponentPad*%
%ADD22O,2.000000X0.900000*%
%TD*%
%TA.AperFunction,ViaPad*%
%ADD23C,0.600000*%
%TD*%
%TA.AperFunction,Conductor*%
%ADD24C,1.000000*%
%TD*%
%TA.AperFunction,Conductor*%
%ADD25C,0.250000*%
%TD*%
%TA.AperFunction,Conductor*%
%ADD26C,0.254000*%
%TD*%
%TA.AperFunction,Conductor*%
%ADD27C,0.100000*%
%TD*%
%ADD28C,0.300000*%
%ADD29C,0.350000*%
%ADD30O,0.600000X1.400000*%
%ADD31O,0.600000X1.700000*%
%ADD32O,1.400000X0.600000*%
%ADD33O,1.700000X0.600000*%
G04 APERTURE END LIST*
D10*
X0Y32000000D02*
X0Y4000000D01*
X4000000Y0D02*
G75*
G02*
X0Y4000000I0J4000000D01*
G01*
X0Y32000000D02*
G75*
G02*
X4000000Y36000000I4000000J0D01*
G01*
X74000000Y32000000D02*
X74000000Y4000000D01*
X74000000Y4000000D02*
G75*
G02*
X70000000Y0I-4000000J0D01*
G01*
X70000000Y36000000D02*
G75*
G02*
X74000000Y32000000I0J-4000000D01*
G01*
X70000000Y36000000D02*
X4000000Y36000000D01*
X4000000Y0D02*
X70000000Y0D01*
D11*
%TO.P,R1,2*%
%TO.N,Net-(JP1-Pad2)*%
X56870000Y20310000D03*
D12*
%TO.P,R1,1*%
%TO.N,D-*%
X61950000Y20310000D03*
%TD*%
D13*
%TO.P,JP1,2*%
%TO.N,Net-(JP1-Pad2)*%
X50540000Y20310000D03*
D14*
%TO.P,JP1,1*%
%TO.N,D+*%
X48000000Y20310000D03*
%TD*%
D15*
%TO.P,J4,A12*%
%TO.N,GND*%
X40970000Y28500000D03*
%TO.P,J4,A9*%
%TO.N,VBUS*%
X41770000Y28500000D03*
%TO.P,J4,B1*%
%TO.N,GND*%
X40970000Y28500000D03*
%TO.P,J4,B4*%
%TO.N,VBUS*%
X41770000Y28500000D03*
%TO.P,J4,B12*%
%TO.N,GND*%
X47370000Y28500000D03*
%TO.P,J4,A1*%
X47370000Y28500000D03*
%TO.P,J4,B9*%
%TO.N,VBUS*%
X46570000Y28500000D03*
%TO.P,J4,A4*%
X46570000Y28500000D03*
D16*
%TO.P,J4,B5*%
%TO.N,Net-(J7-PadB5)*%
X42420000Y28500000D03*
%TO.P,J4,B6*%
%TO.N,D+*%
X43420000Y28500000D03*
%TO.P,J4,A8*%
%TO.N,Net-(J7-PadA8)*%
X42920000Y28500000D03*
%TO.P,J4,A5*%
%TO.N,Net-(J7-PadA5)*%
X45420000Y28500000D03*
%TO.P,J4,B8*%
%TO.N,Net-(J7-PadB8)*%
X45920000Y28500000D03*
%TO.P,J4,A7*%
%TO.N,D-*%
X43920000Y28500000D03*
%TO.P,J4,A6*%
%TO.N,D+*%
X44420000Y28500000D03*
%TO.P,J4,B7*%
%TO.N,D-*%
X44920000Y28500000D03*
D17*
%TO.P,J4,S1*%
%TO.N,GND*%
X39850000Y33250000D03*
X48490000Y33250000D03*
D18*
X39850000Y29080000D03*
X48490000Y29080000D03*
%TD*%
D15*
%TO.P,J5,A12*%
%TO.N,GND*%
X54940000Y28500000D03*
%TO.P,J5,A9*%
%TO.N,VBUS*%
X55740000Y28500000D03*
%TO.P,J5,B1*%
%TO.N,GND*%
X54940000Y28500000D03*
%TO.P,J5,B4*%
%TO.N,VBUS*%
X55740000Y28500000D03*
%TO.P,J5,B12*%
%TO.N,GND*%
X61340000Y28500000D03*
%TO.P,J5,A1*%
X61340000Y28500000D03*
%TO.P,J5,B9*%
%TO.N,VBUS*%
X60540000Y28500000D03*
%TO.P,J5,A4*%
X60540000Y28500000D03*
D16*
%TO.P,J5,B5*%
%TO.N,Net-(J6-PadB5)*%
X56390000Y28500000D03*
%TO.P,J5,B6*%
%TO.N,D+*%
X57390000Y28500000D03*
%TO.P,J5,A8*%
%TO.N,Net-(J6-PadA8)*%
X56890000Y28500000D03*
%TO.P,J5,A5*%
%TO.N,Net-(J6-PadA5)*%
X59390000Y28500000D03*
%TO.P,J5,B8*%
%TO.N,Net-(J6-PadB8)*%
X59890000Y28500000D03*
%TO.P,J5,A7*%
%TO.N,D-*%
X57890000Y28500000D03*
%TO.P,J5,A6*%
%TO.N,D+*%
X58390000Y28500000D03*
%TO.P,J5,B7*%
%TO.N,D-*%
X58890000Y28500000D03*
D17*
%TO.P,J5,S1*%
%TO.N,GND*%
X53820000Y33250000D03*
X62460000Y33250000D03*
D18*
X53820000Y29080000D03*
X62460000Y29080000D03*
%TD*%
D15*
%TO.P,J3,A12*%
%TO.N,GND*%
X27320000Y28500000D03*
%TO.P,J3,A9*%
%TO.N,VBUS*%
X28120000Y28500000D03*
%TO.P,J3,B1*%
%TO.N,GND*%
X27320000Y28500000D03*
%TO.P,J3,B4*%
%TO.N,VBUS*%
X28120000Y28500000D03*
%TO.P,J3,B12*%
%TO.N,GND*%
X33720000Y28500000D03*
%TO.P,J3,A1*%
X33720000Y28500000D03*
%TO.P,J3,B9*%
%TO.N,VBUS*%
X32920000Y28500000D03*
%TO.P,J3,A4*%
X32920000Y28500000D03*
D16*
%TO.P,J3,B5*%
%TO.N,Net-(J5-PadB5)*%
X28770000Y28500000D03*
%TO.P,J3,B6*%
%TO.N,D+*%
X29770000Y28500000D03*
%TO.P,J3,A8*%
%TO.N,Net-(J5-PadA8)*%
X29270000Y28500000D03*
%TO.P,J3,A5*%
%TO.N,Net-(J5-PadA5)*%
X31770000Y28500000D03*
%TO.P,J3,B8*%
%TO.N,Net-(J5-PadB8)*%
X32270000Y28500000D03*
%TO.P,J3,A7*%
%TO.N,D-*%
X30270000Y28500000D03*
%TO.P,J3,A6*%
%TO.N,D+*%
X30770000Y28500000D03*
%TO.P,J3,B7*%
%TO.N,D-*%
X31270000Y28500000D03*
D17*
%TO.P,J3,S1*%
%TO.N,GND*%
X26200000Y33250000D03*
X34840000Y33250000D03*
D18*
X26200000Y29080000D03*
X34840000Y29080000D03*
%TD*%
D15*
%TO.P,J2,A12*%
%TO.N,GND*%
X13030000Y28500000D03*
%TO.P,J2,A9*%
%TO.N,VBUS*%
X13830000Y28500000D03*
%TO.P,J2,B1*%
%TO.N,GND*%
X13030000Y28500000D03*
%TO.P,J2,B4*%
%TO.N,VBUS*%
X13830000Y28500000D03*
%TO.P,J2,B12*%
%TO.N,GND*%
X19430000Y28500000D03*
%TO.P,J2,A1*%
X19430000Y28500000D03*
%TO.P,J2,B9*%
%TO.N,VBUS*%
X18630000Y28500000D03*
%TO.P,J2,A4*%
X18630000Y28500000D03*
D16*
%TO.P,J2,B5*%
%TO.N,Net-(J3-PadB5)*%
X14480000Y28500000D03*
%TO.P,J2,B6*%
%TO.N,D+*%
X15480000Y28500000D03*
%TO.P,J2,A8*%
%TO.N,Net-(J3-PadA8)*%
X14980000Y28500000D03*
%TO.P,J2,A5*%
%TO.N,Net-(J3-PadA5)*%
X17480000Y28500000D03*
%TO.P,J2,B8*%
%TO.N,Net-(J3-PadB8)*%
X17980000Y28500000D03*
%TO.P,J2,A7*%
%TO.N,D-*%
X15980000Y28500000D03*
%TO.P,J2,A6*%
%TO.N,D+*%
X16480000Y28500000D03*
%TO.P,J2,B7*%
%TO.N,D-*%
X16980000Y28500000D03*
D17*
%TO.P,J2,S1*%
%TO.N,GND*%
X11910000Y33250000D03*
X20550000Y33250000D03*
D18*
X11910000Y29080000D03*
X20550000Y29080000D03*
%TD*%
D19*
%TO.P,J6,A12*%
%TO.N,GND*%
X66490000Y19700000D03*
%TO.P,J6,A9*%
%TO.N,VBUS*%
X66490000Y18900000D03*
%TO.P,J6,B1*%
%TO.N,GND*%
X66490000Y19700000D03*
%TO.P,J6,B4*%
%TO.N,VBUS*%
X66490000Y18900000D03*
%TO.P,J6,B12*%
%TO.N,GND*%
X66490000Y13300000D03*
%TO.P,J6,A1*%
X66490000Y13300000D03*
%TO.P,J6,B9*%
%TO.N,VBUS*%
X66490000Y14100000D03*
%TO.P,J6,A4*%
X66490000Y14100000D03*
D20*
%TO.P,J6,B5*%
%TO.N,Net-(J2-PadB5)*%
X66490000Y18250000D03*
%TO.P,J6,B6*%
%TO.N,D+*%
X66490000Y17250000D03*
%TO.P,J6,A8*%
%TO.N,Net-(J2-PadA8)*%
X66490000Y17750000D03*
%TO.P,J6,A5*%
%TO.N,Net-(J2-PadA5)*%
X66490000Y15250000D03*
%TO.P,J6,B8*%
%TO.N,Net-(J2-PadB8)*%
X66490000Y14750000D03*
%TO.P,J6,A7*%
%TO.N,D-*%
X66490000Y16750000D03*
%TO.P,J6,A6*%
%TO.N,D+*%
X66490000Y16250000D03*
%TO.P,J6,B7*%
%TO.N,D-*%
X66490000Y15750000D03*
D21*
%TO.P,J6,S1*%
%TO.N,GND*%
X71240000Y20820000D03*
X71240000Y12180000D03*
D22*
X67070000Y20820000D03*
X67070000Y12180000D03*
%TD*%
D19*
%TO.P,J1,A12*%
%TO.N,GND*%
X7510000Y13300000D03*
%TO.P,J1,A9*%
%TO.N,VBUS*%
X7510000Y14100000D03*
%TO.P,J1,B1*%
%TO.N,GND*%
X7510000Y13300000D03*
%TO.P,J1,B4*%
%TO.N,VBUS*%
X7510000Y14100000D03*
%TO.P,J1,B12*%
%TO.N,GND*%
X7510000Y19700000D03*
%TO.P,J1,A1*%
X7510000Y19700000D03*
%TO.P,J1,B9*%
%TO.N,VBUS*%
X7510000Y18900000D03*
%TO.P,J1,A4*%
X7510000Y18900000D03*
D20*
%TO.P,J1,B5*%
%TO.N,Net-(J1-PadB5)*%
X7510000Y14750000D03*
%TO.P,J1,B6*%
%TO.N,D+*%
X7510000Y15750000D03*
%TO.P,J1,A8*%
%TO.N,Net-(J1-PadA8)*%
X7510000Y15250000D03*
%TO.P,J1,A5*%
%TO.N,Net-(J1-PadA5)*%
X7510000Y17750000D03*
%TO.P,J1,B8*%
%TO.N,Net-(J1-PadB8)*%
X7510000Y18250000D03*
%TO.P,J1,A7*%
%TO.N,D-*%
X7510000Y16250000D03*
%TO.P,J1,A6*%
%TO.N,D+*%
X7510000Y16750000D03*
%TO.P,J1,B7*%
%TO.N,D-*%
X7510000Y17250000D03*
D21*
%TO.P,J1,S1*%
%TO.N,GND*%
X2760000Y12180000D03*
X2760000Y20820000D03*
D22*
X6930000Y12180000D03*
X6930000Y20820000D03*
%TD*%
D23*
%TO.N,D+*%
X59500000Y30500000D03*
X8500000Y27000000D03*
X14500000Y27000000D03*
X44000000Y30000000D03*
X64000000Y22500000D03*
%TO.N,D-*%
X15500000Y26500000D03*
X17500000Y27000000D03*
X29500000Y27000000D03*
X32000000Y27000000D03*
X43000000Y27000000D03*
X57000000Y27000000D03*
X45500000Y27000000D03*
X10000000Y18500000D03*
%TD*%
D24*
%TO.N,GND*%
X7420001Y19900001D02*
X7510000Y19900001D01*
X6930001Y20390001D02*
X7420001Y19900001D01*
X6930000Y20820000D02*
X6930001Y20390001D01*
X7420001Y13099999D02*
X7510000Y13099999D01*
X6930001Y12609999D02*
X7420001Y13099999D01*
X6930000Y12180000D02*
X6930001Y12609999D01*
X12829999Y28589999D02*
X12829999Y28500000D01*
X12339999Y29079999D02*
X12829999Y28589999D01*
X11910000Y29080000D02*
X12339999Y29079999D01*
X20000000Y28500000D02*
X19630001Y28500000D01*
X20550000Y29050000D02*
X20000000Y28500000D01*
X20550000Y29080000D02*
X20550000Y29050000D01*
X33920001Y28589999D02*
X33920001Y28500000D01*
X34410001Y29079999D02*
X33920001Y28589999D01*
X34840000Y29080000D02*
X34410001Y29079999D01*
X27119999Y28589999D02*
X27119999Y28500000D01*
X26629999Y29079999D02*
X27119999Y28589999D01*
X26200000Y29080000D02*
X26629999Y29079999D01*
X40279999Y29079999D02*
X40769999Y28589999D01*
X40769999Y28589999D02*
X40769999Y28500000D01*
X39850000Y29080000D02*
X40279999Y29079999D01*
X47570001Y28570001D02*
X47570001Y28500000D01*
X48080000Y29080000D02*
X47570001Y28570001D01*
X48490000Y29080000D02*
X48080000Y29080000D01*
X54739999Y28589999D02*
X54739999Y28500000D01*
X54249999Y29079999D02*
X54739999Y28589999D01*
X53820000Y29080000D02*
X54249999Y29079999D01*
X61540001Y28540001D02*
X61540001Y28500000D01*
X62080000Y29080000D02*
X61540001Y28540001D01*
X62460000Y29080000D02*
X62080000Y29080000D01*
X66579999Y19900001D02*
X66490000Y19900001D01*
X67070000Y20390002D02*
X66579999Y19900001D01*
X67070000Y20820000D02*
X67070000Y20390002D01*
X66579999Y13099999D02*
X66490000Y13099999D01*
X67069999Y12609999D02*
X66579999Y13099999D01*
X67070000Y12180000D02*
X67069999Y12609999D01*
D25*
%TO.N,D+*%
X6694998Y16750000D02*
X7510000Y16750000D01*
X6604999Y15839999D02*
X6604999Y16660001D01*
X6694998Y15750000D02*
X6604999Y15839999D01*
X6604999Y16660001D02*
X6694998Y16750000D01*
X7510000Y15750000D02*
X6694998Y15750000D01*
X15390001Y27594999D02*
X15480000Y27684998D01*
X5604990Y17895010D02*
X5604990Y21141019D01*
X6604999Y16895001D02*
X5604990Y17895010D01*
X6604999Y16660001D02*
X6604999Y16895001D01*
X16480000Y29315002D02*
X16480000Y28500000D01*
X16390001Y29405001D02*
X16480000Y29315002D01*
X15555001Y29405001D02*
X16390001Y29405001D01*
X15480000Y29330000D02*
X15555001Y29405001D01*
X15480000Y28500000D02*
X15480000Y29330000D01*
X28679992Y30405010D02*
X29770000Y29315002D01*
X16390001Y29405001D02*
X17390010Y30405010D01*
X30770000Y29315002D02*
X30770000Y28500000D01*
X30680001Y29405001D02*
X30770000Y29315002D01*
X29859999Y29405001D02*
X30680001Y29405001D01*
X29770000Y29315002D02*
X29859999Y29405001D01*
X29770000Y28500000D02*
X29770000Y29315002D01*
X42329992Y30405010D02*
X43420000Y29315002D01*
X31845010Y30405010D02*
X42329992Y30405010D01*
X30770000Y29330000D02*
X31845010Y30405010D01*
X30770000Y28500000D02*
X30770000Y29330000D01*
X44420000Y29315002D02*
X44420000Y28500000D01*
X44330001Y29405001D02*
X44420000Y29315002D01*
X43420000Y29315002D02*
X43509999Y29405001D01*
X43420000Y28500000D02*
X43420000Y29315002D01*
X57390000Y29315002D02*
X57390000Y28500000D01*
X56299992Y30405010D02*
X57390000Y29315002D01*
X45330010Y30405010D02*
X56299992Y30405010D01*
X44330001Y29405001D02*
X45330010Y30405010D01*
X58390000Y29315002D02*
X58390000Y28500000D01*
X58300001Y29405001D02*
X58390000Y29315002D01*
X57465001Y29405001D02*
X58300001Y29405001D01*
X57390000Y29330000D02*
X57465001Y29405001D01*
X57390000Y28500000D02*
X57390000Y29330000D01*
X58405001Y29405001D02*
X59500000Y30500000D01*
X58300001Y29405001D02*
X58405001Y29405001D01*
X67305002Y16250000D02*
X66490000Y16250000D01*
X67395001Y16339999D02*
X67305002Y16250000D01*
X66490000Y17250000D02*
X67305002Y17250000D01*
X17390010Y30405010D02*
X28679992Y30405010D01*
X6058981Y21595010D02*
X6095010Y21595010D01*
X15480000Y27684998D02*
X15480000Y28500000D01*
X14795002Y27000000D02*
X15480000Y27684998D01*
X14500000Y27000000D02*
X14795002Y27000000D01*
X43905001Y29905001D02*
X44000000Y30000000D01*
X43905001Y29405001D02*
X43905001Y29905001D01*
X43509999Y29405001D02*
X43905001Y29405001D01*
X43905001Y29405001D02*
X44330001Y29405001D01*
X67395001Y17160001D02*
X67395001Y16339999D01*
X67305002Y17250000D02*
X67395001Y17160001D01*
X64000000Y18910000D02*
X64000000Y22500000D01*
X65660000Y17250000D02*
X64000000Y18910000D01*
X66490000Y17250000D02*
X65660000Y17250000D01*
X8500000Y24036028D02*
X5981986Y21518014D01*
X5981986Y21518014D02*
X6058981Y21595010D01*
X8500000Y27000000D02*
X8500000Y24036028D01*
X5604990Y21141019D02*
X5981986Y21518014D01*
%TO.N,D-*%
X8325002Y17250000D02*
X7510000Y17250000D01*
X8415001Y17160001D02*
X8325002Y17250000D01*
X8415001Y16339999D02*
X8415001Y17160001D01*
X8325002Y16250000D02*
X8415001Y16339999D01*
X7510000Y16250000D02*
X8325002Y16250000D01*
X15980000Y27548588D02*
X15980000Y28500000D01*
X8325002Y17250000D02*
X8681412Y17250000D01*
X16843590Y27548588D02*
X17000000Y27704998D01*
X15980000Y27548588D02*
X16843590Y27548588D01*
X16980000Y28020000D02*
X16980000Y28500000D01*
X17000000Y28000000D02*
X16980000Y28020000D01*
X17000000Y27704998D02*
X17000000Y28000000D01*
X30270000Y27684998D02*
X30270000Y28500000D01*
X30180001Y27594999D02*
X30270000Y27684998D01*
X16980000Y27670000D02*
X17055001Y27594999D01*
X16980000Y28500000D02*
X16980000Y27670000D01*
X31180001Y27594999D02*
X31270000Y27684998D01*
X30359999Y27594999D02*
X31180001Y27594999D01*
X30270000Y27684998D02*
X30359999Y27594999D01*
X43830001Y27594999D02*
X43920000Y27684998D01*
X31270000Y27684998D02*
X31359999Y27594999D01*
X31270000Y28500000D02*
X31270000Y27684998D01*
X43920000Y27684998D02*
X43920000Y28500000D01*
X44009999Y27594999D02*
X43920000Y27684998D01*
X44920000Y27684998D02*
X44830001Y27594999D01*
X44830001Y27594999D02*
X44009999Y27594999D01*
X44920000Y28500000D02*
X44920000Y27684998D01*
X58890000Y27684998D02*
X58890000Y28500000D01*
X58800001Y27594999D02*
X58890000Y27684998D01*
X57979999Y27594999D02*
X58800001Y27594999D01*
X57890000Y27684998D02*
X57979999Y27594999D01*
X57890000Y28500000D02*
X57890000Y27684998D01*
X57800001Y27594999D02*
X57890000Y27684998D01*
X44920000Y27684998D02*
X45009999Y27594999D01*
X58800001Y23459999D02*
X61950000Y20310000D01*
X58800001Y27594999D02*
X58800001Y23459999D01*
X65674998Y15750000D02*
X66490000Y15750000D01*
X65584999Y15839999D02*
X65674998Y15750000D01*
X65660000Y16750000D02*
X65584999Y16674999D01*
X66490000Y16750000D02*
X65660000Y16750000D01*
X8750000Y17250000D02*
X9500000Y18000000D01*
X8681412Y17250000D02*
X8750000Y17250000D01*
X15500000Y27068588D02*
X15980000Y27548588D01*
X15500000Y26500000D02*
X15500000Y27068588D01*
X17000000Y27500000D02*
X17500000Y27000000D01*
X17000000Y27704998D02*
X17000000Y27500000D01*
X30184998Y27684998D02*
X30270000Y27684998D01*
X29500000Y27000000D02*
X30184998Y27684998D01*
X31405001Y27594999D02*
X32000000Y27000000D01*
X31359999Y27594999D02*
X31405001Y27594999D01*
X43235002Y27000000D02*
X43920000Y27684998D01*
X43000000Y27000000D02*
X43235002Y27000000D01*
X57594999Y27594999D02*
X57800001Y27594999D01*
X57000000Y27000000D02*
X57594999Y27594999D01*
X45009999Y27490001D02*
X45500000Y27000000D01*
X45009999Y27594999D02*
X45009999Y27490001D01*
X62649999Y19609999D02*
X65584999Y16674999D01*
X61950000Y20310000D02*
X62649999Y19609999D01*
X65584999Y16674999D02*
X65584999Y15839999D01*
X10000000Y18500000D02*
X9500000Y18000000D01*
%TO.N,Net-(JP1-Pad2)*%
X50540000Y20310000D02*
X56870000Y20310000D01*
%TD*%
D26*
%TO.N,VBUS*%
X70697696Y35523644D02*
X71368824Y35321018D01*
X71987810Y34991898D01*
X72531084Y34548816D01*
X72977946Y34008653D01*
X73311381Y33391978D01*
X73518686Y32722284D01*
X73593976Y32005947D01*
X73594000Y31999166D01*
X73594001Y4019864D01*
X73523644Y3302304D01*
X73321017Y2631172D01*
X72991896Y2012186D01*
X72548815Y1468916D01*
X72008652Y1022054D01*
X71391977Y688619D01*
X70722284Y481314D01*
X70005947Y406024D01*
X69999166Y406000D01*
X4019854Y406000D01*
X3302304Y476356D01*
X2631172Y678983D01*
X2012186Y1008104D01*
X1468916Y1451185D01*
X1022054Y1991348D01*
X688619Y2608023D01*
X481314Y3277716D01*
X406024Y3994053D01*
X406000Y4000834D01*
X406000Y4195111D01*
X2019000Y4195111D01*
X2019000Y3804889D01*
X2095129Y3422164D01*
X2244461Y3061645D01*
X2461257Y2737186D01*
X2737186Y2461257D01*
X3061645Y2244461D01*
X3422164Y2095129D01*
X3804889Y2019000D01*
X4195111Y2019000D01*
X4577836Y2095129D01*
X4938355Y2244461D01*
X5262814Y2461257D01*
X5538743Y2737186D01*
X5755539Y3061645D01*
X5904871Y3422164D01*
X5981000Y3804889D01*
X5981000Y4195111D01*
X68019000Y4195111D01*
X68019000Y3804889D01*
X68095129Y3422164D01*
X68244461Y3061645D01*
X68461257Y2737186D01*
X68737186Y2461257D01*
X69061645Y2244461D01*
X69422164Y2095129D01*
X69804889Y2019000D01*
X70195111Y2019000D01*
X70577836Y2095129D01*
X70938355Y2244461D01*
X71262814Y2461257D01*
X71538743Y2737186D01*
X71755539Y3061645D01*
X71904871Y3422164D01*
X71981000Y3804889D01*
X71981000Y4195111D01*
X71904871Y4577836D01*
X71755539Y4938355D01*
X71538743Y5262814D01*
X71262814Y5538743D01*
X70938355Y5755539D01*
X70577836Y5904871D01*
X70195111Y5981000D01*
X69804889Y5981000D01*
X69422164Y5904871D01*
X69061645Y5755539D01*
X68737186Y5538743D01*
X68461257Y5262814D01*
X68244461Y4938355D01*
X68095129Y4577836D01*
X68019000Y4195111D01*
X5981000Y4195111D01*
X5904871Y4577836D01*
X5755539Y4938355D01*
X5538743Y5262814D01*
X5262814Y5538743D01*
X4938355Y5755539D01*
X4577836Y5904871D01*
X4195111Y5981000D01*
X3804889Y5981000D01*
X3422164Y5904871D01*
X3061645Y5755539D01*
X2737186Y5538743D01*
X2461257Y5262814D01*
X2244461Y4938355D01*
X2095129Y4577836D01*
X2019000Y4195111D01*
X406000Y4195111D01*
X406000Y12180000D01*
X1524980Y12180000D01*
X1541025Y12017096D01*
X1588542Y11860452D01*
X1665706Y11716088D01*
X1769552Y11589552D01*
X1896088Y11485706D01*
X2040452Y11408542D01*
X2197096Y11361025D01*
X2319185Y11349000D01*
X3200815Y11349000D01*
X3322904Y11361025D01*
X3479548Y11408542D01*
X3623912Y11485706D01*
X3750448Y11589552D01*
X3854294Y11716088D01*
X3931458Y11860452D01*
X3978975Y12017096D01*
X3995020Y12180000D01*
X3978975Y12342904D01*
X3931458Y12499548D01*
X3854294Y12643912D01*
X3750448Y12770448D01*
X3623912Y12874294D01*
X3479548Y12951458D01*
X3322904Y12998975D01*
X3200815Y13011000D01*
X2319185Y13011000D01*
X2197096Y12998975D01*
X2040452Y12951458D01*
X1896088Y12874294D01*
X1769552Y12770448D01*
X1665706Y12643912D01*
X1588542Y12499548D01*
X1541025Y12342904D01*
X1524980Y12180000D01*
X406000Y12180000D01*
X406000Y20820000D01*
X1524980Y20820000D01*
X1541025Y20657096D01*
X1588542Y20500452D01*
X1665706Y20356088D01*
X1769552Y20229552D01*
X1896088Y20125706D01*
X2040452Y20048542D01*
X2197096Y20001025D01*
X2319185Y19989000D01*
X3200815Y19989000D01*
X3322904Y20001025D01*
X3479548Y20048542D01*
X3623912Y20125706D01*
X3750448Y20229552D01*
X3854294Y20356088D01*
X3931458Y20500452D01*
X3978975Y20657096D01*
X3995020Y20820000D01*
X3978975Y20982904D01*
X3931458Y21139548D01*
X3930672Y21141019D01*
X5096543Y21141019D01*
X5098991Y21116163D01*
X5098990Y17919856D01*
X5096543Y17895010D01*
X5098990Y17870164D01*
X5098990Y17870157D01*
X5106312Y17795818D01*
X5135245Y17700436D01*
X5182231Y17612531D01*
X5245463Y17535483D01*
X5264775Y17519634D01*
X6098999Y16685409D01*
X6098999Y16684847D01*
X6096552Y16660001D01*
X6098999Y16635155D01*
X6098999Y16635148D01*
X6099000Y16635138D01*
X6098999Y15864846D01*
X6096552Y15839999D01*
X6098999Y15815153D01*
X6098999Y15815146D01*
X6106321Y15740807D01*
X6135254Y15645425D01*
X6182240Y15557520D01*
X6245472Y15480472D01*
X6264784Y15464623D01*
X6319622Y15409785D01*
X6335471Y15390473D01*
X6412519Y15327241D01*
X6500423Y15280255D01*
X6547157Y15266079D01*
X6547157Y15100000D01*
X6554513Y15025311D01*
X6562191Y15000000D01*
X6554513Y14974689D01*
X6547936Y14907911D01*
X6478815Y14851185D01*
X6399463Y14754494D01*
X6340498Y14644180D01*
X6304188Y14524482D01*
X6291928Y14400000D01*
X6295000Y14385750D01*
X6389750Y14291000D01*
X6382927Y14291000D01*
X6251360Y14264829D01*
X6127426Y14213494D01*
X6015888Y14138967D01*
X5921033Y14044112D01*
X5846506Y13932574D01*
X5795171Y13808640D01*
X5769000Y13677073D01*
X5769000Y13542927D01*
X5795171Y13411360D01*
X5846506Y13287426D01*
X5921033Y13175888D01*
X6015888Y13081033D01*
X6127426Y13006506D01*
X6140164Y13001230D01*
X6123839Y12970686D01*
X6060452Y12951458D01*
X5916088Y12874294D01*
X5789552Y12770448D01*
X5685706Y12643912D01*
X5608542Y12499548D01*
X5561025Y12342904D01*
X5544980Y12180000D01*
X5561025Y12017096D01*
X5608542Y11860452D01*
X5685706Y11716088D01*
X5789552Y11589552D01*
X5916088Y11485706D01*
X6060452Y11408542D01*
X6217096Y11361025D01*
X6339185Y11349000D01*
X6634494Y11349000D01*
X6757292Y11311749D01*
X6929998Y11294739D01*
X7102703Y11311748D01*
X7225506Y11349000D01*
X7520815Y11349000D01*
X7642904Y11361025D01*
X7799548Y11408542D01*
X7943912Y11485706D01*
X8070448Y11589552D01*
X8174294Y11716088D01*
X8251458Y11860452D01*
X8298975Y12017096D01*
X8315020Y12180000D01*
X8298975Y12342904D01*
X8251458Y12499548D01*
X8214171Y12569307D01*
X8246068Y12608174D01*
X8278421Y12668703D01*
X8302696Y12681678D01*
X8360711Y12729289D01*
X8408322Y12787304D01*
X8443701Y12853492D01*
X8465487Y12925311D01*
X8472843Y13000000D01*
X8472843Y13292728D01*
X8541185Y13348815D01*
X8620537Y13445506D01*
X8679502Y13555820D01*
X8715812Y13675518D01*
X8728072Y13800000D01*
X8725000Y13814250D01*
X8566250Y13973000D01*
X8172888Y13973000D01*
X8164689Y13975487D01*
X8090000Y13982843D01*
X7444550Y13982843D01*
X7420001Y13985261D01*
X7395452Y13982843D01*
X7363000Y13982843D01*
X7363000Y14217157D01*
X8090000Y14217157D01*
X8164689Y14224513D01*
X8172888Y14227000D01*
X8566250Y14227000D01*
X8725000Y14385750D01*
X8728072Y14400000D01*
X8715812Y14524482D01*
X8679502Y14644180D01*
X8620537Y14754494D01*
X8541185Y14851185D01*
X8472064Y14907911D01*
X8465487Y14974689D01*
X8457809Y15000000D01*
X8465487Y15025311D01*
X8472843Y15100000D01*
X8472843Y15400000D01*
X8465487Y15474689D01*
X8457809Y15500000D01*
X8465487Y15525311D01*
X8472843Y15600000D01*
X8472843Y15766079D01*
X8519577Y15780255D01*
X8607481Y15827241D01*
X8684529Y15890473D01*
X8700378Y15909785D01*
X8755216Y15964623D01*
X8774528Y15980472D01*
X8837760Y16057520D01*
X8884746Y16145424D01*
X8913679Y16240806D01*
X8921001Y16315145D01*
X8921001Y16315146D01*
X8923449Y16339999D01*
X8921001Y16364853D01*
X8921001Y16773104D01*
X8944575Y16780255D01*
X9032479Y16827241D01*
X9109527Y16890473D01*
X9125376Y16909785D01*
X9875370Y17659778D01*
X9875374Y17659783D01*
X10034591Y17819000D01*
X10067073Y17819000D01*
X10198640Y17845171D01*
X10322574Y17896506D01*
X10434112Y17971033D01*
X10528967Y18065888D01*
X10603494Y18177426D01*
X10654829Y18301360D01*
X10681000Y18432927D01*
X10681000Y18567073D01*
X10654829Y18698640D01*
X10603494Y18822574D01*
X10528967Y18934112D01*
X10434112Y19028967D01*
X10322574Y19103494D01*
X10198640Y19154829D01*
X10067073Y19181000D01*
X9932927Y19181000D01*
X9801360Y19154829D01*
X9677426Y19103494D01*
X9565888Y19028967D01*
X9471033Y18934112D01*
X9396506Y18822574D01*
X9345171Y18698640D01*
X9319000Y18567073D01*
X9319000Y18534591D01*
X9159783Y18375374D01*
X9159778Y18375370D01*
X8540409Y17756000D01*
X8472843Y17756000D01*
X8472843Y17900000D01*
X8465487Y17974689D01*
X8457809Y18000000D01*
X8465487Y18025311D01*
X8472064Y18092089D01*
X8541185Y18148815D01*
X8620537Y18245506D01*
X8679502Y18355820D01*
X8715812Y18475518D01*
X8728072Y18600000D01*
X8725000Y18614250D01*
X8566250Y18773000D01*
X8172888Y18773000D01*
X8164689Y18775487D01*
X8090000Y18782843D01*
X7363000Y18782843D01*
X7363000Y19017157D01*
X7395452Y19017157D01*
X7420001Y19014739D01*
X7444550Y19017157D01*
X8090000Y19017157D01*
X8164689Y19024513D01*
X8172888Y19027000D01*
X8566250Y19027000D01*
X8725000Y19185750D01*
X8728072Y19200000D01*
X8715812Y19324482D01*
X8679502Y19444180D01*
X8620537Y19554494D01*
X8541185Y19651185D01*
X8472843Y19707272D01*
X8472843Y20000000D01*
X8465487Y20074689D01*
X8443701Y20146508D01*
X8408322Y20212696D01*
X8360711Y20270711D01*
X8302696Y20318322D01*
X8278421Y20331297D01*
X8246068Y20391826D01*
X8214171Y20430693D01*
X8251458Y20500452D01*
X8298975Y20657096D01*
X8315020Y20820000D01*
X8298975Y20982904D01*
X8251458Y21139548D01*
X8240527Y21160000D01*
X46767157Y21160000D01*
X46767157Y19460000D01*
X46774513Y19385311D01*
X46796299Y19313492D01*
X46831678Y19247304D01*
X46879289Y19189289D01*
X46937304Y19141678D01*
X47003492Y19106299D01*
X47075311Y19084513D01*
X47150000Y19077157D01*
X48850000Y19077157D01*
X48924689Y19084513D01*
X48996508Y19106299D01*
X49062696Y19141678D01*
X49120711Y19189289D01*
X49168322Y19247304D01*
X49203701Y19313492D01*
X49225487Y19385311D01*
X49232843Y19460000D01*
X49232843Y20431243D01*
X49309000Y20431243D01*
X49309000Y20188757D01*
X49356307Y19950931D01*
X49449102Y19726903D01*
X49583820Y19525283D01*
X49755283Y19353820D01*
X49956903Y19219102D01*
X50180931Y19126307D01*
X50418757Y19079000D01*
X50661243Y19079000D01*
X50899069Y19126307D01*
X51123097Y19219102D01*
X51324717Y19353820D01*
X51496180Y19525283D01*
X51630898Y19726903D01*
X51662832Y19804000D01*
X55909527Y19804000D01*
X55912031Y19797955D01*
X56030333Y19620903D01*
X56180903Y19470333D01*
X56357955Y19352031D01*
X56554684Y19270543D01*
X56763531Y19229000D01*
X56976469Y19229000D01*
X57185316Y19270543D01*
X57382045Y19352031D01*
X57559097Y19470333D01*
X57709667Y19620903D01*
X57827969Y19797955D01*
X57909457Y19994684D01*
X57951000Y20203531D01*
X57951000Y20416469D01*
X57909457Y20625316D01*
X57827969Y20822045D01*
X57709667Y20999097D01*
X57559097Y21149667D01*
X57382045Y21267969D01*
X57185316Y21349457D01*
X56976469Y21391000D01*
X56763531Y21391000D01*
X56554684Y21349457D01*
X56357955Y21267969D01*
X56180903Y21149667D01*
X56030333Y20999097D01*
X55912031Y20822045D01*
X55909527Y20816000D01*
X51662832Y20816000D01*
X51630898Y20893097D01*
X51496180Y21094717D01*
X51324717Y21266180D01*
X51123097Y21400898D01*
X50899069Y21493693D01*
X50661243Y21541000D01*
X50418757Y21541000D01*
X50180931Y21493693D01*
X49956903Y21400898D01*
X49755283Y21266180D01*
X49583820Y21094717D01*
X49449102Y20893097D01*
X49356307Y20669069D01*
X49309000Y20431243D01*
X49232843Y20431243D01*
X49232843Y21160000D01*
X49225487Y21234689D01*
X49203701Y21306508D01*
X49168322Y21372696D01*
X49120711Y21430711D01*
X49062696Y21478322D01*
X48996508Y21513701D01*
X48924689Y21535487D01*
X48850000Y21542843D01*
X47150000Y21542843D01*
X47075311Y21535487D01*
X47003492Y21513701D01*
X46937304Y21478322D01*
X46879289Y21430711D01*
X46831678Y21372696D01*
X46796299Y21306508D01*
X46774513Y21234689D01*
X46767157Y21160000D01*
X8240527Y21160000D01*
X8174294Y21283912D01*
X8070448Y21410448D01*
X7943912Y21514294D01*
X7799548Y21591458D01*
X7642904Y21638975D01*
X7520815Y21651000D01*
X7225506Y21651000D01*
X7102703Y21688252D01*
X6929998Y21705261D01*
X6879889Y21700326D01*
X8840220Y23660656D01*
X8859527Y23676501D01*
X8922759Y23753549D01*
X8969745Y23841453D01*
X8998678Y23936835D01*
X9006000Y24011174D01*
X9008448Y24036028D01*
X9006000Y24060882D01*
X9006000Y26542921D01*
X9028967Y26565888D01*
X9103494Y26677426D01*
X9154829Y26801360D01*
X9181000Y26932927D01*
X9181000Y27067073D01*
X9154829Y27198640D01*
X9103494Y27322574D01*
X9028967Y27434112D01*
X8934112Y27528967D01*
X8822574Y27603494D01*
X8698640Y27654829D01*
X8567073Y27681000D01*
X8432927Y27681000D01*
X8301360Y27654829D01*
X8177426Y27603494D01*
X8065888Y27528967D01*
X7971033Y27434112D01*
X7896506Y27322574D01*
X7845171Y27198640D01*
X7819000Y27067073D01*
X7819000Y26932927D01*
X7845171Y26801360D01*
X7896506Y26677426D01*
X7971033Y26565888D01*
X7994000Y26542921D01*
X7994001Y24245621D01*
X5718772Y21970391D01*
X5699454Y21954537D01*
X5683607Y21935227D01*
X5264766Y21516386D01*
X5245464Y21500546D01*
X5229624Y21481245D01*
X5229620Y21481241D01*
X5182232Y21423498D01*
X5135246Y21335594D01*
X5106312Y21240212D01*
X5096543Y21141019D01*
X3930672Y21141019D01*
X3854294Y21283912D01*
X3750448Y21410448D01*
X3623912Y21514294D01*
X3479548Y21591458D01*
X3322904Y21638975D01*
X3200815Y21651000D01*
X2319185Y21651000D01*
X2197096Y21638975D01*
X2040452Y21591458D01*
X1896088Y21514294D01*
X1769552Y21410448D01*
X1665706Y21283912D01*
X1588542Y21139548D01*
X1541025Y20982904D01*
X1524980Y20820000D01*
X406000Y20820000D01*
X406000Y29080002D01*
X11024739Y29080002D01*
X11041748Y28907297D01*
X11079000Y28784493D01*
X11079000Y28489186D01*
X11091025Y28367097D01*
X11138542Y28210453D01*
X11215706Y28066089D01*
X11319552Y27939552D01*
X11446088Y27835706D01*
X11590452Y27758542D01*
X11747096Y27711025D01*
X11910000Y27694980D01*
X12072903Y27711025D01*
X12229547Y27758542D01*
X12299307Y27795829D01*
X12338175Y27763932D01*
X12398702Y27731580D01*
X12411678Y27707304D01*
X12459289Y27649289D01*
X12517304Y27601678D01*
X12583492Y27566299D01*
X12655311Y27544513D01*
X12730000Y27537157D01*
X13022728Y27537157D01*
X13078815Y27468815D01*
X13175506Y27389463D01*
X13285820Y27330498D01*
X13405518Y27294188D01*
X13530000Y27281928D01*
X13544250Y27285000D01*
X13703000Y27443750D01*
X13703000Y27837112D01*
X13705487Y27845311D01*
X13712843Y27920000D01*
X13712843Y28565450D01*
X13715261Y28589999D01*
X13712843Y28614548D01*
X13712843Y28647000D01*
X13947157Y28647000D01*
X13947157Y27920000D01*
X13954513Y27845311D01*
X13957000Y27837112D01*
X13957000Y27443750D01*
X13969273Y27431477D01*
X13896506Y27322574D01*
X13845171Y27198640D01*
X13819000Y27067073D01*
X13819000Y26932927D01*
X13845171Y26801360D01*
X13896506Y26677426D01*
X13971033Y26565888D01*
X14065888Y26471033D01*
X14177426Y26396506D01*
X14301360Y26345171D01*
X14432927Y26319000D01*
X14567073Y26319000D01*
X14698640Y26345171D01*
X14822574Y26396506D01*
X14825814Y26398671D01*
X14845171Y26301360D01*
X14896506Y26177426D01*
X14971033Y26065888D01*
X15065888Y25971033D01*
X15177426Y25896506D01*
X15301360Y25845171D01*
X15432927Y25819000D01*
X15567073Y25819000D01*
X15698640Y25845171D01*
X15822574Y25896506D01*
X15934112Y25971033D01*
X16028967Y26065888D01*
X16103494Y26177426D01*
X16154829Y26301360D01*
X16181000Y26432927D01*
X16181000Y26567073D01*
X16154829Y26698640D01*
X16103494Y26822574D01*
X16049855Y26902851D01*
X16189592Y27042588D01*
X16741821Y27042588D01*
X16819000Y26965409D01*
X16819000Y26932927D01*
X16845171Y26801360D01*
X16896506Y26677426D01*
X16971033Y26565888D01*
X17065888Y26471033D01*
X17177426Y26396506D01*
X17301360Y26345171D01*
X17432927Y26319000D01*
X17567073Y26319000D01*
X17698640Y26345171D01*
X17822574Y26396506D01*
X17934112Y26471033D01*
X18028967Y26565888D01*
X18103494Y26677426D01*
X18154829Y26801360D01*
X18181000Y26932927D01*
X18181000Y27067073D01*
X18154829Y27198640D01*
X18103494Y27322574D01*
X18101346Y27325788D01*
X18205518Y27294188D01*
X18330000Y27281928D01*
X18344250Y27285000D01*
X18503000Y27443750D01*
X18503000Y27837112D01*
X18505487Y27845311D01*
X18512843Y27920000D01*
X18512843Y28647000D01*
X18747157Y28647000D01*
X18747157Y28524550D01*
X18744739Y28500000D01*
X18747157Y28475450D01*
X18747157Y27920000D01*
X18754513Y27845311D01*
X18757000Y27837112D01*
X18757000Y27443750D01*
X18915750Y27285000D01*
X18930000Y27281928D01*
X19054482Y27294188D01*
X19174180Y27330498D01*
X19284494Y27389463D01*
X19381185Y27468815D01*
X19437272Y27537157D01*
X19730000Y27537157D01*
X19804689Y27544513D01*
X19876508Y27566299D01*
X19942696Y27601678D01*
X19963045Y27618378D01*
X20000000Y27614738D01*
X20043270Y27619000D01*
X20043273Y27619000D01*
X20172706Y27631748D01*
X20338775Y27682125D01*
X20391949Y27710547D01*
X20550000Y27694980D01*
X20712903Y27711025D01*
X20869547Y27758542D01*
X21013911Y27835706D01*
X21140448Y27939552D01*
X21244294Y28066088D01*
X21321458Y28210452D01*
X21368975Y28367096D01*
X21381000Y28489185D01*
X21381000Y28754493D01*
X21418252Y28877295D01*
X21431000Y29006728D01*
X21431000Y29006729D01*
X21435262Y29049999D01*
X21431000Y29093269D01*
X21431000Y29123273D01*
X21418252Y29252706D01*
X21381000Y29375508D01*
X21381000Y29670815D01*
X21368975Y29792904D01*
X21336788Y29899010D01*
X25413213Y29899010D01*
X25381026Y29792904D01*
X25369001Y29670815D01*
X25369001Y29375509D01*
X25331749Y29252708D01*
X25314739Y29080002D01*
X25331748Y28907297D01*
X25369000Y28784493D01*
X25369000Y28489186D01*
X25381025Y28367097D01*
X25428542Y28210453D01*
X25505706Y28066089D01*
X25609552Y27939552D01*
X25736088Y27835706D01*
X25880452Y27758542D01*
X26037096Y27711025D01*
X26200000Y27694980D01*
X26362903Y27711025D01*
X26519547Y27758542D01*
X26589307Y27795829D01*
X26628175Y27763932D01*
X26688702Y27731580D01*
X26701678Y27707304D01*
X26749289Y27649289D01*
X26807304Y27601678D01*
X26873492Y27566299D01*
X26945311Y27544513D01*
X27020000Y27537157D01*
X27312728Y27537157D01*
X27368815Y27468815D01*
X27465506Y27389463D01*
X27575820Y27330498D01*
X27695518Y27294188D01*
X27820000Y27281928D01*
X27834250Y27285000D01*
X27993000Y27443750D01*
X27993000Y27837112D01*
X27995487Y27845311D01*
X28002843Y27920000D01*
X28002843Y28565450D01*
X28005261Y28589999D01*
X28002843Y28614548D01*
X28002843Y28647000D01*
X28237157Y28647000D01*
X28237157Y27920000D01*
X28244513Y27845311D01*
X28247000Y27837112D01*
X28247000Y27443750D01*
X28405750Y27285000D01*
X28420000Y27281928D01*
X28544482Y27294188D01*
X28664180Y27330498D01*
X28774494Y27389463D01*
X28871185Y27468815D01*
X28927911Y27537936D01*
X28994689Y27544513D01*
X29020000Y27552191D01*
X29045311Y27544513D01*
X29083522Y27540750D01*
X29065888Y27528967D01*
X28971033Y27434112D01*
X28896506Y27322574D01*
X28845171Y27198640D01*
X28819000Y27067073D01*
X28819000Y26932927D01*
X28845171Y26801360D01*
X28896506Y26677426D01*
X28971033Y26565888D01*
X29065888Y26471033D01*
X29177426Y26396506D01*
X29301360Y26345171D01*
X29432927Y26319000D01*
X29567073Y26319000D01*
X29698640Y26345171D01*
X29822574Y26396506D01*
X29934112Y26471033D01*
X30028967Y26565888D01*
X30103494Y26677426D01*
X30154829Y26801360D01*
X30181000Y26932927D01*
X30181000Y26965409D01*
X30307330Y27091739D01*
X30335145Y27088999D01*
X30359999Y27086551D01*
X30384853Y27088999D01*
X31155155Y27088999D01*
X31180001Y27086552D01*
X31196256Y27088153D01*
X31319000Y26965409D01*
X31319000Y26932927D01*
X31345171Y26801360D01*
X31396506Y26677426D01*
X31471033Y26565888D01*
X31565888Y26471033D01*
X31677426Y26396506D01*
X31801360Y26345171D01*
X31932927Y26319000D01*
X32067073Y26319000D01*
X32198640Y26345171D01*
X32322574Y26396506D01*
X32434112Y26471033D01*
X32528967Y26565888D01*
X32603494Y26677426D01*
X32654829Y26801360D01*
X32681000Y26932927D01*
X32681000Y27067073D01*
X32654829Y27198640D01*
X32620303Y27281993D01*
X32634250Y27285000D01*
X32793000Y27443750D01*
X32793000Y27837112D01*
X32795487Y27845311D01*
X32802843Y27920000D01*
X32802843Y28647000D01*
X33037157Y28647000D01*
X33037157Y28614548D01*
X33034739Y28589999D01*
X33037157Y28565450D01*
X33037157Y27920000D01*
X33044513Y27845311D01*
X33047000Y27837112D01*
X33047000Y27443750D01*
X33205750Y27285000D01*
X33220000Y27281928D01*
X33344482Y27294188D01*
X33464180Y27330498D01*
X33574494Y27389463D01*
X33671185Y27468815D01*
X33727272Y27537157D01*
X34020000Y27537157D01*
X34094689Y27544513D01*
X34166508Y27566299D01*
X34232696Y27601678D01*
X34290711Y27649289D01*
X34338322Y27707304D01*
X34351297Y27731579D01*
X34411826Y27763932D01*
X34450693Y27795829D01*
X34520452Y27758542D01*
X34677096Y27711025D01*
X34840000Y27694980D01*
X35002903Y27711025D01*
X35159547Y27758542D01*
X35303911Y27835706D01*
X35430448Y27939552D01*
X35534294Y28066088D01*
X35611458Y28210452D01*
X35658975Y28367096D01*
X35671000Y28489185D01*
X35671000Y28784494D01*
X35708252Y28907297D01*
X35725261Y29080002D01*
X35708251Y29252708D01*
X35671000Y29375506D01*
X35671000Y29670815D01*
X35658975Y29792904D01*
X35626788Y29899010D01*
X39063213Y29899010D01*
X39031026Y29792904D01*
X39019001Y29670815D01*
X39019001Y29375509D01*
X38981749Y29252708D01*
X38964739Y29080002D01*
X38981748Y28907297D01*
X39019000Y28784493D01*
X39019000Y28489186D01*
X39031025Y28367097D01*
X39078542Y28210453D01*
X39155706Y28066089D01*
X39259552Y27939552D01*
X39386088Y27835706D01*
X39530452Y27758542D01*
X39687096Y27711025D01*
X39850000Y27694980D01*
X40012903Y27711025D01*
X40169547Y27758542D01*
X40239307Y27795829D01*
X40278175Y27763932D01*
X40338702Y27731580D01*
X40351678Y27707304D01*
X40399289Y27649289D01*
X40457304Y27601678D01*
X40523492Y27566299D01*
X40595311Y27544513D01*
X40670000Y27537157D01*
X40962728Y27537157D01*
X41018815Y27468815D01*
X41115506Y27389463D01*
X41225820Y27330498D01*
X41345518Y27294188D01*
X41470000Y27281928D01*
X41484250Y27285000D01*
X41643000Y27443750D01*
X41643000Y27837112D01*
X41645487Y27845311D01*
X41652843Y27920000D01*
X41652843Y28565450D01*
X41655261Y28589999D01*
X41652843Y28614548D01*
X41652843Y28647000D01*
X41887157Y28647000D01*
X41887157Y27920000D01*
X41894513Y27845311D01*
X41897000Y27837112D01*
X41897000Y27443750D01*
X42055750Y27285000D01*
X42070000Y27281928D01*
X42194482Y27294188D01*
X42314180Y27330498D01*
X42424494Y27389463D01*
X42461482Y27419819D01*
X42396506Y27322574D01*
X42345171Y27198640D01*
X42319000Y27067073D01*
X42319000Y26932927D01*
X42345171Y26801360D01*
X42396506Y26677426D01*
X42471033Y26565888D01*
X42565888Y26471033D01*
X42677426Y26396506D01*
X42801360Y26345171D01*
X42932927Y26319000D01*
X43067073Y26319000D01*
X43198640Y26345171D01*
X43322574Y26396506D01*
X43434112Y26471033D01*
X43528967Y26565888D01*
X43559709Y26611897D01*
X43594529Y26640473D01*
X43610378Y26659785D01*
X44039593Y27088999D01*
X44695410Y27088999D01*
X44819000Y26965409D01*
X44819000Y26932927D01*
X44845171Y26801360D01*
X44896506Y26677426D01*
X44971033Y26565888D01*
X45065888Y26471033D01*
X45177426Y26396506D01*
X45301360Y26345171D01*
X45432927Y26319000D01*
X45567073Y26319000D01*
X45698640Y26345171D01*
X45822574Y26396506D01*
X45934112Y26471033D01*
X46028967Y26565888D01*
X46103494Y26677426D01*
X46154829Y26801360D01*
X46181000Y26932927D01*
X46181000Y27067073D01*
X46154829Y27198640D01*
X46110902Y27304689D01*
X46145518Y27294188D01*
X46270000Y27281928D01*
X46284250Y27285000D01*
X46443000Y27443750D01*
X46443000Y27837112D01*
X46445487Y27845311D01*
X46452843Y27920000D01*
X46452843Y28647000D01*
X46687157Y28647000D01*
X46687157Y28594550D01*
X46684739Y28570001D01*
X46687157Y28545452D01*
X46687157Y27920000D01*
X46694513Y27845311D01*
X46697000Y27837112D01*
X46697000Y27443750D01*
X46855750Y27285000D01*
X46870000Y27281928D01*
X46994482Y27294188D01*
X47114180Y27330498D01*
X47224494Y27389463D01*
X47321185Y27468815D01*
X47377272Y27537157D01*
X47670000Y27537157D01*
X47744689Y27544513D01*
X47816508Y27566299D01*
X47882696Y27601678D01*
X47940711Y27649289D01*
X47988322Y27707304D01*
X48001297Y27731579D01*
X48061826Y27763932D01*
X48100693Y27795829D01*
X48170452Y27758542D01*
X48327096Y27711025D01*
X48490000Y27694980D01*
X48652903Y27711025D01*
X48809547Y27758542D01*
X48953911Y27835706D01*
X49080448Y27939552D01*
X49184294Y28066088D01*
X49261458Y28210452D01*
X49308975Y28367096D01*
X49321000Y28489185D01*
X49321000Y28784492D01*
X49358252Y28907294D01*
X49375262Y29080000D01*
X49358252Y29252706D01*
X49321000Y29375508D01*
X49321000Y29670815D01*
X49308975Y29792904D01*
X49276788Y29899010D01*
X53033213Y29899010D01*
X53001026Y29792904D01*
X52989001Y29670815D01*
X52989001Y29375509D01*
X52951749Y29252708D01*
X52934739Y29080002D01*
X52951748Y28907297D01*
X52989000Y28784493D01*
X52989000Y28489186D01*
X53001025Y28367097D01*
X53048542Y28210453D01*
X53125706Y28066089D01*
X53229552Y27939552D01*
X53356088Y27835706D01*
X53500452Y27758542D01*
X53657096Y27711025D01*
X53820000Y27694980D01*
X53982903Y27711025D01*
X54139547Y27758542D01*
X54209307Y27795829D01*
X54248175Y27763932D01*
X54308702Y27731580D01*
X54321678Y27707304D01*
X54369289Y27649289D01*
X54427304Y27601678D01*
X54493492Y27566299D01*
X54565311Y27544513D01*
X54640000Y27537157D01*
X54932728Y27537157D01*
X54988815Y27468815D01*
X55085506Y27389463D01*
X55195820Y27330498D01*
X55315518Y27294188D01*
X55440000Y27281928D01*
X55454250Y27285000D01*
X55613000Y27443750D01*
X55613000Y27837112D01*
X55615487Y27845311D01*
X55622843Y27920000D01*
X55622843Y28565450D01*
X55625261Y28589999D01*
X55622843Y28614548D01*
X55622843Y28647000D01*
X55857157Y28647000D01*
X55857157Y27920000D01*
X55864513Y27845311D01*
X55867000Y27837112D01*
X55867000Y27443750D01*
X56025750Y27285000D01*
X56040000Y27281928D01*
X56164482Y27294188D01*
X56284180Y27330498D01*
X56394494Y27389463D01*
X56491185Y27468815D01*
X56547911Y27537936D01*
X56584740Y27541563D01*
X56565888Y27528967D01*
X56471033Y27434112D01*
X56396506Y27322574D01*
X56345171Y27198640D01*
X56319000Y27067073D01*
X56319000Y26932927D01*
X56345171Y26801360D01*
X56396506Y26677426D01*
X56471033Y26565888D01*
X56565888Y26471033D01*
X56677426Y26396506D01*
X56801360Y26345171D01*
X56932927Y26319000D01*
X57067073Y26319000D01*
X57198640Y26345171D01*
X57322574Y26396506D01*
X57434112Y26471033D01*
X57528967Y26565888D01*
X57603494Y26677426D01*
X57654829Y26801360D01*
X57681000Y26932927D01*
X57681000Y26965408D01*
X57802378Y27086786D01*
X57824847Y27088999D01*
X57824855Y27088999D01*
X57890000Y27095415D01*
X57955145Y27088999D01*
X57979999Y27086551D01*
X58004853Y27088999D01*
X58294001Y27088999D01*
X58294002Y23484855D01*
X58291554Y23459999D01*
X58301323Y23360807D01*
X58330256Y23265425D01*
X58330257Y23265424D01*
X58377243Y23177520D01*
X58440475Y23100472D01*
X58459782Y23084627D01*
X60913047Y20631361D01*
X60910543Y20625316D01*
X60869000Y20416469D01*
X60869000Y20203531D01*
X60910543Y19994684D01*
X60992031Y19797955D01*
X61110333Y19620903D01*
X61260903Y19470333D01*
X61437955Y19352031D01*
X61634684Y19270543D01*
X61843531Y19229000D01*
X62056469Y19229000D01*
X62265316Y19270543D01*
X62271360Y19273046D01*
X62309776Y19234630D01*
X62309782Y19234625D01*
X65078999Y16465407D01*
X65079000Y15864855D01*
X65076552Y15839999D01*
X65086321Y15740807D01*
X65115254Y15645425D01*
X65115255Y15645424D01*
X65162241Y15557520D01*
X65225473Y15480472D01*
X65244780Y15464627D01*
X65299622Y15409785D01*
X65315471Y15390473D01*
X65392519Y15327241D01*
X65480423Y15280255D01*
X65527157Y15266079D01*
X65527157Y15100000D01*
X65534513Y15025311D01*
X65542191Y15000000D01*
X65534513Y14974689D01*
X65527936Y14907911D01*
X65458815Y14851185D01*
X65379463Y14754494D01*
X65320498Y14644180D01*
X65284188Y14524482D01*
X65271928Y14400000D01*
X65275000Y14385750D01*
X65433750Y14227000D01*
X65827112Y14227000D01*
X65835311Y14224513D01*
X65910000Y14217157D01*
X66637000Y14217157D01*
X66637000Y13982843D01*
X66604548Y13982843D01*
X66579999Y13985261D01*
X66555450Y13982843D01*
X65910000Y13982843D01*
X65835311Y13975487D01*
X65827112Y13973000D01*
X65433750Y13973000D01*
X65275000Y13814250D01*
X65271928Y13800000D01*
X65284188Y13675518D01*
X65320498Y13555820D01*
X65379463Y13445506D01*
X65458815Y13348815D01*
X65527157Y13292728D01*
X65527157Y13000000D01*
X65534513Y12925311D01*
X65556299Y12853492D01*
X65591678Y12787304D01*
X65639289Y12729289D01*
X65697304Y12681678D01*
X65721579Y12668703D01*
X65753932Y12608174D01*
X65785829Y12569307D01*
X65748542Y12499548D01*
X65701025Y12342904D01*
X65684980Y12180000D01*
X65701025Y12017096D01*
X65748542Y11860452D01*
X65825706Y11716088D01*
X65929552Y11589552D01*
X66056088Y11485706D01*
X66200452Y11408542D01*
X66357096Y11361025D01*
X66479185Y11349000D01*
X66774494Y11349000D01*
X66897297Y11311748D01*
X67070002Y11294739D01*
X67242708Y11311749D01*
X67365506Y11349000D01*
X67660815Y11349000D01*
X67782904Y11361025D01*
X67939548Y11408542D01*
X68083912Y11485706D01*
X68210448Y11589552D01*
X68314294Y11716088D01*
X68391458Y11860452D01*
X68438975Y12017096D01*
X68455020Y12180000D01*
X70004980Y12180000D01*
X70021025Y12017096D01*
X70068542Y11860452D01*
X70145706Y11716088D01*
X70249552Y11589552D01*
X70376088Y11485706D01*
X70520452Y11408542D01*
X70677096Y11361025D01*
X70799185Y11349000D01*
X71680815Y11349000D01*
X71802904Y11361025D01*
X71959548Y11408542D01*
X72103912Y11485706D01*
X72230448Y11589552D01*
X72334294Y11716088D01*
X72411458Y11860452D01*
X72458975Y12017096D01*
X72475020Y12180000D01*
X72458975Y12342904D01*
X72411458Y12499548D01*
X72334294Y12643912D01*
X72230448Y12770448D01*
X72103912Y12874294D01*
X71959548Y12951458D01*
X71802904Y12998975D01*
X71680815Y13011000D01*
X70799185Y13011000D01*
X70677096Y12998975D01*
X70520452Y12951458D01*
X70376088Y12874294D01*
X70249552Y12770448D01*
X70145706Y12643912D01*
X70068542Y12499548D01*
X70021025Y12342904D01*
X70004980Y12180000D01*
X68455020Y12180000D01*
X68438975Y12342904D01*
X68391458Y12499548D01*
X68314294Y12643912D01*
X68210448Y12770448D01*
X68083912Y12874294D01*
X67939548Y12951458D01*
X67876162Y12970686D01*
X67859836Y13001230D01*
X67872574Y13006506D01*
X67984112Y13081033D01*
X68078967Y13175888D01*
X68153494Y13287426D01*
X68204829Y13411360D01*
X68231000Y13542927D01*
X68231000Y13677073D01*
X68204829Y13808640D01*
X68153494Y13932574D01*
X68078967Y14044112D01*
X67984112Y14138967D01*
X67872574Y14213494D01*
X67748640Y14264829D01*
X67617073Y14291000D01*
X67610250Y14291000D01*
X67705000Y14385750D01*
X67708072Y14400000D01*
X67695812Y14524482D01*
X67659502Y14644180D01*
X67600537Y14754494D01*
X67521185Y14851185D01*
X67452064Y14907911D01*
X67445487Y14974689D01*
X67437809Y15000000D01*
X67445487Y15025311D01*
X67452843Y15100000D01*
X67452843Y15400000D01*
X67445487Y15474689D01*
X67437809Y15500000D01*
X67445487Y15525311D01*
X67452843Y15600000D01*
X67452843Y15766079D01*
X67499577Y15780255D01*
X67587481Y15827241D01*
X67664529Y15890473D01*
X67680378Y15909785D01*
X67735216Y15964623D01*
X67754528Y15980472D01*
X67817760Y16057520D01*
X67864746Y16145424D01*
X67893679Y16240806D01*
X67901001Y16315145D01*
X67901001Y16315146D01*
X67903449Y16339999D01*
X67901001Y16364853D01*
X67901001Y17135147D01*
X67903449Y17160001D01*
X67897565Y17219744D01*
X67893679Y17259194D01*
X67864746Y17354576D01*
X67817760Y17442480D01*
X67754528Y17519528D01*
X67735216Y17535377D01*
X67680378Y17590215D01*
X67664529Y17609527D01*
X67587481Y17672759D01*
X67499577Y17719745D01*
X67452843Y17733921D01*
X67452843Y17900000D01*
X67445487Y17974689D01*
X67437809Y18000000D01*
X67445487Y18025311D01*
X67452064Y18092089D01*
X67521185Y18148815D01*
X67600537Y18245506D01*
X67659502Y18355820D01*
X67695812Y18475518D01*
X67708072Y18600000D01*
X67705000Y18614250D01*
X67610250Y18709000D01*
X67617073Y18709000D01*
X67748640Y18735171D01*
X67872574Y18786506D01*
X67984112Y18861033D01*
X68078967Y18955888D01*
X68153494Y19067426D01*
X68204829Y19191360D01*
X68231000Y19322927D01*
X68231000Y19457073D01*
X68204829Y19588640D01*
X68153494Y19712574D01*
X68078967Y19824112D01*
X67984112Y19918967D01*
X67872574Y19993494D01*
X67859836Y19998770D01*
X67876162Y20029314D01*
X67939548Y20048542D01*
X68083912Y20125706D01*
X68210448Y20229552D01*
X68314294Y20356088D01*
X68391458Y20500452D01*
X68438975Y20657096D01*
X68455020Y20820000D01*
X70004980Y20820000D01*
X70021025Y20657096D01*
X70068542Y20500452D01*
X70145706Y20356088D01*
X70249552Y20229552D01*
X70376088Y20125706D01*
X70520452Y20048542D01*
X70677096Y20001025D01*
X70799185Y19989000D01*
X71680815Y19989000D01*
X71802904Y20001025D01*
X71959548Y20048542D01*
X72103912Y20125706D01*
X72230448Y20229552D01*
X72334294Y20356088D01*
X72411458Y20500452D01*
X72458975Y20657096D01*
X72475020Y20820000D01*
X72458975Y20982904D01*
X72411458Y21139548D01*
X72334294Y21283912D01*
X72230448Y21410448D01*
X72103912Y21514294D01*
X71959548Y21591458D01*
X71802904Y21638975D01*
X71680815Y21651000D01*
X70799185Y21651000D01*
X70677096Y21638975D01*
X70520452Y21591458D01*
X70376088Y21514294D01*
X70249552Y21410448D01*
X70145706Y21283912D01*
X70068542Y21139548D01*
X70021025Y20982904D01*
X70004980Y20820000D01*
X68455020Y20820000D01*
X68438975Y20982904D01*
X68391458Y21139548D01*
X68314294Y21283912D01*
X68210448Y21410448D01*
X68083912Y21514294D01*
X67939548Y21591458D01*
X67782904Y21638975D01*
X67660815Y21651000D01*
X67365507Y21651000D01*
X67242705Y21688252D01*
X67070000Y21705262D01*
X66897294Y21688252D01*
X66774492Y21651000D01*
X66479185Y21651000D01*
X66357096Y21638975D01*
X66200452Y21591458D01*
X66056088Y21514294D01*
X65929552Y21410448D01*
X65825706Y21283912D01*
X65748542Y21139548D01*
X65701025Y20982904D01*
X65684980Y20820000D01*
X65701025Y20657096D01*
X65748542Y20500452D01*
X65785829Y20430693D01*
X65753932Y20391826D01*
X65721579Y20331297D01*
X65697304Y20318322D01*
X65639289Y20270711D01*
X65591678Y20212696D01*
X65556299Y20146508D01*
X65534513Y20074689D01*
X65527157Y20000000D01*
X65527157Y19707272D01*
X65458815Y19651185D01*
X65379463Y19554494D01*
X65320498Y19444180D01*
X65284188Y19324482D01*
X65271928Y19200000D01*
X65275000Y19185750D01*
X65433750Y19027000D01*
X65827112Y19027000D01*
X65835311Y19024513D01*
X65910000Y19017157D01*
X66555450Y19017157D01*
X66579999Y19014739D01*
X66604548Y19017157D01*
X66637000Y19017157D01*
X66637000Y18782843D01*
X65910000Y18782843D01*
X65835311Y18775487D01*
X65827112Y18773000D01*
X65433750Y18773000D01*
X65275000Y18614250D01*
X65271928Y18600000D01*
X65284188Y18475518D01*
X65320498Y18355820D01*
X65378748Y18246844D01*
X64506000Y19119591D01*
X64506000Y22042921D01*
X64528967Y22065888D01*
X64603494Y22177426D01*
X64654829Y22301360D01*
X64681000Y22432927D01*
X64681000Y22567073D01*
X64654829Y22698640D01*
X64603494Y22822574D01*
X64528967Y22934112D01*
X64434112Y23028967D01*
X64322574Y23103494D01*
X64198640Y23154829D01*
X64067073Y23181000D01*
X63932927Y23181000D01*
X63801360Y23154829D01*
X63677426Y23103494D01*
X63565888Y23028967D01*
X63471033Y22934112D01*
X63396506Y22822574D01*
X63345171Y22698640D01*
X63319000Y22567073D01*
X63319000Y22432927D01*
X63345171Y22301360D01*
X63396506Y22177426D01*
X63471033Y22065888D01*
X63494001Y22042920D01*
X63494000Y19481589D01*
X63025374Y19950215D01*
X63025369Y19950221D01*
X62986952Y19988638D01*
X62989457Y19994684D01*
X63031000Y20203531D01*
X63031000Y20416469D01*
X62989457Y20625316D01*
X62907969Y20822045D01*
X62789667Y20999097D01*
X62639097Y21149667D01*
X62462045Y21267969D01*
X62265316Y21349457D01*
X62056469Y21391000D01*
X61843531Y21391000D01*
X61634684Y21349457D01*
X61628639Y21346953D01*
X59306001Y23669590D01*
X59306001Y27394284D01*
X59312759Y27402519D01*
X59359745Y27490423D01*
X59373921Y27537157D01*
X59540000Y27537157D01*
X59614689Y27544513D01*
X59640000Y27552191D01*
X59665311Y27544513D01*
X59732089Y27537936D01*
X59788815Y27468815D01*
X59885506Y27389463D01*
X59995820Y27330498D01*
X60115518Y27294188D01*
X60240000Y27281928D01*
X60254250Y27285000D01*
X60413000Y27443750D01*
X60413000Y27837112D01*
X60415487Y27845311D01*
X60422843Y27920000D01*
X60422843Y28647000D01*
X60657157Y28647000D01*
X60657157Y28564550D01*
X60654739Y28540001D01*
X60657157Y28515452D01*
X60657157Y27920000D01*
X60664513Y27845311D01*
X60667000Y27837112D01*
X60667000Y27443750D01*
X60825750Y27285000D01*
X60840000Y27281928D01*
X60964482Y27294188D01*
X61084180Y27330498D01*
X61194494Y27389463D01*
X61291185Y27468815D01*
X61347272Y27537157D01*
X61640000Y27537157D01*
X61714689Y27544513D01*
X61786508Y27566299D01*
X61852696Y27601678D01*
X61910711Y27649289D01*
X61958322Y27707304D01*
X61971297Y27731579D01*
X62031826Y27763932D01*
X62070693Y27795829D01*
X62140452Y27758542D01*
X62297096Y27711025D01*
X62460000Y27694980D01*
X62622903Y27711025D01*
X62779547Y27758542D01*
X62923911Y27835706D01*
X63050448Y27939552D01*
X63154294Y28066088D01*
X63231458Y28210452D01*
X63278975Y28367096D01*
X63291000Y28489185D01*
X63291000Y28784492D01*
X63328252Y28907294D01*
X63345262Y29080000D01*
X63328252Y29252706D01*
X63291000Y29375508D01*
X63291000Y29670815D01*
X63278975Y29792904D01*
X63231458Y29949548D01*
X63154294Y30093912D01*
X63050448Y30220448D01*
X62923912Y30324294D01*
X62779548Y30401458D01*
X62622904Y30448975D01*
X62460000Y30465020D01*
X62297097Y30448975D01*
X62140453Y30401458D01*
X61996089Y30324294D01*
X61869553Y30220448D01*
X61765707Y30093912D01*
X61688543Y29949548D01*
X61659640Y29854267D01*
X61647833Y29847956D01*
X61633494Y29882574D01*
X61558967Y29994112D01*
X61464112Y30088967D01*
X61352574Y30163494D01*
X61228640Y30214829D01*
X61097073Y30241000D01*
X60962927Y30241000D01*
X60831360Y30214829D01*
X60707426Y30163494D01*
X60595888Y30088967D01*
X60501033Y29994112D01*
X60426506Y29882574D01*
X60375171Y29758640D01*
X60349000Y29627073D01*
X60349000Y29620250D01*
X60254250Y29715000D01*
X60240000Y29718072D01*
X60115518Y29705812D01*
X59995820Y29669502D01*
X59885506Y29610537D01*
X59788815Y29531185D01*
X59732089Y29462064D01*
X59665311Y29455487D01*
X59640000Y29447809D01*
X59614689Y29455487D01*
X59540000Y29462843D01*
X59240000Y29462843D01*
X59171708Y29456117D01*
X59534592Y29819000D01*
X59567073Y29819000D01*
X59698640Y29845171D01*
X59822574Y29896506D01*
X59934112Y29971033D01*
X60028967Y30065888D01*
X60103494Y30177426D01*
X60154829Y30301360D01*
X60181000Y30432927D01*
X60181000Y30567073D01*
X60154829Y30698640D01*
X60103494Y30822574D01*
X60028967Y30934112D01*
X59934112Y31028967D01*
X59822574Y31103494D01*
X59698640Y31154829D01*
X59567073Y31181000D01*
X59432927Y31181000D01*
X59301360Y31154829D01*
X59177426Y31103494D01*
X59065888Y31028967D01*
X58971033Y30934112D01*
X58896506Y30822574D01*
X58845171Y30698640D01*
X58819000Y30567073D01*
X58819000Y30534592D01*
X58195410Y29911001D01*
X57509593Y29911001D01*
X56675368Y30745225D01*
X56659519Y30764537D01*
X56582471Y30827769D01*
X56494567Y30874755D01*
X56399185Y30903688D01*
X56324846Y30911010D01*
X56324838Y30911010D01*
X56299992Y30913457D01*
X56275146Y30911010D01*
X45354855Y30911010D01*
X45330009Y30913457D01*
X45305163Y30911010D01*
X45305156Y30911010D01*
X45240704Y30904662D01*
X45230816Y30903688D01*
X45208617Y30896954D01*
X45135435Y30874755D01*
X45047531Y30827769D01*
X44970483Y30764537D01*
X44954638Y30745230D01*
X44574851Y30365442D01*
X44528967Y30434112D01*
X44434112Y30528967D01*
X44322574Y30603494D01*
X44198640Y30654829D01*
X44067073Y30681000D01*
X43932927Y30681000D01*
X43801360Y30654829D01*
X43677426Y30603494D01*
X43565888Y30528967D01*
X43471033Y30434112D01*
X43396506Y30322574D01*
X43345171Y30198640D01*
X43329705Y30120889D01*
X42705368Y30745225D01*
X42689519Y30764537D01*
X42612471Y30827769D01*
X42524567Y30874755D01*
X42429185Y30903688D01*
X42354846Y30911010D01*
X42354838Y30911010D01*
X42329992Y30913457D01*
X42305146Y30911010D01*
X31869864Y30911010D01*
X31845010Y30913458D01*
X31820156Y30911010D01*
X31745817Y30903688D01*
X31650435Y30874755D01*
X31562531Y30827769D01*
X31485483Y30764537D01*
X31469638Y30745230D01*
X30635410Y29911001D01*
X29889593Y29911001D01*
X29055368Y30745225D01*
X29039519Y30764537D01*
X28962471Y30827769D01*
X28874567Y30874755D01*
X28779185Y30903688D01*
X28704846Y30911010D01*
X28704838Y30911010D01*
X28679992Y30913457D01*
X28655146Y30911010D01*
X17414855Y30911010D01*
X17390009Y30913457D01*
X17365163Y30911010D01*
X17365156Y30911010D01*
X17300704Y30904662D01*
X17290816Y30903688D01*
X17268617Y30896954D01*
X17195435Y30874755D01*
X17107531Y30827769D01*
X17030483Y30764537D01*
X17014638Y30745230D01*
X16180410Y29911001D01*
X15579846Y29911001D01*
X15555000Y29913448D01*
X15530154Y29911001D01*
X15530147Y29911001D01*
X15455808Y29903679D01*
X15360426Y29874746D01*
X15272522Y29827760D01*
X15195474Y29764528D01*
X15179625Y29745216D01*
X15139781Y29705372D01*
X15120474Y29689527D01*
X15057242Y29612479D01*
X15049225Y29597480D01*
X15010255Y29524574D01*
X14991530Y29462843D01*
X14830000Y29462843D01*
X14755311Y29455487D01*
X14730000Y29447809D01*
X14704689Y29455487D01*
X14637911Y29462064D01*
X14581185Y29531185D01*
X14484494Y29610537D01*
X14374180Y29669502D01*
X14254482Y29705812D01*
X14130000Y29718072D01*
X14115750Y29715000D01*
X14021000Y29620250D01*
X14021000Y29627073D01*
X13994829Y29758640D01*
X13943494Y29882574D01*
X13868967Y29994112D01*
X13774112Y30088967D01*
X13662574Y30163494D01*
X13538640Y30214829D01*
X13407073Y30241000D01*
X13272927Y30241000D01*
X13141360Y30214829D01*
X13017426Y30163494D01*
X12905888Y30088967D01*
X12811033Y29994112D01*
X12736506Y29882574D01*
X12731230Y29869836D01*
X12700686Y29886161D01*
X12681458Y29949548D01*
X12604294Y30093912D01*
X12500448Y30220448D01*
X12373912Y30324294D01*
X12229548Y30401458D01*
X12072904Y30448975D01*
X11910000Y30465020D01*
X11747097Y30448975D01*
X11590453Y30401458D01*
X11446089Y30324294D01*
X11319553Y30220448D01*
X11215707Y30093912D01*
X11138543Y29949548D01*
X11091026Y29792904D01*
X11079001Y29670815D01*
X11079001Y29375509D01*
X11041749Y29252708D01*
X11024739Y29080002D01*
X406000Y29080002D01*
X406000Y31980147D01*
X427077Y32195111D01*
X2019000Y32195111D01*
X2019000Y31804889D01*
X2095129Y31422164D01*
X2244461Y31061645D01*
X2461257Y30737186D01*
X2737186Y30461257D01*
X3061645Y30244461D01*
X3422164Y30095129D01*
X3804889Y30019000D01*
X4195111Y30019000D01*
X4577836Y30095129D01*
X4938355Y30244461D01*
X5262814Y30461257D01*
X5538743Y30737186D01*
X5755539Y31061645D01*
X5904871Y31422164D01*
X5981000Y31804889D01*
X5981000Y32195111D01*
X5904871Y32577836D01*
X5755539Y32938355D01*
X5538743Y33262814D01*
X5262814Y33538743D01*
X5035222Y33690815D01*
X11079000Y33690815D01*
X11079000Y32809186D01*
X11091025Y32687097D01*
X11138542Y32530453D01*
X11215706Y32386089D01*
X11319552Y32259552D01*
X11446088Y32155706D01*
X11590452Y32078542D01*
X11747096Y32031025D01*
X11910000Y32014980D01*
X12072903Y32031025D01*
X12229547Y32078542D01*
X12373911Y32155706D01*
X12500448Y32259552D01*
X12604294Y32386088D01*
X12681458Y32530452D01*
X12728975Y32687096D01*
X12741000Y32809185D01*
X12741000Y33690815D01*
X19719000Y33690815D01*
X19719000Y32809186D01*
X19731025Y32687097D01*
X19778542Y32530453D01*
X19855706Y32386089D01*
X19959552Y32259552D01*
X20086088Y32155706D01*
X20230452Y32078542D01*
X20387096Y32031025D01*
X20550000Y32014980D01*
X20712903Y32031025D01*
X20869547Y32078542D01*
X21013911Y32155706D01*
X21140448Y32259552D01*
X21244294Y32386088D01*
X21321458Y32530452D01*
X21368975Y32687096D01*
X21381000Y32809185D01*
X21381000Y33690815D01*
X25369000Y33690815D01*
X25369000Y32809186D01*
X25381025Y32687097D01*
X25428542Y32530453D01*
X25505706Y32386089D01*
X25609552Y32259552D01*
X25736088Y32155706D01*
X25880452Y32078542D01*
X26037096Y32031025D01*
X26200000Y32014980D01*
X26362903Y32031025D01*
X26519547Y32078542D01*
X26663911Y32155706D01*
X26790448Y32259552D01*
X26894294Y32386088D01*
X26971458Y32530452D01*
X27018975Y32687096D01*
X27031000Y32809185D01*
X27031000Y33690815D01*
X34009000Y33690815D01*
X34009000Y32809186D01*
X34021025Y32687097D01*
X34068542Y32530453D01*
X34145706Y32386089D01*
X34249552Y32259552D01*
X34376088Y32155706D01*
X34520452Y32078542D01*
X34677096Y32031025D01*
X34840000Y32014980D01*
X35002903Y32031025D01*
X35159547Y32078542D01*
X35303911Y32155706D01*
X35430448Y32259552D01*
X35534294Y32386088D01*
X35611458Y32530452D01*
X35658975Y32687096D01*
X35671000Y32809185D01*
X35671000Y33690815D01*
X39019000Y33690815D01*
X39019000Y32809186D01*
X39031025Y32687097D01*
X39078542Y32530453D01*
X39155706Y32386089D01*
X39259552Y32259552D01*
X39386088Y32155706D01*
X39530452Y32078542D01*
X39687096Y32031025D01*
X39850000Y32014980D01*
X40012903Y32031025D01*
X40169547Y32078542D01*
X40313911Y32155706D01*
X40440448Y32259552D01*
X40544294Y32386088D01*
X40621458Y32530452D01*
X40668975Y32687096D01*
X40681000Y32809185D01*
X40681000Y33690815D01*
X47659000Y33690815D01*
X47659000Y32809186D01*
X47671025Y32687097D01*
X47718542Y32530453D01*
X47795706Y32386089D01*
X47899552Y32259552D01*
X48026088Y32155706D01*
X48170452Y32078542D01*
X48327096Y32031025D01*
X48490000Y32014980D01*
X48652903Y32031025D01*
X48809547Y32078542D01*
X48953911Y32155706D01*
X49080448Y32259552D01*
X49184294Y32386088D01*
X49261458Y32530452D01*
X49308975Y32687096D01*
X49321000Y32809185D01*
X49321000Y33690815D01*
X52989000Y33690815D01*
X52989000Y32809186D01*
X53001025Y32687097D01*
X53048542Y32530453D01*
X53125706Y32386089D01*
X53229552Y32259552D01*
X53356088Y32155706D01*
X53500452Y32078542D01*
X53657096Y32031025D01*
X53820000Y32014980D01*
X53982903Y32031025D01*
X54139547Y32078542D01*
X54283911Y32155706D01*
X54410448Y32259552D01*
X54514294Y32386088D01*
X54591458Y32530452D01*
X54638975Y32687096D01*
X54651000Y32809185D01*
X54651000Y33690815D01*
X61629000Y33690815D01*
X61629000Y32809186D01*
X61641025Y32687097D01*
X61688542Y32530453D01*
X61765706Y32386089D01*
X61869552Y32259552D01*
X61996088Y32155706D01*
X62140452Y32078542D01*
X62297096Y32031025D01*
X62460000Y32014980D01*
X62622903Y32031025D01*
X62779547Y32078542D01*
X62923911Y32155706D01*
X62971926Y32195111D01*
X68019000Y32195111D01*
X68019000Y31804889D01*
X68095129Y31422164D01*
X68244461Y31061645D01*
X68461257Y30737186D01*
X68737186Y30461257D01*
X69061645Y30244461D01*
X69422164Y30095129D01*
X69804889Y30019000D01*
X70195111Y30019000D01*
X70577836Y30095129D01*
X70938355Y30244461D01*
X71262814Y30461257D01*
X71538743Y30737186D01*
X71755539Y31061645D01*
X71904871Y31422164D01*
X71981000Y31804889D01*
X71981000Y32195111D01*
X71904871Y32577836D01*
X71755539Y32938355D01*
X71538743Y33262814D01*
X71262814Y33538743D01*
X70938355Y33755539D01*
X70577836Y33904871D01*
X70195111Y33981000D01*
X69804889Y33981000D01*
X69422164Y33904871D01*
X69061645Y33755539D01*
X68737186Y33538743D01*
X68461257Y33262814D01*
X68244461Y32938355D01*
X68095129Y32577836D01*
X68019000Y32195111D01*
X62971926Y32195111D01*
X63050448Y32259552D01*
X63154294Y32386088D01*
X63231458Y32530452D01*
X63278975Y32687096D01*
X63291000Y32809185D01*
X63291000Y33690815D01*
X63278975Y33812904D01*
X63231458Y33969548D01*
X63154294Y34113912D01*
X63050448Y34240448D01*
X62923912Y34344294D01*
X62779548Y34421458D01*
X62622904Y34468975D01*
X62460000Y34485020D01*
X62297097Y34468975D01*
X62140453Y34421458D01*
X61996089Y34344294D01*
X61869553Y34240448D01*
X61765707Y34113912D01*
X61688543Y33969548D01*
X61641026Y33812904D01*
X61629000Y33690815D01*
X54651000Y33690815D01*
X54638975Y33812904D01*
X54591458Y33969548D01*
X54514294Y34113912D01*
X54410448Y34240448D01*
X54283912Y34344294D01*
X54139548Y34421458D01*
X53982904Y34468975D01*
X53820000Y34485020D01*
X53657097Y34468975D01*
X53500453Y34421458D01*
X53356089Y34344294D01*
X53229553Y34240448D01*
X53125707Y34113912D01*
X53048543Y33969548D01*
X53001026Y33812904D01*
X52989000Y33690815D01*
X49321000Y33690815D01*
X49308975Y33812904D01*
X49261458Y33969548D01*
X49184294Y34113912D01*
X49080448Y34240448D01*
X48953912Y34344294D01*
X48809548Y34421458D01*
X48652904Y34468975D01*
X48490000Y34485020D01*
X48327097Y34468975D01*
X48170453Y34421458D01*
X48026089Y34344294D01*
X47899553Y34240448D01*
X47795707Y34113912D01*
X47718543Y33969548D01*
X47671026Y33812904D01*
X47659000Y33690815D01*
X40681000Y33690815D01*
X40668975Y33812904D01*
X40621458Y33969548D01*
X40544294Y34113912D01*
X40440448Y34240448D01*
X40313912Y34344294D01*
X40169548Y34421458D01*
X40012904Y34468975D01*
X39850000Y34485020D01*
X39687097Y34468975D01*
X39530453Y34421458D01*
X39386089Y34344294D01*
X39259553Y34240448D01*
X39155707Y34113912D01*
X39078543Y33969548D01*
X39031026Y33812904D01*
X39019000Y33690815D01*
X35671000Y33690815D01*
X35658975Y33812904D01*
X35611458Y33969548D01*
X35534294Y34113912D01*
X35430448Y34240448D01*
X35303912Y34344294D01*
X35159548Y34421458D01*
X35002904Y34468975D01*
X34840000Y34485020D01*
X34677097Y34468975D01*
X34520453Y34421458D01*
X34376089Y34344294D01*
X34249553Y34240448D01*
X34145707Y34113912D01*
X34068543Y33969548D01*
X34021026Y33812904D01*
X34009000Y33690815D01*
X27031000Y33690815D01*
X27018975Y33812904D01*
X26971458Y33969548D01*
X26894294Y34113912D01*
X26790448Y34240448D01*
X26663912Y34344294D01*
X26519548Y34421458D01*
X26362904Y34468975D01*
X26200000Y34485020D01*
X26037097Y34468975D01*
X25880453Y34421458D01*
X25736089Y34344294D01*
X25609553Y34240448D01*
X25505707Y34113912D01*
X25428543Y33969548D01*
X25381026Y33812904D01*
X25369000Y33690815D01*
X21381000Y33690815D01*
X21368975Y33812904D01*
X21321458Y33969548D01*
X21244294Y34113912D01*
X21140448Y34240448D01*
X21013912Y34344294D01*
X20869548Y34421458D01*
X20712904Y34468975D01*
X20550000Y34485020D01*
X20387097Y34468975D01*
X20230453Y34421458D01*
X20086089Y34344294D01*
X19959553Y34240448D01*
X19855707Y34113912D01*
X19778543Y33969548D01*
X19731026Y33812904D01*
X19719000Y33690815D01*
X12741000Y33690815D01*
X12728975Y33812904D01*
X12681458Y33969548D01*
X12604294Y34113912D01*
X12500448Y34240448D01*
X12373912Y34344294D01*
X12229548Y34421458D01*
X12072904Y34468975D01*
X11910000Y34485020D01*
X11747097Y34468975D01*
X11590453Y34421458D01*
X11446089Y34344294D01*
X11319553Y34240448D01*
X11215707Y34113912D01*
X11138543Y33969548D01*
X11091026Y33812904D01*
X11079000Y33690815D01*
X5035222Y33690815D01*
X4938355Y33755539D01*
X4577836Y33904871D01*
X4195111Y33981000D01*
X3804889Y33981000D01*
X3422164Y33904871D01*
X3061645Y33755539D01*
X2737186Y33538743D01*
X2461257Y33262814D01*
X2244461Y32938355D01*
X2095129Y32577836D01*
X2019000Y32195111D01*
X427077Y32195111D01*
X476356Y32697696D01*
X678982Y33368824D01*
X1008102Y33987810D01*
X1451184Y34531084D01*
X1991347Y34977946D01*
X2608022Y35311381D01*
X3277716Y35518686D01*
X3994053Y35593976D01*
X4000834Y35594000D01*
X69980147Y35594000D01*
X70697696Y35523644D01*
%TA.AperFunction,Conductor*%
D27*
G36*
X70697696Y35523644D02*
G01*
X71368824Y35321018D01*
X71987810Y34991898D01*
X72531084Y34548816D01*
X72977946Y34008653D01*
X73311381Y33391978D01*
X73518686Y32722284D01*
X73593976Y32005947D01*
X73594000Y31999166D01*
X73594001Y4019864D01*
X73523644Y3302304D01*
X73321017Y2631172D01*
X72991896Y2012186D01*
X72548815Y1468916D01*
X72008652Y1022054D01*
X71391977Y688619D01*
X70722284Y481314D01*
X70005947Y406024D01*
X69999166Y406000D01*
X4019854Y406000D01*
X3302304Y476356D01*
X2631172Y678983D01*
X2012186Y1008104D01*
X1468916Y1451185D01*
X1022054Y1991348D01*
X688619Y2608023D01*
X481314Y3277716D01*
X406024Y3994053D01*
X406000Y4000834D01*
X406000Y4195111D01*
X2019000Y4195111D01*
X2019000Y3804889D01*
X2095129Y3422164D01*
X2244461Y3061645D01*
X2461257Y2737186D01*
X2737186Y2461257D01*
X3061645Y2244461D01*
X3422164Y2095129D01*
X3804889Y2019000D01*
X4195111Y2019000D01*
X4577836Y2095129D01*
X4938355Y2244461D01*
X5262814Y2461257D01*
X5538743Y2737186D01*
X5755539Y3061645D01*
X5904871Y3422164D01*
X5981000Y3804889D01*
X5981000Y4195111D01*
X68019000Y4195111D01*
X68019000Y3804889D01*
X68095129Y3422164D01*
X68244461Y3061645D01*
X68461257Y2737186D01*
X68737186Y2461257D01*
X69061645Y2244461D01*
X69422164Y2095129D01*
X69804889Y2019000D01*
X70195111Y2019000D01*
X70577836Y2095129D01*
X70938355Y2244461D01*
X71262814Y2461257D01*
X71538743Y2737186D01*
X71755539Y3061645D01*
X71904871Y3422164D01*
X71981000Y3804889D01*
X71981000Y4195111D01*
X71904871Y4577836D01*
X71755539Y4938355D01*
X71538743Y5262814D01*
X71262814Y5538743D01*
X70938355Y5755539D01*
X70577836Y5904871D01*
X70195111Y5981000D01*
X69804889Y5981000D01*
X69422164Y5904871D01*
X69061645Y5755539D01*
X68737186Y5538743D01*
X68461257Y5262814D01*
X68244461Y4938355D01*
X68095129Y4577836D01*
X68019000Y4195111D01*
X5981000Y4195111D01*
X5904871Y4577836D01*
X5755539Y4938355D01*
X5538743Y5262814D01*
X5262814Y5538743D01*
X4938355Y5755539D01*
X4577836Y5904871D01*
X4195111Y5981000D01*
X3804889Y5981000D01*
X3422164Y5904871D01*
X3061645Y5755539D01*
X2737186Y5538743D01*
X2461257Y5262814D01*
X2244461Y4938355D01*
X2095129Y4577836D01*
X2019000Y4195111D01*
X406000Y4195111D01*
X406000Y12180000D01*
X1524980Y12180000D01*
X1541025Y12017096D01*
X1588542Y11860452D01*
X1665706Y11716088D01*
X1769552Y11589552D01*
X1896088Y11485706D01*
X2040452Y11408542D01*
X2197096Y11361025D01*
X2319185Y11349000D01*
X3200815Y11349000D01*
X3322904Y11361025D01*
X3479548Y11408542D01*
X3623912Y11485706D01*
X3750448Y11589552D01*
X3854294Y11716088D01*
X3931458Y11860452D01*
X3978975Y12017096D01*
X3995020Y12180000D01*
X3978975Y12342904D01*
X3931458Y12499548D01*
X3854294Y12643912D01*
X3750448Y12770448D01*
X3623912Y12874294D01*
X3479548Y12951458D01*
X3322904Y12998975D01*
X3200815Y13011000D01*
X2319185Y13011000D01*
X2197096Y12998975D01*
X2040452Y12951458D01*
X1896088Y12874294D01*
X1769552Y12770448D01*
X1665706Y12643912D01*
X1588542Y12499548D01*
X1541025Y12342904D01*
X1524980Y12180000D01*
X406000Y12180000D01*
X406000Y20820000D01*
X1524980Y20820000D01*
X1541025Y20657096D01*
X1588542Y20500452D01*
X1665706Y20356088D01*
X1769552Y20229552D01*
X1896088Y20125706D01*
X2040452Y20048542D01*
X2197096Y20001025D01*
X2319185Y19989000D01*
X3200815Y19989000D01*
X3322904Y20001025D01*
X3479548Y20048542D01*
X3623912Y20125706D01*
X3750448Y20229552D01*
X3854294Y20356088D01*
X3931458Y20500452D01*
X3978975Y20657096D01*
X3995020Y20820000D01*
X3978975Y20982904D01*
X3931458Y21139548D01*
X3930672Y21141019D01*
X5096543Y21141019D01*
X5098991Y21116163D01*
X5098990Y17919856D01*
X5096543Y17895010D01*
X5098990Y17870164D01*
X5098990Y17870157D01*
X5106312Y17795818D01*
X5135245Y17700436D01*
X5182231Y17612531D01*
X5245463Y17535483D01*
X5264775Y17519634D01*
X6098999Y16685409D01*
X6098999Y16684847D01*
X6096552Y16660001D01*
X6098999Y16635155D01*
X6098999Y16635148D01*
X6099000Y16635138D01*
X6098999Y15864846D01*
X6096552Y15839999D01*
X6098999Y15815153D01*
X6098999Y15815146D01*
X6106321Y15740807D01*
X6135254Y15645425D01*
X6182240Y15557520D01*
X6245472Y15480472D01*
X6264784Y15464623D01*
X6319622Y15409785D01*
X6335471Y15390473D01*
X6412519Y15327241D01*
X6500423Y15280255D01*
X6547157Y15266079D01*
X6547157Y15100000D01*
X6554513Y15025311D01*
X6562191Y15000000D01*
X6554513Y14974689D01*
X6547936Y14907911D01*
X6478815Y14851185D01*
X6399463Y14754494D01*
X6340498Y14644180D01*
X6304188Y14524482D01*
X6291928Y14400000D01*
X6295000Y14385750D01*
X6389750Y14291000D01*
X6382927Y14291000D01*
X6251360Y14264829D01*
X6127426Y14213494D01*
X6015888Y14138967D01*
X5921033Y14044112D01*
X5846506Y13932574D01*
X5795171Y13808640D01*
X5769000Y13677073D01*
X5769000Y13542927D01*
X5795171Y13411360D01*
X5846506Y13287426D01*
X5921033Y13175888D01*
X6015888Y13081033D01*
X6127426Y13006506D01*
X6140164Y13001230D01*
X6123839Y12970686D01*
X6060452Y12951458D01*
X5916088Y12874294D01*
X5789552Y12770448D01*
X5685706Y12643912D01*
X5608542Y12499548D01*
X5561025Y12342904D01*
X5544980Y12180000D01*
X5561025Y12017096D01*
X5608542Y11860452D01*
X5685706Y11716088D01*
X5789552Y11589552D01*
X5916088Y11485706D01*
X6060452Y11408542D01*
X6217096Y11361025D01*
X6339185Y11349000D01*
X6634494Y11349000D01*
X6757292Y11311749D01*
X6929998Y11294739D01*
X7102703Y11311748D01*
X7225506Y11349000D01*
X7520815Y11349000D01*
X7642904Y11361025D01*
X7799548Y11408542D01*
X7943912Y11485706D01*
X8070448Y11589552D01*
X8174294Y11716088D01*
X8251458Y11860452D01*
X8298975Y12017096D01*
X8315020Y12180000D01*
X8298975Y12342904D01*
X8251458Y12499548D01*
X8214171Y12569307D01*
X8246068Y12608174D01*
X8278421Y12668703D01*
X8302696Y12681678D01*
X8360711Y12729289D01*
X8408322Y12787304D01*
X8443701Y12853492D01*
X8465487Y12925311D01*
X8472843Y13000000D01*
X8472843Y13292728D01*
X8541185Y13348815D01*
X8620537Y13445506D01*
X8679502Y13555820D01*
X8715812Y13675518D01*
X8728072Y13800000D01*
X8725000Y13814250D01*
X8566250Y13973000D01*
X8172888Y13973000D01*
X8164689Y13975487D01*
X8090000Y13982843D01*
X7444550Y13982843D01*
X7420001Y13985261D01*
X7395452Y13982843D01*
X7363000Y13982843D01*
X7363000Y14217157D01*
X8090000Y14217157D01*
X8164689Y14224513D01*
X8172888Y14227000D01*
X8566250Y14227000D01*
X8725000Y14385750D01*
X8728072Y14400000D01*
X8715812Y14524482D01*
X8679502Y14644180D01*
X8620537Y14754494D01*
X8541185Y14851185D01*
X8472064Y14907911D01*
X8465487Y14974689D01*
X8457809Y15000000D01*
X8465487Y15025311D01*
X8472843Y15100000D01*
X8472843Y15400000D01*
X8465487Y15474689D01*
X8457809Y15500000D01*
X8465487Y15525311D01*
X8472843Y15600000D01*
X8472843Y15766079D01*
X8519577Y15780255D01*
X8607481Y15827241D01*
X8684529Y15890473D01*
X8700378Y15909785D01*
X8755216Y15964623D01*
X8774528Y15980472D01*
X8837760Y16057520D01*
X8884746Y16145424D01*
X8913679Y16240806D01*
X8921001Y16315145D01*
X8921001Y16315146D01*
X8923449Y16339999D01*
X8921001Y16364853D01*
X8921001Y16773104D01*
X8944575Y16780255D01*
X9032479Y16827241D01*
X9109527Y16890473D01*
X9125376Y16909785D01*
X9875370Y17659778D01*
X9875374Y17659783D01*
X10034591Y17819000D01*
X10067073Y17819000D01*
X10198640Y17845171D01*
X10322574Y17896506D01*
X10434112Y17971033D01*
X10528967Y18065888D01*
X10603494Y18177426D01*
X10654829Y18301360D01*
X10681000Y18432927D01*
X10681000Y18567073D01*
X10654829Y18698640D01*
X10603494Y18822574D01*
X10528967Y18934112D01*
X10434112Y19028967D01*
X10322574Y19103494D01*
X10198640Y19154829D01*
X10067073Y19181000D01*
X9932927Y19181000D01*
X9801360Y19154829D01*
X9677426Y19103494D01*
X9565888Y19028967D01*
X9471033Y18934112D01*
X9396506Y18822574D01*
X9345171Y18698640D01*
X9319000Y18567073D01*
X9319000Y18534591D01*
X9159783Y18375374D01*
X9159778Y18375370D01*
X8540409Y17756000D01*
X8472843Y17756000D01*
X8472843Y17900000D01*
X8465487Y17974689D01*
X8457809Y18000000D01*
X8465487Y18025311D01*
X8472064Y18092089D01*
X8541185Y18148815D01*
X8620537Y18245506D01*
X8679502Y18355820D01*
X8715812Y18475518D01*
X8728072Y18600000D01*
X8725000Y18614250D01*
X8566250Y18773000D01*
X8172888Y18773000D01*
X8164689Y18775487D01*
X8090000Y18782843D01*
X7363000Y18782843D01*
X7363000Y19017157D01*
X7395452Y19017157D01*
X7420001Y19014739D01*
X7444550Y19017157D01*
X8090000Y19017157D01*
X8164689Y19024513D01*
X8172888Y19027000D01*
X8566250Y19027000D01*
X8725000Y19185750D01*
X8728072Y19200000D01*
X8715812Y19324482D01*
X8679502Y19444180D01*
X8620537Y19554494D01*
X8541185Y19651185D01*
X8472843Y19707272D01*
X8472843Y20000000D01*
X8465487Y20074689D01*
X8443701Y20146508D01*
X8408322Y20212696D01*
X8360711Y20270711D01*
X8302696Y20318322D01*
X8278421Y20331297D01*
X8246068Y20391826D01*
X8214171Y20430693D01*
X8251458Y20500452D01*
X8298975Y20657096D01*
X8315020Y20820000D01*
X8298975Y20982904D01*
X8251458Y21139548D01*
X8240527Y21160000D01*
X46767157Y21160000D01*
X46767157Y19460000D01*
X46774513Y19385311D01*
X46796299Y19313492D01*
X46831678Y19247304D01*
X46879289Y19189289D01*
X46937304Y19141678D01*
X47003492Y19106299D01*
X47075311Y19084513D01*
X47150000Y19077157D01*
X48850000Y19077157D01*
X48924689Y19084513D01*
X48996508Y19106299D01*
X49062696Y19141678D01*
X49120711Y19189289D01*
X49168322Y19247304D01*
X49203701Y19313492D01*
X49225487Y19385311D01*
X49232843Y19460000D01*
X49232843Y20431243D01*
X49309000Y20431243D01*
X49309000Y20188757D01*
X49356307Y19950931D01*
X49449102Y19726903D01*
X49583820Y19525283D01*
X49755283Y19353820D01*
X49956903Y19219102D01*
X50180931Y19126307D01*
X50418757Y19079000D01*
X50661243Y19079000D01*
X50899069Y19126307D01*
X51123097Y19219102D01*
X51324717Y19353820D01*
X51496180Y19525283D01*
X51630898Y19726903D01*
X51662832Y19804000D01*
X55909527Y19804000D01*
X55912031Y19797955D01*
X56030333Y19620903D01*
X56180903Y19470333D01*
X56357955Y19352031D01*
X56554684Y19270543D01*
X56763531Y19229000D01*
X56976469Y19229000D01*
X57185316Y19270543D01*
X57382045Y19352031D01*
X57559097Y19470333D01*
X57709667Y19620903D01*
X57827969Y19797955D01*
X57909457Y19994684D01*
X57951000Y20203531D01*
X57951000Y20416469D01*
X57909457Y20625316D01*
X57827969Y20822045D01*
X57709667Y20999097D01*
X57559097Y21149667D01*
X57382045Y21267969D01*
X57185316Y21349457D01*
X56976469Y21391000D01*
X56763531Y21391000D01*
X56554684Y21349457D01*
X56357955Y21267969D01*
X56180903Y21149667D01*
X56030333Y20999097D01*
X55912031Y20822045D01*
X55909527Y20816000D01*
X51662832Y20816000D01*
X51630898Y20893097D01*
X51496180Y21094717D01*
X51324717Y21266180D01*
X51123097Y21400898D01*
X50899069Y21493693D01*
X50661243Y21541000D01*
X50418757Y21541000D01*
X50180931Y21493693D01*
X49956903Y21400898D01*
X49755283Y21266180D01*
X49583820Y21094717D01*
X49449102Y20893097D01*
X49356307Y20669069D01*
X49309000Y20431243D01*
X49232843Y20431243D01*
X49232843Y21160000D01*
X49225487Y21234689D01*
X49203701Y21306508D01*
X49168322Y21372696D01*
X49120711Y21430711D01*
X49062696Y21478322D01*
X48996508Y21513701D01*
X48924689Y21535487D01*
X48850000Y21542843D01*
X47150000Y21542843D01*
X47075311Y21535487D01*
X47003492Y21513701D01*
X46937304Y21478322D01*
X46879289Y21430711D01*
X46831678Y21372696D01*
X46796299Y21306508D01*
X46774513Y21234689D01*
X46767157Y21160000D01*
X8240527Y21160000D01*
X8174294Y21283912D01*
X8070448Y21410448D01*
X7943912Y21514294D01*
X7799548Y21591458D01*
X7642904Y21638975D01*
X7520815Y21651000D01*
X7225506Y21651000D01*
X7102703Y21688252D01*
X6929998Y21705261D01*
X6879889Y21700326D01*
X8840220Y23660656D01*
X8859527Y23676501D01*
X8922759Y23753549D01*
X8969745Y23841453D01*
X8998678Y23936835D01*
X9006000Y24011174D01*
X9008448Y24036028D01*
X9006000Y24060882D01*
X9006000Y26542921D01*
X9028967Y26565888D01*
X9103494Y26677426D01*
X9154829Y26801360D01*
X9181000Y26932927D01*
X9181000Y27067073D01*
X9154829Y27198640D01*
X9103494Y27322574D01*
X9028967Y27434112D01*
X8934112Y27528967D01*
X8822574Y27603494D01*
X8698640Y27654829D01*
X8567073Y27681000D01*
X8432927Y27681000D01*
X8301360Y27654829D01*
X8177426Y27603494D01*
X8065888Y27528967D01*
X7971033Y27434112D01*
X7896506Y27322574D01*
X7845171Y27198640D01*
X7819000Y27067073D01*
X7819000Y26932927D01*
X7845171Y26801360D01*
X7896506Y26677426D01*
X7971033Y26565888D01*
X7994000Y26542921D01*
X7994001Y24245621D01*
X5718772Y21970391D01*
X5699454Y21954537D01*
X5683607Y21935227D01*
X5264766Y21516386D01*
X5245464Y21500546D01*
X5229624Y21481245D01*
X5229620Y21481241D01*
X5182232Y21423498D01*
X5135246Y21335594D01*
X5106312Y21240212D01*
X5096543Y21141019D01*
X3930672Y21141019D01*
X3854294Y21283912D01*
X3750448Y21410448D01*
X3623912Y21514294D01*
X3479548Y21591458D01*
X3322904Y21638975D01*
X3200815Y21651000D01*
X2319185Y21651000D01*
X2197096Y21638975D01*
X2040452Y21591458D01*
X1896088Y21514294D01*
X1769552Y21410448D01*
X1665706Y21283912D01*
X1588542Y21139548D01*
X1541025Y20982904D01*
X1524980Y20820000D01*
X406000Y20820000D01*
X406000Y29080002D01*
X11024739Y29080002D01*
X11041748Y28907297D01*
X11079000Y28784493D01*
X11079000Y28489186D01*
X11091025Y28367097D01*
X11138542Y28210453D01*
X11215706Y28066089D01*
X11319552Y27939552D01*
X11446088Y27835706D01*
X11590452Y27758542D01*
X11747096Y27711025D01*
X11910000Y27694980D01*
X12072903Y27711025D01*
X12229547Y27758542D01*
X12299307Y27795829D01*
X12338175Y27763932D01*
X12398702Y27731580D01*
X12411678Y27707304D01*
X12459289Y27649289D01*
X12517304Y27601678D01*
X12583492Y27566299D01*
X12655311Y27544513D01*
X12730000Y27537157D01*
X13022728Y27537157D01*
X13078815Y27468815D01*
X13175506Y27389463D01*
X13285820Y27330498D01*
X13405518Y27294188D01*
X13530000Y27281928D01*
X13544250Y27285000D01*
X13703000Y27443750D01*
X13703000Y27837112D01*
X13705487Y27845311D01*
X13712843Y27920000D01*
X13712843Y28565450D01*
X13715261Y28589999D01*
X13712843Y28614548D01*
X13712843Y28647000D01*
X13947157Y28647000D01*
X13947157Y27920000D01*
X13954513Y27845311D01*
X13957000Y27837112D01*
X13957000Y27443750D01*
X13969273Y27431477D01*
X13896506Y27322574D01*
X13845171Y27198640D01*
X13819000Y27067073D01*
X13819000Y26932927D01*
X13845171Y26801360D01*
X13896506Y26677426D01*
X13971033Y26565888D01*
X14065888Y26471033D01*
X14177426Y26396506D01*
X14301360Y26345171D01*
X14432927Y26319000D01*
X14567073Y26319000D01*
X14698640Y26345171D01*
X14822574Y26396506D01*
X14825814Y26398671D01*
X14845171Y26301360D01*
X14896506Y26177426D01*
X14971033Y26065888D01*
X15065888Y25971033D01*
X15177426Y25896506D01*
X15301360Y25845171D01*
X15432927Y25819000D01*
X15567073Y25819000D01*
X15698640Y25845171D01*
X15822574Y25896506D01*
X15934112Y25971033D01*
X16028967Y26065888D01*
X16103494Y26177426D01*
X16154829Y26301360D01*
X16181000Y26432927D01*
X16181000Y26567073D01*
X16154829Y26698640D01*
X16103494Y26822574D01*
X16049855Y26902851D01*
X16189592Y27042588D01*
X16741821Y27042588D01*
X16819000Y26965409D01*
X16819000Y26932927D01*
X16845171Y26801360D01*
X16896506Y26677426D01*
X16971033Y26565888D01*
X17065888Y26471033D01*
X17177426Y26396506D01*
X17301360Y26345171D01*
X17432927Y26319000D01*
X17567073Y26319000D01*
X17698640Y26345171D01*
X17822574Y26396506D01*
X17934112Y26471033D01*
X18028967Y26565888D01*
X18103494Y26677426D01*
X18154829Y26801360D01*
X18181000Y26932927D01*
X18181000Y27067073D01*
X18154829Y27198640D01*
X18103494Y27322574D01*
X18101346Y27325788D01*
X18205518Y27294188D01*
X18330000Y27281928D01*
X18344250Y27285000D01*
X18503000Y27443750D01*
X18503000Y27837112D01*
X18505487Y27845311D01*
X18512843Y27920000D01*
X18512843Y28647000D01*
X18747157Y28647000D01*
X18747157Y28524550D01*
X18744739Y28500000D01*
X18747157Y28475450D01*
X18747157Y27920000D01*
X18754513Y27845311D01*
X18757000Y27837112D01*
X18757000Y27443750D01*
X18915750Y27285000D01*
X18930000Y27281928D01*
X19054482Y27294188D01*
X19174180Y27330498D01*
X19284494Y27389463D01*
X19381185Y27468815D01*
X19437272Y27537157D01*
X19730000Y27537157D01*
X19804689Y27544513D01*
X19876508Y27566299D01*
X19942696Y27601678D01*
X19963045Y27618378D01*
X20000000Y27614738D01*
X20043270Y27619000D01*
X20043273Y27619000D01*
X20172706Y27631748D01*
X20338775Y27682125D01*
X20391949Y27710547D01*
X20550000Y27694980D01*
X20712903Y27711025D01*
X20869547Y27758542D01*
X21013911Y27835706D01*
X21140448Y27939552D01*
X21244294Y28066088D01*
X21321458Y28210452D01*
X21368975Y28367096D01*
X21381000Y28489185D01*
X21381000Y28754493D01*
X21418252Y28877295D01*
X21431000Y29006728D01*
X21431000Y29006729D01*
X21435262Y29049999D01*
X21431000Y29093269D01*
X21431000Y29123273D01*
X21418252Y29252706D01*
X21381000Y29375508D01*
X21381000Y29670815D01*
X21368975Y29792904D01*
X21336788Y29899010D01*
X25413213Y29899010D01*
X25381026Y29792904D01*
X25369001Y29670815D01*
X25369001Y29375509D01*
X25331749Y29252708D01*
X25314739Y29080002D01*
X25331748Y28907297D01*
X25369000Y28784493D01*
X25369000Y28489186D01*
X25381025Y28367097D01*
X25428542Y28210453D01*
X25505706Y28066089D01*
X25609552Y27939552D01*
X25736088Y27835706D01*
X25880452Y27758542D01*
X26037096Y27711025D01*
X26200000Y27694980D01*
X26362903Y27711025D01*
X26519547Y27758542D01*
X26589307Y27795829D01*
X26628175Y27763932D01*
X26688702Y27731580D01*
X26701678Y27707304D01*
X26749289Y27649289D01*
X26807304Y27601678D01*
X26873492Y27566299D01*
X26945311Y27544513D01*
X27020000Y27537157D01*
X27312728Y27537157D01*
X27368815Y27468815D01*
X27465506Y27389463D01*
X27575820Y27330498D01*
X27695518Y27294188D01*
X27820000Y27281928D01*
X27834250Y27285000D01*
X27993000Y27443750D01*
X27993000Y27837112D01*
X27995487Y27845311D01*
X28002843Y27920000D01*
X28002843Y28565450D01*
X28005261Y28589999D01*
X28002843Y28614548D01*
X28002843Y28647000D01*
X28237157Y28647000D01*
X28237157Y27920000D01*
X28244513Y27845311D01*
X28247000Y27837112D01*
X28247000Y27443750D01*
X28405750Y27285000D01*
X28420000Y27281928D01*
X28544482Y27294188D01*
X28664180Y27330498D01*
X28774494Y27389463D01*
X28871185Y27468815D01*
X28927911Y27537936D01*
X28994689Y27544513D01*
X29020000Y27552191D01*
X29045311Y27544513D01*
X29083522Y27540750D01*
X29065888Y27528967D01*
X28971033Y27434112D01*
X28896506Y27322574D01*
X28845171Y27198640D01*
X28819000Y27067073D01*
X28819000Y26932927D01*
X28845171Y26801360D01*
X28896506Y26677426D01*
X28971033Y26565888D01*
X29065888Y26471033D01*
X29177426Y26396506D01*
X29301360Y26345171D01*
X29432927Y26319000D01*
X29567073Y26319000D01*
X29698640Y26345171D01*
X29822574Y26396506D01*
X29934112Y26471033D01*
X30028967Y26565888D01*
X30103494Y26677426D01*
X30154829Y26801360D01*
X30181000Y26932927D01*
X30181000Y26965409D01*
X30307330Y27091739D01*
X30335145Y27088999D01*
X30359999Y27086551D01*
X30384853Y27088999D01*
X31155155Y27088999D01*
X31180001Y27086552D01*
X31196256Y27088153D01*
X31319000Y26965409D01*
X31319000Y26932927D01*
X31345171Y26801360D01*
X31396506Y26677426D01*
X31471033Y26565888D01*
X31565888Y26471033D01*
X31677426Y26396506D01*
X31801360Y26345171D01*
X31932927Y26319000D01*
X32067073Y26319000D01*
X32198640Y26345171D01*
X32322574Y26396506D01*
X32434112Y26471033D01*
X32528967Y26565888D01*
X32603494Y26677426D01*
X32654829Y26801360D01*
X32681000Y26932927D01*
X32681000Y27067073D01*
X32654829Y27198640D01*
X32620303Y27281993D01*
X32634250Y27285000D01*
X32793000Y27443750D01*
X32793000Y27837112D01*
X32795487Y27845311D01*
X32802843Y27920000D01*
X32802843Y28647000D01*
X33037157Y28647000D01*
X33037157Y28614548D01*
X33034739Y28589999D01*
X33037157Y28565450D01*
X33037157Y27920000D01*
X33044513Y27845311D01*
X33047000Y27837112D01*
X33047000Y27443750D01*
X33205750Y27285000D01*
X33220000Y27281928D01*
X33344482Y27294188D01*
X33464180Y27330498D01*
X33574494Y27389463D01*
X33671185Y27468815D01*
X33727272Y27537157D01*
X34020000Y27537157D01*
X34094689Y27544513D01*
X34166508Y27566299D01*
X34232696Y27601678D01*
X34290711Y27649289D01*
X34338322Y27707304D01*
X34351297Y27731579D01*
X34411826Y27763932D01*
X34450693Y27795829D01*
X34520452Y27758542D01*
X34677096Y27711025D01*
X34840000Y27694980D01*
X35002903Y27711025D01*
X35159547Y27758542D01*
X35303911Y27835706D01*
X35430448Y27939552D01*
X35534294Y28066088D01*
X35611458Y28210452D01*
X35658975Y28367096D01*
X35671000Y28489185D01*
X35671000Y28784494D01*
X35708252Y28907297D01*
X35725261Y29080002D01*
X35708251Y29252708D01*
X35671000Y29375506D01*
X35671000Y29670815D01*
X35658975Y29792904D01*
X35626788Y29899010D01*
X39063213Y29899010D01*
X39031026Y29792904D01*
X39019001Y29670815D01*
X39019001Y29375509D01*
X38981749Y29252708D01*
X38964739Y29080002D01*
X38981748Y28907297D01*
X39019000Y28784493D01*
X39019000Y28489186D01*
X39031025Y28367097D01*
X39078542Y28210453D01*
X39155706Y28066089D01*
X39259552Y27939552D01*
X39386088Y27835706D01*
X39530452Y27758542D01*
X39687096Y27711025D01*
X39850000Y27694980D01*
X40012903Y27711025D01*
X40169547Y27758542D01*
X40239307Y27795829D01*
X40278175Y27763932D01*
X40338702Y27731580D01*
X40351678Y27707304D01*
X40399289Y27649289D01*
X40457304Y27601678D01*
X40523492Y27566299D01*
X40595311Y27544513D01*
X40670000Y27537157D01*
X40962728Y27537157D01*
X41018815Y27468815D01*
X41115506Y27389463D01*
X41225820Y27330498D01*
X41345518Y27294188D01*
X41470000Y27281928D01*
X41484250Y27285000D01*
X41643000Y27443750D01*
X41643000Y27837112D01*
X41645487Y27845311D01*
X41652843Y27920000D01*
X41652843Y28565450D01*
X41655261Y28589999D01*
X41652843Y28614548D01*
X41652843Y28647000D01*
X41887157Y28647000D01*
X41887157Y27920000D01*
X41894513Y27845311D01*
X41897000Y27837112D01*
X41897000Y27443750D01*
X42055750Y27285000D01*
X42070000Y27281928D01*
X42194482Y27294188D01*
X42314180Y27330498D01*
X42424494Y27389463D01*
X42461482Y27419819D01*
X42396506Y27322574D01*
X42345171Y27198640D01*
X42319000Y27067073D01*
X42319000Y26932927D01*
X42345171Y26801360D01*
X42396506Y26677426D01*
X42471033Y26565888D01*
X42565888Y26471033D01*
X42677426Y26396506D01*
X42801360Y26345171D01*
X42932927Y26319000D01*
X43067073Y26319000D01*
X43198640Y26345171D01*
X43322574Y26396506D01*
X43434112Y26471033D01*
X43528967Y26565888D01*
X43559709Y26611897D01*
X43594529Y26640473D01*
X43610378Y26659785D01*
X44039593Y27088999D01*
X44695410Y27088999D01*
X44819000Y26965409D01*
X44819000Y26932927D01*
X44845171Y26801360D01*
X44896506Y26677426D01*
X44971033Y26565888D01*
X45065888Y26471033D01*
X45177426Y26396506D01*
X45301360Y26345171D01*
X45432927Y26319000D01*
X45567073Y26319000D01*
X45698640Y26345171D01*
X45822574Y26396506D01*
X45934112Y26471033D01*
X46028967Y26565888D01*
X46103494Y26677426D01*
X46154829Y26801360D01*
X46181000Y26932927D01*
X46181000Y27067073D01*
X46154829Y27198640D01*
X46110902Y27304689D01*
X46145518Y27294188D01*
X46270000Y27281928D01*
X46284250Y27285000D01*
X46443000Y27443750D01*
X46443000Y27837112D01*
X46445487Y27845311D01*
X46452843Y27920000D01*
X46452843Y28647000D01*
X46687157Y28647000D01*
X46687157Y28594550D01*
X46684739Y28570001D01*
X46687157Y28545452D01*
X46687157Y27920000D01*
X46694513Y27845311D01*
X46697000Y27837112D01*
X46697000Y27443750D01*
X46855750Y27285000D01*
X46870000Y27281928D01*
X46994482Y27294188D01*
X47114180Y27330498D01*
X47224494Y27389463D01*
X47321185Y27468815D01*
X47377272Y27537157D01*
X47670000Y27537157D01*
X47744689Y27544513D01*
X47816508Y27566299D01*
X47882696Y27601678D01*
X47940711Y27649289D01*
X47988322Y27707304D01*
X48001297Y27731579D01*
X48061826Y27763932D01*
X48100693Y27795829D01*
X48170452Y27758542D01*
X48327096Y27711025D01*
X48490000Y27694980D01*
X48652903Y27711025D01*
X48809547Y27758542D01*
X48953911Y27835706D01*
X49080448Y27939552D01*
X49184294Y28066088D01*
X49261458Y28210452D01*
X49308975Y28367096D01*
X49321000Y28489185D01*
X49321000Y28784492D01*
X49358252Y28907294D01*
X49375262Y29080000D01*
X49358252Y29252706D01*
X49321000Y29375508D01*
X49321000Y29670815D01*
X49308975Y29792904D01*
X49276788Y29899010D01*
X53033213Y29899010D01*
X53001026Y29792904D01*
X52989001Y29670815D01*
X52989001Y29375509D01*
X52951749Y29252708D01*
X52934739Y29080002D01*
X52951748Y28907297D01*
X52989000Y28784493D01*
X52989000Y28489186D01*
X53001025Y28367097D01*
X53048542Y28210453D01*
X53125706Y28066089D01*
X53229552Y27939552D01*
X53356088Y27835706D01*
X53500452Y27758542D01*
X53657096Y27711025D01*
X53820000Y27694980D01*
X53982903Y27711025D01*
X54139547Y27758542D01*
X54209307Y27795829D01*
X54248175Y27763932D01*
X54308702Y27731580D01*
X54321678Y27707304D01*
X54369289Y27649289D01*
X54427304Y27601678D01*
X54493492Y27566299D01*
X54565311Y27544513D01*
X54640000Y27537157D01*
X54932728Y27537157D01*
X54988815Y27468815D01*
X55085506Y27389463D01*
X55195820Y27330498D01*
X55315518Y27294188D01*
X55440000Y27281928D01*
X55454250Y27285000D01*
X55613000Y27443750D01*
X55613000Y27837112D01*
X55615487Y27845311D01*
X55622843Y27920000D01*
X55622843Y28565450D01*
X55625261Y28589999D01*
X55622843Y28614548D01*
X55622843Y28647000D01*
X55857157Y28647000D01*
X55857157Y27920000D01*
X55864513Y27845311D01*
X55867000Y27837112D01*
X55867000Y27443750D01*
X56025750Y27285000D01*
X56040000Y27281928D01*
X56164482Y27294188D01*
X56284180Y27330498D01*
X56394494Y27389463D01*
X56491185Y27468815D01*
X56547911Y27537936D01*
X56584740Y27541563D01*
X56565888Y27528967D01*
X56471033Y27434112D01*
X56396506Y27322574D01*
X56345171Y27198640D01*
X56319000Y27067073D01*
X56319000Y26932927D01*
X56345171Y26801360D01*
X56396506Y26677426D01*
X56471033Y26565888D01*
X56565888Y26471033D01*
X56677426Y26396506D01*
X56801360Y26345171D01*
X56932927Y26319000D01*
X57067073Y26319000D01*
X57198640Y26345171D01*
X57322574Y26396506D01*
X57434112Y26471033D01*
X57528967Y26565888D01*
X57603494Y26677426D01*
X57654829Y26801360D01*
X57681000Y26932927D01*
X57681000Y26965408D01*
X57802378Y27086786D01*
X57824847Y27088999D01*
X57824855Y27088999D01*
X57890000Y27095415D01*
X57955145Y27088999D01*
X57979999Y27086551D01*
X58004853Y27088999D01*
X58294001Y27088999D01*
X58294002Y23484855D01*
X58291554Y23459999D01*
X58301323Y23360807D01*
X58330256Y23265425D01*
X58330257Y23265424D01*
X58377243Y23177520D01*
X58440475Y23100472D01*
X58459782Y23084627D01*
X60913047Y20631361D01*
X60910543Y20625316D01*
X60869000Y20416469D01*
X60869000Y20203531D01*
X60910543Y19994684D01*
X60992031Y19797955D01*
X61110333Y19620903D01*
X61260903Y19470333D01*
X61437955Y19352031D01*
X61634684Y19270543D01*
X61843531Y19229000D01*
X62056469Y19229000D01*
X62265316Y19270543D01*
X62271360Y19273046D01*
X62309776Y19234630D01*
X62309782Y19234625D01*
X65078999Y16465407D01*
X65079000Y15864855D01*
X65076552Y15839999D01*
X65086321Y15740807D01*
X65115254Y15645425D01*
X65115255Y15645424D01*
X65162241Y15557520D01*
X65225473Y15480472D01*
X65244780Y15464627D01*
X65299622Y15409785D01*
X65315471Y15390473D01*
X65392519Y15327241D01*
X65480423Y15280255D01*
X65527157Y15266079D01*
X65527157Y15100000D01*
X65534513Y15025311D01*
X65542191Y15000000D01*
X65534513Y14974689D01*
X65527936Y14907911D01*
X65458815Y14851185D01*
X65379463Y14754494D01*
X65320498Y14644180D01*
X65284188Y14524482D01*
X65271928Y14400000D01*
X65275000Y14385750D01*
X65433750Y14227000D01*
X65827112Y14227000D01*
X65835311Y14224513D01*
X65910000Y14217157D01*
X66637000Y14217157D01*
X66637000Y13982843D01*
X66604548Y13982843D01*
X66579999Y13985261D01*
X66555450Y13982843D01*
X65910000Y13982843D01*
X65835311Y13975487D01*
X65827112Y13973000D01*
X65433750Y13973000D01*
X65275000Y13814250D01*
X65271928Y13800000D01*
X65284188Y13675518D01*
X65320498Y13555820D01*
X65379463Y13445506D01*
X65458815Y13348815D01*
X65527157Y13292728D01*
X65527157Y13000000D01*
X65534513Y12925311D01*
X65556299Y12853492D01*
X65591678Y12787304D01*
X65639289Y12729289D01*
X65697304Y12681678D01*
X65721579Y12668703D01*
X65753932Y12608174D01*
X65785829Y12569307D01*
X65748542Y12499548D01*
X65701025Y12342904D01*
X65684980Y12180000D01*
X65701025Y12017096D01*
X65748542Y11860452D01*
X65825706Y11716088D01*
X65929552Y11589552D01*
X66056088Y11485706D01*
X66200452Y11408542D01*
X66357096Y11361025D01*
X66479185Y11349000D01*
X66774494Y11349000D01*
X66897297Y11311748D01*
X67070002Y11294739D01*
X67242708Y11311749D01*
X67365506Y11349000D01*
X67660815Y11349000D01*
X67782904Y11361025D01*
X67939548Y11408542D01*
X68083912Y11485706D01*
X68210448Y11589552D01*
X68314294Y11716088D01*
X68391458Y11860452D01*
X68438975Y12017096D01*
X68455020Y12180000D01*
X70004980Y12180000D01*
X70021025Y12017096D01*
X70068542Y11860452D01*
X70145706Y11716088D01*
X70249552Y11589552D01*
X70376088Y11485706D01*
X70520452Y11408542D01*
X70677096Y11361025D01*
X70799185Y11349000D01*
X71680815Y11349000D01*
X71802904Y11361025D01*
X71959548Y11408542D01*
X72103912Y11485706D01*
X72230448Y11589552D01*
X72334294Y11716088D01*
X72411458Y11860452D01*
X72458975Y12017096D01*
X72475020Y12180000D01*
X72458975Y12342904D01*
X72411458Y12499548D01*
X72334294Y12643912D01*
X72230448Y12770448D01*
X72103912Y12874294D01*
X71959548Y12951458D01*
X71802904Y12998975D01*
X71680815Y13011000D01*
X70799185Y13011000D01*
X70677096Y12998975D01*
X70520452Y12951458D01*
X70376088Y12874294D01*
X70249552Y12770448D01*
X70145706Y12643912D01*
X70068542Y12499548D01*
X70021025Y12342904D01*
X70004980Y12180000D01*
X68455020Y12180000D01*
X68438975Y12342904D01*
X68391458Y12499548D01*
X68314294Y12643912D01*
X68210448Y12770448D01*
X68083912Y12874294D01*
X67939548Y12951458D01*
X67876162Y12970686D01*
X67859836Y13001230D01*
X67872574Y13006506D01*
X67984112Y13081033D01*
X68078967Y13175888D01*
X68153494Y13287426D01*
X68204829Y13411360D01*
X68231000Y13542927D01*
X68231000Y13677073D01*
X68204829Y13808640D01*
X68153494Y13932574D01*
X68078967Y14044112D01*
X67984112Y14138967D01*
X67872574Y14213494D01*
X67748640Y14264829D01*
X67617073Y14291000D01*
X67610250Y14291000D01*
X67705000Y14385750D01*
X67708072Y14400000D01*
X67695812Y14524482D01*
X67659502Y14644180D01*
X67600537Y14754494D01*
X67521185Y14851185D01*
X67452064Y14907911D01*
X67445487Y14974689D01*
X67437809Y15000000D01*
X67445487Y15025311D01*
X67452843Y15100000D01*
X67452843Y15400000D01*
X67445487Y15474689D01*
X67437809Y15500000D01*
X67445487Y15525311D01*
X67452843Y15600000D01*
X67452843Y15766079D01*
X67499577Y15780255D01*
X67587481Y15827241D01*
X67664529Y15890473D01*
X67680378Y15909785D01*
X67735216Y15964623D01*
X67754528Y15980472D01*
X67817760Y16057520D01*
X67864746Y16145424D01*
X67893679Y16240806D01*
X67901001Y16315145D01*
X67901001Y16315146D01*
X67903449Y16339999D01*
X67901001Y16364853D01*
X67901001Y17135147D01*
X67903449Y17160001D01*
X67897565Y17219744D01*
X67893679Y17259194D01*
X67864746Y17354576D01*
X67817760Y17442480D01*
X67754528Y17519528D01*
X67735216Y17535377D01*
X67680378Y17590215D01*
X67664529Y17609527D01*
X67587481Y17672759D01*
X67499577Y17719745D01*
X67452843Y17733921D01*
X67452843Y17900000D01*
X67445487Y17974689D01*
X67437809Y18000000D01*
X67445487Y18025311D01*
X67452064Y18092089D01*
X67521185Y18148815D01*
X67600537Y18245506D01*
X67659502Y18355820D01*
X67695812Y18475518D01*
X67708072Y18600000D01*
X67705000Y18614250D01*
X67610250Y18709000D01*
X67617073Y18709000D01*
X67748640Y18735171D01*
X67872574Y18786506D01*
X67984112Y18861033D01*
X68078967Y18955888D01*
X68153494Y19067426D01*
X68204829Y19191360D01*
X68231000Y19322927D01*
X68231000Y19457073D01*
X68204829Y19588640D01*
X68153494Y19712574D01*
X68078967Y19824112D01*
X67984112Y19918967D01*
X67872574Y19993494D01*
X67859836Y19998770D01*
X67876162Y20029314D01*
X67939548Y20048542D01*
X68083912Y20125706D01*
X68210448Y20229552D01*
X68314294Y20356088D01*
X68391458Y20500452D01*
X68438975Y20657096D01*
X68455020Y20820000D01*
X70004980Y20820000D01*
X70021025Y20657096D01*
X70068542Y20500452D01*
X70145706Y20356088D01*
X70249552Y20229552D01*
X70376088Y20125706D01*
X70520452Y20048542D01*
X70677096Y20001025D01*
X70799185Y19989000D01*
X71680815Y19989000D01*
X71802904Y20001025D01*
X71959548Y20048542D01*
X72103912Y20125706D01*
X72230448Y20229552D01*
X72334294Y20356088D01*
X72411458Y20500452D01*
X72458975Y20657096D01*
X72475020Y20820000D01*
X72458975Y20982904D01*
X72411458Y21139548D01*
X72334294Y21283912D01*
X72230448Y21410448D01*
X72103912Y21514294D01*
X71959548Y21591458D01*
X71802904Y21638975D01*
X71680815Y21651000D01*
X70799185Y21651000D01*
X70677096Y21638975D01*
X70520452Y21591458D01*
X70376088Y21514294D01*
X70249552Y21410448D01*
X70145706Y21283912D01*
X70068542Y21139548D01*
X70021025Y20982904D01*
X70004980Y20820000D01*
X68455020Y20820000D01*
X68438975Y20982904D01*
X68391458Y21139548D01*
X68314294Y21283912D01*
X68210448Y21410448D01*
X68083912Y21514294D01*
X67939548Y21591458D01*
X67782904Y21638975D01*
X67660815Y21651000D01*
X67365507Y21651000D01*
X67242705Y21688252D01*
X67070000Y21705262D01*
X66897294Y21688252D01*
X66774492Y21651000D01*
X66479185Y21651000D01*
X66357096Y21638975D01*
X66200452Y21591458D01*
X66056088Y21514294D01*
X65929552Y21410448D01*
X65825706Y21283912D01*
X65748542Y21139548D01*
X65701025Y20982904D01*
X65684980Y20820000D01*
X65701025Y20657096D01*
X65748542Y20500452D01*
X65785829Y20430693D01*
X65753932Y20391826D01*
X65721579Y20331297D01*
X65697304Y20318322D01*
X65639289Y20270711D01*
X65591678Y20212696D01*
X65556299Y20146508D01*
X65534513Y20074689D01*
X65527157Y20000000D01*
X65527157Y19707272D01*
X65458815Y19651185D01*
X65379463Y19554494D01*
X65320498Y19444180D01*
X65284188Y19324482D01*
X65271928Y19200000D01*
X65275000Y19185750D01*
X65433750Y19027000D01*
X65827112Y19027000D01*
X65835311Y19024513D01*
X65910000Y19017157D01*
X66555450Y19017157D01*
X66579999Y19014739D01*
X66604548Y19017157D01*
X66637000Y19017157D01*
X66637000Y18782843D01*
X65910000Y18782843D01*
X65835311Y18775487D01*
X65827112Y18773000D01*
X65433750Y18773000D01*
X65275000Y18614250D01*
X65271928Y18600000D01*
X65284188Y18475518D01*
X65320498Y18355820D01*
X65378748Y18246844D01*
X64506000Y19119591D01*
X64506000Y22042921D01*
X64528967Y22065888D01*
X64603494Y22177426D01*
X64654829Y22301360D01*
X64681000Y22432927D01*
X64681000Y22567073D01*
X64654829Y22698640D01*
X64603494Y22822574D01*
X64528967Y22934112D01*
X64434112Y23028967D01*
X64322574Y23103494D01*
X64198640Y23154829D01*
X64067073Y23181000D01*
X63932927Y23181000D01*
X63801360Y23154829D01*
X63677426Y23103494D01*
X63565888Y23028967D01*
X63471033Y22934112D01*
X63396506Y22822574D01*
X63345171Y22698640D01*
X63319000Y22567073D01*
X63319000Y22432927D01*
X63345171Y22301360D01*
X63396506Y22177426D01*
X63471033Y22065888D01*
X63494001Y22042920D01*
X63494000Y19481589D01*
X63025374Y19950215D01*
X63025369Y19950221D01*
X62986952Y19988638D01*
X62989457Y19994684D01*
X63031000Y20203531D01*
X63031000Y20416469D01*
X62989457Y20625316D01*
X62907969Y20822045D01*
X62789667Y20999097D01*
X62639097Y21149667D01*
X62462045Y21267969D01*
X62265316Y21349457D01*
X62056469Y21391000D01*
X61843531Y21391000D01*
X61634684Y21349457D01*
X61628639Y21346953D01*
X59306001Y23669590D01*
X59306001Y27394284D01*
X59312759Y27402519D01*
X59359745Y27490423D01*
X59373921Y27537157D01*
X59540000Y27537157D01*
X59614689Y27544513D01*
X59640000Y27552191D01*
X59665311Y27544513D01*
X59732089Y27537936D01*
X59788815Y27468815D01*
X59885506Y27389463D01*
X59995820Y27330498D01*
X60115518Y27294188D01*
X60240000Y27281928D01*
X60254250Y27285000D01*
X60413000Y27443750D01*
X60413000Y27837112D01*
X60415487Y27845311D01*
X60422843Y27920000D01*
X60422843Y28647000D01*
X60657157Y28647000D01*
X60657157Y28564550D01*
X60654739Y28540001D01*
X60657157Y28515452D01*
X60657157Y27920000D01*
X60664513Y27845311D01*
X60667000Y27837112D01*
X60667000Y27443750D01*
X60825750Y27285000D01*
X60840000Y27281928D01*
X60964482Y27294188D01*
X61084180Y27330498D01*
X61194494Y27389463D01*
X61291185Y27468815D01*
X61347272Y27537157D01*
X61640000Y27537157D01*
X61714689Y27544513D01*
X61786508Y27566299D01*
X61852696Y27601678D01*
X61910711Y27649289D01*
X61958322Y27707304D01*
X61971297Y27731579D01*
X62031826Y27763932D01*
X62070693Y27795829D01*
X62140452Y27758542D01*
X62297096Y27711025D01*
X62460000Y27694980D01*
X62622903Y27711025D01*
X62779547Y27758542D01*
X62923911Y27835706D01*
X63050448Y27939552D01*
X63154294Y28066088D01*
X63231458Y28210452D01*
X63278975Y28367096D01*
X63291000Y28489185D01*
X63291000Y28784492D01*
X63328252Y28907294D01*
X63345262Y29080000D01*
X63328252Y29252706D01*
X63291000Y29375508D01*
X63291000Y29670815D01*
X63278975Y29792904D01*
X63231458Y29949548D01*
X63154294Y30093912D01*
X63050448Y30220448D01*
X62923912Y30324294D01*
X62779548Y30401458D01*
X62622904Y30448975D01*
X62460000Y30465020D01*
X62297097Y30448975D01*
X62140453Y30401458D01*
X61996089Y30324294D01*
X61869553Y30220448D01*
X61765707Y30093912D01*
X61688543Y29949548D01*
X61659640Y29854267D01*
X61647833Y29847956D01*
X61633494Y29882574D01*
X61558967Y29994112D01*
X61464112Y30088967D01*
X61352574Y30163494D01*
X61228640Y30214829D01*
X61097073Y30241000D01*
X60962927Y30241000D01*
X60831360Y30214829D01*
X60707426Y30163494D01*
X60595888Y30088967D01*
X60501033Y29994112D01*
X60426506Y29882574D01*
X60375171Y29758640D01*
X60349000Y29627073D01*
X60349000Y29620250D01*
X60254250Y29715000D01*
X60240000Y29718072D01*
X60115518Y29705812D01*
X59995820Y29669502D01*
X59885506Y29610537D01*
X59788815Y29531185D01*
X59732089Y29462064D01*
X59665311Y29455487D01*
X59640000Y29447809D01*
X59614689Y29455487D01*
X59540000Y29462843D01*
X59240000Y29462843D01*
X59171708Y29456117D01*
X59534592Y29819000D01*
X59567073Y29819000D01*
X59698640Y29845171D01*
X59822574Y29896506D01*
X59934112Y29971033D01*
X60028967Y30065888D01*
X60103494Y30177426D01*
X60154829Y30301360D01*
X60181000Y30432927D01*
X60181000Y30567073D01*
X60154829Y30698640D01*
X60103494Y30822574D01*
X60028967Y30934112D01*
X59934112Y31028967D01*
X59822574Y31103494D01*
X59698640Y31154829D01*
X59567073Y31181000D01*
X59432927Y31181000D01*
X59301360Y31154829D01*
X59177426Y31103494D01*
X59065888Y31028967D01*
X58971033Y30934112D01*
X58896506Y30822574D01*
X58845171Y30698640D01*
X58819000Y30567073D01*
X58819000Y30534592D01*
X58195410Y29911001D01*
X57509593Y29911001D01*
X56675368Y30745225D01*
X56659519Y30764537D01*
X56582471Y30827769D01*
X56494567Y30874755D01*
X56399185Y30903688D01*
X56324846Y30911010D01*
X56324838Y30911010D01*
X56299992Y30913457D01*
X56275146Y30911010D01*
X45354855Y30911010D01*
X45330009Y30913457D01*
X45305163Y30911010D01*
X45305156Y30911010D01*
X45240704Y30904662D01*
X45230816Y30903688D01*
X45208617Y30896954D01*
X45135435Y30874755D01*
X45047531Y30827769D01*
X44970483Y30764537D01*
X44954638Y30745230D01*
X44574851Y30365442D01*
X44528967Y30434112D01*
X44434112Y30528967D01*
X44322574Y30603494D01*
X44198640Y30654829D01*
X44067073Y30681000D01*
X43932927Y30681000D01*
X43801360Y30654829D01*
X43677426Y30603494D01*
X43565888Y30528967D01*
X43471033Y30434112D01*
X43396506Y30322574D01*
X43345171Y30198640D01*
X43329705Y30120889D01*
X42705368Y30745225D01*
X42689519Y30764537D01*
X42612471Y30827769D01*
X42524567Y30874755D01*
X42429185Y30903688D01*
X42354846Y30911010D01*
X42354838Y30911010D01*
X42329992Y30913457D01*
X42305146Y30911010D01*
X31869864Y30911010D01*
X31845010Y30913458D01*
X31820156Y30911010D01*
X31745817Y30903688D01*
X31650435Y30874755D01*
X31562531Y30827769D01*
X31485483Y30764537D01*
X31469638Y30745230D01*
X30635410Y29911001D01*
X29889593Y29911001D01*
X29055368Y30745225D01*
X29039519Y30764537D01*
X28962471Y30827769D01*
X28874567Y30874755D01*
X28779185Y30903688D01*
X28704846Y30911010D01*
X28704838Y30911010D01*
X28679992Y30913457D01*
X28655146Y30911010D01*
X17414855Y30911010D01*
X17390009Y30913457D01*
X17365163Y30911010D01*
X17365156Y30911010D01*
X17300704Y30904662D01*
X17290816Y30903688D01*
X17268617Y30896954D01*
X17195435Y30874755D01*
X17107531Y30827769D01*
X17030483Y30764537D01*
X17014638Y30745230D01*
X16180410Y29911001D01*
X15579846Y29911001D01*
X15555000Y29913448D01*
X15530154Y29911001D01*
X15530147Y29911001D01*
X15455808Y29903679D01*
X15360426Y29874746D01*
X15272522Y29827760D01*
X15195474Y29764528D01*
X15179625Y29745216D01*
X15139781Y29705372D01*
X15120474Y29689527D01*
X15057242Y29612479D01*
X15049225Y29597480D01*
X15010255Y29524574D01*
X14991530Y29462843D01*
X14830000Y29462843D01*
X14755311Y29455487D01*
X14730000Y29447809D01*
X14704689Y29455487D01*
X14637911Y29462064D01*
X14581185Y29531185D01*
X14484494Y29610537D01*
X14374180Y29669502D01*
X14254482Y29705812D01*
X14130000Y29718072D01*
X14115750Y29715000D01*
X14021000Y29620250D01*
X14021000Y29627073D01*
X13994829Y29758640D01*
X13943494Y29882574D01*
X13868967Y29994112D01*
X13774112Y30088967D01*
X13662574Y30163494D01*
X13538640Y30214829D01*
X13407073Y30241000D01*
X13272927Y30241000D01*
X13141360Y30214829D01*
X13017426Y30163494D01*
X12905888Y30088967D01*
X12811033Y29994112D01*
X12736506Y29882574D01*
X12731230Y29869836D01*
X12700686Y29886161D01*
X12681458Y29949548D01*
X12604294Y30093912D01*
X12500448Y30220448D01*
X12373912Y30324294D01*
X12229548Y30401458D01*
X12072904Y30448975D01*
X11910000Y30465020D01*
X11747097Y30448975D01*
X11590453Y30401458D01*
X11446089Y30324294D01*
X11319553Y30220448D01*
X11215707Y30093912D01*
X11138543Y29949548D01*
X11091026Y29792904D01*
X11079001Y29670815D01*
X11079001Y29375509D01*
X11041749Y29252708D01*
X11024739Y29080002D01*
X406000Y29080002D01*
X406000Y31980147D01*
X427077Y32195111D01*
X2019000Y32195111D01*
X2019000Y31804889D01*
X2095129Y31422164D01*
X2244461Y31061645D01*
X2461257Y30737186D01*
X2737186Y30461257D01*
X3061645Y30244461D01*
X3422164Y30095129D01*
X3804889Y30019000D01*
X4195111Y30019000D01*
X4577836Y30095129D01*
X4938355Y30244461D01*
X5262814Y30461257D01*
X5538743Y30737186D01*
X5755539Y31061645D01*
X5904871Y31422164D01*
X5981000Y31804889D01*
X5981000Y32195111D01*
X5904871Y32577836D01*
X5755539Y32938355D01*
X5538743Y33262814D01*
X5262814Y33538743D01*
X5035222Y33690815D01*
X11079000Y33690815D01*
X11079000Y32809186D01*
X11091025Y32687097D01*
X11138542Y32530453D01*
X11215706Y32386089D01*
X11319552Y32259552D01*
X11446088Y32155706D01*
X11590452Y32078542D01*
X11747096Y32031025D01*
X11910000Y32014980D01*
X12072903Y32031025D01*
X12229547Y32078542D01*
X12373911Y32155706D01*
X12500448Y32259552D01*
X12604294Y32386088D01*
X12681458Y32530452D01*
X12728975Y32687096D01*
X12741000Y32809185D01*
X12741000Y33690815D01*
X19719000Y33690815D01*
X19719000Y32809186D01*
X19731025Y32687097D01*
X19778542Y32530453D01*
X19855706Y32386089D01*
X19959552Y32259552D01*
X20086088Y32155706D01*
X20230452Y32078542D01*
X20387096Y32031025D01*
X20550000Y32014980D01*
X20712903Y32031025D01*
X20869547Y32078542D01*
X21013911Y32155706D01*
X21140448Y32259552D01*
X21244294Y32386088D01*
X21321458Y32530452D01*
X21368975Y32687096D01*
X21381000Y32809185D01*
X21381000Y33690815D01*
X25369000Y33690815D01*
X25369000Y32809186D01*
X25381025Y32687097D01*
X25428542Y32530453D01*
X25505706Y32386089D01*
X25609552Y32259552D01*
X25736088Y32155706D01*
X25880452Y32078542D01*
X26037096Y32031025D01*
X26200000Y32014980D01*
X26362903Y32031025D01*
X26519547Y32078542D01*
X26663911Y32155706D01*
X26790448Y32259552D01*
X26894294Y32386088D01*
X26971458Y32530452D01*
X27018975Y32687096D01*
X27031000Y32809185D01*
X27031000Y33690815D01*
X34009000Y33690815D01*
X34009000Y32809186D01*
X34021025Y32687097D01*
X34068542Y32530453D01*
X34145706Y32386089D01*
X34249552Y32259552D01*
X34376088Y32155706D01*
X34520452Y32078542D01*
X34677096Y32031025D01*
X34840000Y32014980D01*
X35002903Y32031025D01*
X35159547Y32078542D01*
X35303911Y32155706D01*
X35430448Y32259552D01*
X35534294Y32386088D01*
X35611458Y32530452D01*
X35658975Y32687096D01*
X35671000Y32809185D01*
X35671000Y33690815D01*
X39019000Y33690815D01*
X39019000Y32809186D01*
X39031025Y32687097D01*
X39078542Y32530453D01*
X39155706Y32386089D01*
X39259552Y32259552D01*
X39386088Y32155706D01*
X39530452Y32078542D01*
X39687096Y32031025D01*
X39850000Y32014980D01*
X40012903Y32031025D01*
X40169547Y32078542D01*
X40313911Y32155706D01*
X40440448Y32259552D01*
X40544294Y32386088D01*
X40621458Y32530452D01*
X40668975Y32687096D01*
X40681000Y32809185D01*
X40681000Y33690815D01*
X47659000Y33690815D01*
X47659000Y32809186D01*
X47671025Y32687097D01*
X47718542Y32530453D01*
X47795706Y32386089D01*
X47899552Y32259552D01*
X48026088Y32155706D01*
X48170452Y32078542D01*
X48327096Y32031025D01*
X48490000Y32014980D01*
X48652903Y32031025D01*
X48809547Y32078542D01*
X48953911Y32155706D01*
X49080448Y32259552D01*
X49184294Y32386088D01*
X49261458Y32530452D01*
X49308975Y32687096D01*
X49321000Y32809185D01*
X49321000Y33690815D01*
X52989000Y33690815D01*
X52989000Y32809186D01*
X53001025Y32687097D01*
X53048542Y32530453D01*
X53125706Y32386089D01*
X53229552Y32259552D01*
X53356088Y32155706D01*
X53500452Y32078542D01*
X53657096Y32031025D01*
X53820000Y32014980D01*
X53982903Y32031025D01*
X54139547Y32078542D01*
X54283911Y32155706D01*
X54410448Y32259552D01*
X54514294Y32386088D01*
X54591458Y32530452D01*
X54638975Y32687096D01*
X54651000Y32809185D01*
X54651000Y33690815D01*
X61629000Y33690815D01*
X61629000Y32809186D01*
X61641025Y32687097D01*
X61688542Y32530453D01*
X61765706Y32386089D01*
X61869552Y32259552D01*
X61996088Y32155706D01*
X62140452Y32078542D01*
X62297096Y32031025D01*
X62460000Y32014980D01*
X62622903Y32031025D01*
X62779547Y32078542D01*
X62923911Y32155706D01*
X62971926Y32195111D01*
X68019000Y32195111D01*
X68019000Y31804889D01*
X68095129Y31422164D01*
X68244461Y31061645D01*
X68461257Y30737186D01*
X68737186Y30461257D01*
X69061645Y30244461D01*
X69422164Y30095129D01*
X69804889Y30019000D01*
X70195111Y30019000D01*
X70577836Y30095129D01*
X70938355Y30244461D01*
X71262814Y30461257D01*
X71538743Y30737186D01*
X71755539Y31061645D01*
X71904871Y31422164D01*
X71981000Y31804889D01*
X71981000Y32195111D01*
X71904871Y32577836D01*
X71755539Y32938355D01*
X71538743Y33262814D01*
X71262814Y33538743D01*
X70938355Y33755539D01*
X70577836Y33904871D01*
X70195111Y33981000D01*
X69804889Y33981000D01*
X69422164Y33904871D01*
X69061645Y33755539D01*
X68737186Y33538743D01*
X68461257Y33262814D01*
X68244461Y32938355D01*
X68095129Y32577836D01*
X68019000Y32195111D01*
X62971926Y32195111D01*
X63050448Y32259552D01*
X63154294Y32386088D01*
X63231458Y32530452D01*
X63278975Y32687096D01*
X63291000Y32809185D01*
X63291000Y33690815D01*
X63278975Y33812904D01*
X63231458Y33969548D01*
X63154294Y34113912D01*
X63050448Y34240448D01*
X62923912Y34344294D01*
X62779548Y34421458D01*
X62622904Y34468975D01*
X62460000Y34485020D01*
X62297097Y34468975D01*
X62140453Y34421458D01*
X61996089Y34344294D01*
X61869553Y34240448D01*
X61765707Y34113912D01*
X61688543Y33969548D01*
X61641026Y33812904D01*
X61629000Y33690815D01*
X54651000Y33690815D01*
X54638975Y33812904D01*
X54591458Y33969548D01*
X54514294Y34113912D01*
X54410448Y34240448D01*
X54283912Y34344294D01*
X54139548Y34421458D01*
X53982904Y34468975D01*
X53820000Y34485020D01*
X53657097Y34468975D01*
X53500453Y34421458D01*
X53356089Y34344294D01*
X53229553Y34240448D01*
X53125707Y34113912D01*
X53048543Y33969548D01*
X53001026Y33812904D01*
X52989000Y33690815D01*
X49321000Y33690815D01*
X49308975Y33812904D01*
X49261458Y33969548D01*
X49184294Y34113912D01*
X49080448Y34240448D01*
X48953912Y34344294D01*
X48809548Y34421458D01*
X48652904Y34468975D01*
X48490000Y34485020D01*
X48327097Y34468975D01*
X48170453Y34421458D01*
X48026089Y34344294D01*
X47899553Y34240448D01*
X47795707Y34113912D01*
X47718543Y33969548D01*
X47671026Y33812904D01*
X47659000Y33690815D01*
X40681000Y33690815D01*
X40668975Y33812904D01*
X40621458Y33969548D01*
X40544294Y34113912D01*
X40440448Y34240448D01*
X40313912Y34344294D01*
X40169548Y34421458D01*
X40012904Y34468975D01*
X39850000Y34485020D01*
X39687097Y34468975D01*
X39530453Y34421458D01*
X39386089Y34344294D01*
X39259553Y34240448D01*
X39155707Y34113912D01*
X39078543Y33969548D01*
X39031026Y33812904D01*
X39019000Y33690815D01*
X35671000Y33690815D01*
X35658975Y33812904D01*
X35611458Y33969548D01*
X35534294Y34113912D01*
X35430448Y34240448D01*
X35303912Y34344294D01*
X35159548Y34421458D01*
X35002904Y34468975D01*
X34840000Y34485020D01*
X34677097Y34468975D01*
X34520453Y34421458D01*
X34376089Y34344294D01*
X34249553Y34240448D01*
X34145707Y34113912D01*
X34068543Y33969548D01*
X34021026Y33812904D01*
X34009000Y33690815D01*
X27031000Y33690815D01*
X27018975Y33812904D01*
X26971458Y33969548D01*
X26894294Y34113912D01*
X26790448Y34240448D01*
X26663912Y34344294D01*
X26519548Y34421458D01*
X26362904Y34468975D01*
X26200000Y34485020D01*
X26037097Y34468975D01*
X25880453Y34421458D01*
X25736089Y34344294D01*
X25609553Y34240448D01*
X25505707Y34113912D01*
X25428543Y33969548D01*
X25381026Y33812904D01*
X25369000Y33690815D01*
X21381000Y33690815D01*
X21368975Y33812904D01*
X21321458Y33969548D01*
X21244294Y34113912D01*
X21140448Y34240448D01*
X21013912Y34344294D01*
X20869548Y34421458D01*
X20712904Y34468975D01*
X20550000Y34485020D01*
X20387097Y34468975D01*
X20230453Y34421458D01*
X20086089Y34344294D01*
X19959553Y34240448D01*
X19855707Y34113912D01*
X19778543Y33969548D01*
X19731026Y33812904D01*
X19719000Y33690815D01*
X12741000Y33690815D01*
X12728975Y33812904D01*
X12681458Y33969548D01*
X12604294Y34113912D01*
X12500448Y34240448D01*
X12373912Y34344294D01*
X12229548Y34421458D01*
X12072904Y34468975D01*
X11910000Y34485020D01*
X11747097Y34468975D01*
X11590453Y34421458D01*
X11446089Y34344294D01*
X11319553Y34240448D01*
X11215707Y34113912D01*
X11138543Y33969548D01*
X11091026Y33812904D01*
X11079000Y33690815D01*
X5035222Y33690815D01*
X4938355Y33755539D01*
X4577836Y33904871D01*
X4195111Y33981000D01*
X3804889Y33981000D01*
X3422164Y33904871D01*
X3061645Y33755539D01*
X2737186Y33538743D01*
X2461257Y33262814D01*
X2244461Y32938355D01*
X2095129Y32577836D01*
X2019000Y32195111D01*
X427077Y32195111D01*
X476356Y32697696D01*
X678982Y33368824D01*
X1008102Y33987810D01*
X1451184Y34531084D01*
X1991347Y34977946D01*
X2608022Y35311381D01*
X3277716Y35518686D01*
X3994053Y35593976D01*
X4000834Y35594000D01*
X69980147Y35594000D01*
X70697696Y35523644D01*
G37*
%TD.AperFunction*%
%TD*%
D28*
X59500000Y30500000D03*
X8500000Y27000000D03*
X14500000Y27000000D03*
X44000000Y30000000D03*
X64000000Y22500000D03*
X15500000Y26500000D03*
X17500000Y27000000D03*
X29500000Y27000000D03*
X32000000Y27000000D03*
X43000000Y27000000D03*
X57000000Y27000000D03*
X45500000Y27000000D03*
X10000000Y18500000D03*
D29*
X70000000Y4000000D03*
X4000000Y4000000D03*
X70000000Y32000000D03*
X4000000Y32000000D03*
X56870000Y20310000D03*
X61950000Y20310000D03*
X50540000Y20310000D03*
X48000000Y20310000D03*
X47060000Y29560000D03*
X41280000Y29560000D03*
D30*
X39850000Y33250000D03*
X48490000Y33250000D03*
D31*
X39850000Y29080000D03*
X48490000Y29080000D03*
D29*
X61030000Y29560000D03*
X55250000Y29560000D03*
D30*
X53820000Y33250000D03*
X62460000Y33250000D03*
D31*
X53820000Y29080000D03*
X62460000Y29080000D03*
D29*
X33410000Y29560000D03*
X27630000Y29560000D03*
D30*
X26200000Y33250000D03*
X34840000Y33250000D03*
D31*
X26200000Y29080000D03*
X34840000Y29080000D03*
D29*
X19120000Y29560000D03*
X13340000Y29560000D03*
D30*
X11910000Y33250000D03*
X20550000Y33250000D03*
D31*
X11910000Y29080000D03*
X20550000Y29080000D03*
D29*
X67550000Y13610000D03*
X67550000Y19390000D03*
D32*
X71240000Y20820000D03*
X71240000Y12180000D03*
D33*
X67070000Y20820000D03*
X67070000Y12180000D03*
D29*
X6450000Y19390000D03*
X6450000Y13610000D03*
D32*
X2760000Y12180000D03*
X2760000Y20820000D03*
D33*
X6930000Y12180000D03*
X6930000Y20820000D03*
M02*
