M48
; DRILL file {KiCad (5.1.12)-1} date 03/20/22 11:52:16
; FORMAT={-:-/ absolute / metric / decimal}
; #@! TF.CreationDate,2022-03-20T11:52:16+09:00
; #@! TF.GenerationSoftware,Kicad,Pcbnew,(5.1.12)-1
; #@! TF.FileFunction,Plated,1,2,PTH
FMAT,2
METRIC
T1C0.300
T2C0.600
T3C0.700
T4C1.000
%
G90
G05
T1
X8.5Y27.0
X10.0Y18.5
X14.5Y27.0
X15.5Y26.5
X17.5Y27.0
X29.5Y27.0
X32.0Y27.0
X43.0Y27.0
X44.0Y30.0
X45.5Y27.0
X57.0Y27.0
X59.5Y30.5
X64.0Y22.5
T3
X56.87Y20.31
X61.95Y20.31
T4
X48.0Y20.31
X50.54Y20.31
T2
G00X2.36Y20.82
M15
G01X3.16Y20.82
M16
G05
G00X2.36Y12.18
M15
G01X3.16Y12.18
M16
G05
G00X6.38Y20.82
M15
G01X7.48Y20.82
M16
G05
G00X6.38Y12.18
M15
G01X7.48Y12.18
M16
G05
G00X11.91Y33.65
M15
G01X11.91Y32.85
M16
G05
G00X11.91Y29.63
M15
G01X11.91Y28.53
M16
G05
G00X20.55Y33.65
M15
G01X20.55Y32.85
M16
G05
G00X20.55Y29.63
M15
G01X20.55Y28.53
M16
G05
G00X26.2Y33.65
M15
G01X26.2Y32.85
M16
G05
G00X26.2Y29.63
M15
G01X26.2Y28.53
M16
G05
G00X34.84Y33.65
M15
G01X34.84Y32.85
M16
G05
G00X34.84Y29.63
M15
G01X34.84Y28.53
M16
G05
G00X39.85Y33.65
M15
G01X39.85Y32.85
M16
G05
G00X39.85Y29.63
M15
G01X39.85Y28.53
M16
G05
G00X48.49Y33.65
M15
G01X48.49Y32.85
M16
G05
G00X48.49Y29.63
M15
G01X48.49Y28.53
M16
G05
G00X53.82Y33.65
M15
G01X53.82Y32.85
M16
G05
G00X53.82Y29.63
M15
G01X53.82Y28.53
M16
G05
G00X62.46Y33.65
M15
G01X62.46Y32.85
M16
G05
G00X62.46Y29.63
M15
G01X62.46Y28.53
M16
G05
G00X67.62Y20.82
M15
G01X66.52Y20.82
M16
G05
G00X67.62Y12.18
M15
G01X66.52Y12.18
M16
G05
G00X71.64Y20.82
M15
G01X70.84Y20.82
M16
G05
G00X71.64Y12.18
M15
G01X70.84Y12.18
M16
G05
T0
M30
